G04 #@! TF.GenerationSoftware,KiCad,Pcbnew,6.0.7+dfsg-1build1*
G04 #@! TF.CreationDate,2022-12-04T12:15:17+01:00*
G04 #@! TF.ProjectId,rfm69w,72666d36-3977-42e6-9b69-6361645f7063,1*
G04 #@! TF.SameCoordinates,Original*
G04 #@! TF.FileFunction,Legend,Top*
G04 #@! TF.FilePolarity,Positive*
%FSLAX46Y46*%
G04 Gerber Fmt 4.6, Leading zero omitted, Abs format (unit mm)*
G04 Created by KiCad (PCBNEW 6.0.7+dfsg-1build1) date 2022-12-04 12:15:17*
%MOMM*%
%LPD*%
G01*
G04 APERTURE LIST*
G04 Aperture macros list*
%AMRoundRect*
0 Rectangle with rounded corners*
0 $1 Rounding radius*
0 $2 $3 $4 $5 $6 $7 $8 $9 X,Y pos of 4 corners*
0 Add a 4 corners polygon primitive as box body*
4,1,4,$2,$3,$4,$5,$6,$7,$8,$9,$2,$3,0*
0 Add four circle primitives for the rounded corners*
1,1,$1+$1,$2,$3*
1,1,$1+$1,$4,$5*
1,1,$1+$1,$6,$7*
1,1,$1+$1,$8,$9*
0 Add four rect primitives between the rounded corners*
20,1,$1+$1,$2,$3,$4,$5,0*
20,1,$1+$1,$4,$5,$6,$7,0*
20,1,$1+$1,$6,$7,$8,$9,0*
20,1,$1+$1,$8,$9,$2,$3,0*%
G04 Aperture macros list end*
%ADD10C,0.300000*%
%ADD11C,0.120000*%
%ADD12C,0.100000*%
%ADD13RoundRect,0.237500X0.237500X-0.300000X0.237500X0.300000X-0.237500X0.300000X-0.237500X-0.300000X0*%
%ADD14R,1.270000X3.600000*%
%ADD15R,1.350000X4.200000*%
%ADD16R,1.000000X2.500000*%
%ADD17RoundRect,0.237500X0.237500X-0.250000X0.237500X0.250000X-0.237500X0.250000X-0.237500X-0.250000X0*%
%ADD18R,1.000000X1.000000*%
%ADD19R,1.050000X2.200000*%
%ADD20R,1.700000X1.700000*%
%ADD21O,1.700000X1.700000*%
G04 APERTURE END LIST*
D10*
X89398822Y-68648468D02*
X89609871Y-67802500D01*
X88836486Y-68001575D02*
X89968550Y-67017486D01*
X90343441Y-67448749D01*
X90383256Y-67603426D01*
X90376209Y-67704195D01*
X90315255Y-67851825D01*
X90153532Y-67992409D01*
X89998855Y-68032224D01*
X89898085Y-68025178D01*
X89750455Y-67964224D01*
X89375564Y-67532961D01*
X90741590Y-68995519D02*
X90413560Y-68618164D01*
X89820574Y-69133639D02*
X90952639Y-68149550D01*
X91421252Y-68688629D01*
X90664079Y-70103980D02*
X91796143Y-69119891D01*
X91315555Y-70200166D01*
X92452202Y-69874601D01*
X91320138Y-70858689D01*
X93342568Y-70898850D02*
X93155122Y-70683218D01*
X93007492Y-70622264D01*
X92906723Y-70615217D01*
X92651276Y-70647986D01*
X92388784Y-70781523D01*
X91957521Y-71156414D01*
X91896567Y-71304045D01*
X91889520Y-71404814D01*
X91929335Y-71559491D01*
X92116781Y-71775122D01*
X92264411Y-71836077D01*
X92365181Y-71843123D01*
X92519858Y-71803308D01*
X92789397Y-71569002D01*
X92850351Y-71421371D01*
X92857397Y-71320602D01*
X92817583Y-71165925D01*
X92630137Y-70950293D01*
X92482507Y-70889339D01*
X92381737Y-70882293D01*
X92227060Y-70922108D01*
X92772840Y-72529832D02*
X92960285Y-72745463D01*
X93107916Y-72806418D01*
X93208685Y-72813464D01*
X93464131Y-72780696D01*
X93726624Y-72647158D01*
X94157886Y-72272267D01*
X94218841Y-72124637D01*
X94225887Y-72023867D01*
X94186072Y-71869190D01*
X93998627Y-71653559D01*
X93850996Y-71592605D01*
X93750227Y-71585558D01*
X93595550Y-71625373D01*
X93326011Y-71859680D01*
X93265057Y-72007311D01*
X93258010Y-72108080D01*
X93297825Y-72262757D01*
X93485271Y-72478388D01*
X93632901Y-72539342D01*
X93733670Y-72546389D01*
X93888347Y-72506574D01*
X94701547Y-72462177D02*
X93803790Y-73715804D01*
X94799853Y-73228515D01*
X94178681Y-74147067D01*
X95545052Y-73432517D01*
D11*
X113220000Y-66461267D02*
X113220000Y-66168733D01*
X112200000Y-66461267D02*
X112200000Y-66168733D01*
X101205000Y-73240000D02*
X102315000Y-73240000D01*
X98415000Y-73240000D02*
X99525000Y-73240000D01*
X100365000Y-72690000D02*
X100615000Y-72190000D01*
X100615000Y-72190000D02*
X100115000Y-72190000D01*
X100115000Y-72190000D02*
X100365000Y-72690000D01*
X101205000Y-76950000D02*
X102315000Y-76950000D01*
X98415000Y-76950000D02*
X99525000Y-76950000D01*
D12*
X109200000Y-45850000D02*
X108800000Y-45850000D01*
X93200000Y-65950000D02*
X92800000Y-65950000D01*
X109200000Y-45850000D02*
X109200000Y-55850000D01*
X92800000Y-65450000D02*
X92800000Y-65950000D01*
X92800000Y-45850000D02*
X92800000Y-46350000D01*
X93200000Y-45850000D02*
X92800000Y-45850000D01*
X109200000Y-65450000D02*
X109200000Y-65950000D01*
X109200000Y-65950000D02*
X108800000Y-65950000D01*
D11*
X108187500Y-69052224D02*
X108187500Y-68542776D01*
X109232500Y-69052224D02*
X109232500Y-68542776D01*
X111220000Y-66461267D02*
X111220000Y-66168733D01*
X110200000Y-66461267D02*
X110200000Y-66168733D01*
X106187500Y-69069724D02*
X106187500Y-68560276D01*
X107232500Y-69069724D02*
X107232500Y-68560276D01*
X101865000Y-68370000D02*
X101865000Y-68570000D01*
X99665000Y-71370000D02*
X99665000Y-71870000D01*
X101065000Y-68370000D02*
X101865000Y-68370000D01*
X101865000Y-71370000D02*
X101065000Y-71370000D01*
X99665000Y-71370000D02*
X99065000Y-71370000D01*
X101865000Y-71170000D02*
X101865000Y-71370000D01*
X101065000Y-71370000D02*
X101065000Y-71870000D01*
X98865000Y-68370000D02*
X99665000Y-68370000D01*
X99065000Y-71370000D02*
X98865000Y-71170000D01*
X98865000Y-68570000D02*
X98865000Y-68370000D01*
%LPC*%
D13*
X112710000Y-67177500D03*
X112710000Y-65452500D03*
D14*
X100365000Y-75150000D03*
D15*
X97540000Y-74950000D03*
X103190000Y-74950000D03*
D16*
X108000000Y-46800000D03*
X106000000Y-46800000D03*
X104000000Y-46800000D03*
X102000000Y-46800000D03*
X100000000Y-46800000D03*
X98000000Y-46800000D03*
X96000000Y-46800000D03*
X94000000Y-46800000D03*
X94000000Y-65000000D03*
X96000000Y-65000000D03*
X98000000Y-65000000D03*
X100000000Y-65000000D03*
X102000000Y-65000000D03*
X104000000Y-65000000D03*
X106000000Y-65000000D03*
X108000000Y-65000000D03*
D17*
X108710000Y-69710000D03*
X108710000Y-67885000D03*
D13*
X110710000Y-67177500D03*
X110710000Y-65452500D03*
D17*
X106710000Y-69727500D03*
X106710000Y-67902500D03*
D18*
X100365000Y-71370000D03*
D19*
X98890000Y-69870000D03*
D18*
X100365000Y-68370000D03*
D19*
X101840000Y-69870000D03*
D20*
X112430000Y-62215000D03*
D21*
X112430000Y-59675000D03*
X112430000Y-57135000D03*
X112430000Y-54595000D03*
X112430000Y-52055000D03*
X112430000Y-49515000D03*
X112430000Y-46975000D03*
D20*
X89570000Y-62215000D03*
D21*
X89570000Y-59675000D03*
X89570000Y-57135000D03*
X89570000Y-54595000D03*
X89570000Y-52055000D03*
X89570000Y-49515000D03*
X89570000Y-46975000D03*
M02*
