G04 #@! TF.GenerationSoftware,KiCad,Pcbnew,6.0.7+dfsg-1build1*
G04 #@! TF.CreationDate,2022-12-04T12:15:17+01:00*
G04 #@! TF.ProjectId,rfm69w,72666d36-3977-42e6-9b69-6361645f7063,1*
G04 #@! TF.SameCoordinates,Original*
G04 #@! TF.FileFunction,Legend,Bot*
G04 #@! TF.FilePolarity,Positive*
%FSLAX46Y46*%
G04 Gerber Fmt 4.6, Leading zero omitted, Abs format (unit mm)*
G04 Created by KiCad (PCBNEW 6.0.7+dfsg-1build1) date 2022-12-04 12:15:17*
%MOMM*%
%LPD*%
G01*
G04 APERTURE LIST*
%ADD10C,0.200000*%
%ADD11C,0.150000*%
%ADD12C,0.300000*%
%ADD13C,0.120000*%
%ADD14R,1.350000X4.200000*%
%ADD15R,1.700000X1.700000*%
%ADD16O,1.700000X1.700000*%
G04 APERTURE END LIST*
D10*
X96174000Y-52115000D02*
X105699000Y-52115000D01*
X96174000Y-50115000D02*
X105699000Y-50115000D01*
X105699000Y-52115000D02*
X105699000Y-46115000D01*
X103794000Y-52115000D02*
X103794000Y-46115000D01*
X96174000Y-46115000D02*
X96174000Y-52115000D01*
D11*
X93126000Y-48559000D02*
X92618000Y-48559000D01*
X93126000Y-48559000D02*
X93126000Y-63291000D01*
X93126000Y-63291000D02*
X92618000Y-63291000D01*
D10*
X105699000Y-46115000D02*
X96174000Y-46115000D01*
X96174000Y-48115000D02*
X105699000Y-48115000D01*
X110029904Y-57647380D02*
X110029904Y-56647380D01*
X109696571Y-57361666D01*
X109363238Y-56647380D01*
X109363238Y-57647380D01*
X108887047Y-57647380D02*
X108887047Y-56647380D01*
X108458476Y-57599761D02*
X108315619Y-57647380D01*
X108077523Y-57647380D01*
X107982285Y-57599761D01*
X107934666Y-57552142D01*
X107887047Y-57456904D01*
X107887047Y-57361666D01*
X107934666Y-57266428D01*
X107982285Y-57218809D01*
X108077523Y-57171190D01*
X108268000Y-57123571D01*
X108363238Y-57075952D01*
X108410857Y-57028333D01*
X108458476Y-56933095D01*
X108458476Y-56837857D01*
X108410857Y-56742619D01*
X108363238Y-56695000D01*
X108268000Y-56647380D01*
X108029904Y-56647380D01*
X107887047Y-56695000D01*
X107268000Y-56647380D02*
X107077523Y-56647380D01*
X106982285Y-56695000D01*
X106887047Y-56790238D01*
X106839428Y-56980714D01*
X106839428Y-57314047D01*
X106887047Y-57504523D01*
X106982285Y-57599761D01*
X107077523Y-57647380D01*
X107268000Y-57647380D01*
X107363238Y-57599761D01*
X107458476Y-57504523D01*
X107506095Y-57314047D01*
X107506095Y-56980714D01*
X107458476Y-56790238D01*
X107363238Y-56695000D01*
X107268000Y-56647380D01*
D12*
X107892857Y-66683214D02*
X107964285Y-66754642D01*
X108178571Y-66826071D01*
X108321428Y-66826071D01*
X108535714Y-66754642D01*
X108678571Y-66611785D01*
X108750000Y-66468928D01*
X108821428Y-66183214D01*
X108821428Y-65968928D01*
X108750000Y-65683214D01*
X108678571Y-65540357D01*
X108535714Y-65397500D01*
X108321428Y-65326071D01*
X108178571Y-65326071D01*
X107964285Y-65397500D01*
X107892857Y-65468928D01*
X106392857Y-66683214D02*
X106464285Y-66754642D01*
X106678571Y-66826071D01*
X106821428Y-66826071D01*
X107035714Y-66754642D01*
X107178571Y-66611785D01*
X107250000Y-66468928D01*
X107321428Y-66183214D01*
X107321428Y-65968928D01*
X107250000Y-65683214D01*
X107178571Y-65540357D01*
X107035714Y-65397500D01*
X106821428Y-65326071D01*
X106678571Y-65326071D01*
X106464285Y-65397500D01*
X106392857Y-65468928D01*
X104107142Y-66040357D02*
X103892857Y-66111785D01*
X103821428Y-66183214D01*
X103750000Y-66326071D01*
X103750000Y-66540357D01*
X103821428Y-66683214D01*
X103892857Y-66754642D01*
X104035714Y-66826071D01*
X104607142Y-66826071D01*
X104607142Y-65326071D01*
X104107142Y-65326071D01*
X103964285Y-65397500D01*
X103892857Y-65468928D01*
X103821428Y-65611785D01*
X103821428Y-65754642D01*
X103892857Y-65897500D01*
X103964285Y-65968928D01*
X104107142Y-66040357D01*
X104607142Y-66040357D01*
X102821428Y-66111785D02*
X102821428Y-66826071D01*
X103321428Y-65326071D02*
X102821428Y-66111785D01*
X102321428Y-65326071D01*
X101821428Y-66254642D02*
X100678571Y-66254642D01*
X100035714Y-66754642D02*
X99821428Y-66826071D01*
X99464285Y-66826071D01*
X99321428Y-66754642D01*
X99250000Y-66683214D01*
X99178571Y-66540357D01*
X99178571Y-66397500D01*
X99250000Y-66254642D01*
X99321428Y-66183214D01*
X99464285Y-66111785D01*
X99750000Y-66040357D01*
X99892857Y-65968928D01*
X99964285Y-65897500D01*
X100035714Y-65754642D01*
X100035714Y-65611785D01*
X99964285Y-65468928D01*
X99892857Y-65397500D01*
X99750000Y-65326071D01*
X99392857Y-65326071D01*
X99178571Y-65397500D01*
X98607142Y-66397500D02*
X97892857Y-66397500D01*
X98750000Y-66826071D02*
X98250000Y-65326071D01*
X97750000Y-66826071D01*
X95464285Y-65826071D02*
X95464285Y-66826071D01*
X95821428Y-65254642D02*
X96178571Y-66326071D01*
X95250000Y-66326071D01*
X94678571Y-66683214D02*
X94607142Y-66754642D01*
X94678571Y-66826071D01*
X94750000Y-66754642D01*
X94678571Y-66683214D01*
X94678571Y-66826071D01*
X93678571Y-65326071D02*
X93535714Y-65326071D01*
X93392857Y-65397500D01*
X93321428Y-65468928D01*
X93250000Y-65611785D01*
X93178571Y-65897500D01*
X93178571Y-66254642D01*
X93250000Y-66540357D01*
X93321428Y-66683214D01*
X93392857Y-66754642D01*
X93535714Y-66826071D01*
X93678571Y-66826071D01*
X93821428Y-66754642D01*
X93892857Y-66683214D01*
X93964285Y-66540357D01*
X94035714Y-66254642D01*
X94035714Y-65897500D01*
X93964285Y-65611785D01*
X93892857Y-65468928D01*
X93821428Y-65397500D01*
X93678571Y-65326071D01*
X111785714Y-69241071D02*
X111785714Y-67741071D01*
X110928571Y-69241071D02*
X111571428Y-68383928D01*
X110928571Y-67741071D02*
X111785714Y-68598214D01*
X109642857Y-69241071D02*
X109642857Y-68455357D01*
X109714285Y-68312500D01*
X109857142Y-68241071D01*
X110142857Y-68241071D01*
X110285714Y-68312500D01*
X109642857Y-69169642D02*
X109785714Y-69241071D01*
X110142857Y-69241071D01*
X110285714Y-69169642D01*
X110357142Y-69026785D01*
X110357142Y-68883928D01*
X110285714Y-68741071D01*
X110142857Y-68669642D01*
X109785714Y-68669642D01*
X109642857Y-68598214D01*
X108928571Y-69241071D02*
X108928571Y-68241071D01*
X108928571Y-67741071D02*
X109000000Y-67812500D01*
X108928571Y-67883928D01*
X108857142Y-67812500D01*
X108928571Y-67741071D01*
X108928571Y-67883928D01*
X106214285Y-69098214D02*
X106285714Y-69169642D01*
X106500000Y-69241071D01*
X106642857Y-69241071D01*
X106857142Y-69169642D01*
X107000000Y-69026785D01*
X107071428Y-68883928D01*
X107142857Y-68598214D01*
X107142857Y-68383928D01*
X107071428Y-68098214D01*
X107000000Y-67955357D01*
X106857142Y-67812500D01*
X106642857Y-67741071D01*
X106500000Y-67741071D01*
X106285714Y-67812500D01*
X106214285Y-67883928D01*
X105571428Y-69241071D02*
X105571428Y-67741071D01*
X104928571Y-69241071D02*
X104928571Y-68455357D01*
X105000000Y-68312500D01*
X105142857Y-68241071D01*
X105357142Y-68241071D01*
X105500000Y-68312500D01*
X105571428Y-68383928D01*
X104214285Y-69241071D02*
X104214285Y-68241071D01*
X104214285Y-68526785D02*
X104142857Y-68383928D01*
X104071428Y-68312500D01*
X103928571Y-68241071D01*
X103785714Y-68241071D01*
X103285714Y-69241071D02*
X103285714Y-68241071D01*
X103285714Y-67741071D02*
X103357142Y-67812500D01*
X103285714Y-67883928D01*
X103214285Y-67812500D01*
X103285714Y-67741071D01*
X103285714Y-67883928D01*
X102642857Y-69169642D02*
X102500000Y-69241071D01*
X102214285Y-69241071D01*
X102071428Y-69169642D01*
X102000000Y-69026785D01*
X102000000Y-68955357D01*
X102071428Y-68812500D01*
X102214285Y-68741071D01*
X102428571Y-68741071D01*
X102571428Y-68669642D01*
X102642857Y-68526785D01*
X102642857Y-68455357D01*
X102571428Y-68312500D01*
X102428571Y-68241071D01*
X102214285Y-68241071D01*
X102071428Y-68312500D01*
X101571428Y-68241071D02*
X101000000Y-68241071D01*
X101357142Y-67741071D02*
X101357142Y-69026785D01*
X101285714Y-69169642D01*
X101142857Y-69241071D01*
X101000000Y-69241071D01*
X100500000Y-69241071D02*
X100500000Y-68241071D01*
X100500000Y-67741071D02*
X100571428Y-67812500D01*
X100500000Y-67883928D01*
X100428571Y-67812500D01*
X100500000Y-67741071D01*
X100500000Y-67883928D01*
X99142857Y-69241071D02*
X99142857Y-68455357D01*
X99214285Y-68312500D01*
X99357142Y-68241071D01*
X99642857Y-68241071D01*
X99785714Y-68312500D01*
X99142857Y-69169642D02*
X99285714Y-69241071D01*
X99642857Y-69241071D01*
X99785714Y-69169642D01*
X99857142Y-69026785D01*
X99857142Y-68883928D01*
X99785714Y-68741071D01*
X99642857Y-68669642D01*
X99285714Y-68669642D01*
X99142857Y-68598214D01*
X98428571Y-68241071D02*
X98428571Y-69241071D01*
X98428571Y-68383928D02*
X98357142Y-68312500D01*
X98214285Y-68241071D01*
X98000000Y-68241071D01*
X97857142Y-68312500D01*
X97785714Y-68455357D01*
X97785714Y-69241071D01*
X95428571Y-68455357D02*
X95214285Y-68526785D01*
X95142857Y-68598214D01*
X95071428Y-68741071D01*
X95071428Y-68955357D01*
X95142857Y-69098214D01*
X95214285Y-69169642D01*
X95357142Y-69241071D01*
X95928571Y-69241071D01*
X95928571Y-67741071D01*
X95428571Y-67741071D01*
X95285714Y-67812500D01*
X95214285Y-67883928D01*
X95142857Y-68026785D01*
X95142857Y-68169642D01*
X95214285Y-68312500D01*
X95285714Y-68383928D01*
X95428571Y-68455357D01*
X95928571Y-68455357D01*
X93785714Y-69241071D02*
X93785714Y-68455357D01*
X93857142Y-68312500D01*
X94000000Y-68241071D01*
X94285714Y-68241071D01*
X94428571Y-68312500D01*
X93785714Y-69169642D02*
X93928571Y-69241071D01*
X94285714Y-69241071D01*
X94428571Y-69169642D01*
X94500000Y-69026785D01*
X94500000Y-68883928D01*
X94428571Y-68741071D01*
X94285714Y-68669642D01*
X93928571Y-68669642D01*
X93785714Y-68598214D01*
X92428571Y-69241071D02*
X92428571Y-67741071D01*
X92428571Y-69169642D02*
X92571428Y-69241071D01*
X92857142Y-69241071D01*
X93000000Y-69169642D01*
X93071428Y-69098214D01*
X93142857Y-68955357D01*
X93142857Y-68526785D01*
X93071428Y-68383928D01*
X93000000Y-68312500D01*
X92857142Y-68241071D01*
X92571428Y-68241071D01*
X92428571Y-68312500D01*
X91142857Y-69169642D02*
X91285714Y-69241071D01*
X91571428Y-69241071D01*
X91714285Y-69169642D01*
X91785714Y-69026785D01*
X91785714Y-68455357D01*
X91714285Y-68312500D01*
X91571428Y-68241071D01*
X91285714Y-68241071D01*
X91142857Y-68312500D01*
X91071428Y-68455357D01*
X91071428Y-68598214D01*
X91785714Y-68741071D01*
X90428571Y-69241071D02*
X90428571Y-68241071D01*
X90428571Y-68526785D02*
X90357142Y-68383928D01*
X90285714Y-68312500D01*
X90142857Y-68241071D01*
X90000000Y-68241071D01*
D10*
X100590619Y-75824142D02*
X101066809Y-76157476D01*
X100590619Y-76395571D02*
X101590619Y-76395571D01*
X101590619Y-76014619D01*
X101543000Y-75919380D01*
X101495380Y-75871761D01*
X101400142Y-75824142D01*
X101257285Y-75824142D01*
X101162047Y-75871761D01*
X101114428Y-75919380D01*
X101066809Y-76014619D01*
X101066809Y-76395571D01*
X100638238Y-75014619D02*
X100590619Y-75109857D01*
X100590619Y-75300333D01*
X100638238Y-75395571D01*
X100733476Y-75443190D01*
X101114428Y-75443190D01*
X101209666Y-75395571D01*
X101257285Y-75300333D01*
X101257285Y-75109857D01*
X101209666Y-75014619D01*
X101114428Y-74967000D01*
X101019190Y-74967000D01*
X100923952Y-75443190D01*
X101257285Y-74633666D02*
X100590619Y-74395571D01*
X101257285Y-74157476D01*
X100590619Y-72490809D02*
X100590619Y-73062238D01*
X100590619Y-72776523D02*
X101590619Y-72776523D01*
X101447761Y-72871761D01*
X101352523Y-72967000D01*
X101304904Y-73062238D01*
X99885380Y-76181285D02*
X99933000Y-76133666D01*
X99980619Y-76038428D01*
X99980619Y-75800333D01*
X99933000Y-75705095D01*
X99885380Y-75657476D01*
X99790142Y-75609857D01*
X99694904Y-75609857D01*
X99552047Y-75657476D01*
X98980619Y-76228904D01*
X98980619Y-75609857D01*
X99885380Y-75228904D02*
X99933000Y-75181285D01*
X99980619Y-75086047D01*
X99980619Y-74847952D01*
X99933000Y-74752714D01*
X99885380Y-74705095D01*
X99790142Y-74657476D01*
X99694904Y-74657476D01*
X99552047Y-74705095D01*
X98980619Y-75276523D01*
X98980619Y-74657476D01*
X99647285Y-73800333D02*
X98980619Y-73800333D01*
X100028238Y-74038428D02*
X99313952Y-74276523D01*
X99313952Y-73657476D01*
X99552047Y-73133666D02*
X99599666Y-73228904D01*
X99647285Y-73276523D01*
X99742523Y-73324142D01*
X99790142Y-73324142D01*
X99885380Y-73276523D01*
X99933000Y-73228904D01*
X99980619Y-73133666D01*
X99980619Y-72943190D01*
X99933000Y-72847952D01*
X99885380Y-72800333D01*
X99790142Y-72752714D01*
X99742523Y-72752714D01*
X99647285Y-72800333D01*
X99599666Y-72847952D01*
X99552047Y-72943190D01*
X99552047Y-73133666D01*
X99504428Y-73228904D01*
X99456809Y-73276523D01*
X99361571Y-73324142D01*
X99171095Y-73324142D01*
X99075857Y-73276523D01*
X99028238Y-73228904D01*
X98980619Y-73133666D01*
X98980619Y-72943190D01*
X99028238Y-72847952D01*
X99075857Y-72800333D01*
X99171095Y-72752714D01*
X99361571Y-72752714D01*
X99456809Y-72800333D01*
X99504428Y-72847952D01*
X99552047Y-72943190D01*
X109458476Y-50027380D02*
X109791809Y-49551190D01*
X110029904Y-50027380D02*
X110029904Y-49027380D01*
X109648952Y-49027380D01*
X109553714Y-49075000D01*
X109506095Y-49122619D01*
X109458476Y-49217857D01*
X109458476Y-49360714D01*
X109506095Y-49455952D01*
X109553714Y-49503571D01*
X109648952Y-49551190D01*
X110029904Y-49551190D01*
X109077523Y-49979761D02*
X108934666Y-50027380D01*
X108696571Y-50027380D01*
X108601333Y-49979761D01*
X108553714Y-49932142D01*
X108506095Y-49836904D01*
X108506095Y-49741666D01*
X108553714Y-49646428D01*
X108601333Y-49598809D01*
X108696571Y-49551190D01*
X108887047Y-49503571D01*
X108982285Y-49455952D01*
X109029904Y-49408333D01*
X109077523Y-49313095D01*
X109077523Y-49217857D01*
X109029904Y-49122619D01*
X108982285Y-49075000D01*
X108887047Y-49027380D01*
X108648952Y-49027380D01*
X108506095Y-49075000D01*
X108220380Y-49027380D02*
X107648952Y-49027380D01*
X107934666Y-50027380D02*
X107934666Y-49027380D01*
X110029904Y-60187380D02*
X110029904Y-59187380D01*
X109458476Y-60187380D01*
X109458476Y-59187380D01*
X109029904Y-60139761D02*
X108887047Y-60187380D01*
X108648952Y-60187380D01*
X108553714Y-60139761D01*
X108506095Y-60092142D01*
X108458476Y-59996904D01*
X108458476Y-59901666D01*
X108506095Y-59806428D01*
X108553714Y-59758809D01*
X108648952Y-59711190D01*
X108839428Y-59663571D01*
X108934666Y-59615952D01*
X108982285Y-59568333D01*
X109029904Y-59473095D01*
X109029904Y-59377857D01*
X108982285Y-59282619D01*
X108934666Y-59235000D01*
X108839428Y-59187380D01*
X108601333Y-59187380D01*
X108458476Y-59235000D01*
X108077523Y-60139761D02*
X107934666Y-60187380D01*
X107696571Y-60187380D01*
X107601333Y-60139761D01*
X107553714Y-60092142D01*
X107506095Y-59996904D01*
X107506095Y-59901666D01*
X107553714Y-59806428D01*
X107601333Y-59758809D01*
X107696571Y-59711190D01*
X107887047Y-59663571D01*
X107982285Y-59615952D01*
X108029904Y-59568333D01*
X108077523Y-59473095D01*
X108077523Y-59377857D01*
X108029904Y-59282619D01*
X107982285Y-59235000D01*
X107887047Y-59187380D01*
X107648952Y-59187380D01*
X107506095Y-59235000D01*
X92493904Y-56742619D02*
X92446285Y-56695000D01*
X92351047Y-56647380D01*
X92112952Y-56647380D01*
X92017714Y-56695000D01*
X91970095Y-56742619D01*
X91922476Y-56837857D01*
X91922476Y-56933095D01*
X91970095Y-57075952D01*
X92541523Y-57647380D01*
X91922476Y-57647380D01*
X92541523Y-54107380D02*
X91922476Y-54107380D01*
X92255809Y-54488333D01*
X92112952Y-54488333D01*
X92017714Y-54535952D01*
X91970095Y-54583571D01*
X91922476Y-54678809D01*
X91922476Y-54916904D01*
X91970095Y-55012142D01*
X92017714Y-55059761D01*
X92112952Y-55107380D01*
X92398666Y-55107380D01*
X92493904Y-55059761D01*
X92541523Y-55012142D01*
X94351047Y-46487380D02*
X93732000Y-46487380D01*
X94065333Y-46868333D01*
X93922476Y-46868333D01*
X93827238Y-46915952D01*
X93779619Y-46963571D01*
X93732000Y-47058809D01*
X93732000Y-47296904D01*
X93779619Y-47392142D01*
X93827238Y-47439761D01*
X93922476Y-47487380D01*
X94208190Y-47487380D01*
X94303428Y-47439761D01*
X94351047Y-47392142D01*
X93446285Y-46487380D02*
X93112952Y-47487380D01*
X92779619Y-46487380D01*
X92541523Y-46487380D02*
X91922476Y-46487380D01*
X92255809Y-46868333D01*
X92112952Y-46868333D01*
X92017714Y-46915952D01*
X91970095Y-46963571D01*
X91922476Y-47058809D01*
X91922476Y-47296904D01*
X91970095Y-47392142D01*
X92017714Y-47439761D01*
X92112952Y-47487380D01*
X92398666Y-47487380D01*
X92493904Y-47439761D01*
X92541523Y-47392142D01*
X96049714Y-56377380D02*
X96049714Y-55377380D01*
X95811619Y-55377380D01*
X95668761Y-55425000D01*
X95573523Y-55520238D01*
X95525904Y-55615476D01*
X95478285Y-55805952D01*
X95478285Y-55948809D01*
X95525904Y-56139285D01*
X95573523Y-56234523D01*
X95668761Y-56329761D01*
X95811619Y-56377380D01*
X96049714Y-56377380D01*
X95049714Y-56377380D02*
X95049714Y-55377380D01*
X94383047Y-55377380D02*
X94192571Y-55377380D01*
X94097333Y-55425000D01*
X94002095Y-55520238D01*
X93954476Y-55710714D01*
X93954476Y-56044047D01*
X94002095Y-56234523D01*
X94097333Y-56329761D01*
X94192571Y-56377380D01*
X94383047Y-56377380D01*
X94478285Y-56329761D01*
X94573523Y-56234523D01*
X94621142Y-56044047D01*
X94621142Y-55710714D01*
X94573523Y-55520238D01*
X94478285Y-55425000D01*
X94383047Y-55377380D01*
X91922476Y-60187380D02*
X92493904Y-60187380D01*
X92208190Y-60187380D02*
X92208190Y-59187380D01*
X92303428Y-59330238D01*
X92398666Y-59425476D01*
X92493904Y-59473095D01*
X102626857Y-46900714D02*
X102626857Y-47567380D01*
X102864952Y-46519761D02*
X103103047Y-47234047D01*
X102484000Y-47234047D01*
X102198285Y-46567380D02*
X101579238Y-46567380D01*
X101912571Y-46948333D01*
X101769714Y-46948333D01*
X101674476Y-46995952D01*
X101626857Y-47043571D01*
X101579238Y-47138809D01*
X101579238Y-47376904D01*
X101626857Y-47472142D01*
X101674476Y-47519761D01*
X101769714Y-47567380D01*
X102055428Y-47567380D01*
X102150666Y-47519761D01*
X102198285Y-47472142D01*
X101245904Y-46567380D02*
X100626857Y-46567380D01*
X100960190Y-46948333D01*
X100817333Y-46948333D01*
X100722095Y-46995952D01*
X100674476Y-47043571D01*
X100626857Y-47138809D01*
X100626857Y-47376904D01*
X100674476Y-47472142D01*
X100722095Y-47519761D01*
X100817333Y-47567380D01*
X101103047Y-47567380D01*
X101198285Y-47519761D01*
X101245904Y-47472142D01*
X99436380Y-47567380D02*
X99436380Y-46567380D01*
X99103047Y-47281666D01*
X98769714Y-46567380D01*
X98769714Y-47567380D01*
X98293523Y-47567380D02*
X98293523Y-46567380D01*
X98293523Y-47043571D02*
X97722095Y-47043571D01*
X97722095Y-47567380D02*
X97722095Y-46567380D01*
X97341142Y-46900714D02*
X96817333Y-46900714D01*
X97341142Y-47567380D01*
X96817333Y-47567380D01*
X91970095Y-49027380D02*
X92446285Y-49027380D01*
X92493904Y-49503571D01*
X92446285Y-49455952D01*
X92351047Y-49408333D01*
X92112952Y-49408333D01*
X92017714Y-49455952D01*
X91970095Y-49503571D01*
X91922476Y-49598809D01*
X91922476Y-49836904D01*
X91970095Y-49932142D01*
X92017714Y-49979761D01*
X92112952Y-50027380D01*
X92351047Y-50027380D01*
X92446285Y-49979761D01*
X92493904Y-49932142D01*
X92255809Y-61727380D02*
X92160571Y-61727380D01*
X92065333Y-61775000D01*
X92017714Y-61822619D01*
X91970095Y-61917857D01*
X91922476Y-62108333D01*
X91922476Y-62346428D01*
X91970095Y-62536904D01*
X92017714Y-62632142D01*
X92065333Y-62679761D01*
X92160571Y-62727380D01*
X92255809Y-62727380D01*
X92351047Y-62679761D01*
X92398666Y-62632142D01*
X92446285Y-62536904D01*
X92493904Y-62346428D01*
X92493904Y-62108333D01*
X92446285Y-61917857D01*
X92398666Y-61822619D01*
X92351047Y-61775000D01*
X92255809Y-61727380D01*
X110029904Y-55107380D02*
X110029904Y-54107380D01*
X109696571Y-54821666D01*
X109363238Y-54107380D01*
X109363238Y-55107380D01*
X108696571Y-54107380D02*
X108506095Y-54107380D01*
X108410857Y-54155000D01*
X108315619Y-54250238D01*
X108268000Y-54440714D01*
X108268000Y-54774047D01*
X108315619Y-54964523D01*
X108410857Y-55059761D01*
X108506095Y-55107380D01*
X108696571Y-55107380D01*
X108791809Y-55059761D01*
X108887047Y-54964523D01*
X108934666Y-54774047D01*
X108934666Y-54440714D01*
X108887047Y-54250238D01*
X108791809Y-54155000D01*
X108696571Y-54107380D01*
X107887047Y-55059761D02*
X107744190Y-55107380D01*
X107506095Y-55107380D01*
X107410857Y-55059761D01*
X107363238Y-55012142D01*
X107315619Y-54916904D01*
X107315619Y-54821666D01*
X107363238Y-54726428D01*
X107410857Y-54678809D01*
X107506095Y-54631190D01*
X107696571Y-54583571D01*
X107791809Y-54535952D01*
X107839428Y-54488333D01*
X107887047Y-54393095D01*
X107887047Y-54297857D01*
X107839428Y-54202619D01*
X107791809Y-54155000D01*
X107696571Y-54107380D01*
X107458476Y-54107380D01*
X107315619Y-54155000D01*
X106887047Y-55107380D02*
X106887047Y-54107380D01*
X110077523Y-52519761D02*
X109934666Y-52567380D01*
X109696571Y-52567380D01*
X109601333Y-52519761D01*
X109553714Y-52472142D01*
X109506095Y-52376904D01*
X109506095Y-52281666D01*
X109553714Y-52186428D01*
X109601333Y-52138809D01*
X109696571Y-52091190D01*
X109887047Y-52043571D01*
X109982285Y-51995952D01*
X110029904Y-51948333D01*
X110077523Y-51853095D01*
X110077523Y-51757857D01*
X110029904Y-51662619D01*
X109982285Y-51615000D01*
X109887047Y-51567380D01*
X109648952Y-51567380D01*
X109506095Y-51615000D01*
X108506095Y-52472142D02*
X108553714Y-52519761D01*
X108696571Y-52567380D01*
X108791809Y-52567380D01*
X108934666Y-52519761D01*
X109029904Y-52424523D01*
X109077523Y-52329285D01*
X109125142Y-52138809D01*
X109125142Y-51995952D01*
X109077523Y-51805476D01*
X109029904Y-51710238D01*
X108934666Y-51615000D01*
X108791809Y-51567380D01*
X108696571Y-51567380D01*
X108553714Y-51615000D01*
X108506095Y-51662619D01*
X108077523Y-52567380D02*
X108077523Y-51567380D01*
X107506095Y-52567380D02*
X107934666Y-51995952D01*
X107506095Y-51567380D02*
X108077523Y-52138809D01*
X92017714Y-51900714D02*
X92017714Y-52567380D01*
X92255809Y-51519761D02*
X92493904Y-52234047D01*
X91874857Y-52234047D01*
X109506095Y-61775000D02*
X109601333Y-61727380D01*
X109744190Y-61727380D01*
X109887047Y-61775000D01*
X109982285Y-61870238D01*
X110029904Y-61965476D01*
X110077523Y-62155952D01*
X110077523Y-62298809D01*
X110029904Y-62489285D01*
X109982285Y-62584523D01*
X109887047Y-62679761D01*
X109744190Y-62727380D01*
X109648952Y-62727380D01*
X109506095Y-62679761D01*
X109458476Y-62632142D01*
X109458476Y-62298809D01*
X109648952Y-62298809D01*
X109029904Y-62727380D02*
X109029904Y-61727380D01*
X108458476Y-62727380D01*
X108458476Y-61727380D01*
X107982285Y-62727380D02*
X107982285Y-61727380D01*
X107744190Y-61727380D01*
X107601333Y-61775000D01*
X107506095Y-61870238D01*
X107458476Y-61965476D01*
X107410857Y-62155952D01*
X107410857Y-62298809D01*
X107458476Y-62489285D01*
X107506095Y-62584523D01*
X107601333Y-62679761D01*
X107744190Y-62727380D01*
X107982285Y-62727380D01*
X109506095Y-46535000D02*
X109601333Y-46487380D01*
X109744190Y-46487380D01*
X109887047Y-46535000D01*
X109982285Y-46630238D01*
X110029904Y-46725476D01*
X110077523Y-46915952D01*
X110077523Y-47058809D01*
X110029904Y-47249285D01*
X109982285Y-47344523D01*
X109887047Y-47439761D01*
X109744190Y-47487380D01*
X109648952Y-47487380D01*
X109506095Y-47439761D01*
X109458476Y-47392142D01*
X109458476Y-47058809D01*
X109648952Y-47058809D01*
X109029904Y-47487380D02*
X109029904Y-46487380D01*
X108458476Y-47487380D01*
X108458476Y-46487380D01*
X107982285Y-47487380D02*
X107982285Y-46487380D01*
X107744190Y-46487380D01*
X107601333Y-46535000D01*
X107506095Y-46630238D01*
X107458476Y-46725476D01*
X107410857Y-46915952D01*
X107410857Y-47058809D01*
X107458476Y-47249285D01*
X107506095Y-47344523D01*
X107601333Y-47439761D01*
X107744190Y-47487380D01*
X107982285Y-47487380D01*
X103007809Y-51567380D02*
X102817333Y-51567380D01*
X102722095Y-51519761D01*
X102674476Y-51472142D01*
X102579238Y-51329285D01*
X102531619Y-51138809D01*
X102531619Y-50757857D01*
X102579238Y-50662619D01*
X102626857Y-50615000D01*
X102722095Y-50567380D01*
X102912571Y-50567380D01*
X103007809Y-50615000D01*
X103055428Y-50662619D01*
X103103047Y-50757857D01*
X103103047Y-50995952D01*
X103055428Y-51091190D01*
X103007809Y-51138809D01*
X102912571Y-51186428D01*
X102722095Y-51186428D01*
X102626857Y-51138809D01*
X102579238Y-51091190D01*
X102531619Y-50995952D01*
X101579238Y-51567380D02*
X102150666Y-51567380D01*
X101864952Y-51567380D02*
X101864952Y-50567380D01*
X101960190Y-50710238D01*
X102055428Y-50805476D01*
X102150666Y-50853095D01*
X100674476Y-50567380D02*
X101150666Y-50567380D01*
X101198285Y-51043571D01*
X101150666Y-50995952D01*
X101055428Y-50948333D01*
X100817333Y-50948333D01*
X100722095Y-50995952D01*
X100674476Y-51043571D01*
X100626857Y-51138809D01*
X100626857Y-51376904D01*
X100674476Y-51472142D01*
X100722095Y-51519761D01*
X100817333Y-51567380D01*
X101055428Y-51567380D01*
X101150666Y-51519761D01*
X101198285Y-51472142D01*
X99436380Y-51567380D02*
X99436380Y-50567380D01*
X99103047Y-51281666D01*
X98769714Y-50567380D01*
X98769714Y-51567380D01*
X98293523Y-51567380D02*
X98293523Y-50567380D01*
X98293523Y-51043571D02*
X97722095Y-51043571D01*
X97722095Y-51567380D02*
X97722095Y-50567380D01*
X97341142Y-50900714D02*
X96817333Y-50900714D01*
X97341142Y-51567380D01*
X96817333Y-51567380D01*
X102912571Y-48995952D02*
X103007809Y-48948333D01*
X103055428Y-48900714D01*
X103103047Y-48805476D01*
X103103047Y-48757857D01*
X103055428Y-48662619D01*
X103007809Y-48615000D01*
X102912571Y-48567380D01*
X102722095Y-48567380D01*
X102626857Y-48615000D01*
X102579238Y-48662619D01*
X102531619Y-48757857D01*
X102531619Y-48805476D01*
X102579238Y-48900714D01*
X102626857Y-48948333D01*
X102722095Y-48995952D01*
X102912571Y-48995952D01*
X103007809Y-49043571D01*
X103055428Y-49091190D01*
X103103047Y-49186428D01*
X103103047Y-49376904D01*
X103055428Y-49472142D01*
X103007809Y-49519761D01*
X102912571Y-49567380D01*
X102722095Y-49567380D01*
X102626857Y-49519761D01*
X102579238Y-49472142D01*
X102531619Y-49376904D01*
X102531619Y-49186428D01*
X102579238Y-49091190D01*
X102626857Y-49043571D01*
X102722095Y-48995952D01*
X101674476Y-48567380D02*
X101864952Y-48567380D01*
X101960190Y-48615000D01*
X102007809Y-48662619D01*
X102103047Y-48805476D01*
X102150666Y-48995952D01*
X102150666Y-49376904D01*
X102103047Y-49472142D01*
X102055428Y-49519761D01*
X101960190Y-49567380D01*
X101769714Y-49567380D01*
X101674476Y-49519761D01*
X101626857Y-49472142D01*
X101579238Y-49376904D01*
X101579238Y-49138809D01*
X101626857Y-49043571D01*
X101674476Y-48995952D01*
X101769714Y-48948333D01*
X101960190Y-48948333D01*
X102055428Y-48995952D01*
X102103047Y-49043571D01*
X102150666Y-49138809D01*
X101007809Y-48995952D02*
X101103047Y-48948333D01*
X101150666Y-48900714D01*
X101198285Y-48805476D01*
X101198285Y-48757857D01*
X101150666Y-48662619D01*
X101103047Y-48615000D01*
X101007809Y-48567380D01*
X100817333Y-48567380D01*
X100722095Y-48615000D01*
X100674476Y-48662619D01*
X100626857Y-48757857D01*
X100626857Y-48805476D01*
X100674476Y-48900714D01*
X100722095Y-48948333D01*
X100817333Y-48995952D01*
X101007809Y-48995952D01*
X101103047Y-49043571D01*
X101150666Y-49091190D01*
X101198285Y-49186428D01*
X101198285Y-49376904D01*
X101150666Y-49472142D01*
X101103047Y-49519761D01*
X101007809Y-49567380D01*
X100817333Y-49567380D01*
X100722095Y-49519761D01*
X100674476Y-49472142D01*
X100626857Y-49376904D01*
X100626857Y-49186428D01*
X100674476Y-49091190D01*
X100722095Y-49043571D01*
X100817333Y-48995952D01*
X99436380Y-49567380D02*
X99436380Y-48567380D01*
X99103047Y-49281666D01*
X98769714Y-48567380D01*
X98769714Y-49567380D01*
X98293523Y-49567380D02*
X98293523Y-48567380D01*
X98293523Y-49043571D02*
X97722095Y-49043571D01*
X97722095Y-49567380D02*
X97722095Y-48567380D01*
X97341142Y-48900714D02*
X96817333Y-48900714D01*
X97341142Y-49567380D01*
X96817333Y-49567380D01*
D13*
X111100000Y-62215000D02*
X111100000Y-63545000D01*
X113760000Y-60945000D02*
X113760000Y-45645000D01*
X111100000Y-60945000D02*
X113760000Y-60945000D01*
X111100000Y-45645000D02*
X113760000Y-45645000D01*
X111100000Y-63545000D02*
X112430000Y-63545000D01*
X111100000Y-60945000D02*
X111100000Y-45645000D01*
X88240000Y-60945000D02*
X88240000Y-45645000D01*
X88240000Y-63545000D02*
X89570000Y-63545000D01*
X88240000Y-45645000D02*
X90900000Y-45645000D01*
X90900000Y-60945000D02*
X90900000Y-45645000D01*
X88240000Y-62215000D02*
X88240000Y-63545000D01*
X88240000Y-60945000D02*
X90900000Y-60945000D01*
%LPC*%
D14*
X103190000Y-74950000D03*
X97540000Y-74950000D03*
D15*
X112430000Y-62215000D03*
D16*
X112430000Y-59675000D03*
X112430000Y-57135000D03*
X112430000Y-54595000D03*
X112430000Y-52055000D03*
X112430000Y-49515000D03*
X112430000Y-46975000D03*
D15*
X89570000Y-62215000D03*
D16*
X89570000Y-59675000D03*
X89570000Y-57135000D03*
X89570000Y-54595000D03*
X89570000Y-52055000D03*
X89570000Y-49515000D03*
X89570000Y-46975000D03*
M02*
