G75*
G70*
%OFA0B0*%
%FSLAX24Y24*%
%IPPOS*%
%LPD*%
%AMOC8*
5,1,8,0,0,1.08239X$1,22.5*
%
%ADD10C,0.0000*%
%ADD11C,0.0886*%
%ADD12C,0.0600*%
%ADD13C,0.0160*%
D10*
X003000Y002008D02*
X003000Y016004D01*
X015870Y016004D01*
X015870Y002008D01*
X003000Y002008D01*
D11*
X012200Y002958D03*
X013200Y003958D03*
X012200Y004958D03*
X014200Y004958D03*
X014200Y002958D03*
D12*
X004800Y003508D02*
X004200Y003508D01*
X004200Y004508D02*
X004800Y004508D01*
X004800Y005508D02*
X004200Y005508D01*
X004200Y006508D02*
X004800Y006508D01*
X004800Y007508D02*
X004200Y007508D01*
X004200Y008508D02*
X004800Y008508D01*
X004800Y009508D02*
X004200Y009508D01*
X004200Y010508D02*
X004800Y010508D01*
X004800Y011508D02*
X004200Y011508D01*
X004200Y012508D02*
X004800Y012508D01*
X004800Y013508D02*
X004200Y013508D01*
X004200Y014508D02*
X004800Y014508D01*
D13*
X005127Y014212D02*
X015690Y014212D01*
X015690Y014054D02*
X003180Y014054D01*
X003180Y014212D02*
X003873Y014212D01*
X003827Y014258D02*
X003951Y014135D01*
X004112Y014068D01*
X004888Y014068D01*
X005049Y014135D01*
X005173Y014258D01*
X005240Y014420D01*
X005240Y014595D01*
X005173Y014757D01*
X005049Y014881D01*
X004888Y014948D01*
X004112Y014948D01*
X003951Y014881D01*
X003827Y014757D01*
X003760Y014595D01*
X003760Y014420D01*
X003827Y014258D01*
X003780Y014371D02*
X003180Y014371D01*
X003180Y014529D02*
X003760Y014529D01*
X003798Y014688D02*
X003180Y014688D01*
X003180Y014846D02*
X003916Y014846D01*
X003180Y015005D02*
X015690Y015005D01*
X015690Y015163D02*
X003180Y015163D01*
X003180Y015322D02*
X015690Y015322D01*
X015690Y015480D02*
X003180Y015480D01*
X003180Y015639D02*
X015690Y015639D01*
X015690Y015797D02*
X003180Y015797D01*
X003180Y015824D02*
X015690Y015824D01*
X015690Y002188D01*
X003180Y002188D01*
X003180Y015824D01*
X003951Y013881D02*
X004112Y013948D01*
X004888Y013948D01*
X005049Y013881D01*
X005173Y013757D01*
X005240Y013595D01*
X005240Y013420D01*
X005173Y013258D01*
X005049Y013135D01*
X004888Y013068D01*
X004112Y013068D01*
X003951Y013135D01*
X003827Y013258D01*
X003760Y013420D01*
X003760Y013595D01*
X003827Y013757D01*
X003951Y013881D01*
X003986Y013895D02*
X003180Y013895D01*
X003180Y013737D02*
X003819Y013737D01*
X003760Y013578D02*
X003180Y013578D01*
X003180Y013420D02*
X003760Y013420D01*
X003826Y013261D02*
X003180Y013261D01*
X003180Y013103D02*
X004028Y013103D01*
X004104Y012944D02*
X003180Y012944D01*
X003180Y012786D02*
X003856Y012786D01*
X003827Y012757D02*
X003760Y012595D01*
X003760Y012420D01*
X003827Y012258D01*
X003951Y012135D01*
X004112Y012068D01*
X004888Y012068D01*
X005049Y012135D01*
X005173Y012258D01*
X005240Y012420D01*
X005240Y012595D01*
X005173Y012757D01*
X005049Y012881D01*
X004888Y012948D01*
X004112Y012948D01*
X003951Y012881D01*
X003827Y012757D01*
X003773Y012627D02*
X003180Y012627D01*
X003180Y012469D02*
X003760Y012469D01*
X003806Y012310D02*
X003180Y012310D01*
X003180Y012152D02*
X003934Y012152D01*
X004112Y011948D02*
X003951Y011881D01*
X003827Y011757D01*
X003760Y011595D01*
X003760Y011420D01*
X003827Y011258D01*
X003951Y011135D01*
X004112Y011068D01*
X004888Y011068D01*
X005049Y011135D01*
X005173Y011258D01*
X005240Y011420D01*
X005240Y011595D01*
X005173Y011757D01*
X005049Y011881D01*
X004888Y011948D01*
X004112Y011948D01*
X003905Y011835D02*
X003180Y011835D01*
X003180Y011993D02*
X015690Y011993D01*
X015690Y011835D02*
X005095Y011835D01*
X005206Y011676D02*
X015690Y011676D01*
X015690Y011518D02*
X005240Y011518D01*
X005215Y011359D02*
X015690Y011359D01*
X015690Y011201D02*
X005115Y011201D01*
X005042Y010884D02*
X015690Y010884D01*
X015690Y011042D02*
X003180Y011042D01*
X003180Y010884D02*
X003958Y010884D01*
X003951Y010881D02*
X003827Y010757D01*
X003760Y010595D01*
X003760Y010420D01*
X003827Y010258D01*
X003951Y010135D01*
X004112Y010068D01*
X004888Y010068D01*
X005049Y010135D01*
X005173Y010258D01*
X005240Y010420D01*
X005240Y010595D01*
X005173Y010757D01*
X005049Y010881D01*
X004888Y010948D01*
X004112Y010948D01*
X003951Y010881D01*
X003814Y010725D02*
X003180Y010725D01*
X003180Y010567D02*
X003760Y010567D01*
X003765Y010408D02*
X003180Y010408D01*
X003180Y010250D02*
X003836Y010250D01*
X004056Y010091D02*
X003180Y010091D01*
X003180Y009933D02*
X004076Y009933D01*
X004112Y009948D02*
X003951Y009881D01*
X003827Y009757D01*
X003760Y009595D01*
X003760Y009420D01*
X003827Y009258D01*
X003951Y009135D01*
X004112Y009068D01*
X004888Y009068D01*
X005049Y009135D01*
X005173Y009258D01*
X005240Y009420D01*
X005240Y009595D01*
X005173Y009757D01*
X005049Y009881D01*
X004888Y009948D01*
X004112Y009948D01*
X003844Y009774D02*
X003180Y009774D01*
X003180Y009616D02*
X003768Y009616D01*
X003760Y009457D02*
X003180Y009457D01*
X003180Y009299D02*
X003810Y009299D01*
X003945Y009140D02*
X003180Y009140D01*
X003180Y008982D02*
X015690Y008982D01*
X015690Y009140D02*
X005055Y009140D01*
X005190Y009299D02*
X015690Y009299D01*
X015690Y009457D02*
X005240Y009457D01*
X005232Y009616D02*
X015690Y009616D01*
X015690Y009774D02*
X005156Y009774D01*
X004924Y009933D02*
X015690Y009933D01*
X015690Y010091D02*
X004944Y010091D01*
X005164Y010250D02*
X015690Y010250D01*
X015690Y010408D02*
X005235Y010408D01*
X005240Y010567D02*
X015690Y010567D01*
X015690Y010725D02*
X005186Y010725D01*
X003885Y011201D02*
X003180Y011201D01*
X003180Y011359D02*
X003785Y011359D01*
X003760Y011518D02*
X003180Y011518D01*
X003180Y011676D02*
X003794Y011676D01*
X004896Y012944D02*
X015690Y012944D01*
X015690Y012786D02*
X005144Y012786D01*
X005227Y012627D02*
X015690Y012627D01*
X015690Y012469D02*
X005240Y012469D01*
X005194Y012310D02*
X015690Y012310D01*
X015690Y012152D02*
X005066Y012152D01*
X004972Y013103D02*
X015690Y013103D01*
X015690Y013261D02*
X005174Y013261D01*
X005240Y013420D02*
X015690Y013420D01*
X015690Y013578D02*
X005240Y013578D01*
X005181Y013737D02*
X015690Y013737D01*
X015690Y013895D02*
X005014Y013895D01*
X005220Y014371D02*
X015690Y014371D01*
X015690Y014529D02*
X005240Y014529D01*
X005202Y014688D02*
X015690Y014688D01*
X015690Y014846D02*
X005084Y014846D01*
X004888Y008948D02*
X004112Y008948D01*
X003951Y008881D01*
X003827Y008757D01*
X003760Y008595D01*
X003760Y008420D01*
X003827Y008258D01*
X003951Y008135D01*
X004112Y008068D01*
X004888Y008068D01*
X005049Y008135D01*
X005173Y008258D01*
X005240Y008420D01*
X005240Y008595D01*
X005173Y008757D01*
X005049Y008881D01*
X004888Y008948D01*
X005107Y008823D02*
X015690Y008823D01*
X015690Y008665D02*
X005211Y008665D01*
X005240Y008506D02*
X015690Y008506D01*
X015690Y008348D02*
X005210Y008348D01*
X005104Y008189D02*
X015690Y008189D01*
X015690Y008031D02*
X003180Y008031D01*
X003180Y008189D02*
X003896Y008189D01*
X003790Y008348D02*
X003180Y008348D01*
X003180Y008506D02*
X003760Y008506D01*
X003789Y008665D02*
X003180Y008665D01*
X003180Y008823D02*
X003893Y008823D01*
X004112Y007948D02*
X003951Y007881D01*
X003827Y007757D01*
X003760Y007595D01*
X003760Y007420D01*
X003827Y007258D01*
X003951Y007135D01*
X004112Y007068D01*
X004888Y007068D01*
X005049Y007135D01*
X005173Y007258D01*
X005240Y007420D01*
X005240Y007595D01*
X005173Y007757D01*
X005049Y007881D01*
X004888Y007948D01*
X004112Y007948D01*
X003942Y007872D02*
X003180Y007872D01*
X003180Y007714D02*
X003809Y007714D01*
X003760Y007555D02*
X003180Y007555D01*
X003180Y007397D02*
X003770Y007397D01*
X003847Y007238D02*
X003180Y007238D01*
X003180Y007080D02*
X004083Y007080D01*
X004112Y006948D02*
X003951Y006881D01*
X003827Y006757D01*
X003760Y006595D01*
X003760Y006420D01*
X003827Y006258D01*
X003951Y006135D01*
X004112Y006068D01*
X004888Y006068D01*
X005049Y006135D01*
X005173Y006258D01*
X005240Y006420D01*
X005240Y006595D01*
X005173Y006757D01*
X005049Y006881D01*
X004888Y006948D01*
X004112Y006948D01*
X004049Y006921D02*
X003180Y006921D01*
X003180Y006763D02*
X003833Y006763D01*
X003764Y006604D02*
X003180Y006604D01*
X003180Y006446D02*
X003760Y006446D01*
X003815Y006287D02*
X003180Y006287D01*
X003180Y006129D02*
X003965Y006129D01*
X004112Y005948D02*
X003951Y005881D01*
X003827Y005757D01*
X003760Y005595D01*
X003760Y005420D01*
X003827Y005258D01*
X003951Y005135D01*
X004112Y005068D01*
X004888Y005068D01*
X005049Y005135D01*
X005173Y005258D01*
X005240Y005420D01*
X005240Y005595D01*
X005173Y005757D01*
X005049Y005881D01*
X004888Y005948D01*
X004112Y005948D01*
X003882Y005812D02*
X003180Y005812D01*
X003180Y005970D02*
X015690Y005970D01*
X015690Y005812D02*
X005118Y005812D01*
X005216Y005653D02*
X015690Y005653D01*
X015690Y005495D02*
X014518Y005495D01*
X014526Y005490D02*
X014439Y005535D01*
X014346Y005565D01*
X014268Y005577D01*
X014268Y005025D01*
X014820Y005025D01*
X014808Y005103D01*
X014777Y005197D01*
X014733Y005284D01*
X014675Y005363D01*
X014606Y005433D01*
X014526Y005490D01*
X014695Y005336D02*
X015690Y005336D01*
X015690Y005178D02*
X014783Y005178D01*
X014820Y004890D02*
X014268Y004890D01*
X014268Y005025D01*
X014132Y005025D01*
X014132Y004890D01*
X013580Y004890D01*
X013592Y004812D01*
X013623Y004718D01*
X013667Y004631D01*
X013725Y004552D01*
X013794Y004482D01*
X013874Y004425D01*
X013961Y004380D01*
X014054Y004350D01*
X014132Y004338D01*
X014132Y004890D01*
X014268Y004890D01*
X014268Y004338D01*
X014346Y004350D01*
X014439Y004380D01*
X014526Y004425D01*
X014606Y004482D01*
X014675Y004552D01*
X014733Y004631D01*
X014777Y004718D01*
X014808Y004812D01*
X014820Y004890D01*
X014815Y004861D02*
X015690Y004861D01*
X015690Y005019D02*
X014268Y005019D01*
X014132Y005019D02*
X012268Y005019D01*
X012268Y005025D02*
X012820Y005025D01*
X012808Y005103D01*
X012777Y005197D01*
X012733Y005284D01*
X012675Y005363D01*
X012606Y005433D01*
X012526Y005490D01*
X012439Y005535D01*
X012346Y005565D01*
X012268Y005577D01*
X012268Y005025D01*
X012268Y004890D01*
X012820Y004890D01*
X012808Y004812D01*
X012777Y004718D01*
X012733Y004631D01*
X012675Y004552D01*
X012606Y004482D01*
X012526Y004425D01*
X012439Y004380D01*
X012346Y004350D01*
X012268Y004338D01*
X012268Y004890D01*
X012132Y004890D01*
X011580Y004890D01*
X011592Y004812D01*
X011623Y004718D01*
X011667Y004631D01*
X011725Y004552D01*
X011794Y004482D01*
X011874Y004425D01*
X011961Y004380D01*
X012054Y004350D01*
X012132Y004338D01*
X012132Y004890D01*
X012132Y005025D01*
X011580Y005025D01*
X011592Y005103D01*
X011623Y005197D01*
X011667Y005284D01*
X011725Y005363D01*
X011794Y005433D01*
X011874Y005490D01*
X011961Y005535D01*
X012054Y005565D01*
X012132Y005577D01*
X012132Y005025D01*
X012268Y005025D01*
X012132Y005019D02*
X003180Y005019D01*
X003180Y004861D02*
X003874Y004861D01*
X003887Y004874D02*
X003834Y004820D01*
X003789Y004759D01*
X003755Y004692D01*
X003732Y004620D01*
X003720Y004545D01*
X003720Y004528D01*
X004480Y004528D01*
X004480Y004988D01*
X004162Y004988D01*
X004088Y004976D01*
X004016Y004952D01*
X003948Y004918D01*
X003887Y004874D01*
X003760Y004702D02*
X003180Y004702D01*
X003180Y004544D02*
X003720Y004544D01*
X003720Y004488D02*
X003720Y004470D01*
X003732Y004395D01*
X003755Y004323D01*
X003789Y004256D01*
X003834Y004195D01*
X003887Y004141D01*
X003948Y004097D01*
X004016Y004063D01*
X004088Y004039D01*
X004162Y004028D01*
X004480Y004028D01*
X004480Y004488D01*
X003720Y004488D01*
X003735Y004385D02*
X003180Y004385D01*
X003180Y004227D02*
X003811Y004227D01*
X004005Y004068D02*
X003180Y004068D01*
X003180Y003910D02*
X004021Y003910D01*
X003951Y003881D02*
X003827Y003757D01*
X003760Y003595D01*
X003760Y003420D01*
X003827Y003258D01*
X003951Y003135D01*
X004112Y003068D01*
X004888Y003068D01*
X005049Y003135D01*
X005173Y003258D01*
X005240Y003420D01*
X005240Y003595D01*
X005173Y003757D01*
X005049Y003881D01*
X004888Y003948D01*
X004112Y003948D01*
X003951Y003881D01*
X003825Y003751D02*
X003180Y003751D01*
X003180Y003593D02*
X003760Y003593D01*
X003760Y003434D02*
X003180Y003434D01*
X003180Y003276D02*
X003820Y003276D01*
X003993Y003117D02*
X003180Y003117D01*
X003180Y002959D02*
X012132Y002959D01*
X012132Y003025D02*
X012132Y002890D01*
X011580Y002890D01*
X011592Y002812D01*
X011623Y002718D01*
X011667Y002631D01*
X011725Y002552D01*
X011794Y002482D01*
X011874Y002425D01*
X011961Y002380D01*
X012054Y002350D01*
X012132Y002338D01*
X012132Y002890D01*
X012268Y002890D01*
X012268Y003025D01*
X012820Y003025D01*
X012808Y003103D01*
X012777Y003197D01*
X012733Y003284D01*
X012675Y003363D01*
X012606Y003433D01*
X012526Y003490D01*
X012439Y003535D01*
X012346Y003565D01*
X012268Y003577D01*
X012268Y003025D01*
X012132Y003025D01*
X011580Y003025D01*
X011592Y003103D01*
X011623Y003197D01*
X011667Y003284D01*
X011725Y003363D01*
X011794Y003433D01*
X011874Y003490D01*
X011961Y003535D01*
X012054Y003565D01*
X012132Y003577D01*
X012132Y003025D01*
X012132Y003117D02*
X012268Y003117D01*
X012268Y002959D02*
X014132Y002959D01*
X014132Y003025D02*
X014132Y002890D01*
X013580Y002890D01*
X013592Y002812D01*
X013623Y002718D01*
X013667Y002631D01*
X013725Y002552D01*
X013794Y002482D01*
X013874Y002425D01*
X013961Y002380D01*
X014054Y002350D01*
X014132Y002338D01*
X014132Y002890D01*
X014268Y002890D01*
X014268Y003025D01*
X014820Y003025D01*
X014808Y003103D01*
X014777Y003197D01*
X014733Y003284D01*
X014675Y003363D01*
X014606Y003433D01*
X014526Y003490D01*
X014439Y003535D01*
X014346Y003565D01*
X014268Y003577D01*
X014268Y003025D01*
X014132Y003025D01*
X013580Y003025D01*
X013592Y003103D01*
X013623Y003197D01*
X013667Y003284D01*
X013725Y003363D01*
X013794Y003433D01*
X013874Y003490D01*
X013961Y003535D01*
X014054Y003565D01*
X014132Y003577D01*
X014132Y003025D01*
X014132Y003117D02*
X014268Y003117D01*
X014268Y002959D02*
X015690Y002959D01*
X015690Y003117D02*
X014803Y003117D01*
X014737Y003276D02*
X015690Y003276D01*
X015690Y003434D02*
X014604Y003434D01*
X014268Y003434D02*
X014132Y003434D01*
X014132Y003276D02*
X014268Y003276D01*
X014268Y002890D02*
X014820Y002890D01*
X014808Y002812D01*
X014777Y002718D01*
X014733Y002631D01*
X014675Y002552D01*
X014606Y002482D01*
X014526Y002425D01*
X014439Y002380D01*
X014346Y002350D01*
X014268Y002338D01*
X014268Y002890D01*
X014268Y002800D02*
X014132Y002800D01*
X014132Y002642D02*
X014268Y002642D01*
X014268Y002483D02*
X014132Y002483D01*
X013794Y002483D02*
X012606Y002483D01*
X012606Y002482D02*
X012675Y002552D01*
X012733Y002631D01*
X012777Y002718D01*
X012808Y002812D01*
X012820Y002890D01*
X012268Y002890D01*
X012268Y002338D01*
X012346Y002350D01*
X012439Y002380D01*
X012526Y002425D01*
X012606Y002482D01*
X012738Y002642D02*
X013662Y002642D01*
X013596Y002800D02*
X012804Y002800D01*
X012803Y003117D02*
X013597Y003117D01*
X013663Y003276D02*
X012737Y003276D01*
X012604Y003434D02*
X012941Y003434D01*
X012870Y003463D02*
X013084Y003375D01*
X013316Y003375D01*
X013530Y003463D01*
X013694Y003627D01*
X013783Y003842D01*
X013783Y004073D01*
X013694Y004288D01*
X013530Y004452D01*
X013316Y004540D01*
X013084Y004540D01*
X012870Y004452D01*
X012706Y004288D01*
X012617Y004073D01*
X012617Y003842D01*
X012706Y003627D01*
X012870Y003463D01*
X012741Y003593D02*
X005240Y003593D01*
X005240Y003434D02*
X011796Y003434D01*
X011663Y003276D02*
X005180Y003276D01*
X005007Y003117D02*
X011597Y003117D01*
X011596Y002800D02*
X003180Y002800D01*
X003180Y002642D02*
X011662Y002642D01*
X011794Y002483D02*
X003180Y002483D01*
X003180Y002325D02*
X015690Y002325D01*
X015690Y002483D02*
X014606Y002483D01*
X014738Y002642D02*
X015690Y002642D01*
X015690Y002800D02*
X014804Y002800D01*
X015690Y003593D02*
X013659Y003593D01*
X013745Y003751D02*
X015690Y003751D01*
X015690Y003910D02*
X013783Y003910D01*
X013783Y004068D02*
X015690Y004068D01*
X015690Y004227D02*
X013720Y004227D01*
X013597Y004385D02*
X013952Y004385D01*
X014132Y004385D02*
X014268Y004385D01*
X014268Y004544D02*
X014132Y004544D01*
X014132Y004702D02*
X014268Y004702D01*
X014268Y004861D02*
X014132Y004861D01*
X014132Y005025D02*
X013580Y005025D01*
X013592Y005103D01*
X013623Y005197D01*
X013667Y005284D01*
X013725Y005363D01*
X013794Y005433D01*
X013874Y005490D01*
X013961Y005535D01*
X014054Y005565D01*
X014132Y005577D01*
X014132Y005025D01*
X014132Y005178D02*
X014268Y005178D01*
X014268Y005336D02*
X014132Y005336D01*
X014132Y005495D02*
X014268Y005495D01*
X013882Y005495D02*
X012518Y005495D01*
X012695Y005336D02*
X013705Y005336D01*
X013617Y005178D02*
X012783Y005178D01*
X012815Y004861D02*
X013585Y004861D01*
X013631Y004702D02*
X012769Y004702D01*
X012667Y004544D02*
X013733Y004544D01*
X014448Y004385D02*
X015690Y004385D01*
X015690Y004544D02*
X014667Y004544D01*
X014769Y004702D02*
X015690Y004702D01*
X015690Y006129D02*
X005035Y006129D01*
X005185Y006287D02*
X015690Y006287D01*
X015690Y006446D02*
X005240Y006446D01*
X005236Y006604D02*
X015690Y006604D01*
X015690Y006763D02*
X005167Y006763D01*
X004951Y006921D02*
X015690Y006921D01*
X015690Y007080D02*
X004917Y007080D01*
X005153Y007238D02*
X015690Y007238D01*
X015690Y007397D02*
X005230Y007397D01*
X005240Y007555D02*
X015690Y007555D01*
X015690Y007714D02*
X005191Y007714D01*
X005058Y007872D02*
X015690Y007872D01*
X012268Y005495D02*
X012132Y005495D01*
X012132Y005336D02*
X012268Y005336D01*
X012268Y005178D02*
X012132Y005178D01*
X012132Y004861D02*
X012268Y004861D01*
X012268Y004702D02*
X012132Y004702D01*
X012132Y004544D02*
X012268Y004544D01*
X012268Y004385D02*
X012132Y004385D01*
X011952Y004385D02*
X005265Y004385D01*
X005268Y004395D02*
X005280Y004470D01*
X005280Y004488D01*
X004520Y004488D01*
X004520Y004528D01*
X004480Y004528D01*
X004480Y004488D01*
X004520Y004488D01*
X004520Y004028D01*
X004838Y004028D01*
X004912Y004039D01*
X004984Y004063D01*
X005052Y004097D01*
X005113Y004141D01*
X005166Y004195D01*
X005211Y004256D01*
X005245Y004323D01*
X005268Y004395D01*
X005280Y004528D02*
X005280Y004545D01*
X005268Y004620D01*
X005245Y004692D01*
X005211Y004759D01*
X005166Y004820D01*
X005113Y004874D01*
X005052Y004918D01*
X004984Y004952D01*
X004912Y004976D01*
X004838Y004988D01*
X004520Y004988D01*
X004520Y004528D01*
X005280Y004528D01*
X005280Y004544D02*
X011733Y004544D01*
X011631Y004702D02*
X005240Y004702D01*
X005126Y004861D02*
X011585Y004861D01*
X011617Y005178D02*
X005092Y005178D01*
X005205Y005336D02*
X011705Y005336D01*
X011882Y005495D02*
X005240Y005495D01*
X004520Y004861D02*
X004480Y004861D01*
X004480Y004702D02*
X004520Y004702D01*
X004520Y004544D02*
X004480Y004544D01*
X004480Y004385D02*
X004520Y004385D01*
X004520Y004227D02*
X004480Y004227D01*
X004480Y004068D02*
X004520Y004068D01*
X004995Y004068D02*
X012617Y004068D01*
X012617Y003910D02*
X004979Y003910D01*
X005175Y003751D02*
X012655Y003751D01*
X012680Y004227D02*
X005189Y004227D01*
X003908Y005178D02*
X003180Y005178D01*
X003180Y005336D02*
X003795Y005336D01*
X003760Y005495D02*
X003180Y005495D01*
X003180Y005653D02*
X003784Y005653D01*
X012132Y003434D02*
X012268Y003434D01*
X012268Y003276D02*
X012132Y003276D01*
X012132Y002800D02*
X012268Y002800D01*
X012268Y002642D02*
X012132Y002642D01*
X012132Y002483D02*
X012268Y002483D01*
X013459Y003434D02*
X013796Y003434D01*
X012803Y004385D02*
X012448Y004385D01*
M02*
