G75*
G70*
%OFA0B0*%
%FSLAX24Y24*%
%IPPOS*%
%LPD*%
%AMOC8*
5,1,8,0,0,1.08239X$1,22.5*
%
%ADD10C,0.0000*%
%ADD11C,0.0040*%
%ADD12C,0.0050*%
%ADD13C,0.0020*%
%ADD14C,0.0080*%
%ADD15C,0.0060*%
%ADD16C,0.0300*%
%ADD17R,0.0200X0.0300*%
%ADD18R,0.0400X0.0300*%
D10*
X003000Y001708D02*
X003000Y015704D01*
X015870Y015704D01*
X015870Y001708D01*
X003000Y001708D01*
D11*
X005395Y003131D02*
X005548Y002978D01*
X005702Y003131D01*
X005702Y003438D01*
X005855Y003438D02*
X006086Y003438D01*
X006162Y003361D01*
X006162Y003054D01*
X006086Y002978D01*
X005855Y002978D01*
X005855Y003438D01*
X005395Y003438D02*
X005395Y003131D01*
X005472Y003978D02*
X005625Y003978D01*
X005702Y004054D01*
X005702Y004208D01*
X005548Y004208D01*
X005395Y004361D02*
X005395Y004054D01*
X005472Y003978D01*
X005395Y004361D02*
X005472Y004438D01*
X005625Y004438D01*
X005702Y004361D01*
X005855Y004438D02*
X006162Y003978D01*
X006162Y004438D01*
X006316Y004438D02*
X006546Y004438D01*
X006623Y004361D01*
X006623Y004054D01*
X006546Y003978D01*
X006316Y003978D01*
X006316Y004438D01*
X005855Y004438D02*
X005855Y003978D01*
X006316Y003438D02*
X006546Y003438D01*
X006623Y003361D01*
X006623Y003054D01*
X006546Y002978D01*
X006316Y002978D01*
X006316Y003438D01*
X006316Y004978D02*
X006623Y004978D01*
X006776Y005054D02*
X006853Y004978D01*
X007006Y004978D01*
X007083Y005054D01*
X007083Y005131D01*
X007006Y005208D01*
X006853Y005208D01*
X006776Y005284D01*
X006776Y005361D01*
X006853Y005438D01*
X007006Y005438D01*
X007083Y005361D01*
X006623Y005438D02*
X006316Y005438D01*
X006316Y004978D01*
X006162Y004978D02*
X006009Y005131D01*
X006086Y005131D02*
X005855Y005131D01*
X005855Y004978D02*
X005855Y005438D01*
X006086Y005438D01*
X006162Y005361D01*
X006162Y005208D01*
X006086Y005131D01*
X006316Y005208D02*
X006469Y005208D01*
X005702Y005208D02*
X005702Y004978D01*
X005702Y005208D02*
X005625Y005284D01*
X005395Y005284D01*
X005395Y004978D01*
X005472Y005978D02*
X005625Y005978D01*
X005702Y006054D01*
X005855Y005978D02*
X006162Y005978D01*
X006316Y005978D02*
X006316Y006438D01*
X006393Y006208D02*
X006623Y005978D01*
X006316Y006131D02*
X006623Y006438D01*
X006623Y006978D02*
X006316Y006978D01*
X006316Y007438D01*
X006162Y007361D02*
X006086Y007438D01*
X005932Y007438D01*
X005855Y007361D01*
X005855Y007054D01*
X005932Y006978D01*
X006086Y006978D01*
X006162Y007054D01*
X005702Y007054D02*
X005702Y007361D01*
X005625Y007438D01*
X005395Y007438D01*
X005395Y006978D01*
X005625Y006978D01*
X005702Y007054D01*
X005625Y006438D02*
X005472Y006438D01*
X005395Y006361D01*
X005395Y006054D01*
X005472Y005978D01*
X005855Y005978D02*
X005855Y006438D01*
X005702Y006361D02*
X005625Y006438D01*
X006776Y006978D02*
X006776Y007438D01*
X006853Y007208D02*
X007083Y006978D01*
X006776Y007131D02*
X007083Y007438D01*
X006623Y007978D02*
X006393Y008208D01*
X006316Y008131D02*
X006623Y008438D01*
X006316Y008438D02*
X006316Y007978D01*
X006162Y008054D02*
X006162Y008131D01*
X006086Y008208D01*
X005932Y008208D01*
X005855Y008284D01*
X005855Y008361D01*
X005932Y008438D01*
X006086Y008438D01*
X006162Y008361D01*
X006162Y008054D02*
X006086Y007978D01*
X005932Y007978D01*
X005855Y008054D01*
X005548Y008208D02*
X005395Y008208D01*
X005395Y007978D02*
X005395Y008438D01*
X005702Y008438D01*
X005702Y008978D02*
X005702Y009208D01*
X005625Y009284D01*
X005395Y009284D01*
X005395Y008978D01*
X005855Y008978D02*
X006009Y008978D01*
X005932Y008978D02*
X005932Y009438D01*
X005855Y009438D02*
X006009Y009438D01*
X006162Y009438D02*
X006393Y009438D01*
X006469Y009361D01*
X006469Y009208D01*
X006393Y009131D01*
X006162Y009131D01*
X006162Y008978D02*
X006162Y009438D01*
X006316Y009131D02*
X006469Y008978D01*
X006623Y009054D02*
X006699Y008978D01*
X006853Y008978D01*
X006930Y009054D01*
X006930Y009361D01*
X006853Y009438D01*
X006699Y009438D01*
X006623Y009361D01*
X006623Y009054D01*
X006776Y009131D02*
X006930Y008978D01*
X006546Y009978D02*
X006393Y009978D01*
X006316Y010054D01*
X006316Y010361D01*
X006393Y010438D01*
X006546Y010438D01*
X006623Y010361D01*
X006623Y010054D01*
X006546Y009978D01*
X006162Y010054D02*
X006162Y010361D01*
X006086Y010438D01*
X005855Y010438D01*
X005855Y009978D01*
X006086Y009978D01*
X006162Y010054D01*
X005702Y010054D02*
X005625Y009978D01*
X005472Y009978D01*
X005395Y010054D01*
X005472Y010208D02*
X005625Y010208D01*
X005702Y010131D01*
X005702Y010054D01*
X005472Y010208D02*
X005395Y010284D01*
X005395Y010361D01*
X005472Y010438D01*
X005625Y010438D01*
X005702Y010361D01*
X005702Y010978D02*
X005702Y011208D01*
X005625Y011284D01*
X005395Y011284D01*
X005395Y010978D01*
X005855Y010978D02*
X006009Y010978D01*
X005932Y010978D02*
X005932Y011438D01*
X005855Y011438D02*
X006009Y011438D01*
X006162Y011438D02*
X006469Y010978D01*
X006469Y011438D01*
X006623Y011438D02*
X006930Y011438D01*
X006776Y011438D02*
X006776Y010978D01*
X006162Y010978D02*
X006162Y011438D01*
X006086Y011978D02*
X005855Y011978D01*
X005855Y012438D01*
X006086Y012438D01*
X006162Y012361D01*
X006162Y012054D01*
X006086Y011978D01*
X006316Y011978D02*
X006469Y011978D01*
X006393Y011978D02*
X006393Y012438D01*
X006469Y012438D02*
X006316Y012438D01*
X006316Y012978D02*
X006316Y013438D01*
X006162Y013361D02*
X006086Y013438D01*
X005932Y013438D01*
X005855Y013361D01*
X005855Y013054D01*
X005932Y012978D01*
X006086Y012978D01*
X006162Y013054D01*
X006316Y013131D02*
X006623Y013438D01*
X006393Y013208D02*
X006623Y012978D01*
X005702Y013054D02*
X005625Y012978D01*
X005472Y012978D01*
X005395Y013054D01*
X005472Y013208D02*
X005625Y013208D01*
X005702Y013131D01*
X005702Y013054D01*
X005472Y013208D02*
X005395Y013284D01*
X005395Y013361D01*
X005472Y013438D01*
X005625Y013438D01*
X005702Y013361D01*
X005625Y013978D02*
X005472Y013978D01*
X005395Y014054D01*
X005472Y014208D02*
X005625Y014208D01*
X005702Y014131D01*
X005702Y014054D01*
X005625Y013978D01*
X005855Y013978D02*
X006086Y013978D01*
X006162Y014054D01*
X006162Y014361D01*
X006086Y014438D01*
X005855Y014438D01*
X005855Y013978D01*
X005702Y014361D02*
X005625Y014438D01*
X005472Y014438D01*
X005395Y014361D01*
X005395Y014284D01*
X005472Y014208D01*
X006316Y014361D02*
X006316Y014054D01*
X006393Y013978D01*
X006546Y013978D01*
X006623Y014054D01*
X006623Y014361D01*
X006546Y014438D01*
X006393Y014438D01*
X006316Y014361D01*
X005625Y012438D02*
X005472Y012438D01*
X005395Y012361D01*
X005395Y012284D01*
X005472Y012208D01*
X005625Y012208D01*
X005702Y012131D01*
X005702Y012054D01*
X005625Y011978D01*
X005472Y011978D01*
X005395Y012054D01*
X005702Y012361D02*
X005625Y012438D01*
X008520Y012929D02*
X008597Y012853D01*
X008673Y012929D01*
X008750Y012853D01*
X008827Y012929D01*
X008827Y013159D01*
X008980Y013159D02*
X008980Y012929D01*
X009057Y012853D01*
X009134Y012929D01*
X009211Y012853D01*
X009287Y012929D01*
X009287Y013159D01*
X009441Y013159D02*
X009441Y012929D01*
X009518Y012853D01*
X009594Y012929D01*
X009671Y012853D01*
X009748Y012929D01*
X009748Y013159D01*
X009901Y012929D02*
X009978Y012929D01*
X009978Y012853D01*
X009901Y012853D01*
X009901Y012929D01*
X010131Y012853D02*
X010131Y013313D01*
X010362Y013159D02*
X010131Y013006D01*
X010362Y012853D01*
X010515Y012929D02*
X010592Y013006D01*
X010822Y013006D01*
X010822Y013083D02*
X010822Y012853D01*
X010592Y012853D01*
X010515Y012929D01*
X010592Y013159D02*
X010745Y013159D01*
X010822Y013083D01*
X010975Y013159D02*
X011052Y013159D01*
X011052Y012853D01*
X010975Y012853D02*
X011129Y012853D01*
X011282Y012853D02*
X011513Y012853D01*
X011589Y012929D01*
X011589Y013083D01*
X011513Y013159D01*
X011282Y013159D01*
X011282Y013313D02*
X011282Y012853D01*
X011743Y012929D02*
X011819Y013006D01*
X012050Y013006D01*
X012050Y013083D02*
X011973Y013159D01*
X011819Y013159D01*
X011743Y012929D02*
X011819Y012853D01*
X012050Y012853D01*
X012050Y013083D01*
X012203Y013083D02*
X012203Y012929D01*
X012280Y012853D01*
X012510Y012853D01*
X012510Y013313D01*
X012510Y013159D02*
X012280Y013159D01*
X012203Y013083D01*
X012664Y013083D02*
X012664Y012929D01*
X012740Y012853D01*
X012894Y012853D01*
X012970Y013006D02*
X012664Y013006D01*
X012664Y013083D02*
X012740Y013159D01*
X012894Y013159D01*
X012970Y013083D01*
X012970Y013006D01*
X013124Y013006D02*
X013277Y013159D01*
X013354Y013159D01*
X013124Y013159D02*
X013124Y012853D01*
X013508Y012853D02*
X013584Y012853D01*
X013584Y012929D01*
X013508Y012929D01*
X013508Y012853D01*
X013738Y012929D02*
X013738Y013083D01*
X013815Y013159D01*
X014045Y013159D01*
X014045Y013313D02*
X014045Y012853D01*
X013815Y012853D01*
X013738Y012929D01*
X014198Y012929D02*
X014198Y013083D01*
X014275Y013159D01*
X014428Y013159D01*
X014505Y013083D01*
X014505Y013006D01*
X014198Y013006D01*
X014198Y012929D02*
X014275Y012853D01*
X014428Y012853D01*
X014428Y013603D02*
X014198Y013603D01*
X014121Y013679D01*
X014121Y013833D01*
X014198Y013909D01*
X014428Y013909D01*
X014428Y014063D02*
X014428Y013603D01*
X013968Y013909D02*
X013891Y013909D01*
X013738Y013756D01*
X013738Y013603D02*
X013738Y013909D01*
X013584Y013833D02*
X013584Y013603D01*
X013354Y013603D01*
X013277Y013679D01*
X013354Y013756D01*
X013584Y013756D01*
X013584Y013833D02*
X013508Y013909D01*
X013354Y013909D01*
X013124Y013833D02*
X013124Y013679D01*
X013047Y013603D01*
X012894Y013603D01*
X012817Y013679D01*
X012817Y013833D01*
X012894Y013909D01*
X013047Y013909D01*
X013124Y013833D01*
X012664Y013909D02*
X012587Y013833D01*
X012357Y013833D01*
X012587Y013833D02*
X012664Y013756D01*
X012664Y013679D01*
X012587Y013603D01*
X012357Y013603D01*
X012357Y014063D01*
X012587Y014063D01*
X012664Y013986D01*
X012664Y013909D01*
X011743Y013909D02*
X011589Y013909D01*
X011666Y013986D02*
X011666Y013679D01*
X011743Y013603D01*
X011436Y013603D02*
X011436Y013909D01*
X011436Y013603D02*
X011206Y013603D01*
X011129Y013679D01*
X011129Y013909D01*
X010975Y013833D02*
X010975Y013679D01*
X010899Y013603D01*
X010745Y013603D01*
X010668Y013679D01*
X010668Y013833D01*
X010745Y013909D01*
X010899Y013909D01*
X010975Y013833D01*
X011052Y013390D02*
X011052Y013313D01*
X010515Y013603D02*
X010285Y013756D01*
X010515Y013909D01*
X010285Y014063D02*
X010285Y013603D01*
X010131Y013603D02*
X009901Y013603D01*
X009824Y013679D01*
X009901Y013756D01*
X010131Y013756D01*
X010131Y013833D02*
X010131Y013603D01*
X010131Y013833D02*
X010055Y013909D01*
X009901Y013909D01*
X009671Y013833D02*
X009671Y013756D01*
X009364Y013756D01*
X009364Y013679D02*
X009364Y013833D01*
X009441Y013909D01*
X009594Y013909D01*
X009671Y013833D01*
X009594Y013603D02*
X009441Y013603D01*
X009364Y013679D01*
X009211Y013909D02*
X009134Y013909D01*
X008980Y013756D01*
X008827Y013756D02*
X008750Y013833D01*
X008520Y013833D01*
X008520Y014063D02*
X008750Y014063D01*
X008827Y013986D01*
X008827Y013909D01*
X008750Y013833D01*
X008827Y013756D02*
X008827Y013679D01*
X008750Y013603D01*
X008520Y013603D01*
X008520Y014063D01*
X008520Y014353D02*
X008520Y014813D01*
X008750Y014813D01*
X008827Y014736D01*
X008827Y014583D01*
X008750Y014506D01*
X008520Y014506D01*
X008673Y014506D02*
X008827Y014353D01*
X008980Y014353D02*
X008980Y014813D01*
X009287Y014813D01*
X009441Y014813D02*
X009594Y014659D01*
X009748Y014813D01*
X009748Y014353D01*
X009901Y014353D02*
X010208Y014353D01*
X010055Y014353D02*
X010055Y014813D01*
X009901Y014659D01*
X010362Y014736D02*
X010438Y014813D01*
X010592Y014813D01*
X010668Y014736D01*
X010668Y014659D01*
X010362Y014353D01*
X010668Y014353D01*
X009441Y014353D02*
X009441Y014813D01*
X009134Y014583D02*
X008980Y014583D01*
X008980Y013909D02*
X008980Y013603D01*
X008520Y013159D02*
X008520Y012929D01*
X009897Y010051D02*
X009820Y009974D01*
X009820Y009821D01*
X009897Y009744D01*
X009897Y010051D02*
X009973Y010051D01*
X010280Y009744D01*
X010280Y010051D01*
X010280Y009591D02*
X010280Y009284D01*
X010280Y009437D02*
X009820Y009437D01*
X009973Y009284D01*
X009820Y009130D02*
X010280Y009130D01*
X010280Y008824D02*
X009820Y008824D01*
X009973Y008977D01*
X009820Y009130D01*
X009820Y008670D02*
X009820Y008363D01*
X010280Y008363D01*
X010280Y008210D02*
X010127Y008056D01*
X010127Y008133D02*
X010127Y007903D01*
X010280Y007903D02*
X009820Y007903D01*
X009820Y008133D01*
X009897Y008210D01*
X010050Y008210D01*
X010127Y008133D01*
X010050Y008363D02*
X010050Y008517D01*
D12*
X011284Y007292D02*
X011284Y006505D01*
X011678Y006505D01*
X011678Y007292D01*
X011284Y007292D01*
X011875Y007686D02*
X012466Y007686D01*
X012466Y008080D01*
X011875Y008080D01*
X011875Y007686D01*
X012072Y007292D02*
X012662Y007292D01*
X012662Y006898D01*
X012072Y006898D01*
X012072Y007292D01*
X010497Y006945D02*
X010497Y011183D01*
X010495Y011224D01*
X010490Y011264D01*
X010480Y011303D01*
X010467Y011342D01*
X010451Y011379D01*
X010431Y011415D01*
X010408Y011448D01*
X010382Y011479D01*
X010353Y011508D01*
X010322Y011534D01*
X010289Y011557D01*
X010253Y011577D01*
X010216Y011593D01*
X010177Y011606D01*
X010138Y011616D01*
X010098Y011621D01*
X010057Y011623D01*
X009953Y011623D01*
X009912Y011621D01*
X009872Y011616D01*
X009833Y011606D01*
X009794Y011593D01*
X009757Y011577D01*
X009721Y011557D01*
X009688Y011534D01*
X009657Y011508D01*
X009628Y011479D01*
X009602Y011448D01*
X009579Y011415D01*
X009559Y011379D01*
X009543Y011342D01*
X009530Y011303D01*
X009520Y011264D01*
X009515Y011224D01*
X009513Y011183D01*
X009513Y007049D01*
X009515Y007004D01*
X009520Y006959D01*
X009530Y006915D01*
X009542Y006872D01*
X009559Y006830D01*
X009579Y006790D01*
X009602Y006751D01*
X009628Y006715D01*
X009657Y006681D01*
X009689Y006649D01*
X009723Y006620D01*
X009759Y006594D01*
X009798Y006571D01*
X009838Y006551D01*
X009880Y006534D01*
X009923Y006522D01*
X009967Y006512D01*
X010012Y006507D01*
X010057Y006505D01*
X010098Y006507D01*
X010138Y006512D01*
X010177Y006522D01*
X010216Y006535D01*
X010253Y006551D01*
X010289Y006571D01*
X010322Y006594D01*
X010353Y006620D01*
X010382Y006649D01*
X010408Y006680D01*
X010431Y006713D01*
X010451Y006749D01*
X010467Y006786D01*
X010480Y006825D01*
X010490Y006864D01*
X010495Y006904D01*
X010497Y006945D01*
X007938Y005914D02*
X007938Y012213D01*
X014237Y012213D01*
X014237Y005914D01*
X007938Y005914D01*
X010641Y009654D02*
X010643Y009716D01*
X010649Y009779D01*
X010659Y009840D01*
X010673Y009901D01*
X010690Y009961D01*
X010711Y010020D01*
X010737Y010077D01*
X010765Y010132D01*
X010797Y010186D01*
X010833Y010237D01*
X010871Y010287D01*
X010913Y010333D01*
X010957Y010377D01*
X011005Y010418D01*
X011054Y010456D01*
X011106Y010490D01*
X011160Y010521D01*
X011216Y010549D01*
X011274Y010573D01*
X011333Y010594D01*
X011393Y010610D01*
X011454Y010623D01*
X011516Y010632D01*
X011578Y010637D01*
X011641Y010638D01*
X011703Y010635D01*
X011765Y010628D01*
X011827Y010617D01*
X011887Y010602D01*
X011947Y010584D01*
X012005Y010562D01*
X012062Y010536D01*
X012117Y010506D01*
X012170Y010473D01*
X012221Y010437D01*
X012269Y010398D01*
X012315Y010355D01*
X012358Y010310D01*
X012398Y010262D01*
X012435Y010212D01*
X012469Y010159D01*
X012500Y010105D01*
X012526Y010049D01*
X012550Y009991D01*
X012569Y009931D01*
X012585Y009871D01*
X012597Y009809D01*
X012605Y009748D01*
X012609Y009685D01*
X012609Y009623D01*
X012605Y009560D01*
X012597Y009499D01*
X012585Y009437D01*
X012569Y009377D01*
X012550Y009317D01*
X012526Y009259D01*
X012500Y009203D01*
X012469Y009149D01*
X012435Y009096D01*
X012398Y009046D01*
X012358Y008998D01*
X012315Y008953D01*
X012269Y008910D01*
X012221Y008871D01*
X012170Y008835D01*
X012117Y008802D01*
X012062Y008772D01*
X012005Y008746D01*
X011947Y008724D01*
X011887Y008706D01*
X011827Y008691D01*
X011765Y008680D01*
X011703Y008673D01*
X011641Y008670D01*
X011578Y008671D01*
X011516Y008676D01*
X011454Y008685D01*
X011393Y008698D01*
X011333Y008714D01*
X011274Y008735D01*
X011216Y008759D01*
X011160Y008787D01*
X011106Y008818D01*
X011054Y008852D01*
X011005Y008890D01*
X010957Y008931D01*
X010913Y008975D01*
X010871Y009021D01*
X010833Y009071D01*
X010797Y009122D01*
X010765Y009176D01*
X010737Y009231D01*
X010711Y009288D01*
X010690Y009347D01*
X010673Y009407D01*
X010659Y009468D01*
X010649Y009529D01*
X010643Y009592D01*
X010641Y009654D01*
D13*
X009455Y009097D02*
X009308Y008950D01*
X009345Y008987D02*
X009455Y008877D01*
X009308Y008877D02*
X009308Y009097D01*
X009087Y009097D02*
X009087Y008877D01*
X009234Y008877D01*
X009013Y008914D02*
X008976Y008877D01*
X008903Y008877D01*
X008866Y008914D01*
X008866Y009060D01*
X008903Y009097D01*
X008976Y009097D01*
X009013Y009060D01*
X008792Y009060D02*
X008792Y008914D01*
X008755Y008877D01*
X008645Y008877D01*
X008645Y009097D01*
X008755Y009097D01*
X008792Y009060D01*
X008903Y009664D02*
X008866Y009701D01*
X008903Y009664D02*
X008976Y009664D01*
X009013Y009701D01*
X009013Y009738D01*
X008976Y009774D01*
X008903Y009774D01*
X008866Y009811D01*
X008866Y009848D01*
X008903Y009885D01*
X008976Y009885D01*
X009013Y009848D01*
X009087Y009885D02*
X009087Y009664D01*
X009087Y009738D02*
X009234Y009885D01*
X009124Y009774D02*
X009234Y009664D01*
X008792Y009885D02*
X008645Y009885D01*
X008645Y009664D01*
X008645Y009774D02*
X008718Y009774D01*
X008645Y010649D02*
X008645Y010795D01*
X008755Y010795D01*
X008792Y010759D01*
X008792Y010649D01*
X008866Y010649D02*
X008939Y010649D01*
X008903Y010649D02*
X008903Y010869D01*
X008939Y010869D02*
X008866Y010869D01*
X009013Y010869D02*
X009013Y010649D01*
X009013Y010722D02*
X009123Y010722D01*
X009160Y010759D01*
X009160Y010832D01*
X009123Y010869D01*
X009013Y010869D01*
X009087Y010722D02*
X009160Y010649D01*
X009234Y010685D02*
X009234Y010832D01*
X009271Y010869D01*
X009344Y010869D01*
X009381Y010832D01*
X009381Y010685D01*
X009344Y010649D01*
X009271Y010649D01*
X009234Y010685D01*
X009308Y010722D02*
X009381Y010649D01*
X009197Y011239D02*
X009234Y011276D01*
X009234Y011423D01*
X009197Y011459D01*
X009124Y011459D01*
X009087Y011423D01*
X009087Y011276D01*
X009124Y011239D01*
X009197Y011239D01*
X009013Y011276D02*
X009013Y011423D01*
X008976Y011459D01*
X008866Y011459D01*
X008866Y011239D01*
X008976Y011239D01*
X009013Y011276D01*
X008792Y011276D02*
X008792Y011313D01*
X008755Y011349D01*
X008682Y011349D01*
X008645Y011386D01*
X008645Y011423D01*
X008682Y011459D01*
X008755Y011459D01*
X008792Y011423D01*
X008792Y011276D02*
X008755Y011239D01*
X008682Y011239D01*
X008645Y011276D01*
X008682Y008310D02*
X008645Y008273D01*
X008645Y008126D01*
X008682Y008090D01*
X008755Y008090D01*
X008792Y008126D01*
X008866Y008090D02*
X009013Y008090D01*
X009087Y008090D02*
X009087Y008310D01*
X009124Y008200D02*
X009234Y008090D01*
X009087Y008163D02*
X009234Y008310D01*
X008866Y008310D02*
X008866Y008090D01*
X008792Y008273D02*
X008755Y008310D01*
X008682Y008310D01*
X008866Y007719D02*
X008976Y007719D01*
X009013Y007683D01*
X009013Y007609D01*
X008976Y007572D01*
X008866Y007572D01*
X008866Y007499D02*
X008866Y007719D01*
X008755Y007646D02*
X008792Y007609D01*
X008792Y007499D01*
X008645Y007499D02*
X008645Y007646D01*
X008755Y007646D01*
X008939Y007572D02*
X009013Y007499D01*
X009087Y007499D02*
X009087Y007719D01*
X009234Y007719D01*
X009308Y007683D02*
X009308Y007646D01*
X009345Y007609D01*
X009418Y007609D01*
X009455Y007572D01*
X009455Y007536D01*
X009418Y007499D01*
X009345Y007499D01*
X009308Y007536D01*
X009234Y007499D02*
X009087Y007499D01*
X009087Y007609D02*
X009160Y007609D01*
X009308Y007683D02*
X009345Y007719D01*
X009418Y007719D01*
X009455Y007683D01*
X009197Y006735D02*
X009087Y006735D01*
X009087Y006515D01*
X009197Y006515D01*
X009234Y006551D01*
X009234Y006698D01*
X009197Y006735D01*
X009013Y006735D02*
X009013Y006515D01*
X008866Y006735D01*
X008866Y006515D01*
X008792Y006551D02*
X008792Y006625D01*
X008718Y006625D01*
X008645Y006698D02*
X008645Y006551D01*
X008682Y006515D01*
X008755Y006515D01*
X008792Y006551D01*
X008792Y006698D02*
X008755Y006735D01*
X008682Y006735D01*
X008645Y006698D01*
X012816Y008877D02*
X012816Y009024D01*
X012926Y009024D01*
X012963Y008987D01*
X012963Y008877D01*
X013037Y008877D02*
X013110Y008877D01*
X013074Y008877D02*
X013074Y009097D01*
X013110Y009097D02*
X013037Y009097D01*
X013184Y009097D02*
X013331Y008877D01*
X013331Y009097D01*
X013405Y009097D02*
X013552Y009097D01*
X013479Y009097D02*
X013479Y008877D01*
X013184Y008877D02*
X013184Y009097D01*
X013234Y009664D02*
X013344Y009664D01*
X013381Y009701D01*
X013381Y009848D01*
X013344Y009885D01*
X013234Y009885D01*
X013234Y009664D01*
X013160Y009701D02*
X013123Y009664D01*
X013050Y009664D01*
X013013Y009701D01*
X013050Y009774D02*
X013123Y009774D01*
X013160Y009738D01*
X013160Y009701D01*
X013050Y009774D02*
X013013Y009811D01*
X013013Y009848D01*
X013050Y009885D01*
X013123Y009885D01*
X013160Y009848D01*
X013455Y009885D02*
X013528Y009885D01*
X013492Y009885D02*
X013492Y009664D01*
X013528Y009664D02*
X013455Y009664D01*
X013455Y010452D02*
X013455Y010672D01*
X013381Y010635D02*
X013344Y010672D01*
X013271Y010672D01*
X013234Y010635D01*
X013234Y010488D01*
X013271Y010452D01*
X013344Y010452D01*
X013381Y010488D01*
X013455Y010525D02*
X013602Y010672D01*
X013492Y010562D02*
X013602Y010452D01*
X013160Y010488D02*
X013123Y010452D01*
X013050Y010452D01*
X013013Y010488D01*
X013050Y010562D02*
X013123Y010562D01*
X013160Y010525D01*
X013160Y010488D01*
X013050Y010562D02*
X013013Y010599D01*
X013013Y010635D01*
X013050Y010672D01*
X013123Y010672D01*
X013160Y010635D01*
X013147Y011239D02*
X013074Y011239D01*
X013037Y011276D01*
X013074Y011349D02*
X013147Y011349D01*
X013184Y011313D01*
X013184Y011276D01*
X013147Y011239D01*
X013258Y011239D02*
X013405Y011239D01*
X013479Y011239D02*
X013626Y011239D01*
X013479Y011239D02*
X013479Y011459D01*
X013405Y011459D02*
X013258Y011459D01*
X013258Y011239D01*
X013258Y011349D02*
X013331Y011349D01*
X013184Y011423D02*
X013147Y011459D01*
X013074Y011459D01*
X013037Y011423D01*
X013037Y011386D01*
X013074Y011349D01*
X012963Y011349D02*
X012963Y011239D01*
X012963Y011349D02*
X012926Y011386D01*
X012816Y011386D01*
X012816Y011239D01*
X013050Y008310D02*
X013013Y008273D01*
X013013Y008126D01*
X013050Y008090D01*
X013123Y008090D01*
X013160Y008126D01*
X013160Y008200D01*
X013086Y008200D01*
X013160Y008273D02*
X013123Y008310D01*
X013050Y008310D01*
X013234Y008310D02*
X013381Y008090D01*
X013381Y008310D01*
X013455Y008310D02*
X013565Y008310D01*
X013602Y008273D01*
X013602Y008126D01*
X013565Y008090D01*
X013455Y008090D01*
X013455Y008310D01*
X013234Y008310D02*
X013234Y008090D01*
X013160Y007522D02*
X013160Y007376D01*
X013086Y007302D01*
X013013Y007376D01*
X013013Y007522D01*
X013234Y007412D02*
X013271Y007449D01*
X013381Y007449D01*
X013381Y007522D02*
X013381Y007302D01*
X013271Y007302D01*
X013234Y007339D01*
X013234Y007412D01*
X013455Y007412D02*
X013492Y007449D01*
X013602Y007449D01*
X013602Y007522D02*
X013602Y007302D01*
X013492Y007302D01*
X013455Y007339D01*
X013455Y007412D01*
X013455Y006735D02*
X013602Y006735D01*
X013528Y006735D02*
X013528Y006515D01*
X013381Y006515D02*
X013381Y006735D01*
X013234Y006735D02*
X013234Y006515D01*
X013160Y006515D02*
X013160Y006662D01*
X013086Y006735D01*
X013013Y006662D01*
X013013Y006515D01*
X013013Y006625D02*
X013160Y006625D01*
X013234Y006735D02*
X013381Y006515D01*
D14*
X013067Y005168D02*
X013933Y005168D01*
X014711Y004391D02*
X014711Y003524D01*
X013933Y002747D02*
X013067Y002747D01*
X012289Y003524D02*
X012289Y004391D01*
X012831Y003958D02*
X012833Y004009D01*
X012839Y004060D01*
X012849Y004110D01*
X012862Y004160D01*
X012880Y004208D01*
X012900Y004255D01*
X012925Y004300D01*
X012953Y004343D01*
X012984Y004384D01*
X013018Y004422D01*
X013055Y004457D01*
X013094Y004490D01*
X013136Y004520D01*
X013180Y004546D01*
X013226Y004568D01*
X013274Y004588D01*
X013323Y004603D01*
X013373Y004615D01*
X013423Y004623D01*
X013474Y004627D01*
X013526Y004627D01*
X013577Y004623D01*
X013627Y004615D01*
X013677Y004603D01*
X013726Y004588D01*
X013774Y004568D01*
X013820Y004546D01*
X013864Y004520D01*
X013906Y004490D01*
X013945Y004457D01*
X013982Y004422D01*
X014016Y004384D01*
X014047Y004343D01*
X014075Y004300D01*
X014100Y004255D01*
X014120Y004208D01*
X014138Y004160D01*
X014151Y004110D01*
X014161Y004060D01*
X014167Y004009D01*
X014169Y003958D01*
X014167Y003907D01*
X014161Y003856D01*
X014151Y003806D01*
X014138Y003756D01*
X014120Y003708D01*
X014100Y003661D01*
X014075Y003616D01*
X014047Y003573D01*
X014016Y003532D01*
X013982Y003494D01*
X013945Y003459D01*
X013906Y003426D01*
X013864Y003396D01*
X013820Y003370D01*
X013774Y003348D01*
X013726Y003328D01*
X013677Y003313D01*
X013627Y003301D01*
X013577Y003293D01*
X013526Y003289D01*
X013474Y003289D01*
X013423Y003293D01*
X013373Y003301D01*
X013323Y003313D01*
X013274Y003328D01*
X013226Y003348D01*
X013180Y003370D01*
X013136Y003396D01*
X013094Y003426D01*
X013055Y003459D01*
X013018Y003494D01*
X012984Y003532D01*
X012953Y003573D01*
X012925Y003616D01*
X012900Y003661D01*
X012880Y003708D01*
X012862Y003756D01*
X012849Y003806D01*
X012839Y003856D01*
X012833Y003907D01*
X012831Y003958D01*
D15*
X003750Y002708D02*
X002750Y002708D01*
X002750Y003708D01*
X002750Y004708D01*
X002750Y005708D01*
X002750Y006708D01*
X002750Y007708D01*
X002750Y008708D01*
X002750Y009708D01*
X002750Y010708D01*
X002750Y011708D01*
X002750Y012708D01*
X002750Y013708D01*
X002750Y014708D01*
X003750Y014708D01*
X003750Y013708D01*
X002750Y013708D01*
X003750Y013708D02*
X003750Y012708D01*
X002750Y012708D01*
X002750Y011708D02*
X003750Y011708D01*
X003750Y012708D01*
X003750Y011708D02*
X003750Y010708D01*
X002750Y010708D01*
X002750Y009708D02*
X003750Y009708D01*
X003750Y010708D01*
X003750Y009708D02*
X003750Y008708D01*
X002750Y008708D01*
X002750Y007708D02*
X003750Y007708D01*
X003750Y008708D01*
X003750Y007708D02*
X003750Y006708D01*
X002750Y006708D01*
X003750Y006708D02*
X003750Y005708D01*
X002750Y005708D01*
X002750Y004708D02*
X003750Y004708D01*
X003750Y005708D01*
X003750Y004708D02*
X003750Y003708D01*
X002750Y003708D01*
X003750Y003708D02*
X003750Y002708D01*
D16*
X002500Y003208D02*
X000250Y003208D01*
X000250Y004208D02*
X002500Y004208D01*
X002500Y005208D02*
X000250Y005208D01*
X000250Y006208D02*
X002500Y006208D01*
X002500Y007208D02*
X000250Y007208D01*
X000250Y008208D02*
X002500Y008208D01*
X002500Y009208D02*
X000250Y009208D01*
X000250Y010208D02*
X002500Y010208D01*
X002500Y011208D02*
X000250Y011208D01*
X000250Y012208D02*
X002500Y012208D01*
X002500Y013208D02*
X000250Y013208D01*
X000250Y014208D02*
X002500Y014208D01*
D17*
X002650Y014208D03*
X002650Y013208D03*
X002650Y012208D03*
X002650Y011208D03*
X002650Y010208D03*
X002650Y009208D03*
X002650Y008208D03*
X002650Y007208D03*
X002650Y006208D03*
X002650Y005208D03*
X002650Y004208D03*
X002650Y003208D03*
D18*
X003950Y003208D03*
X003950Y004208D03*
X003950Y005208D03*
X003950Y006208D03*
X003950Y007208D03*
X003950Y008208D03*
X003950Y009208D03*
X003950Y010208D03*
X003950Y011208D03*
X003950Y012208D03*
X003950Y013208D03*
X003950Y014208D03*
M02*
