G75*
G70*
%OFA0B0*%
%FSLAX24Y24*%
%IPPOS*%
%LPD*%
%AMOC8*
5,1,8,0,0,1.08239X$1,22.5*
%
%ADD10C,0.0000*%
%ADD11C,0.0886*%
%ADD12C,0.0600*%
%ADD13C,0.0160*%
D10*
X003000Y001708D02*
X003000Y015704D01*
X015870Y015704D01*
X015870Y001708D01*
X003000Y001708D01*
D11*
X012500Y002958D03*
X013500Y003958D03*
X014500Y002958D03*
X014500Y004958D03*
X012500Y004958D03*
D12*
X004800Y005208D02*
X004200Y005208D01*
X004200Y004208D02*
X004800Y004208D01*
X004800Y003208D02*
X004200Y003208D01*
X004200Y006208D02*
X004800Y006208D01*
X004800Y007208D02*
X004200Y007208D01*
X004200Y008208D02*
X004800Y008208D01*
X004800Y009208D02*
X004200Y009208D01*
X004200Y010208D02*
X004800Y010208D01*
X004800Y011208D02*
X004200Y011208D01*
X004200Y012208D02*
X004800Y012208D01*
X004800Y013208D02*
X004200Y013208D01*
X004200Y014208D02*
X004800Y014208D01*
D13*
X005127Y013912D02*
X015690Y013912D01*
X015690Y013754D02*
X003180Y013754D01*
X003180Y013912D02*
X003873Y013912D01*
X003827Y013958D02*
X003951Y013835D01*
X004112Y013768D01*
X004888Y013768D01*
X005049Y013835D01*
X005173Y013958D01*
X005240Y014120D01*
X005240Y014295D01*
X005173Y014457D01*
X005049Y014581D01*
X004888Y014648D01*
X004112Y014648D01*
X003951Y014581D01*
X003827Y014457D01*
X003760Y014295D01*
X003760Y014120D01*
X003827Y013958D01*
X003780Y014071D02*
X003180Y014071D01*
X003180Y014229D02*
X003760Y014229D01*
X003798Y014388D02*
X003180Y014388D01*
X003180Y014546D02*
X003916Y014546D01*
X003180Y014705D02*
X015690Y014705D01*
X015690Y014863D02*
X003180Y014863D01*
X003180Y015022D02*
X015690Y015022D01*
X015690Y015180D02*
X003180Y015180D01*
X003180Y015339D02*
X015690Y015339D01*
X015690Y015497D02*
X003180Y015497D01*
X003180Y015524D02*
X015690Y015524D01*
X015690Y001888D01*
X003180Y001888D01*
X003180Y015524D01*
X003180Y013595D02*
X003986Y013595D01*
X003951Y013581D02*
X003827Y013457D01*
X003760Y013295D01*
X003760Y013120D01*
X003827Y012958D01*
X003951Y012835D01*
X004112Y012768D01*
X004888Y012768D01*
X005049Y012835D01*
X005173Y012958D01*
X005240Y013120D01*
X005240Y013295D01*
X005173Y013457D01*
X005049Y013581D01*
X004888Y013648D01*
X004112Y013648D01*
X003951Y013581D01*
X003819Y013437D02*
X003180Y013437D01*
X003180Y013278D02*
X003760Y013278D01*
X003760Y013120D02*
X003180Y013120D01*
X003180Y012961D02*
X003826Y012961D01*
X004028Y012803D02*
X003180Y012803D01*
X003180Y012644D02*
X004104Y012644D01*
X004112Y012648D02*
X003951Y012581D01*
X003827Y012457D01*
X003760Y012295D01*
X003760Y012120D01*
X003827Y011958D01*
X003951Y011835D01*
X004112Y011768D01*
X004888Y011768D01*
X005049Y011835D01*
X005173Y011958D01*
X005240Y012120D01*
X005240Y012295D01*
X005173Y012457D01*
X005049Y012581D01*
X004888Y012648D01*
X004112Y012648D01*
X003856Y012486D02*
X003180Y012486D01*
X003180Y012327D02*
X003773Y012327D01*
X003760Y012169D02*
X003180Y012169D01*
X003180Y012010D02*
X003806Y012010D01*
X003934Y011852D02*
X003180Y011852D01*
X003180Y011693D02*
X015690Y011693D01*
X015690Y011535D02*
X005095Y011535D01*
X005049Y011581D02*
X004888Y011648D01*
X004112Y011648D01*
X003951Y011581D01*
X003827Y011457D01*
X003760Y011295D01*
X003760Y011120D01*
X003827Y010958D01*
X003951Y010835D01*
X004112Y010768D01*
X004888Y010768D01*
X005049Y010835D01*
X005173Y010958D01*
X005240Y011120D01*
X005240Y011295D01*
X005173Y011457D01*
X005049Y011581D01*
X005206Y011376D02*
X015690Y011376D01*
X015690Y011218D02*
X005240Y011218D01*
X005215Y011059D02*
X015690Y011059D01*
X015690Y010901D02*
X005115Y010901D01*
X005049Y010581D02*
X004888Y010648D01*
X004112Y010648D01*
X003951Y010581D01*
X003827Y010457D01*
X003760Y010295D01*
X003760Y010120D01*
X003827Y009958D01*
X003951Y009835D01*
X004112Y009768D01*
X004888Y009768D01*
X005049Y009835D01*
X005173Y009958D01*
X005240Y010120D01*
X005240Y010295D01*
X005173Y010457D01*
X005049Y010581D01*
X005042Y010584D02*
X015690Y010584D01*
X015690Y010742D02*
X003180Y010742D01*
X003180Y010584D02*
X003958Y010584D01*
X003814Y010425D02*
X003180Y010425D01*
X003180Y010267D02*
X003760Y010267D01*
X003765Y010108D02*
X003180Y010108D01*
X003180Y009950D02*
X003836Y009950D01*
X004056Y009791D02*
X003180Y009791D01*
X003180Y009633D02*
X004076Y009633D01*
X004112Y009648D02*
X003951Y009581D01*
X003827Y009457D01*
X003760Y009295D01*
X003760Y009120D01*
X003827Y008958D01*
X003951Y008835D01*
X004112Y008768D01*
X004888Y008768D01*
X005049Y008835D01*
X005173Y008958D01*
X005240Y009120D01*
X005240Y009295D01*
X005173Y009457D01*
X005049Y009581D01*
X004888Y009648D01*
X004112Y009648D01*
X003844Y009474D02*
X003180Y009474D01*
X003180Y009316D02*
X003768Y009316D01*
X003760Y009157D02*
X003180Y009157D01*
X003180Y008999D02*
X003810Y008999D01*
X003945Y008840D02*
X003180Y008840D01*
X003180Y008682D02*
X015690Y008682D01*
X015690Y008840D02*
X005055Y008840D01*
X005190Y008999D02*
X015690Y008999D01*
X015690Y009157D02*
X005240Y009157D01*
X005232Y009316D02*
X015690Y009316D01*
X015690Y009474D02*
X005156Y009474D01*
X004924Y009633D02*
X015690Y009633D01*
X015690Y009791D02*
X004944Y009791D01*
X005164Y009950D02*
X015690Y009950D01*
X015690Y010108D02*
X005235Y010108D01*
X005240Y010267D02*
X015690Y010267D01*
X015690Y010425D02*
X005186Y010425D01*
X003885Y010901D02*
X003180Y010901D01*
X003180Y011059D02*
X003785Y011059D01*
X003760Y011218D02*
X003180Y011218D01*
X003180Y011376D02*
X003794Y011376D01*
X003905Y011535D02*
X003180Y011535D01*
X004896Y012644D02*
X015690Y012644D01*
X015690Y012486D02*
X005144Y012486D01*
X005227Y012327D02*
X015690Y012327D01*
X015690Y012169D02*
X005240Y012169D01*
X005194Y012010D02*
X015690Y012010D01*
X015690Y011852D02*
X005066Y011852D01*
X004972Y012803D02*
X015690Y012803D01*
X015690Y012961D02*
X005174Y012961D01*
X005240Y013120D02*
X015690Y013120D01*
X015690Y013278D02*
X005240Y013278D01*
X005181Y013437D02*
X015690Y013437D01*
X015690Y013595D02*
X005014Y013595D01*
X005220Y014071D02*
X015690Y014071D01*
X015690Y014229D02*
X005240Y014229D01*
X005202Y014388D02*
X015690Y014388D01*
X015690Y014546D02*
X005084Y014546D01*
X004888Y008648D02*
X004112Y008648D01*
X003951Y008581D01*
X003827Y008457D01*
X003760Y008295D01*
X003760Y008120D01*
X003827Y007958D01*
X003951Y007835D01*
X004112Y007768D01*
X004888Y007768D01*
X005049Y007835D01*
X005173Y007958D01*
X005240Y008120D01*
X005240Y008295D01*
X005173Y008457D01*
X005049Y008581D01*
X004888Y008648D01*
X005107Y008523D02*
X015690Y008523D01*
X015690Y008365D02*
X005211Y008365D01*
X005240Y008206D02*
X015690Y008206D01*
X015690Y008048D02*
X005210Y008048D01*
X005104Y007889D02*
X015690Y007889D01*
X015690Y007731D02*
X003180Y007731D01*
X003180Y007889D02*
X003896Y007889D01*
X003790Y008048D02*
X003180Y008048D01*
X003180Y008206D02*
X003760Y008206D01*
X003789Y008365D02*
X003180Y008365D01*
X003180Y008523D02*
X003893Y008523D01*
X004112Y007648D02*
X003951Y007581D01*
X003827Y007457D01*
X003760Y007295D01*
X003760Y007120D01*
X003827Y006958D01*
X003951Y006835D01*
X004112Y006768D01*
X004888Y006768D01*
X005049Y006835D01*
X005173Y006958D01*
X005240Y007120D01*
X005240Y007295D01*
X005173Y007457D01*
X005049Y007581D01*
X004888Y007648D01*
X004112Y007648D01*
X003942Y007572D02*
X003180Y007572D01*
X003180Y007414D02*
X003809Y007414D01*
X003760Y007255D02*
X003180Y007255D01*
X003180Y007097D02*
X003770Y007097D01*
X003847Y006938D02*
X003180Y006938D01*
X003180Y006780D02*
X004083Y006780D01*
X004112Y006648D02*
X003951Y006581D01*
X003827Y006457D01*
X003760Y006295D01*
X003760Y006120D01*
X003827Y005958D01*
X003951Y005835D01*
X004112Y005768D01*
X004888Y005768D01*
X005049Y005835D01*
X005173Y005958D01*
X005240Y006120D01*
X005240Y006295D01*
X005173Y006457D01*
X005049Y006581D01*
X004888Y006648D01*
X004112Y006648D01*
X004049Y006621D02*
X003180Y006621D01*
X003180Y006463D02*
X003833Y006463D01*
X003764Y006304D02*
X003180Y006304D01*
X003180Y006146D02*
X003760Y006146D01*
X003815Y005987D02*
X003180Y005987D01*
X003180Y005829D02*
X003965Y005829D01*
X004112Y005648D02*
X003951Y005581D01*
X003827Y005457D01*
X003760Y005295D01*
X003760Y005120D01*
X003827Y004958D01*
X003951Y004835D01*
X004112Y004768D01*
X004888Y004768D01*
X005049Y004835D01*
X005173Y004958D01*
X005240Y005120D01*
X005240Y005295D01*
X005173Y005457D01*
X005049Y005581D01*
X004888Y005648D01*
X004112Y005648D01*
X003882Y005512D02*
X003180Y005512D01*
X003180Y005670D02*
X015690Y005670D01*
X015690Y005512D02*
X014785Y005512D01*
X014826Y005490D02*
X014739Y005535D01*
X014646Y005565D01*
X014568Y005577D01*
X014568Y005025D01*
X015120Y005025D01*
X015108Y005103D01*
X015077Y005197D01*
X015033Y005284D01*
X014975Y005363D01*
X014906Y005433D01*
X014826Y005490D01*
X014983Y005353D02*
X015690Y005353D01*
X015690Y005195D02*
X015078Y005195D01*
X015118Y005036D02*
X015690Y005036D01*
X015690Y004878D02*
X015118Y004878D01*
X015120Y004890D02*
X014568Y004890D01*
X014568Y005025D01*
X014432Y005025D01*
X014432Y004890D01*
X013880Y004890D01*
X013892Y004812D01*
X013923Y004718D01*
X013967Y004631D01*
X014025Y004552D01*
X014094Y004482D01*
X014174Y004425D01*
X014261Y004380D01*
X014354Y004350D01*
X014432Y004338D01*
X014432Y004890D01*
X014568Y004890D01*
X014568Y004338D01*
X014646Y004350D01*
X014739Y004380D01*
X014826Y004425D01*
X014906Y004482D01*
X014975Y004552D01*
X015033Y004631D01*
X015077Y004718D01*
X015108Y004812D01*
X015120Y004890D01*
X015077Y004719D02*
X015690Y004719D01*
X015690Y004561D02*
X014982Y004561D01*
X014782Y004402D02*
X015690Y004402D01*
X015690Y004244D02*
X014012Y004244D01*
X013994Y004288D02*
X013830Y004452D01*
X013616Y004540D01*
X013384Y004540D01*
X013170Y004452D01*
X013006Y004288D01*
X012917Y004073D01*
X012917Y003842D01*
X013006Y003627D01*
X013170Y003463D01*
X013384Y003375D01*
X013616Y003375D01*
X013830Y003463D01*
X013994Y003627D01*
X014083Y003842D01*
X014083Y004073D01*
X013994Y004288D01*
X013880Y004402D02*
X014218Y004402D01*
X014018Y004561D02*
X012982Y004561D01*
X012975Y004552D02*
X013033Y004631D01*
X013077Y004718D01*
X013108Y004812D01*
X013120Y004890D01*
X012568Y004890D01*
X012568Y005025D01*
X013120Y005025D01*
X013108Y005103D01*
X013077Y005197D01*
X013033Y005284D01*
X012975Y005363D01*
X012906Y005433D01*
X012826Y005490D01*
X012739Y005535D01*
X012646Y005565D01*
X012568Y005577D01*
X012568Y005025D01*
X012432Y005025D01*
X012432Y004890D01*
X011880Y004890D01*
X011892Y004812D01*
X011923Y004718D01*
X011967Y004631D01*
X012025Y004552D01*
X012094Y004482D01*
X012174Y004425D01*
X012261Y004380D01*
X012354Y004350D01*
X012432Y004338D01*
X012432Y004890D01*
X012568Y004890D01*
X012568Y004338D01*
X012646Y004350D01*
X012739Y004380D01*
X012826Y004425D01*
X012906Y004482D01*
X012975Y004552D01*
X013077Y004719D02*
X013923Y004719D01*
X013882Y004878D02*
X013118Y004878D01*
X013118Y005036D02*
X013882Y005036D01*
X013880Y005025D02*
X014432Y005025D01*
X014432Y005577D01*
X014354Y005565D01*
X014261Y005535D01*
X014174Y005490D01*
X014094Y005433D01*
X014025Y005363D01*
X013967Y005284D01*
X013923Y005197D01*
X013892Y005103D01*
X013880Y005025D01*
X013922Y005195D02*
X013078Y005195D01*
X012983Y005353D02*
X014017Y005353D01*
X014215Y005512D02*
X012785Y005512D01*
X012568Y005512D02*
X012432Y005512D01*
X012432Y005577D02*
X012354Y005565D01*
X012261Y005535D01*
X012174Y005490D01*
X012094Y005433D01*
X012025Y005363D01*
X011967Y005284D01*
X011923Y005197D01*
X011892Y005103D01*
X011880Y005025D01*
X012432Y005025D01*
X012432Y005577D01*
X012215Y005512D02*
X005118Y005512D01*
X005216Y005353D02*
X012017Y005353D01*
X011922Y005195D02*
X005240Y005195D01*
X005205Y005036D02*
X011882Y005036D01*
X011882Y004878D02*
X005092Y004878D01*
X004984Y004652D02*
X004912Y004676D01*
X004838Y004688D01*
X004520Y004688D01*
X004520Y004228D01*
X004480Y004228D01*
X004480Y004688D01*
X004162Y004688D01*
X004088Y004676D01*
X004016Y004652D01*
X003948Y004618D01*
X003887Y004574D01*
X003834Y004520D01*
X003789Y004459D01*
X003755Y004392D01*
X003732Y004320D01*
X003720Y004245D01*
X003720Y004228D01*
X004480Y004228D01*
X004480Y004188D01*
X003720Y004188D01*
X003720Y004170D01*
X003732Y004095D01*
X003755Y004023D01*
X003789Y003956D01*
X003834Y003895D01*
X003887Y003841D01*
X003948Y003797D01*
X004016Y003763D01*
X004088Y003739D01*
X004162Y003728D01*
X004480Y003728D01*
X004480Y004188D01*
X004520Y004188D01*
X004520Y004228D01*
X005280Y004228D01*
X005280Y004245D01*
X005268Y004320D01*
X005245Y004392D01*
X005211Y004459D01*
X005166Y004520D01*
X005113Y004574D01*
X005052Y004618D01*
X004984Y004652D01*
X005126Y004561D02*
X012018Y004561D01*
X011923Y004719D02*
X003180Y004719D01*
X003180Y004561D02*
X003874Y004561D01*
X003760Y004402D02*
X003180Y004402D01*
X003180Y004244D02*
X003720Y004244D01*
X003735Y004085D02*
X003180Y004085D01*
X003180Y003927D02*
X003811Y003927D01*
X004005Y003768D02*
X003180Y003768D01*
X003180Y003610D02*
X004021Y003610D01*
X003951Y003581D02*
X003827Y003457D01*
X003760Y003295D01*
X003760Y003120D01*
X003827Y002958D01*
X003951Y002835D01*
X004112Y002768D01*
X004888Y002768D01*
X005049Y002835D01*
X005173Y002958D01*
X005240Y003120D01*
X005240Y003295D01*
X005173Y003457D01*
X005049Y003581D01*
X004888Y003648D01*
X004112Y003648D01*
X003951Y003581D01*
X003825Y003451D02*
X003180Y003451D01*
X003180Y003293D02*
X003760Y003293D01*
X003760Y003134D02*
X003180Y003134D01*
X003180Y002976D02*
X003820Y002976D01*
X003993Y002817D02*
X003180Y002817D01*
X003180Y002659D02*
X011953Y002659D01*
X011967Y002631D02*
X012025Y002552D01*
X012094Y002482D01*
X012174Y002425D01*
X012261Y002380D01*
X012354Y002350D01*
X012432Y002338D01*
X012432Y002890D01*
X011880Y002890D01*
X011892Y002812D01*
X011923Y002718D01*
X011967Y002631D01*
X012077Y002500D02*
X003180Y002500D01*
X003180Y002342D02*
X012407Y002342D01*
X012432Y002342D02*
X012568Y002342D01*
X012568Y002338D02*
X012646Y002350D01*
X012739Y002380D01*
X012826Y002425D01*
X012906Y002482D01*
X012975Y002552D01*
X013033Y002631D01*
X013077Y002718D01*
X013108Y002812D01*
X013120Y002890D01*
X012568Y002890D01*
X012568Y003025D01*
X013120Y003025D01*
X013108Y003103D01*
X013077Y003197D01*
X013033Y003284D01*
X012975Y003363D01*
X012906Y003433D01*
X012826Y003490D01*
X012739Y003535D01*
X012646Y003565D01*
X012568Y003577D01*
X012568Y003025D01*
X012432Y003025D01*
X012432Y002890D01*
X012568Y002890D01*
X012568Y002338D01*
X012593Y002342D02*
X014407Y002342D01*
X014432Y002342D02*
X014568Y002342D01*
X014568Y002338D02*
X014646Y002350D01*
X014739Y002380D01*
X014826Y002425D01*
X014906Y002482D01*
X014975Y002552D01*
X015033Y002631D01*
X015077Y002718D01*
X015108Y002812D01*
X015120Y002890D01*
X014568Y002890D01*
X014568Y003025D01*
X015120Y003025D01*
X015108Y003103D01*
X015077Y003197D01*
X015033Y003284D01*
X014975Y003363D01*
X014906Y003433D01*
X014826Y003490D01*
X014739Y003535D01*
X014646Y003565D01*
X014568Y003577D01*
X014568Y003025D01*
X014432Y003025D01*
X014432Y002890D01*
X013880Y002890D01*
X013892Y002812D01*
X013923Y002718D01*
X013967Y002631D01*
X014025Y002552D01*
X014094Y002482D01*
X014174Y002425D01*
X014261Y002380D01*
X014354Y002350D01*
X014432Y002338D01*
X014432Y002890D01*
X014568Y002890D01*
X014568Y002338D01*
X014593Y002342D02*
X015690Y002342D01*
X015690Y002500D02*
X014923Y002500D01*
X015047Y002659D02*
X015690Y002659D01*
X015690Y002817D02*
X015108Y002817D01*
X015098Y003134D02*
X015690Y003134D01*
X015690Y002976D02*
X014568Y002976D01*
X014432Y002976D02*
X012568Y002976D01*
X012432Y002976D02*
X005180Y002976D01*
X005240Y003134D02*
X011902Y003134D01*
X011892Y003103D02*
X011880Y003025D01*
X012432Y003025D01*
X012432Y003577D01*
X012354Y003565D01*
X012261Y003535D01*
X012174Y003490D01*
X012094Y003433D01*
X012025Y003363D01*
X011967Y003284D01*
X011923Y003197D01*
X011892Y003103D01*
X011973Y003293D02*
X005240Y003293D01*
X005175Y003451D02*
X012119Y003451D01*
X012432Y003451D02*
X012568Y003451D01*
X012568Y003293D02*
X012432Y003293D01*
X012432Y003134D02*
X012568Y003134D01*
X012568Y002817D02*
X012432Y002817D01*
X012432Y002659D02*
X012568Y002659D01*
X012568Y002500D02*
X012432Y002500D01*
X012923Y002500D02*
X014077Y002500D01*
X013953Y002659D02*
X013047Y002659D01*
X013108Y002817D02*
X013892Y002817D01*
X013880Y003025D02*
X014432Y003025D01*
X014432Y003577D01*
X014354Y003565D01*
X014261Y003535D01*
X014174Y003490D01*
X014094Y003433D01*
X014025Y003363D01*
X013967Y003284D01*
X013923Y003197D01*
X013892Y003103D01*
X013880Y003025D01*
X013902Y003134D02*
X013098Y003134D01*
X013027Y003293D02*
X013973Y003293D01*
X014119Y003451D02*
X013800Y003451D01*
X013976Y003610D02*
X015690Y003610D01*
X015690Y003768D02*
X014052Y003768D01*
X014083Y003927D02*
X015690Y003927D01*
X015690Y004085D02*
X014078Y004085D01*
X014432Y004402D02*
X014568Y004402D01*
X014568Y004561D02*
X014432Y004561D01*
X014432Y004719D02*
X014568Y004719D01*
X014568Y004878D02*
X014432Y004878D01*
X014432Y005036D02*
X014568Y005036D01*
X014568Y005195D02*
X014432Y005195D01*
X014432Y005353D02*
X014568Y005353D01*
X014568Y005512D02*
X014432Y005512D01*
X015690Y005829D02*
X005035Y005829D01*
X005185Y005987D02*
X015690Y005987D01*
X015690Y006146D02*
X005240Y006146D01*
X005236Y006304D02*
X015690Y006304D01*
X015690Y006463D02*
X005167Y006463D01*
X004951Y006621D02*
X015690Y006621D01*
X015690Y006780D02*
X004917Y006780D01*
X005153Y006938D02*
X015690Y006938D01*
X015690Y007097D02*
X005230Y007097D01*
X005240Y007255D02*
X015690Y007255D01*
X015690Y007414D02*
X005191Y007414D01*
X005058Y007572D02*
X015690Y007572D01*
X012568Y005353D02*
X012432Y005353D01*
X012432Y005195D02*
X012568Y005195D01*
X012568Y005036D02*
X012432Y005036D01*
X012432Y004878D02*
X012568Y004878D01*
X012568Y004719D02*
X012432Y004719D01*
X012432Y004561D02*
X012568Y004561D01*
X012568Y004402D02*
X012432Y004402D01*
X012218Y004402D02*
X005240Y004402D01*
X005280Y004244D02*
X012988Y004244D01*
X012922Y004085D02*
X005265Y004085D01*
X005268Y004095D02*
X005280Y004170D01*
X005280Y004188D01*
X004520Y004188D01*
X004520Y003728D01*
X004838Y003728D01*
X004912Y003739D01*
X004984Y003763D01*
X005052Y003797D01*
X005113Y003841D01*
X005166Y003895D01*
X005211Y003956D01*
X005245Y004023D01*
X005268Y004095D01*
X005189Y003927D02*
X012917Y003927D01*
X012948Y003768D02*
X004995Y003768D01*
X004979Y003610D02*
X013024Y003610D01*
X012881Y003451D02*
X013200Y003451D01*
X013120Y004402D02*
X012782Y004402D01*
X011892Y002817D02*
X005007Y002817D01*
X004520Y003768D02*
X004480Y003768D01*
X004480Y003927D02*
X004520Y003927D01*
X004520Y004085D02*
X004480Y004085D01*
X004480Y004244D02*
X004520Y004244D01*
X004520Y004402D02*
X004480Y004402D01*
X004480Y004561D02*
X004520Y004561D01*
X003908Y004878D02*
X003180Y004878D01*
X003180Y005036D02*
X003795Y005036D01*
X003760Y005195D02*
X003180Y005195D01*
X003180Y005353D02*
X003784Y005353D01*
X003180Y002183D02*
X015690Y002183D01*
X015690Y002025D02*
X003180Y002025D01*
X014432Y002500D02*
X014568Y002500D01*
X014568Y002659D02*
X014432Y002659D01*
X014432Y002817D02*
X014568Y002817D01*
X014568Y003134D02*
X014432Y003134D01*
X014432Y003293D02*
X014568Y003293D01*
X014568Y003451D02*
X014432Y003451D01*
X014881Y003451D02*
X015690Y003451D01*
X015690Y003293D02*
X015027Y003293D01*
M02*
