G75*
G70*
%OFA0B0*%
%FSLAX24Y24*%
%IPPOS*%
%LPD*%
%AMOC8*
5,1,8,0,0,1.08239X$1,22.5*
%
%ADD10C,0.0000*%
%ADD11R,0.1221X0.0631*%
%ADD12R,0.0552X0.0631*%
%ADD13C,0.0926*%
%ADD14C,0.0640*%
D10*
X003000Y001708D02*
X003000Y015704D01*
X015870Y015704D01*
X015870Y001708D01*
X003000Y001708D01*
D11*
X007938Y006702D03*
X007938Y007489D03*
X007938Y008276D03*
X007938Y009064D03*
X007938Y009851D03*
X007938Y010639D03*
X007938Y011426D03*
X014237Y011426D03*
X014237Y010639D03*
X014237Y009851D03*
X014237Y009064D03*
X014237Y008276D03*
X014237Y007489D03*
X014237Y006702D03*
D12*
X008874Y003208D03*
X008126Y003208D03*
D13*
X012500Y002958D03*
X013500Y003958D03*
X014500Y002958D03*
X014500Y004958D03*
X012500Y004958D03*
D14*
X004800Y005208D02*
X004200Y005208D01*
X004200Y004208D02*
X004800Y004208D01*
X004800Y003208D02*
X004200Y003208D01*
X004200Y006208D02*
X004800Y006208D01*
X004800Y007208D02*
X004200Y007208D01*
X004200Y008208D02*
X004800Y008208D01*
X004800Y009208D02*
X004200Y009208D01*
X004200Y010208D02*
X004800Y010208D01*
X004800Y011208D02*
X004200Y011208D01*
X004200Y012208D02*
X004800Y012208D01*
X004800Y013208D02*
X004200Y013208D01*
X004200Y014208D02*
X004800Y014208D01*
M02*
