G75*
G70*
%OFA0B0*%
%FSLAX24Y24*%
%IPPOS*%
%LPD*%
%AMOC8*
5,1,8,0,0,1.08239X$1,22.5*
%
%ADD10C,0.0000*%
%ADD11R,0.1181X0.0591*%
%ADD12R,0.0512X0.0591*%
%ADD13C,0.0886*%
%ADD14C,0.0600*%
%ADD15C,0.0160*%
D10*
X003000Y001708D02*
X003000Y015704D01*
X015870Y015704D01*
X015870Y001708D01*
X003000Y001708D01*
D11*
X007938Y006702D03*
X007938Y007489D03*
X007938Y008276D03*
X007938Y009064D03*
X007938Y009851D03*
X007938Y010639D03*
X007938Y011426D03*
X014237Y011426D03*
X014237Y010639D03*
X014237Y009851D03*
X014237Y009064D03*
X014237Y008276D03*
X014237Y007489D03*
X014237Y006702D03*
D12*
X008874Y003208D03*
X008126Y003208D03*
D13*
X012500Y002958D03*
X013500Y003958D03*
X014500Y002958D03*
X014500Y004958D03*
X012500Y004958D03*
D14*
X004800Y005208D02*
X004200Y005208D01*
X004200Y004208D02*
X004800Y004208D01*
X004800Y003208D02*
X004200Y003208D01*
X004200Y006208D02*
X004800Y006208D01*
X004800Y007208D02*
X004200Y007208D01*
X004200Y008208D02*
X004800Y008208D01*
X004800Y009208D02*
X004200Y009208D01*
X004200Y010208D02*
X004800Y010208D01*
X004800Y011208D02*
X004200Y011208D01*
X004200Y012208D02*
X004800Y012208D01*
X004800Y013208D02*
X004200Y013208D01*
X004200Y014208D02*
X004800Y014208D01*
D15*
X004500Y014208D02*
X009750Y014208D01*
X012500Y011458D01*
X014206Y011458D01*
X014237Y011426D01*
X014200Y010708D02*
X012250Y010708D01*
X009250Y013708D01*
X005750Y013708D01*
X005150Y013108D01*
X004600Y013108D01*
X004500Y013208D01*
X004888Y013648D02*
X004112Y013648D01*
X003951Y013581D01*
X003827Y013457D01*
X003760Y013295D01*
X003760Y013120D01*
X003827Y012958D01*
X003951Y012835D01*
X004112Y012768D01*
X004888Y012768D01*
X005049Y012835D01*
X005102Y012888D01*
X005241Y012888D01*
X005841Y013488D01*
X009159Y013488D01*
X012030Y010616D01*
X012159Y010488D01*
X013507Y010488D01*
X013507Y010285D01*
X013547Y010245D01*
X013507Y010204D01*
X013507Y010178D01*
X012091Y010178D01*
X009091Y013178D01*
X005909Y013178D01*
X005780Y013049D01*
X005259Y012528D01*
X005102Y012528D01*
X005049Y012581D01*
X004888Y012648D01*
X004112Y012648D01*
X003951Y012581D01*
X003827Y012457D01*
X003760Y012295D01*
X003760Y012120D01*
X003827Y011958D01*
X003951Y011835D01*
X004112Y011768D01*
X004888Y011768D01*
X005049Y011835D01*
X005173Y011958D01*
X005227Y012088D01*
X005441Y012088D01*
X006091Y012738D01*
X008909Y012738D01*
X011909Y009738D01*
X013507Y009738D01*
X013507Y009498D01*
X013547Y009458D01*
X013517Y009428D01*
X011841Y009428D01*
X008841Y012428D01*
X006159Y012428D01*
X006030Y012299D01*
X005177Y011446D01*
X005173Y011457D01*
X005049Y011581D01*
X004888Y011648D01*
X004112Y011648D01*
X003951Y011581D01*
X003827Y011457D01*
X003760Y011295D01*
X003760Y011120D01*
X003827Y010958D01*
X003951Y010835D01*
X004112Y010768D01*
X004888Y010768D01*
X005049Y010835D01*
X005173Y010958D01*
X005185Y010988D01*
X005341Y010988D01*
X006341Y011988D01*
X008659Y011988D01*
X011659Y008988D01*
X013507Y008988D01*
X013507Y008711D01*
X013519Y008698D01*
X013503Y008682D01*
X013479Y008641D01*
X013467Y008595D01*
X013467Y008344D01*
X014170Y008344D01*
X014170Y008209D01*
X013467Y008209D01*
X013467Y007957D01*
X013479Y007912D01*
X013503Y007871D01*
X013519Y007854D01*
X013507Y007842D01*
X013507Y007728D01*
X010909Y007728D01*
X006709Y003528D01*
X005102Y003528D01*
X005049Y003581D01*
X004888Y003648D01*
X004112Y003648D01*
X003951Y003581D01*
X003827Y003457D01*
X003760Y003295D01*
X003760Y003120D01*
X003827Y002958D01*
X003951Y002835D01*
X004112Y002768D01*
X004888Y002768D01*
X005049Y002835D01*
X005173Y002958D01*
X005227Y003088D01*
X007730Y003088D01*
X007730Y002854D01*
X007812Y002772D01*
X008440Y002772D01*
X008472Y002805D01*
X008474Y002802D01*
X008508Y002768D01*
X008549Y002745D01*
X008594Y002732D01*
X008826Y002732D01*
X008826Y003160D01*
X008922Y003160D01*
X008922Y003255D01*
X009310Y003255D01*
X009310Y003526D01*
X009298Y003572D01*
X009274Y003613D01*
X009240Y003647D01*
X009199Y003671D01*
X009154Y003683D01*
X008922Y003683D01*
X008922Y003255D01*
X008826Y003255D01*
X008826Y003683D01*
X008594Y003683D01*
X008549Y003671D01*
X008508Y003647D01*
X008474Y003613D01*
X008472Y003610D01*
X008440Y003643D01*
X007812Y003643D01*
X007730Y003561D01*
X007730Y003528D01*
X007331Y003528D01*
X011091Y007288D01*
X013507Y007288D01*
X013507Y007136D01*
X013547Y007095D01*
X013507Y007055D01*
X013507Y006348D01*
X013589Y006266D01*
X013980Y006266D01*
X013980Y006199D01*
X013509Y005728D01*
X013380Y005599D01*
X013380Y004539D01*
X013170Y004452D01*
X013006Y004288D01*
X012917Y004073D01*
X012917Y003842D01*
X013006Y003627D01*
X013170Y003463D01*
X013384Y003375D01*
X013616Y003375D01*
X013830Y003463D01*
X013994Y003627D01*
X014083Y003842D01*
X014083Y004073D01*
X013994Y004288D01*
X013830Y004452D01*
X013820Y004456D01*
X013820Y005416D01*
X014420Y006016D01*
X014420Y006266D01*
X014886Y006266D01*
X014968Y006348D01*
X014968Y007055D01*
X014927Y007095D01*
X014968Y007136D01*
X014968Y007842D01*
X014956Y007854D01*
X014972Y007871D01*
X014995Y007912D01*
X015008Y007957D01*
X015008Y008209D01*
X014305Y008209D01*
X014305Y008344D01*
X015008Y008344D01*
X015008Y008595D01*
X014995Y008641D01*
X014972Y008682D01*
X014956Y008698D01*
X014968Y008711D01*
X014968Y009417D01*
X014927Y009458D01*
X014968Y009498D01*
X014968Y010204D01*
X014927Y010245D01*
X014968Y010285D01*
X014968Y010992D01*
X014927Y011032D01*
X014968Y011073D01*
X014968Y011779D01*
X014886Y011861D01*
X013589Y011861D01*
X013507Y011779D01*
X013507Y011678D01*
X012591Y011678D01*
X009841Y014428D01*
X005185Y014428D01*
X005173Y014457D01*
X005049Y014581D01*
X004888Y014648D01*
X004112Y014648D01*
X003951Y014581D01*
X003827Y014457D01*
X003760Y014295D01*
X003760Y014120D01*
X003827Y013958D01*
X003951Y013835D01*
X004112Y013768D01*
X004888Y013768D01*
X005049Y013835D01*
X005173Y013958D01*
X005185Y013988D01*
X009659Y013988D01*
X012280Y011366D01*
X012409Y011238D01*
X013507Y011238D01*
X013507Y011073D01*
X013547Y011032D01*
X013507Y010992D01*
X013507Y010928D01*
X012341Y010928D01*
X009341Y013928D01*
X005659Y013928D01*
X005530Y013799D01*
X005177Y013446D01*
X005173Y013457D01*
X005049Y013581D01*
X004888Y013648D01*
X005014Y013595D02*
X005326Y013595D01*
X005485Y013754D02*
X003180Y013754D01*
X003180Y013912D02*
X003873Y013912D01*
X003780Y014071D02*
X003180Y014071D01*
X003180Y014229D02*
X003760Y014229D01*
X003798Y014388D02*
X003180Y014388D01*
X003180Y014546D02*
X003916Y014546D01*
X003180Y014705D02*
X015690Y014705D01*
X015690Y014863D02*
X003180Y014863D01*
X003180Y015022D02*
X015690Y015022D01*
X015690Y015180D02*
X003180Y015180D01*
X003180Y015339D02*
X015690Y015339D01*
X015690Y015497D02*
X003180Y015497D01*
X003180Y015524D02*
X015690Y015524D01*
X015690Y001888D01*
X003180Y001888D01*
X003180Y015524D01*
X003180Y013595D02*
X003986Y013595D01*
X003819Y013437D02*
X003180Y013437D01*
X003180Y013278D02*
X003760Y013278D01*
X003760Y013120D02*
X003180Y013120D01*
X003180Y012961D02*
X003826Y012961D01*
X004028Y012803D02*
X003180Y012803D01*
X003180Y012644D02*
X004104Y012644D01*
X003856Y012486D02*
X003180Y012486D01*
X003180Y012327D02*
X003773Y012327D01*
X003760Y012169D02*
X003180Y012169D01*
X003180Y012010D02*
X003806Y012010D01*
X003934Y011852D02*
X003180Y011852D01*
X003180Y011693D02*
X005424Y011693D01*
X005266Y011535D02*
X005095Y011535D01*
X005066Y011852D02*
X005583Y011852D01*
X005741Y012010D02*
X005194Y012010D01*
X005350Y012308D02*
X006000Y012958D01*
X009000Y012958D01*
X012000Y009958D01*
X014131Y009958D01*
X014237Y009851D01*
X014200Y009908D01*
X014237Y010639D02*
X014200Y010708D01*
X013507Y010425D02*
X011844Y010425D01*
X012002Y010267D02*
X013525Y010267D01*
X013507Y009633D02*
X011636Y009633D01*
X011478Y009791D02*
X011855Y009791D01*
X011697Y009950D02*
X011319Y009950D01*
X011161Y010108D02*
X011538Y010108D01*
X011380Y010267D02*
X011002Y010267D01*
X010844Y010425D02*
X011221Y010425D01*
X011063Y010584D02*
X010685Y010584D01*
X010527Y010742D02*
X010904Y010742D01*
X010746Y010901D02*
X010368Y010901D01*
X010210Y011059D02*
X010587Y011059D01*
X010429Y011218D02*
X010051Y011218D01*
X009893Y011376D02*
X010270Y011376D01*
X010112Y011535D02*
X009734Y011535D01*
X009576Y011693D02*
X009953Y011693D01*
X009795Y011852D02*
X009417Y011852D01*
X009259Y012010D02*
X009636Y012010D01*
X009478Y012169D02*
X009100Y012169D01*
X008942Y012327D02*
X009319Y012327D01*
X009161Y012486D02*
X005839Y012486D01*
X005998Y012644D02*
X009002Y012644D01*
X009308Y012961D02*
X009685Y012961D01*
X009527Y013120D02*
X009149Y013120D01*
X009368Y013278D02*
X005632Y013278D01*
X005790Y013437D02*
X009210Y013437D01*
X009515Y013754D02*
X009893Y013754D01*
X009734Y013912D02*
X009357Y013912D01*
X009674Y013595D02*
X010051Y013595D01*
X010210Y013437D02*
X009832Y013437D01*
X009991Y013278D02*
X010368Y013278D01*
X010527Y013120D02*
X010149Y013120D01*
X010308Y012961D02*
X010685Y012961D01*
X010844Y012803D02*
X010466Y012803D01*
X010625Y012644D02*
X011002Y012644D01*
X011161Y012486D02*
X010783Y012486D01*
X010942Y012327D02*
X011319Y012327D01*
X011478Y012169D02*
X011100Y012169D01*
X011259Y012010D02*
X011636Y012010D01*
X011795Y011852D02*
X011417Y011852D01*
X011576Y011693D02*
X011953Y011693D01*
X012112Y011535D02*
X011734Y011535D01*
X011893Y011376D02*
X012270Y011376D01*
X012051Y011218D02*
X013507Y011218D01*
X013520Y011059D02*
X012210Y011059D01*
X011904Y010742D02*
X011527Y010742D01*
X011685Y010584D02*
X012063Y010584D01*
X011746Y010901D02*
X011368Y010901D01*
X011210Y011059D02*
X011587Y011059D01*
X011429Y011218D02*
X011051Y011218D01*
X010893Y011376D02*
X011270Y011376D01*
X011112Y011535D02*
X010734Y011535D01*
X010576Y011693D02*
X010953Y011693D01*
X010795Y011852D02*
X010417Y011852D01*
X010259Y012010D02*
X010636Y012010D01*
X010478Y012169D02*
X010100Y012169D01*
X009942Y012327D02*
X010319Y012327D01*
X010161Y012486D02*
X009783Y012486D01*
X009625Y012644D02*
X010002Y012644D01*
X009844Y012803D02*
X009466Y012803D01*
X008750Y012208D02*
X011750Y009208D01*
X014094Y009208D01*
X014237Y009064D01*
X013507Y008840D02*
X008669Y008840D01*
X008669Y008711D02*
X008669Y009417D01*
X008628Y009458D01*
X008669Y009498D01*
X008669Y010204D01*
X008628Y010245D01*
X008669Y010285D01*
X008669Y010992D01*
X008628Y011032D01*
X008669Y011073D01*
X008669Y011779D01*
X008587Y011861D01*
X007289Y011861D01*
X007207Y011779D01*
X007207Y011528D01*
X006109Y011528D01*
X005106Y010524D01*
X005049Y010581D01*
X004888Y010648D01*
X004112Y010648D01*
X003951Y010581D01*
X003827Y010457D01*
X003760Y010295D01*
X003760Y010120D01*
X003827Y009958D01*
X003951Y009835D01*
X004112Y009768D01*
X004888Y009768D01*
X005049Y009835D01*
X005173Y009958D01*
X005181Y009977D01*
X005220Y010016D01*
X006291Y011088D01*
X007207Y011088D01*
X007207Y011073D01*
X007248Y011032D01*
X007207Y010992D01*
X007207Y010728D01*
X006309Y010728D01*
X005106Y009524D01*
X005049Y009581D01*
X004888Y009648D01*
X004112Y009648D01*
X003951Y009581D01*
X003827Y009457D01*
X003760Y009295D01*
X003760Y009120D01*
X003827Y008958D01*
X003951Y008835D01*
X004112Y008768D01*
X004888Y008768D01*
X005049Y008835D01*
X005173Y008958D01*
X005181Y008977D01*
X005220Y009016D01*
X006491Y010288D01*
X007207Y010288D01*
X007207Y010285D01*
X007248Y010245D01*
X007207Y010204D01*
X007207Y010128D01*
X006709Y010128D01*
X005106Y008524D01*
X005049Y008581D01*
X004888Y008648D01*
X004112Y008648D01*
X003951Y008581D01*
X003827Y008457D01*
X003760Y008295D01*
X003760Y008120D01*
X003827Y007958D01*
X003951Y007835D01*
X004112Y007768D01*
X004888Y007768D01*
X005049Y007835D01*
X005173Y007958D01*
X005181Y007977D01*
X005220Y008016D01*
X006891Y009688D01*
X007207Y009688D01*
X007207Y009498D01*
X007248Y009458D01*
X007207Y009417D01*
X007207Y009328D01*
X006909Y009328D01*
X005106Y007524D01*
X005049Y007581D01*
X004888Y007648D01*
X004112Y007648D01*
X003951Y007581D01*
X003827Y007457D01*
X003760Y007295D01*
X003760Y007120D01*
X003827Y006958D01*
X003951Y006835D01*
X004112Y006768D01*
X004888Y006768D01*
X005049Y006835D01*
X005173Y006958D01*
X005181Y006977D01*
X005220Y007016D01*
X007091Y008888D01*
X007207Y008888D01*
X007207Y008711D01*
X007248Y008670D01*
X007207Y008630D01*
X007207Y008528D01*
X006909Y008528D01*
X004987Y006606D01*
X004888Y006648D01*
X004112Y006648D01*
X003951Y006581D01*
X003827Y006457D01*
X003760Y006295D01*
X003760Y006120D01*
X003827Y005958D01*
X003951Y005835D01*
X004112Y005768D01*
X004888Y005768D01*
X004992Y005811D01*
X004829Y005648D01*
X004112Y005648D01*
X003951Y005581D01*
X003827Y005457D01*
X003760Y005295D01*
X003760Y005120D01*
X003827Y004958D01*
X003951Y004835D01*
X004112Y004768D01*
X004888Y004768D01*
X005049Y004835D01*
X005173Y004958D01*
X005240Y005120D01*
X005240Y005295D01*
X005199Y005395D01*
X007091Y007288D01*
X007207Y007288D01*
X007207Y007136D01*
X007220Y007124D01*
X007203Y007107D01*
X007180Y007066D01*
X007167Y007021D01*
X007167Y006769D01*
X007870Y006769D01*
X007870Y006634D01*
X007167Y006634D01*
X007167Y006383D01*
X007180Y006337D01*
X007203Y006296D01*
X007237Y006262D01*
X007278Y006239D01*
X007324Y006226D01*
X007870Y006226D01*
X007870Y006634D01*
X008006Y006634D01*
X008006Y006769D01*
X008709Y006769D01*
X008709Y007021D01*
X008696Y007066D01*
X008673Y007107D01*
X008656Y007124D01*
X008669Y007136D01*
X008669Y007842D01*
X008628Y007883D01*
X008669Y007923D01*
X008669Y008630D01*
X008628Y008670D01*
X008669Y008711D01*
X008640Y008682D02*
X013502Y008682D01*
X013467Y008523D02*
X008669Y008523D01*
X008669Y008365D02*
X013467Y008365D01*
X013467Y008206D02*
X008669Y008206D01*
X008669Y008048D02*
X013467Y008048D01*
X013492Y007889D02*
X008634Y007889D01*
X008669Y007731D02*
X013507Y007731D01*
X013507Y007255D02*
X011059Y007255D01*
X010900Y007097D02*
X013546Y007097D01*
X013507Y006938D02*
X010742Y006938D01*
X010583Y006780D02*
X013507Y006780D01*
X013507Y006621D02*
X010425Y006621D01*
X010266Y006463D02*
X013507Y006463D01*
X013551Y006304D02*
X010108Y006304D01*
X009949Y006146D02*
X013927Y006146D01*
X013768Y005987D02*
X009791Y005987D01*
X009632Y005829D02*
X013610Y005829D01*
X013451Y005670D02*
X009474Y005670D01*
X009315Y005512D02*
X012215Y005512D01*
X012174Y005490D02*
X012094Y005433D01*
X012025Y005363D01*
X011967Y005284D01*
X011923Y005197D01*
X011892Y005103D01*
X011880Y005025D01*
X012432Y005025D01*
X012432Y004890D01*
X011880Y004890D01*
X011892Y004812D01*
X011923Y004718D01*
X011967Y004631D01*
X012025Y004552D01*
X012094Y004482D01*
X012174Y004425D01*
X012261Y004380D01*
X012354Y004350D01*
X012432Y004338D01*
X012432Y004890D01*
X012568Y004890D01*
X012568Y005025D01*
X013120Y005025D01*
X013108Y005103D01*
X013077Y005197D01*
X013033Y005284D01*
X012975Y005363D01*
X012906Y005433D01*
X012826Y005490D01*
X012739Y005535D01*
X012646Y005565D01*
X012568Y005577D01*
X012568Y005025D01*
X012432Y005025D01*
X012432Y005577D01*
X012354Y005565D01*
X012261Y005535D01*
X012174Y005490D01*
X012017Y005353D02*
X009157Y005353D01*
X008998Y005195D02*
X011922Y005195D01*
X011882Y005036D02*
X008840Y005036D01*
X008681Y004878D02*
X011882Y004878D01*
X011923Y004719D02*
X008523Y004719D01*
X008364Y004561D02*
X012018Y004561D01*
X012218Y004402D02*
X008206Y004402D01*
X008047Y004244D02*
X012988Y004244D01*
X012922Y004085D02*
X007889Y004085D01*
X007730Y003927D02*
X012917Y003927D01*
X012948Y003768D02*
X007572Y003768D01*
X007413Y003610D02*
X007779Y003610D01*
X008000Y003308D02*
X008126Y003208D01*
X008000Y003308D02*
X006800Y003308D01*
X011000Y007508D01*
X014200Y007508D01*
X014237Y007489D01*
X014968Y007414D02*
X015690Y007414D01*
X015690Y007572D02*
X014968Y007572D01*
X014968Y007731D02*
X015690Y007731D01*
X015690Y007889D02*
X014982Y007889D01*
X015008Y008048D02*
X015690Y008048D01*
X015690Y008206D02*
X015008Y008206D01*
X015008Y008365D02*
X015690Y008365D01*
X015690Y008523D02*
X015008Y008523D01*
X014972Y008682D02*
X015690Y008682D01*
X015690Y008840D02*
X014968Y008840D01*
X014968Y008999D02*
X015690Y008999D01*
X015690Y009157D02*
X014968Y009157D01*
X014968Y009316D02*
X015690Y009316D01*
X015690Y009474D02*
X014944Y009474D01*
X014968Y009633D02*
X015690Y009633D01*
X015690Y009791D02*
X014968Y009791D01*
X014968Y009950D02*
X015690Y009950D01*
X015690Y010108D02*
X014968Y010108D01*
X014949Y010267D02*
X015690Y010267D01*
X015690Y010425D02*
X014968Y010425D01*
X014968Y010584D02*
X015690Y010584D01*
X015690Y010742D02*
X014968Y010742D01*
X014968Y010901D02*
X015690Y010901D01*
X015690Y011059D02*
X014954Y011059D01*
X014968Y011218D02*
X015690Y011218D01*
X015690Y011376D02*
X014968Y011376D01*
X014968Y011535D02*
X015690Y011535D01*
X015690Y011693D02*
X014968Y011693D01*
X014896Y011852D02*
X015690Y011852D01*
X015690Y012010D02*
X012259Y012010D01*
X012417Y011852D02*
X013579Y011852D01*
X013507Y011693D02*
X012576Y011693D01*
X012100Y012169D02*
X015690Y012169D01*
X015690Y012327D02*
X011942Y012327D01*
X011783Y012486D02*
X015690Y012486D01*
X015690Y012644D02*
X011625Y012644D01*
X011466Y012803D02*
X015690Y012803D01*
X015690Y012961D02*
X011308Y012961D01*
X011149Y013120D02*
X015690Y013120D01*
X015690Y013278D02*
X010991Y013278D01*
X010832Y013437D02*
X015690Y013437D01*
X015690Y013595D02*
X010674Y013595D01*
X010515Y013754D02*
X015690Y013754D01*
X015690Y013912D02*
X010357Y013912D01*
X010198Y014071D02*
X015690Y014071D01*
X015690Y014229D02*
X010040Y014229D01*
X009881Y014388D02*
X015690Y014388D01*
X015690Y014546D02*
X005084Y014546D01*
X005127Y013912D02*
X005643Y013912D01*
X005473Y013120D02*
X005851Y013120D01*
X005692Y012961D02*
X005315Y012961D01*
X005534Y012803D02*
X004972Y012803D01*
X004896Y012644D02*
X005375Y012644D01*
X005350Y012308D02*
X004600Y012308D01*
X004500Y012208D01*
X003905Y011535D02*
X003180Y011535D01*
X003180Y011376D02*
X003794Y011376D01*
X003760Y011218D02*
X003180Y011218D01*
X003180Y011059D02*
X003785Y011059D01*
X003885Y010901D02*
X003180Y010901D01*
X003180Y010742D02*
X005323Y010742D01*
X005165Y010584D02*
X005042Y010584D01*
X005115Y010901D02*
X005482Y010901D01*
X005413Y011059D02*
X005640Y011059D01*
X005571Y011218D02*
X005799Y011218D01*
X005730Y011376D02*
X005957Y011376D01*
X005888Y011535D02*
X007207Y011535D01*
X007207Y011693D02*
X006047Y011693D01*
X006205Y011852D02*
X007280Y011852D01*
X007800Y011308D02*
X007938Y011426D01*
X007800Y011308D02*
X006200Y011308D01*
X005000Y010108D01*
X004600Y010108D01*
X004500Y010208D01*
X004944Y009791D02*
X005372Y009791D01*
X005214Y009633D02*
X004924Y009633D01*
X005164Y009950D02*
X005531Y009950D01*
X005689Y010108D02*
X005312Y010108D01*
X005470Y010267D02*
X005848Y010267D01*
X006006Y010425D02*
X005629Y010425D01*
X005787Y010584D02*
X006165Y010584D01*
X006400Y010508D02*
X005000Y009108D01*
X004600Y009108D01*
X004500Y009208D01*
X004076Y009633D02*
X003180Y009633D01*
X003180Y009791D02*
X004056Y009791D01*
X003836Y009950D02*
X003180Y009950D01*
X003180Y010108D02*
X003765Y010108D01*
X003760Y010267D02*
X003180Y010267D01*
X003180Y010425D02*
X003814Y010425D01*
X003958Y010584D02*
X003180Y010584D01*
X003180Y009474D02*
X003844Y009474D01*
X003768Y009316D02*
X003180Y009316D01*
X003180Y009157D02*
X003760Y009157D01*
X003810Y008999D02*
X003180Y008999D01*
X003180Y008840D02*
X003945Y008840D01*
X003893Y008523D02*
X003180Y008523D01*
X003180Y008365D02*
X003789Y008365D01*
X003760Y008206D02*
X003180Y008206D01*
X003180Y008048D02*
X003790Y008048D01*
X003896Y007889D02*
X003180Y007889D01*
X003180Y007731D02*
X005312Y007731D01*
X005470Y007889D02*
X005104Y007889D01*
X005251Y008048D02*
X005629Y008048D01*
X005787Y008206D02*
X005410Y008206D01*
X005568Y008365D02*
X005946Y008365D01*
X006104Y008523D02*
X005727Y008523D01*
X005885Y008682D02*
X006263Y008682D01*
X006421Y008840D02*
X006044Y008840D01*
X006202Y008999D02*
X006580Y008999D01*
X006738Y009157D02*
X006361Y009157D01*
X006519Y009316D02*
X006897Y009316D01*
X007000Y009108D02*
X005000Y007108D01*
X004600Y007108D01*
X004500Y007208D01*
X004917Y006780D02*
X005161Y006780D01*
X005153Y006938D02*
X005319Y006938D01*
X005300Y007097D02*
X005478Y007097D01*
X005459Y007255D02*
X005636Y007255D01*
X005617Y007414D02*
X005795Y007414D01*
X005776Y007572D02*
X005953Y007572D01*
X005934Y007731D02*
X006112Y007731D01*
X006093Y007889D02*
X006270Y007889D01*
X006251Y008048D02*
X006429Y008048D01*
X006410Y008206D02*
X006587Y008206D01*
X006568Y008365D02*
X006746Y008365D01*
X006727Y008523D02*
X006904Y008523D01*
X006885Y008682D02*
X007236Y008682D01*
X007207Y008840D02*
X007044Y008840D01*
X007000Y009108D02*
X007800Y009108D01*
X007938Y009064D01*
X008669Y008999D02*
X011648Y008999D01*
X011489Y009157D02*
X008669Y009157D01*
X008669Y009316D02*
X011331Y009316D01*
X011172Y009474D02*
X008645Y009474D01*
X008669Y009633D02*
X011014Y009633D01*
X010855Y009791D02*
X008669Y009791D01*
X008669Y009950D02*
X010697Y009950D01*
X010538Y010108D02*
X008669Y010108D01*
X008650Y010267D02*
X010380Y010267D01*
X010221Y010425D02*
X008669Y010425D01*
X008669Y010584D02*
X010063Y010584D01*
X009904Y010742D02*
X008669Y010742D01*
X008669Y010901D02*
X009746Y010901D01*
X009587Y011059D02*
X008655Y011059D01*
X008669Y011218D02*
X009429Y011218D01*
X009270Y011376D02*
X008669Y011376D01*
X008669Y011535D02*
X009112Y011535D01*
X008953Y011693D02*
X008669Y011693D01*
X008596Y011852D02*
X008795Y011852D01*
X008750Y012208D02*
X006250Y012208D01*
X005250Y011208D01*
X004500Y011208D01*
X005522Y012169D02*
X005900Y012169D01*
X006058Y012327D02*
X005681Y012327D01*
X006263Y011059D02*
X007221Y011059D01*
X007207Y010901D02*
X006104Y010901D01*
X005946Y010742D02*
X007207Y010742D01*
X007226Y010267D02*
X006470Y010267D01*
X006312Y010108D02*
X006689Y010108D01*
X006531Y009950D02*
X006153Y009950D01*
X005995Y009791D02*
X006372Y009791D01*
X006214Y009633D02*
X005836Y009633D01*
X005678Y009474D02*
X006055Y009474D01*
X005897Y009316D02*
X005519Y009316D01*
X005361Y009157D02*
X005738Y009157D01*
X005580Y008999D02*
X005202Y008999D01*
X005055Y008840D02*
X005421Y008840D01*
X005263Y008682D02*
X003180Y008682D01*
X003180Y007572D02*
X003942Y007572D01*
X003809Y007414D02*
X003180Y007414D01*
X003180Y007255D02*
X003760Y007255D01*
X003770Y007097D02*
X003180Y007097D01*
X003180Y006938D02*
X003847Y006938D01*
X004083Y006780D02*
X003180Y006780D01*
X003180Y006621D02*
X004049Y006621D01*
X003833Y006463D02*
X003180Y006463D01*
X003180Y006304D02*
X003764Y006304D01*
X003760Y006146D02*
X003180Y006146D01*
X003180Y005987D02*
X003815Y005987D01*
X003965Y005829D02*
X003180Y005829D01*
X003180Y005670D02*
X004851Y005670D01*
X005216Y005353D02*
X008534Y005353D01*
X008376Y005195D02*
X005240Y005195D01*
X005205Y005036D02*
X008217Y005036D01*
X008059Y004878D02*
X005092Y004878D01*
X004984Y004652D02*
X004912Y004676D01*
X004838Y004688D01*
X004520Y004688D01*
X004520Y004228D01*
X004480Y004228D01*
X004480Y004688D01*
X004162Y004688D01*
X004088Y004676D01*
X004016Y004652D01*
X003948Y004618D01*
X003887Y004574D01*
X003834Y004520D01*
X003789Y004459D01*
X003755Y004392D01*
X003732Y004320D01*
X003720Y004245D01*
X003720Y004228D01*
X004480Y004228D01*
X004480Y004188D01*
X003720Y004188D01*
X003720Y004170D01*
X003732Y004095D01*
X003755Y004023D01*
X003789Y003956D01*
X003834Y003895D01*
X003887Y003841D01*
X003948Y003797D01*
X004016Y003763D01*
X004088Y003739D01*
X004162Y003728D01*
X004480Y003728D01*
X004480Y004188D01*
X004520Y004188D01*
X004520Y004228D01*
X005280Y004228D01*
X005280Y004245D01*
X005268Y004320D01*
X005245Y004392D01*
X005211Y004459D01*
X005166Y004520D01*
X005113Y004574D01*
X005052Y004618D01*
X004984Y004652D01*
X005126Y004561D02*
X007742Y004561D01*
X007900Y004719D02*
X003180Y004719D01*
X003180Y004561D02*
X003874Y004561D01*
X003760Y004402D02*
X003180Y004402D01*
X003180Y004244D02*
X003720Y004244D01*
X003735Y004085D02*
X003180Y004085D01*
X003180Y003927D02*
X003811Y003927D01*
X004005Y003768D02*
X003180Y003768D01*
X003180Y003610D02*
X004021Y003610D01*
X003825Y003451D02*
X003180Y003451D01*
X003180Y003293D02*
X003760Y003293D01*
X003760Y003134D02*
X003180Y003134D01*
X003180Y002976D02*
X003820Y002976D01*
X003993Y002817D02*
X003180Y002817D01*
X003180Y002659D02*
X011953Y002659D01*
X011967Y002631D02*
X012025Y002552D01*
X012094Y002482D01*
X012174Y002425D01*
X012261Y002380D01*
X012354Y002350D01*
X012432Y002338D01*
X012432Y002890D01*
X011880Y002890D01*
X011892Y002812D01*
X011923Y002718D01*
X011967Y002631D01*
X012077Y002500D02*
X003180Y002500D01*
X003180Y002342D02*
X012407Y002342D01*
X012432Y002342D02*
X012568Y002342D01*
X012568Y002338D02*
X012646Y002350D01*
X012739Y002380D01*
X012826Y002425D01*
X012906Y002482D01*
X012975Y002552D01*
X013033Y002631D01*
X013077Y002718D01*
X013108Y002812D01*
X013120Y002890D01*
X012568Y002890D01*
X012568Y003025D01*
X013120Y003025D01*
X013108Y003103D01*
X013077Y003197D01*
X013033Y003284D01*
X012975Y003363D01*
X012906Y003433D01*
X012826Y003490D01*
X012739Y003535D01*
X012646Y003565D01*
X012568Y003577D01*
X012568Y003025D01*
X012432Y003025D01*
X012432Y002890D01*
X012568Y002890D01*
X012568Y002338D01*
X012593Y002342D02*
X014407Y002342D01*
X014432Y002342D02*
X014568Y002342D01*
X014568Y002338D02*
X014646Y002350D01*
X014739Y002380D01*
X014826Y002425D01*
X014906Y002482D01*
X014975Y002552D01*
X015033Y002631D01*
X015077Y002718D01*
X015108Y002812D01*
X015120Y002890D01*
X014568Y002890D01*
X014568Y003025D01*
X015120Y003025D01*
X015108Y003103D01*
X015077Y003197D01*
X015033Y003284D01*
X014975Y003363D01*
X014906Y003433D01*
X014826Y003490D01*
X014739Y003535D01*
X014646Y003565D01*
X014568Y003577D01*
X014568Y003025D01*
X014432Y003025D01*
X014432Y002890D01*
X013880Y002890D01*
X013892Y002812D01*
X013923Y002718D01*
X013967Y002631D01*
X014025Y002552D01*
X014094Y002482D01*
X014174Y002425D01*
X014261Y002380D01*
X014354Y002350D01*
X014432Y002338D01*
X014432Y002890D01*
X014568Y002890D01*
X014568Y002338D01*
X014593Y002342D02*
X015690Y002342D01*
X015690Y002500D02*
X014923Y002500D01*
X015047Y002659D02*
X015690Y002659D01*
X015690Y002817D02*
X015108Y002817D01*
X015098Y003134D02*
X015690Y003134D01*
X015690Y002976D02*
X014568Y002976D01*
X014432Y002976D02*
X012568Y002976D01*
X012432Y002976D02*
X009310Y002976D01*
X009310Y002889D02*
X009310Y003160D01*
X008922Y003160D01*
X008922Y002732D01*
X009154Y002732D01*
X009199Y002745D01*
X009240Y002768D01*
X009274Y002802D01*
X009298Y002843D01*
X009310Y002889D01*
X009283Y002817D02*
X011892Y002817D01*
X011880Y003025D02*
X012432Y003025D01*
X012432Y003577D01*
X012354Y003565D01*
X012261Y003535D01*
X012174Y003490D01*
X012094Y003433D01*
X012025Y003363D01*
X011967Y003284D01*
X011923Y003197D01*
X011892Y003103D01*
X011880Y003025D01*
X011902Y003134D02*
X009310Y003134D01*
X009310Y003293D02*
X011973Y003293D01*
X012119Y003451D02*
X009310Y003451D01*
X009276Y003610D02*
X013024Y003610D01*
X012881Y003451D02*
X013200Y003451D01*
X013027Y003293D02*
X013973Y003293D01*
X013967Y003284D02*
X013923Y003197D01*
X013892Y003103D01*
X013880Y003025D01*
X014432Y003025D01*
X014432Y003577D01*
X014354Y003565D01*
X014261Y003535D01*
X014174Y003490D01*
X014094Y003433D01*
X014025Y003363D01*
X013967Y003284D01*
X013902Y003134D02*
X013098Y003134D01*
X013108Y002817D02*
X013892Y002817D01*
X013953Y002659D02*
X013047Y002659D01*
X012923Y002500D02*
X014077Y002500D01*
X014432Y002500D02*
X014568Y002500D01*
X014568Y002659D02*
X014432Y002659D01*
X014432Y002817D02*
X014568Y002817D01*
X014568Y003134D02*
X014432Y003134D01*
X014432Y003293D02*
X014568Y003293D01*
X014568Y003451D02*
X014432Y003451D01*
X014119Y003451D02*
X013800Y003451D01*
X013976Y003610D02*
X015690Y003610D01*
X015690Y003768D02*
X014052Y003768D01*
X014083Y003927D02*
X015690Y003927D01*
X015690Y004085D02*
X014078Y004085D01*
X014012Y004244D02*
X015690Y004244D01*
X015690Y004402D02*
X014782Y004402D01*
X014739Y004380D02*
X014826Y004425D01*
X014906Y004482D01*
X014975Y004552D01*
X015033Y004631D01*
X015077Y004718D01*
X015108Y004812D01*
X015120Y004890D01*
X014568Y004890D01*
X014568Y005025D01*
X015120Y005025D01*
X015108Y005103D01*
X015077Y005197D01*
X015033Y005284D01*
X014975Y005363D01*
X014906Y005433D01*
X014826Y005490D01*
X014739Y005535D01*
X014646Y005565D01*
X014568Y005577D01*
X014568Y005025D01*
X014432Y005025D01*
X014432Y004890D01*
X013880Y004890D01*
X013892Y004812D01*
X013923Y004718D01*
X013967Y004631D01*
X014025Y004552D01*
X014094Y004482D01*
X014174Y004425D01*
X014261Y004380D01*
X014354Y004350D01*
X014432Y004338D01*
X014432Y004890D01*
X014568Y004890D01*
X014568Y004338D01*
X014646Y004350D01*
X014739Y004380D01*
X014568Y004402D02*
X014432Y004402D01*
X014432Y004561D02*
X014568Y004561D01*
X014568Y004719D02*
X014432Y004719D01*
X014432Y004878D02*
X014568Y004878D01*
X014568Y005036D02*
X014432Y005036D01*
X014432Y005025D02*
X014432Y005577D01*
X014354Y005565D01*
X014261Y005535D01*
X014174Y005490D01*
X014094Y005433D01*
X014025Y005363D01*
X013967Y005284D01*
X013923Y005197D01*
X013892Y005103D01*
X013880Y005025D01*
X014432Y005025D01*
X014432Y005195D02*
X014568Y005195D01*
X014568Y005353D02*
X014432Y005353D01*
X014432Y005512D02*
X014568Y005512D01*
X014785Y005512D02*
X015690Y005512D01*
X015690Y005670D02*
X014074Y005670D01*
X014215Y005512D02*
X013915Y005512D01*
X013820Y005353D02*
X014017Y005353D01*
X013922Y005195D02*
X013820Y005195D01*
X013820Y005036D02*
X013882Y005036D01*
X013882Y004878D02*
X013820Y004878D01*
X013820Y004719D02*
X013923Y004719D01*
X014018Y004561D02*
X013820Y004561D01*
X013880Y004402D02*
X014218Y004402D01*
X013600Y004108D02*
X013500Y003958D01*
X013600Y004108D02*
X013600Y005508D01*
X014200Y006108D01*
X014200Y006508D01*
X014237Y006702D01*
X014420Y006146D02*
X015690Y006146D01*
X015690Y006304D02*
X014923Y006304D01*
X014968Y006463D02*
X015690Y006463D01*
X015690Y006621D02*
X014968Y006621D01*
X014968Y006780D02*
X015690Y006780D01*
X015690Y006938D02*
X014968Y006938D01*
X014929Y007097D02*
X015690Y007097D01*
X015690Y007255D02*
X014968Y007255D01*
X014391Y005987D02*
X015690Y005987D01*
X015690Y005829D02*
X014232Y005829D01*
X014983Y005353D02*
X015690Y005353D01*
X015690Y005195D02*
X015078Y005195D01*
X015118Y005036D02*
X015690Y005036D01*
X015690Y004878D02*
X015118Y004878D01*
X015077Y004719D02*
X015690Y004719D01*
X015690Y004561D02*
X014982Y004561D01*
X014881Y003451D02*
X015690Y003451D01*
X015690Y003293D02*
X015027Y003293D01*
X015690Y002183D02*
X003180Y002183D01*
X003180Y002025D02*
X015690Y002025D01*
X013120Y004402D02*
X012782Y004402D01*
X012739Y004380D02*
X012826Y004425D01*
X012906Y004482D01*
X012975Y004552D01*
X013033Y004631D01*
X013077Y004718D01*
X013108Y004812D01*
X013120Y004890D01*
X012568Y004890D01*
X012568Y004338D01*
X012646Y004350D01*
X012739Y004380D01*
X012568Y004402D02*
X012432Y004402D01*
X012432Y004561D02*
X012568Y004561D01*
X012568Y004719D02*
X012432Y004719D01*
X012432Y004878D02*
X012568Y004878D01*
X012568Y005036D02*
X012432Y005036D01*
X012432Y005195D02*
X012568Y005195D01*
X012568Y005353D02*
X012432Y005353D01*
X012432Y005512D02*
X012568Y005512D01*
X012785Y005512D02*
X013380Y005512D01*
X013380Y005353D02*
X012983Y005353D01*
X013078Y005195D02*
X013380Y005195D01*
X013380Y005036D02*
X013118Y005036D01*
X013118Y004878D02*
X013380Y004878D01*
X013380Y004719D02*
X013077Y004719D01*
X012982Y004561D02*
X013380Y004561D01*
X012568Y003451D02*
X012432Y003451D01*
X012432Y003293D02*
X012568Y003293D01*
X012568Y003134D02*
X012432Y003134D01*
X012432Y002817D02*
X012568Y002817D01*
X012568Y002659D02*
X012432Y002659D01*
X012432Y002500D02*
X012568Y002500D01*
X008922Y002817D02*
X008826Y002817D01*
X008826Y002976D02*
X008922Y002976D01*
X008922Y003134D02*
X008826Y003134D01*
X008826Y003293D02*
X008922Y003293D01*
X008922Y003451D02*
X008826Y003451D01*
X008826Y003610D02*
X008922Y003610D01*
X007767Y002817D02*
X005007Y002817D01*
X005180Y002976D02*
X007730Y002976D01*
X006800Y003308D02*
X004600Y003308D01*
X004500Y003208D01*
X004520Y003728D02*
X004838Y003728D01*
X004912Y003739D01*
X004984Y003763D01*
X005052Y003797D01*
X005113Y003841D01*
X005166Y003895D01*
X005211Y003956D01*
X005245Y004023D01*
X005268Y004095D01*
X005280Y004170D01*
X005280Y004188D01*
X004520Y004188D01*
X004520Y003728D01*
X004520Y003768D02*
X004480Y003768D01*
X004480Y003927D02*
X004520Y003927D01*
X004520Y004085D02*
X004480Y004085D01*
X004480Y004244D02*
X004520Y004244D01*
X004520Y004402D02*
X004480Y004402D01*
X004480Y004561D02*
X004520Y004561D01*
X003908Y004878D02*
X003180Y004878D01*
X003180Y005036D02*
X003795Y005036D01*
X003760Y005195D02*
X003180Y005195D01*
X003180Y005353D02*
X003784Y005353D01*
X003882Y005512D02*
X003180Y005512D01*
X004500Y005208D02*
X004600Y005108D01*
X007000Y007508D01*
X007800Y007508D01*
X007938Y007489D01*
X008669Y007414D02*
X010595Y007414D01*
X010753Y007572D02*
X008669Y007572D01*
X008669Y007255D02*
X010436Y007255D01*
X010278Y007097D02*
X008679Y007097D01*
X008709Y006938D02*
X010119Y006938D01*
X009961Y006780D02*
X008709Y006780D01*
X008709Y006634D02*
X008006Y006634D01*
X008006Y006226D01*
X008552Y006226D01*
X008598Y006239D01*
X008639Y006262D01*
X008673Y006296D01*
X008696Y006337D01*
X008709Y006383D01*
X008709Y006634D01*
X008709Y006621D02*
X009802Y006621D01*
X009644Y006463D02*
X008709Y006463D01*
X008677Y006304D02*
X009485Y006304D01*
X009327Y006146D02*
X005949Y006146D01*
X006108Y006304D02*
X007199Y006304D01*
X007167Y006463D02*
X006266Y006463D01*
X006425Y006621D02*
X007167Y006621D01*
X007167Y006780D02*
X006583Y006780D01*
X006742Y006938D02*
X007167Y006938D01*
X007197Y007097D02*
X006900Y007097D01*
X007059Y007255D02*
X007207Y007255D01*
X007870Y006621D02*
X008006Y006621D01*
X008006Y006463D02*
X007870Y006463D01*
X007870Y006304D02*
X008006Y006304D01*
X008693Y005512D02*
X005315Y005512D01*
X005474Y005670D02*
X008851Y005670D01*
X009010Y005829D02*
X005632Y005829D01*
X005791Y005987D02*
X009168Y005987D01*
X007583Y004402D02*
X005240Y004402D01*
X005280Y004244D02*
X007425Y004244D01*
X007266Y004085D02*
X005265Y004085D01*
X005189Y003927D02*
X007108Y003927D01*
X006949Y003768D02*
X004995Y003768D01*
X004979Y003610D02*
X006791Y003610D01*
X005000Y006308D02*
X004600Y006308D01*
X004500Y006208D01*
X005000Y006308D02*
X007000Y008308D01*
X007800Y008308D01*
X007938Y008276D01*
X007231Y009474D02*
X006678Y009474D01*
X006836Y009633D02*
X007207Y009633D01*
X006800Y009908D02*
X005000Y008108D01*
X004600Y008108D01*
X004500Y008208D01*
X005058Y007572D02*
X005153Y007572D01*
X005002Y006621D02*
X004951Y006621D01*
X006800Y009908D02*
X007800Y009908D01*
X007938Y009851D01*
X007800Y010508D02*
X007938Y010639D01*
X007800Y010508D02*
X006400Y010508D01*
X011795Y009474D02*
X013531Y009474D01*
M02*
