G75*
G70*
%OFA0B0*%
%FSLAX24Y24*%
%IPPOS*%
%LPD*%
%AMOC8*
5,1,8,0,0,1.08239X$1,22.5*
%
%ADD10C,0.0000*%
%ADD11R,0.0552X0.0631*%
%ADD12C,0.0926*%
%ADD13C,0.0640*%
%ADD14R,0.1290X0.0640*%
%ADD15R,0.0552X0.0670*%
D10*
X003000Y002008D02*
X003000Y016004D01*
X015870Y016004D01*
X015870Y002008D01*
X003000Y002008D01*
D11*
X007926Y005108D03*
X008674Y005108D03*
D12*
X012200Y004958D03*
X013200Y003958D03*
X014200Y004958D03*
X014200Y002958D03*
X012200Y002958D03*
D13*
X004800Y003508D02*
X004200Y003508D01*
X004200Y004508D02*
X004800Y004508D01*
X004800Y005508D02*
X004200Y005508D01*
X004200Y006508D02*
X004800Y006508D01*
X004800Y007508D02*
X004200Y007508D01*
X004200Y008508D02*
X004800Y008508D01*
X004800Y009508D02*
X004200Y009508D01*
X004200Y010508D02*
X004800Y010508D01*
X004800Y011508D02*
X004200Y011508D01*
X004200Y012508D02*
X004800Y012508D01*
X004800Y013508D02*
X004200Y013508D01*
X004200Y014508D02*
X004800Y014508D01*
D14*
X008125Y011433D03*
X008125Y010633D03*
X008125Y009833D03*
X008125Y009033D03*
X008125Y008233D03*
X008125Y007433D03*
X008125Y006633D03*
X014325Y006633D03*
X014325Y007433D03*
X014325Y008233D03*
X014325Y009033D03*
X014325Y009833D03*
X014325Y010633D03*
X014325Y011433D03*
D15*
X014549Y012933D03*
X013801Y012933D03*
M02*
