G04 #@! TF.GenerationSoftware,KiCad,Pcbnew,6.0.7+dfsg-1build1*
G04 #@! TF.CreationDate,2022-12-04T12:17:57+01:00*
G04 #@! TF.ProjectId,rfm9xw,72666d39-7877-42e6-9b69-6361645f7063,1*
G04 #@! TF.SameCoordinates,Original*
G04 #@! TF.FileFunction,Legend,Bot*
G04 #@! TF.FilePolarity,Positive*
%FSLAX46Y46*%
G04 Gerber Fmt 4.6, Leading zero omitted, Abs format (unit mm)*
G04 Created by KiCad (PCBNEW 6.0.7+dfsg-1build1) date 2022-12-04 12:17:57*
%MOMM*%
%LPD*%
G01*
G04 APERTURE LIST*
%ADD10C,0.200000*%
%ADD11C,0.300000*%
%ADD12C,0.120000*%
%ADD13R,1.350000X4.200000*%
%ADD14R,1.700000X1.700000*%
%ADD15O,1.700000X1.700000*%
G04 APERTURE END LIST*
D10*
X96174000Y-53215000D02*
X105699000Y-53215000D01*
X105699000Y-53215000D02*
X105699000Y-47215000D01*
X96174000Y-51215000D02*
X105699000Y-51215000D01*
X96174000Y-49215000D02*
X105699000Y-49215000D01*
X103794000Y-53215000D02*
X103794000Y-47215000D01*
X96174000Y-47215000D02*
X96174000Y-53215000D01*
X105699000Y-47215000D02*
X96174000Y-47215000D01*
X102912571Y-50095952D02*
X103007809Y-50048333D01*
X103055428Y-50000714D01*
X103103047Y-49905476D01*
X103103047Y-49857857D01*
X103055428Y-49762619D01*
X103007809Y-49715000D01*
X102912571Y-49667380D01*
X102722095Y-49667380D01*
X102626857Y-49715000D01*
X102579238Y-49762619D01*
X102531619Y-49857857D01*
X102531619Y-49905476D01*
X102579238Y-50000714D01*
X102626857Y-50048333D01*
X102722095Y-50095952D01*
X102912571Y-50095952D01*
X103007809Y-50143571D01*
X103055428Y-50191190D01*
X103103047Y-50286428D01*
X103103047Y-50476904D01*
X103055428Y-50572142D01*
X103007809Y-50619761D01*
X102912571Y-50667380D01*
X102722095Y-50667380D01*
X102626857Y-50619761D01*
X102579238Y-50572142D01*
X102531619Y-50476904D01*
X102531619Y-50286428D01*
X102579238Y-50191190D01*
X102626857Y-50143571D01*
X102722095Y-50095952D01*
X101674476Y-49667380D02*
X101864952Y-49667380D01*
X101960190Y-49715000D01*
X102007809Y-49762619D01*
X102103047Y-49905476D01*
X102150666Y-50095952D01*
X102150666Y-50476904D01*
X102103047Y-50572142D01*
X102055428Y-50619761D01*
X101960190Y-50667380D01*
X101769714Y-50667380D01*
X101674476Y-50619761D01*
X101626857Y-50572142D01*
X101579238Y-50476904D01*
X101579238Y-50238809D01*
X101626857Y-50143571D01*
X101674476Y-50095952D01*
X101769714Y-50048333D01*
X101960190Y-50048333D01*
X102055428Y-50095952D01*
X102103047Y-50143571D01*
X102150666Y-50238809D01*
X101007809Y-50095952D02*
X101103047Y-50048333D01*
X101150666Y-50000714D01*
X101198285Y-49905476D01*
X101198285Y-49857857D01*
X101150666Y-49762619D01*
X101103047Y-49715000D01*
X101007809Y-49667380D01*
X100817333Y-49667380D01*
X100722095Y-49715000D01*
X100674476Y-49762619D01*
X100626857Y-49857857D01*
X100626857Y-49905476D01*
X100674476Y-50000714D01*
X100722095Y-50048333D01*
X100817333Y-50095952D01*
X101007809Y-50095952D01*
X101103047Y-50143571D01*
X101150666Y-50191190D01*
X101198285Y-50286428D01*
X101198285Y-50476904D01*
X101150666Y-50572142D01*
X101103047Y-50619761D01*
X101007809Y-50667380D01*
X100817333Y-50667380D01*
X100722095Y-50619761D01*
X100674476Y-50572142D01*
X100626857Y-50476904D01*
X100626857Y-50286428D01*
X100674476Y-50191190D01*
X100722095Y-50143571D01*
X100817333Y-50095952D01*
X99436380Y-50667380D02*
X99436380Y-49667380D01*
X99103047Y-50381666D01*
X98769714Y-49667380D01*
X98769714Y-50667380D01*
X98293523Y-50667380D02*
X98293523Y-49667380D01*
X98293523Y-50143571D02*
X97722095Y-50143571D01*
X97722095Y-50667380D02*
X97722095Y-49667380D01*
X97341142Y-50000714D02*
X96817333Y-50000714D01*
X97341142Y-50667380D01*
X96817333Y-50667380D01*
X109633095Y-58747380D02*
X110204523Y-58747380D01*
X109918809Y-58747380D02*
X109918809Y-57747380D01*
X110014047Y-57890238D01*
X110109285Y-57985476D01*
X110204523Y-58033095D01*
X109728333Y-53000714D02*
X109728333Y-53667380D01*
X109966428Y-52619761D02*
X110204523Y-53334047D01*
X109585476Y-53334047D01*
X110252142Y-50127380D02*
X109633095Y-50127380D01*
X109966428Y-50508333D01*
X109823571Y-50508333D01*
X109728333Y-50555952D01*
X109680714Y-50603571D01*
X109633095Y-50698809D01*
X109633095Y-50936904D01*
X109680714Y-51032142D01*
X109728333Y-51079761D01*
X109823571Y-51127380D01*
X110109285Y-51127380D01*
X110204523Y-51079761D01*
X110252142Y-51032142D01*
X94366904Y-58699761D02*
X94224047Y-58747380D01*
X93985952Y-58747380D01*
X93890714Y-58699761D01*
X93843095Y-58652142D01*
X93795476Y-58556904D01*
X93795476Y-58461666D01*
X93843095Y-58366428D01*
X93890714Y-58318809D01*
X93985952Y-58271190D01*
X94176428Y-58223571D01*
X94271666Y-58175952D01*
X94319285Y-58128333D01*
X94366904Y-58033095D01*
X94366904Y-57937857D01*
X94319285Y-57842619D01*
X94271666Y-57795000D01*
X94176428Y-57747380D01*
X93938333Y-57747380D01*
X93795476Y-57795000D01*
X92795476Y-58652142D02*
X92843095Y-58699761D01*
X92985952Y-58747380D01*
X93081190Y-58747380D01*
X93224047Y-58699761D01*
X93319285Y-58604523D01*
X93366904Y-58509285D01*
X93414523Y-58318809D01*
X93414523Y-58175952D01*
X93366904Y-57985476D01*
X93319285Y-57890238D01*
X93224047Y-57795000D01*
X93081190Y-57747380D01*
X92985952Y-57747380D01*
X92843095Y-57795000D01*
X92795476Y-57842619D01*
X92366904Y-58747380D02*
X92366904Y-57747380D01*
X91795476Y-58747380D02*
X92224047Y-58175952D01*
X91795476Y-57747380D02*
X92366904Y-58318809D01*
X103007809Y-52667380D02*
X102817333Y-52667380D01*
X102722095Y-52619761D01*
X102674476Y-52572142D01*
X102579238Y-52429285D01*
X102531619Y-52238809D01*
X102531619Y-51857857D01*
X102579238Y-51762619D01*
X102626857Y-51715000D01*
X102722095Y-51667380D01*
X102912571Y-51667380D01*
X103007809Y-51715000D01*
X103055428Y-51762619D01*
X103103047Y-51857857D01*
X103103047Y-52095952D01*
X103055428Y-52191190D01*
X103007809Y-52238809D01*
X102912571Y-52286428D01*
X102722095Y-52286428D01*
X102626857Y-52238809D01*
X102579238Y-52191190D01*
X102531619Y-52095952D01*
X101579238Y-52667380D02*
X102150666Y-52667380D01*
X101864952Y-52667380D02*
X101864952Y-51667380D01*
X101960190Y-51810238D01*
X102055428Y-51905476D01*
X102150666Y-51953095D01*
X100674476Y-51667380D02*
X101150666Y-51667380D01*
X101198285Y-52143571D01*
X101150666Y-52095952D01*
X101055428Y-52048333D01*
X100817333Y-52048333D01*
X100722095Y-52095952D01*
X100674476Y-52143571D01*
X100626857Y-52238809D01*
X100626857Y-52476904D01*
X100674476Y-52572142D01*
X100722095Y-52619761D01*
X100817333Y-52667380D01*
X101055428Y-52667380D01*
X101150666Y-52619761D01*
X101198285Y-52572142D01*
X99436380Y-52667380D02*
X99436380Y-51667380D01*
X99103047Y-52381666D01*
X98769714Y-51667380D01*
X98769714Y-52667380D01*
X98293523Y-52667380D02*
X98293523Y-51667380D01*
X98293523Y-52143571D02*
X97722095Y-52143571D01*
X97722095Y-52667380D02*
X97722095Y-51667380D01*
X97341142Y-52000714D02*
X96817333Y-52000714D01*
X97341142Y-52667380D01*
X96817333Y-52667380D01*
X94319285Y-56207380D02*
X94319285Y-55207380D01*
X93747857Y-56207380D01*
X93747857Y-55207380D01*
X93319285Y-56159761D02*
X93176428Y-56207380D01*
X92938333Y-56207380D01*
X92843095Y-56159761D01*
X92795476Y-56112142D01*
X92747857Y-56016904D01*
X92747857Y-55921666D01*
X92795476Y-55826428D01*
X92843095Y-55778809D01*
X92938333Y-55731190D01*
X93128809Y-55683571D01*
X93224047Y-55635952D01*
X93271666Y-55588333D01*
X93319285Y-55493095D01*
X93319285Y-55397857D01*
X93271666Y-55302619D01*
X93224047Y-55255000D01*
X93128809Y-55207380D01*
X92890714Y-55207380D01*
X92747857Y-55255000D01*
X92366904Y-56159761D02*
X92224047Y-56207380D01*
X91985952Y-56207380D01*
X91890714Y-56159761D01*
X91843095Y-56112142D01*
X91795476Y-56016904D01*
X91795476Y-55921666D01*
X91843095Y-55826428D01*
X91890714Y-55778809D01*
X91985952Y-55731190D01*
X92176428Y-55683571D01*
X92271666Y-55635952D01*
X92319285Y-55588333D01*
X92366904Y-55493095D01*
X92366904Y-55397857D01*
X92319285Y-55302619D01*
X92271666Y-55255000D01*
X92176428Y-55207380D01*
X91938333Y-55207380D01*
X91795476Y-55255000D01*
X102626857Y-48000714D02*
X102626857Y-48667380D01*
X102864952Y-47619761D02*
X103103047Y-48334047D01*
X102484000Y-48334047D01*
X102198285Y-47667380D02*
X101579238Y-47667380D01*
X101912571Y-48048333D01*
X101769714Y-48048333D01*
X101674476Y-48095952D01*
X101626857Y-48143571D01*
X101579238Y-48238809D01*
X101579238Y-48476904D01*
X101626857Y-48572142D01*
X101674476Y-48619761D01*
X101769714Y-48667380D01*
X102055428Y-48667380D01*
X102150666Y-48619761D01*
X102198285Y-48572142D01*
X101245904Y-47667380D02*
X100626857Y-47667380D01*
X100960190Y-48048333D01*
X100817333Y-48048333D01*
X100722095Y-48095952D01*
X100674476Y-48143571D01*
X100626857Y-48238809D01*
X100626857Y-48476904D01*
X100674476Y-48572142D01*
X100722095Y-48619761D01*
X100817333Y-48667380D01*
X101103047Y-48667380D01*
X101198285Y-48619761D01*
X101245904Y-48572142D01*
X99436380Y-48667380D02*
X99436380Y-47667380D01*
X99103047Y-48381666D01*
X98769714Y-47667380D01*
X98769714Y-48667380D01*
X98293523Y-48667380D02*
X98293523Y-47667380D01*
X98293523Y-48143571D02*
X97722095Y-48143571D01*
X97722095Y-48667380D02*
X97722095Y-47667380D01*
X97341142Y-48000714D02*
X96817333Y-48000714D01*
X97341142Y-48667380D01*
X96817333Y-48667380D01*
X110252142Y-62827380D02*
X109633095Y-62827380D01*
X109966428Y-63208333D01*
X109823571Y-63208333D01*
X109728333Y-63255952D01*
X109680714Y-63303571D01*
X109633095Y-63398809D01*
X109633095Y-63636904D01*
X109680714Y-63732142D01*
X109728333Y-63779761D01*
X109823571Y-63827380D01*
X110109285Y-63827380D01*
X110204523Y-63779761D01*
X110252142Y-63732142D01*
X109347380Y-62827380D02*
X109014047Y-63827380D01*
X108680714Y-62827380D01*
X108442619Y-62827380D02*
X107823571Y-62827380D01*
X108156904Y-63208333D01*
X108014047Y-63208333D01*
X107918809Y-63255952D01*
X107871190Y-63303571D01*
X107823571Y-63398809D01*
X107823571Y-63636904D01*
X107871190Y-63732142D01*
X107918809Y-63779761D01*
X108014047Y-63827380D01*
X108299761Y-63827380D01*
X108395000Y-63779761D01*
X108442619Y-63732142D01*
X110204523Y-60382619D02*
X110156904Y-60335000D01*
X110061666Y-60287380D01*
X109823571Y-60287380D01*
X109728333Y-60335000D01*
X109680714Y-60382619D01*
X109633095Y-60477857D01*
X109633095Y-60573095D01*
X109680714Y-60715952D01*
X110252142Y-61287380D01*
X109633095Y-61287380D01*
X93509761Y-53667380D02*
X93843095Y-53191190D01*
X94081190Y-53667380D02*
X94081190Y-52667380D01*
X93700238Y-52667380D01*
X93605000Y-52715000D01*
X93557380Y-52762619D01*
X93509761Y-52857857D01*
X93509761Y-53000714D01*
X93557380Y-53095952D01*
X93605000Y-53143571D01*
X93700238Y-53191190D01*
X94081190Y-53191190D01*
X93128809Y-53619761D02*
X92985952Y-53667380D01*
X92747857Y-53667380D01*
X92652619Y-53619761D01*
X92605000Y-53572142D01*
X92557380Y-53476904D01*
X92557380Y-53381666D01*
X92605000Y-53286428D01*
X92652619Y-53238809D01*
X92747857Y-53191190D01*
X92938333Y-53143571D01*
X93033571Y-53095952D01*
X93081190Y-53048333D01*
X93128809Y-52953095D01*
X93128809Y-52857857D01*
X93081190Y-52762619D01*
X93033571Y-52715000D01*
X92938333Y-52667380D01*
X92700238Y-52667380D01*
X92557380Y-52715000D01*
X92271666Y-52667380D02*
X91700238Y-52667380D01*
X91985952Y-53667380D02*
X91985952Y-52667380D01*
X94985952Y-61287380D02*
X94985952Y-60287380D01*
X94652619Y-61001666D01*
X94319285Y-60287380D01*
X94319285Y-61287380D01*
X93652619Y-60287380D02*
X93462142Y-60287380D01*
X93366904Y-60335000D01*
X93271666Y-60430238D01*
X93224047Y-60620714D01*
X93224047Y-60954047D01*
X93271666Y-61144523D01*
X93366904Y-61239761D01*
X93462142Y-61287380D01*
X93652619Y-61287380D01*
X93747857Y-61239761D01*
X93843095Y-61144523D01*
X93890714Y-60954047D01*
X93890714Y-60620714D01*
X93843095Y-60430238D01*
X93747857Y-60335000D01*
X93652619Y-60287380D01*
X92843095Y-61239761D02*
X92700238Y-61287380D01*
X92462142Y-61287380D01*
X92366904Y-61239761D01*
X92319285Y-61192142D01*
X92271666Y-61096904D01*
X92271666Y-61001666D01*
X92319285Y-60906428D01*
X92366904Y-60858809D01*
X92462142Y-60811190D01*
X92652619Y-60763571D01*
X92747857Y-60715952D01*
X92795476Y-60668333D01*
X92843095Y-60573095D01*
X92843095Y-60477857D01*
X92795476Y-60382619D01*
X92747857Y-60335000D01*
X92652619Y-60287380D01*
X92414523Y-60287380D01*
X92271666Y-60335000D01*
X91843095Y-61287380D02*
X91843095Y-60287380D01*
X109966428Y-55207380D02*
X109871190Y-55207380D01*
X109775952Y-55255000D01*
X109728333Y-55302619D01*
X109680714Y-55397857D01*
X109633095Y-55588333D01*
X109633095Y-55826428D01*
X109680714Y-56016904D01*
X109728333Y-56112142D01*
X109775952Y-56159761D01*
X109871190Y-56207380D01*
X109966428Y-56207380D01*
X110061666Y-56159761D01*
X110109285Y-56112142D01*
X110156904Y-56016904D01*
X110204523Y-55826428D01*
X110204523Y-55588333D01*
X110156904Y-55397857D01*
X110109285Y-55302619D01*
X110061666Y-55255000D01*
X109966428Y-55207380D01*
D11*
X107892857Y-67783214D02*
X107964285Y-67854642D01*
X108178571Y-67926071D01*
X108321428Y-67926071D01*
X108535714Y-67854642D01*
X108678571Y-67711785D01*
X108750000Y-67568928D01*
X108821428Y-67283214D01*
X108821428Y-67068928D01*
X108750000Y-66783214D01*
X108678571Y-66640357D01*
X108535714Y-66497500D01*
X108321428Y-66426071D01*
X108178571Y-66426071D01*
X107964285Y-66497500D01*
X107892857Y-66568928D01*
X106392857Y-67783214D02*
X106464285Y-67854642D01*
X106678571Y-67926071D01*
X106821428Y-67926071D01*
X107035714Y-67854642D01*
X107178571Y-67711785D01*
X107250000Y-67568928D01*
X107321428Y-67283214D01*
X107321428Y-67068928D01*
X107250000Y-66783214D01*
X107178571Y-66640357D01*
X107035714Y-66497500D01*
X106821428Y-66426071D01*
X106678571Y-66426071D01*
X106464285Y-66497500D01*
X106392857Y-66568928D01*
X104107142Y-67140357D02*
X103892857Y-67211785D01*
X103821428Y-67283214D01*
X103750000Y-67426071D01*
X103750000Y-67640357D01*
X103821428Y-67783214D01*
X103892857Y-67854642D01*
X104035714Y-67926071D01*
X104607142Y-67926071D01*
X104607142Y-66426071D01*
X104107142Y-66426071D01*
X103964285Y-66497500D01*
X103892857Y-66568928D01*
X103821428Y-66711785D01*
X103821428Y-66854642D01*
X103892857Y-66997500D01*
X103964285Y-67068928D01*
X104107142Y-67140357D01*
X104607142Y-67140357D01*
X102821428Y-67211785D02*
X102821428Y-67926071D01*
X103321428Y-66426071D02*
X102821428Y-67211785D01*
X102321428Y-66426071D01*
X101821428Y-67354642D02*
X100678571Y-67354642D01*
X100035714Y-67854642D02*
X99821428Y-67926071D01*
X99464285Y-67926071D01*
X99321428Y-67854642D01*
X99250000Y-67783214D01*
X99178571Y-67640357D01*
X99178571Y-67497500D01*
X99250000Y-67354642D01*
X99321428Y-67283214D01*
X99464285Y-67211785D01*
X99750000Y-67140357D01*
X99892857Y-67068928D01*
X99964285Y-66997500D01*
X100035714Y-66854642D01*
X100035714Y-66711785D01*
X99964285Y-66568928D01*
X99892857Y-66497500D01*
X99750000Y-66426071D01*
X99392857Y-66426071D01*
X99178571Y-66497500D01*
X98607142Y-67497500D02*
X97892857Y-67497500D01*
X98750000Y-67926071D02*
X98250000Y-66426071D01*
X97750000Y-67926071D01*
X95464285Y-66926071D02*
X95464285Y-67926071D01*
X95821428Y-66354642D02*
X96178571Y-67426071D01*
X95250000Y-67426071D01*
X94678571Y-67783214D02*
X94607142Y-67854642D01*
X94678571Y-67926071D01*
X94750000Y-67854642D01*
X94678571Y-67783214D01*
X94678571Y-67926071D01*
X93678571Y-66426071D02*
X93535714Y-66426071D01*
X93392857Y-66497500D01*
X93321428Y-66568928D01*
X93250000Y-66711785D01*
X93178571Y-66997500D01*
X93178571Y-67354642D01*
X93250000Y-67640357D01*
X93321428Y-67783214D01*
X93392857Y-67854642D01*
X93535714Y-67926071D01*
X93678571Y-67926071D01*
X93821428Y-67854642D01*
X93892857Y-67783214D01*
X93964285Y-67640357D01*
X94035714Y-67354642D01*
X94035714Y-66997500D01*
X93964285Y-66711785D01*
X93892857Y-66568928D01*
X93821428Y-66497500D01*
X93678571Y-66426071D01*
X111785714Y-70341071D02*
X111785714Y-68841071D01*
X110928571Y-70341071D02*
X111571428Y-69483928D01*
X110928571Y-68841071D02*
X111785714Y-69698214D01*
X109642857Y-70341071D02*
X109642857Y-69555357D01*
X109714285Y-69412500D01*
X109857142Y-69341071D01*
X110142857Y-69341071D01*
X110285714Y-69412500D01*
X109642857Y-70269642D02*
X109785714Y-70341071D01*
X110142857Y-70341071D01*
X110285714Y-70269642D01*
X110357142Y-70126785D01*
X110357142Y-69983928D01*
X110285714Y-69841071D01*
X110142857Y-69769642D01*
X109785714Y-69769642D01*
X109642857Y-69698214D01*
X108928571Y-70341071D02*
X108928571Y-69341071D01*
X108928571Y-68841071D02*
X109000000Y-68912500D01*
X108928571Y-68983928D01*
X108857142Y-68912500D01*
X108928571Y-68841071D01*
X108928571Y-68983928D01*
X106214285Y-70198214D02*
X106285714Y-70269642D01*
X106500000Y-70341071D01*
X106642857Y-70341071D01*
X106857142Y-70269642D01*
X107000000Y-70126785D01*
X107071428Y-69983928D01*
X107142857Y-69698214D01*
X107142857Y-69483928D01*
X107071428Y-69198214D01*
X107000000Y-69055357D01*
X106857142Y-68912500D01*
X106642857Y-68841071D01*
X106500000Y-68841071D01*
X106285714Y-68912500D01*
X106214285Y-68983928D01*
X105571428Y-70341071D02*
X105571428Y-68841071D01*
X104928571Y-70341071D02*
X104928571Y-69555357D01*
X105000000Y-69412500D01*
X105142857Y-69341071D01*
X105357142Y-69341071D01*
X105500000Y-69412500D01*
X105571428Y-69483928D01*
X104214285Y-70341071D02*
X104214285Y-69341071D01*
X104214285Y-69626785D02*
X104142857Y-69483928D01*
X104071428Y-69412500D01*
X103928571Y-69341071D01*
X103785714Y-69341071D01*
X103285714Y-70341071D02*
X103285714Y-69341071D01*
X103285714Y-68841071D02*
X103357142Y-68912500D01*
X103285714Y-68983928D01*
X103214285Y-68912500D01*
X103285714Y-68841071D01*
X103285714Y-68983928D01*
X102642857Y-70269642D02*
X102500000Y-70341071D01*
X102214285Y-70341071D01*
X102071428Y-70269642D01*
X102000000Y-70126785D01*
X102000000Y-70055357D01*
X102071428Y-69912500D01*
X102214285Y-69841071D01*
X102428571Y-69841071D01*
X102571428Y-69769642D01*
X102642857Y-69626785D01*
X102642857Y-69555357D01*
X102571428Y-69412500D01*
X102428571Y-69341071D01*
X102214285Y-69341071D01*
X102071428Y-69412500D01*
X101571428Y-69341071D02*
X101000000Y-69341071D01*
X101357142Y-68841071D02*
X101357142Y-70126785D01*
X101285714Y-70269642D01*
X101142857Y-70341071D01*
X101000000Y-70341071D01*
X100500000Y-70341071D02*
X100500000Y-69341071D01*
X100500000Y-68841071D02*
X100571428Y-68912500D01*
X100500000Y-68983928D01*
X100428571Y-68912500D01*
X100500000Y-68841071D01*
X100500000Y-68983928D01*
X99142857Y-70341071D02*
X99142857Y-69555357D01*
X99214285Y-69412500D01*
X99357142Y-69341071D01*
X99642857Y-69341071D01*
X99785714Y-69412500D01*
X99142857Y-70269642D02*
X99285714Y-70341071D01*
X99642857Y-70341071D01*
X99785714Y-70269642D01*
X99857142Y-70126785D01*
X99857142Y-69983928D01*
X99785714Y-69841071D01*
X99642857Y-69769642D01*
X99285714Y-69769642D01*
X99142857Y-69698214D01*
X98428571Y-69341071D02*
X98428571Y-70341071D01*
X98428571Y-69483928D02*
X98357142Y-69412500D01*
X98214285Y-69341071D01*
X98000000Y-69341071D01*
X97857142Y-69412500D01*
X97785714Y-69555357D01*
X97785714Y-70341071D01*
X95428571Y-69555357D02*
X95214285Y-69626785D01*
X95142857Y-69698214D01*
X95071428Y-69841071D01*
X95071428Y-70055357D01*
X95142857Y-70198214D01*
X95214285Y-70269642D01*
X95357142Y-70341071D01*
X95928571Y-70341071D01*
X95928571Y-68841071D01*
X95428571Y-68841071D01*
X95285714Y-68912500D01*
X95214285Y-68983928D01*
X95142857Y-69126785D01*
X95142857Y-69269642D01*
X95214285Y-69412500D01*
X95285714Y-69483928D01*
X95428571Y-69555357D01*
X95928571Y-69555357D01*
X93785714Y-70341071D02*
X93785714Y-69555357D01*
X93857142Y-69412500D01*
X94000000Y-69341071D01*
X94285714Y-69341071D01*
X94428571Y-69412500D01*
X93785714Y-70269642D02*
X93928571Y-70341071D01*
X94285714Y-70341071D01*
X94428571Y-70269642D01*
X94500000Y-70126785D01*
X94500000Y-69983928D01*
X94428571Y-69841071D01*
X94285714Y-69769642D01*
X93928571Y-69769642D01*
X93785714Y-69698214D01*
X92428571Y-70341071D02*
X92428571Y-68841071D01*
X92428571Y-70269642D02*
X92571428Y-70341071D01*
X92857142Y-70341071D01*
X93000000Y-70269642D01*
X93071428Y-70198214D01*
X93142857Y-70055357D01*
X93142857Y-69626785D01*
X93071428Y-69483928D01*
X93000000Y-69412500D01*
X92857142Y-69341071D01*
X92571428Y-69341071D01*
X92428571Y-69412500D01*
X91142857Y-70269642D02*
X91285714Y-70341071D01*
X91571428Y-70341071D01*
X91714285Y-70269642D01*
X91785714Y-70126785D01*
X91785714Y-69555357D01*
X91714285Y-69412500D01*
X91571428Y-69341071D01*
X91285714Y-69341071D01*
X91142857Y-69412500D01*
X91071428Y-69555357D01*
X91071428Y-69698214D01*
X91785714Y-69841071D01*
X90428571Y-70341071D02*
X90428571Y-69341071D01*
X90428571Y-69626785D02*
X90357142Y-69483928D01*
X90285714Y-69412500D01*
X90142857Y-69341071D01*
X90000000Y-69341071D01*
D10*
X93890714Y-47635000D02*
X93985952Y-47587380D01*
X94128809Y-47587380D01*
X94271666Y-47635000D01*
X94366904Y-47730238D01*
X94414523Y-47825476D01*
X94462142Y-48015952D01*
X94462142Y-48158809D01*
X94414523Y-48349285D01*
X94366904Y-48444523D01*
X94271666Y-48539761D01*
X94128809Y-48587380D01*
X94033571Y-48587380D01*
X93890714Y-48539761D01*
X93843095Y-48492142D01*
X93843095Y-48158809D01*
X94033571Y-48158809D01*
X93414523Y-48587380D02*
X93414523Y-47587380D01*
X92843095Y-48587380D01*
X92843095Y-47587380D01*
X92366904Y-48587380D02*
X92366904Y-47587380D01*
X92128809Y-47587380D01*
X91985952Y-47635000D01*
X91890714Y-47730238D01*
X91843095Y-47825476D01*
X91795476Y-48015952D01*
X91795476Y-48158809D01*
X91843095Y-48349285D01*
X91890714Y-48444523D01*
X91985952Y-48539761D01*
X92128809Y-48587380D01*
X92366904Y-48587380D01*
X100590619Y-76924142D02*
X101066809Y-77257476D01*
X100590619Y-77495571D02*
X101590619Y-77495571D01*
X101590619Y-77114619D01*
X101543000Y-77019380D01*
X101495380Y-76971761D01*
X101400142Y-76924142D01*
X101257285Y-76924142D01*
X101162047Y-76971761D01*
X101114428Y-77019380D01*
X101066809Y-77114619D01*
X101066809Y-77495571D01*
X100638238Y-76114619D02*
X100590619Y-76209857D01*
X100590619Y-76400333D01*
X100638238Y-76495571D01*
X100733476Y-76543190D01*
X101114428Y-76543190D01*
X101209666Y-76495571D01*
X101257285Y-76400333D01*
X101257285Y-76209857D01*
X101209666Y-76114619D01*
X101114428Y-76067000D01*
X101019190Y-76067000D01*
X100923952Y-76543190D01*
X101257285Y-75733666D02*
X100590619Y-75495571D01*
X101257285Y-75257476D01*
X100590619Y-73590809D02*
X100590619Y-74162238D01*
X100590619Y-73876523D02*
X101590619Y-73876523D01*
X101447761Y-73971761D01*
X101352523Y-74067000D01*
X101304904Y-74162238D01*
X99885380Y-77281285D02*
X99933000Y-77233666D01*
X99980619Y-77138428D01*
X99980619Y-76900333D01*
X99933000Y-76805095D01*
X99885380Y-76757476D01*
X99790142Y-76709857D01*
X99694904Y-76709857D01*
X99552047Y-76757476D01*
X98980619Y-77328904D01*
X98980619Y-76709857D01*
X99885380Y-76328904D02*
X99933000Y-76281285D01*
X99980619Y-76186047D01*
X99980619Y-75947952D01*
X99933000Y-75852714D01*
X99885380Y-75805095D01*
X99790142Y-75757476D01*
X99694904Y-75757476D01*
X99552047Y-75805095D01*
X98980619Y-76376523D01*
X98980619Y-75757476D01*
X99647285Y-74900333D02*
X98980619Y-74900333D01*
X100028238Y-75138428D02*
X99313952Y-75376523D01*
X99313952Y-74757476D01*
X99552047Y-74233666D02*
X99599666Y-74328904D01*
X99647285Y-74376523D01*
X99742523Y-74424142D01*
X99790142Y-74424142D01*
X99885380Y-74376523D01*
X99933000Y-74328904D01*
X99980619Y-74233666D01*
X99980619Y-74043190D01*
X99933000Y-73947952D01*
X99885380Y-73900333D01*
X99790142Y-73852714D01*
X99742523Y-73852714D01*
X99647285Y-73900333D01*
X99599666Y-73947952D01*
X99552047Y-74043190D01*
X99552047Y-74233666D01*
X99504428Y-74328904D01*
X99456809Y-74376523D01*
X99361571Y-74424142D01*
X99171095Y-74424142D01*
X99075857Y-74376523D01*
X99028238Y-74328904D01*
X98980619Y-74233666D01*
X98980619Y-74043190D01*
X99028238Y-73947952D01*
X99075857Y-73900333D01*
X99171095Y-73852714D01*
X99361571Y-73852714D01*
X99456809Y-73900333D01*
X99504428Y-73947952D01*
X99552047Y-74043190D01*
X109633095Y-47635000D02*
X109728333Y-47587380D01*
X109871190Y-47587380D01*
X110014047Y-47635000D01*
X110109285Y-47730238D01*
X110156904Y-47825476D01*
X110204523Y-48015952D01*
X110204523Y-48158809D01*
X110156904Y-48349285D01*
X110109285Y-48444523D01*
X110014047Y-48539761D01*
X109871190Y-48587380D01*
X109775952Y-48587380D01*
X109633095Y-48539761D01*
X109585476Y-48492142D01*
X109585476Y-48158809D01*
X109775952Y-48158809D01*
X109156904Y-48587380D02*
X109156904Y-47587380D01*
X108585476Y-48587380D01*
X108585476Y-47587380D01*
X108109285Y-48587380D02*
X108109285Y-47587380D01*
X107871190Y-47587380D01*
X107728333Y-47635000D01*
X107633095Y-47730238D01*
X107585476Y-47825476D01*
X107537857Y-48015952D01*
X107537857Y-48158809D01*
X107585476Y-48349285D01*
X107633095Y-48444523D01*
X107728333Y-48539761D01*
X107871190Y-48587380D01*
X108109285Y-48587380D01*
X94985952Y-63827380D02*
X94985952Y-62827380D01*
X94652619Y-63541666D01*
X94319285Y-62827380D01*
X94319285Y-63827380D01*
X93843095Y-63827380D02*
X93843095Y-62827380D01*
X93414523Y-63779761D02*
X93271666Y-63827380D01*
X93033571Y-63827380D01*
X92938333Y-63779761D01*
X92890714Y-63732142D01*
X92843095Y-63636904D01*
X92843095Y-63541666D01*
X92890714Y-63446428D01*
X92938333Y-63398809D01*
X93033571Y-63351190D01*
X93224047Y-63303571D01*
X93319285Y-63255952D01*
X93366904Y-63208333D01*
X93414523Y-63113095D01*
X93414523Y-63017857D01*
X93366904Y-62922619D01*
X93319285Y-62875000D01*
X93224047Y-62827380D01*
X92985952Y-62827380D01*
X92843095Y-62875000D01*
X92224047Y-62827380D02*
X92033571Y-62827380D01*
X91938333Y-62875000D01*
X91843095Y-62970238D01*
X91795476Y-63160714D01*
X91795476Y-63494047D01*
X91843095Y-63684523D01*
X91938333Y-63779761D01*
X92033571Y-63827380D01*
X92224047Y-63827380D01*
X92319285Y-63779761D01*
X92414523Y-63684523D01*
X92462142Y-63494047D01*
X92462142Y-63160714D01*
X92414523Y-62970238D01*
X92319285Y-62875000D01*
X92224047Y-62827380D01*
X91970095Y-50127380D02*
X92446285Y-50127380D01*
X92493904Y-50603571D01*
X92446285Y-50555952D01*
X92351047Y-50508333D01*
X92112952Y-50508333D01*
X92017714Y-50555952D01*
X91970095Y-50603571D01*
X91922476Y-50698809D01*
X91922476Y-50936904D01*
X91970095Y-51032142D01*
X92017714Y-51079761D01*
X92112952Y-51127380D01*
X92351047Y-51127380D01*
X92446285Y-51079761D01*
X92493904Y-51032142D01*
D12*
X111100000Y-63315000D02*
X111100000Y-64645000D01*
X113760000Y-62045000D02*
X113760000Y-46745000D01*
X111100000Y-62045000D02*
X113760000Y-62045000D01*
X111100000Y-46745000D02*
X113760000Y-46745000D01*
X111100000Y-64645000D02*
X112430000Y-64645000D01*
X111100000Y-62045000D02*
X111100000Y-46745000D01*
X88240000Y-62045000D02*
X88240000Y-46745000D01*
X88240000Y-64645000D02*
X89570000Y-64645000D01*
X88240000Y-46745000D02*
X90900000Y-46745000D01*
X90900000Y-62045000D02*
X90900000Y-46745000D01*
X88240000Y-63315000D02*
X88240000Y-64645000D01*
X88240000Y-62045000D02*
X90900000Y-62045000D01*
%LPC*%
D13*
X103190000Y-76050000D03*
X97540000Y-76050000D03*
D14*
X112430000Y-63315000D03*
D15*
X112430000Y-60775000D03*
X112430000Y-58235000D03*
X112430000Y-55695000D03*
X112430000Y-53155000D03*
X112430000Y-50615000D03*
X112430000Y-48075000D03*
D14*
X89570000Y-63315000D03*
D15*
X89570000Y-60775000D03*
X89570000Y-58235000D03*
X89570000Y-55695000D03*
X89570000Y-53155000D03*
X89570000Y-50615000D03*
X89570000Y-48075000D03*
M02*
