G75*
G70*
%OFA0B0*%
%FSLAX24Y24*%
%IPPOS*%
%LPD*%
%AMOC8*
5,1,8,0,0,1.08239X$1,22.5*
%
%ADD10C,0.0000*%
%ADD11C,0.0040*%
%ADD12C,0.0080*%
%ADD13C,0.0060*%
%ADD14C,0.0300*%
%ADD15R,0.0200X0.0300*%
%ADD16R,0.0400X0.0300*%
%ADD17C,0.0050*%
%ADD18C,0.0030*%
D10*
X003000Y002008D02*
X003000Y016004D01*
X015870Y016004D01*
X015870Y002008D01*
X003000Y002008D01*
D11*
X003145Y002278D02*
X003145Y002738D01*
X003375Y002738D01*
X003452Y002661D01*
X003452Y002508D01*
X003375Y002431D01*
X003145Y002431D01*
X003298Y002431D02*
X003452Y002278D01*
X003605Y002354D02*
X003605Y002508D01*
X003682Y002584D01*
X003836Y002584D01*
X003912Y002508D01*
X003912Y002431D01*
X003605Y002431D01*
X003605Y002354D02*
X003682Y002278D01*
X003836Y002278D01*
X004066Y002584D02*
X004219Y002278D01*
X004373Y002584D01*
X004526Y002354D02*
X004603Y002354D01*
X004603Y002278D01*
X004526Y002278D01*
X004526Y002354D01*
X004756Y002278D02*
X005063Y002584D01*
X005063Y002661D01*
X004987Y002738D01*
X004833Y002738D01*
X004756Y002661D01*
X004756Y002278D02*
X005063Y002278D01*
X005548Y003278D02*
X005702Y003431D01*
X005702Y003738D01*
X005855Y003738D02*
X006086Y003738D01*
X006162Y003661D01*
X006162Y003354D01*
X006086Y003278D01*
X005855Y003278D01*
X005855Y003738D01*
X005395Y003738D02*
X005395Y003431D01*
X005548Y003278D01*
X006316Y003278D02*
X006546Y003278D01*
X006623Y003354D01*
X006623Y003661D01*
X006546Y003738D01*
X006316Y003738D01*
X006316Y003278D01*
X006316Y004278D02*
X006546Y004278D01*
X006623Y004354D01*
X006623Y004661D01*
X006546Y004738D01*
X006316Y004738D01*
X006316Y004278D01*
X006162Y004278D02*
X006162Y004738D01*
X005855Y004738D02*
X006162Y004278D01*
X005855Y004278D02*
X005855Y004738D01*
X005702Y004661D02*
X005625Y004738D01*
X005472Y004738D01*
X005395Y004661D01*
X005395Y004354D01*
X005472Y004278D01*
X005625Y004278D01*
X005702Y004354D01*
X005702Y004508D01*
X005548Y004508D01*
X005395Y005278D02*
X005395Y005584D01*
X005625Y005584D01*
X005702Y005508D01*
X005702Y005278D01*
X005855Y005278D02*
X005855Y005738D01*
X006086Y005738D01*
X006162Y005661D01*
X006162Y005508D01*
X006086Y005431D01*
X005855Y005431D01*
X006009Y005431D02*
X006162Y005278D01*
X006316Y005278D02*
X006623Y005278D01*
X006776Y005354D02*
X006853Y005278D01*
X007006Y005278D01*
X007083Y005354D01*
X007083Y005431D01*
X007006Y005508D01*
X006853Y005508D01*
X006776Y005584D01*
X006776Y005661D01*
X006853Y005738D01*
X007006Y005738D01*
X007083Y005661D01*
X006623Y005738D02*
X006316Y005738D01*
X006316Y005278D01*
X006316Y005508D02*
X006469Y005508D01*
X006316Y006278D02*
X006316Y006738D01*
X006393Y006508D02*
X006623Y006278D01*
X006316Y006431D02*
X006623Y006738D01*
X006623Y007278D02*
X006316Y007278D01*
X006316Y007738D01*
X006162Y007661D02*
X006086Y007738D01*
X005932Y007738D01*
X005855Y007661D01*
X005855Y007354D01*
X005932Y007278D01*
X006086Y007278D01*
X006162Y007354D01*
X005702Y007354D02*
X005702Y007661D01*
X005625Y007738D01*
X005395Y007738D01*
X005395Y007278D01*
X005625Y007278D01*
X005702Y007354D01*
X005625Y006738D02*
X005472Y006738D01*
X005395Y006661D01*
X005395Y006354D01*
X005472Y006278D01*
X005625Y006278D01*
X005702Y006354D01*
X005855Y006278D02*
X006162Y006278D01*
X005855Y006278D02*
X005855Y006738D01*
X005702Y006661D02*
X005625Y006738D01*
X006776Y007278D02*
X006776Y007738D01*
X006853Y007508D02*
X007083Y007278D01*
X006776Y007431D02*
X007083Y007738D01*
X006623Y008278D02*
X006393Y008508D01*
X006316Y008431D02*
X006623Y008738D01*
X006316Y008738D02*
X006316Y008278D01*
X006162Y008354D02*
X006162Y008431D01*
X006086Y008508D01*
X005932Y008508D01*
X005855Y008584D01*
X005855Y008661D01*
X005932Y008738D01*
X006086Y008738D01*
X006162Y008661D01*
X006162Y008354D02*
X006086Y008278D01*
X005932Y008278D01*
X005855Y008354D01*
X005548Y008508D02*
X005395Y008508D01*
X005395Y008278D02*
X005395Y008738D01*
X005702Y008738D01*
X005702Y009278D02*
X005702Y009508D01*
X005625Y009584D01*
X005395Y009584D01*
X005395Y009278D01*
X005855Y009278D02*
X006009Y009278D01*
X005932Y009278D02*
X005932Y009738D01*
X005855Y009738D02*
X006009Y009738D01*
X006162Y009738D02*
X006393Y009738D01*
X006469Y009661D01*
X006469Y009508D01*
X006393Y009431D01*
X006162Y009431D01*
X006162Y009278D02*
X006162Y009738D01*
X006316Y009431D02*
X006469Y009278D01*
X006623Y009354D02*
X006699Y009278D01*
X006853Y009278D01*
X006930Y009354D01*
X006930Y009661D01*
X006853Y009738D01*
X006699Y009738D01*
X006623Y009661D01*
X006623Y009354D01*
X006776Y009431D02*
X006930Y009278D01*
X006546Y010278D02*
X006393Y010278D01*
X006316Y010354D01*
X006316Y010661D01*
X006393Y010738D01*
X006546Y010738D01*
X006623Y010661D01*
X006623Y010354D01*
X006546Y010278D01*
X006162Y010354D02*
X006162Y010661D01*
X006086Y010738D01*
X005855Y010738D01*
X005855Y010278D01*
X006086Y010278D01*
X006162Y010354D01*
X005702Y010354D02*
X005625Y010278D01*
X005472Y010278D01*
X005395Y010354D01*
X005472Y010508D02*
X005625Y010508D01*
X005702Y010431D01*
X005702Y010354D01*
X005472Y010508D02*
X005395Y010584D01*
X005395Y010661D01*
X005472Y010738D01*
X005625Y010738D01*
X005702Y010661D01*
X005702Y011278D02*
X005702Y011508D01*
X005625Y011584D01*
X005395Y011584D01*
X005395Y011278D01*
X005855Y011278D02*
X006009Y011278D01*
X005932Y011278D02*
X005932Y011738D01*
X005855Y011738D02*
X006009Y011738D01*
X006162Y011738D02*
X006469Y011278D01*
X006469Y011738D01*
X006623Y011738D02*
X006930Y011738D01*
X006776Y011738D02*
X006776Y011278D01*
X006162Y011278D02*
X006162Y011738D01*
X006086Y012278D02*
X005855Y012278D01*
X005855Y012738D01*
X006086Y012738D01*
X006162Y012661D01*
X006162Y012354D01*
X006086Y012278D01*
X006316Y012278D02*
X006469Y012278D01*
X006393Y012278D02*
X006393Y012738D01*
X006469Y012738D02*
X006316Y012738D01*
X006316Y013278D02*
X006316Y013738D01*
X006162Y013661D02*
X006086Y013738D01*
X005932Y013738D01*
X005855Y013661D01*
X005855Y013354D01*
X005932Y013278D01*
X006086Y013278D01*
X006162Y013354D01*
X006316Y013431D02*
X006623Y013738D01*
X006393Y013508D02*
X006623Y013278D01*
X005702Y013354D02*
X005625Y013278D01*
X005472Y013278D01*
X005395Y013354D01*
X005472Y013508D02*
X005625Y013508D01*
X005702Y013431D01*
X005702Y013354D01*
X005472Y013508D02*
X005395Y013584D01*
X005395Y013661D01*
X005472Y013738D01*
X005625Y013738D01*
X005702Y013661D01*
X005702Y014278D02*
X005702Y014508D01*
X005625Y014584D01*
X005395Y014584D01*
X005395Y014278D01*
X005855Y014354D02*
X005932Y014278D01*
X006086Y014278D01*
X006162Y014354D01*
X006162Y014431D01*
X006086Y014508D01*
X005932Y014508D01*
X005855Y014584D01*
X005855Y014661D01*
X005932Y014738D01*
X006086Y014738D01*
X006162Y014661D01*
X006316Y014738D02*
X006316Y014278D01*
X006623Y014278D01*
X006776Y014278D02*
X007083Y014278D01*
X006776Y014278D02*
X006776Y014738D01*
X006623Y014738D02*
X006316Y014738D01*
X006316Y014508D02*
X006469Y014508D01*
X005625Y012738D02*
X005472Y012738D01*
X005395Y012661D01*
X005395Y012584D01*
X005472Y012508D01*
X005625Y012508D01*
X005702Y012431D01*
X005702Y012354D01*
X005625Y012278D01*
X005472Y012278D01*
X005395Y012354D01*
X005702Y012661D02*
X005625Y012738D01*
X009620Y013754D02*
X009697Y013678D01*
X009773Y013754D01*
X009850Y013678D01*
X009927Y013754D01*
X009927Y013984D01*
X010080Y013984D02*
X010080Y013754D01*
X010157Y013678D01*
X010234Y013754D01*
X010311Y013678D01*
X010387Y013754D01*
X010387Y013984D01*
X010541Y013984D02*
X010541Y013754D01*
X010618Y013678D01*
X010694Y013754D01*
X010771Y013678D01*
X010848Y013754D01*
X010848Y013984D01*
X011001Y013754D02*
X011078Y013754D01*
X011078Y013678D01*
X011001Y013678D01*
X011001Y013754D01*
X011231Y013678D02*
X011231Y014138D01*
X011462Y013984D02*
X011231Y013831D01*
X011462Y013678D01*
X011615Y013754D02*
X011692Y013831D01*
X011922Y013831D01*
X011922Y013908D02*
X011922Y013678D01*
X011692Y013678D01*
X011615Y013754D01*
X011692Y013984D02*
X011845Y013984D01*
X011922Y013908D01*
X012075Y013984D02*
X012152Y013984D01*
X012152Y013678D01*
X012075Y013678D02*
X012229Y013678D01*
X012382Y013678D02*
X012613Y013678D01*
X012689Y013754D01*
X012689Y013908D01*
X012613Y013984D01*
X012382Y013984D01*
X012382Y014138D02*
X012382Y013678D01*
X012843Y013754D02*
X012919Y013831D01*
X013150Y013831D01*
X013150Y013908D02*
X013150Y013678D01*
X012919Y013678D01*
X012843Y013754D01*
X012919Y013984D02*
X013073Y013984D01*
X013150Y013908D01*
X013303Y013908D02*
X013303Y013754D01*
X013380Y013678D01*
X013610Y013678D01*
X013610Y014138D01*
X013610Y013984D02*
X013380Y013984D01*
X013303Y013908D01*
X013764Y013908D02*
X013764Y013754D01*
X013840Y013678D01*
X013994Y013678D01*
X014070Y013831D02*
X013764Y013831D01*
X013764Y013908D02*
X013840Y013984D01*
X013994Y013984D01*
X014070Y013908D01*
X014070Y013831D01*
X014224Y013831D02*
X014377Y013984D01*
X014454Y013984D01*
X014224Y013984D02*
X014224Y013678D01*
X014608Y013678D02*
X014684Y013678D01*
X014684Y013754D01*
X014608Y013754D01*
X014608Y013678D01*
X014838Y013754D02*
X014838Y013908D01*
X014915Y013984D01*
X015145Y013984D01*
X015145Y014138D02*
X015145Y013678D01*
X014915Y013678D01*
X014838Y013754D01*
X015298Y013754D02*
X015298Y013908D01*
X015375Y013984D01*
X015528Y013984D01*
X015605Y013908D01*
X015605Y013831D01*
X015298Y013831D01*
X015298Y013754D02*
X015375Y013678D01*
X015528Y013678D01*
X015528Y014428D02*
X015298Y014428D01*
X015221Y014504D01*
X015221Y014658D01*
X015298Y014734D01*
X015528Y014734D01*
X015528Y014888D02*
X015528Y014428D01*
X015068Y014734D02*
X014991Y014734D01*
X014838Y014581D01*
X014838Y014428D02*
X014838Y014734D01*
X014684Y014658D02*
X014684Y014428D01*
X014454Y014428D01*
X014377Y014504D01*
X014454Y014581D01*
X014684Y014581D01*
X014684Y014658D02*
X014608Y014734D01*
X014454Y014734D01*
X014224Y014658D02*
X014224Y014504D01*
X014147Y014428D01*
X013994Y014428D01*
X013917Y014504D01*
X013917Y014658D01*
X013994Y014734D01*
X014147Y014734D01*
X014224Y014658D01*
X013764Y014734D02*
X013687Y014658D01*
X013457Y014658D01*
X013687Y014658D02*
X013764Y014581D01*
X013764Y014504D01*
X013687Y014428D01*
X013457Y014428D01*
X013457Y014888D01*
X013687Y014888D01*
X013764Y014811D01*
X013764Y014734D01*
X012843Y014734D02*
X012689Y014734D01*
X012766Y014811D02*
X012766Y014504D01*
X012843Y014428D01*
X012536Y014428D02*
X012536Y014734D01*
X012536Y014428D02*
X012306Y014428D01*
X012229Y014504D01*
X012229Y014734D01*
X012075Y014658D02*
X011999Y014734D01*
X011845Y014734D01*
X011768Y014658D01*
X011768Y014504D01*
X011845Y014428D01*
X011999Y014428D01*
X012075Y014504D01*
X012075Y014658D01*
X012152Y014215D02*
X012152Y014138D01*
X011615Y014428D02*
X011385Y014581D01*
X011615Y014734D01*
X011385Y014888D02*
X011385Y014428D01*
X011231Y014428D02*
X011231Y014658D01*
X011155Y014734D01*
X011001Y014734D01*
X011001Y014581D02*
X011231Y014581D01*
X011231Y014428D02*
X011001Y014428D01*
X010924Y014504D01*
X011001Y014581D01*
X010771Y014581D02*
X010464Y014581D01*
X010464Y014658D02*
X010541Y014734D01*
X010694Y014734D01*
X010771Y014658D01*
X010771Y014581D01*
X010694Y014428D02*
X010541Y014428D01*
X010464Y014504D01*
X010464Y014658D01*
X010311Y014734D02*
X010234Y014734D01*
X010080Y014581D01*
X009927Y014581D02*
X009927Y014504D01*
X009850Y014428D01*
X009620Y014428D01*
X009620Y014888D01*
X009850Y014888D01*
X009927Y014811D01*
X009927Y014734D01*
X009850Y014658D01*
X009620Y014658D01*
X009850Y014658D02*
X009927Y014581D01*
X010080Y014428D02*
X010080Y014734D01*
X010080Y015178D02*
X010080Y015638D01*
X010387Y015638D01*
X010541Y015638D02*
X010694Y015484D01*
X010848Y015638D01*
X010848Y015178D01*
X011001Y015178D02*
X011308Y015178D01*
X011155Y015178D02*
X011155Y015638D01*
X011001Y015484D01*
X010541Y015638D02*
X010541Y015178D01*
X010234Y015408D02*
X010080Y015408D01*
X009927Y015408D02*
X009927Y015561D01*
X009850Y015638D01*
X009620Y015638D01*
X009620Y015178D01*
X009620Y015331D02*
X009850Y015331D01*
X009927Y015408D01*
X009773Y015331D02*
X009927Y015178D01*
X009620Y013984D02*
X009620Y013754D01*
X011462Y015178D02*
X011768Y015484D01*
X011768Y015561D01*
X011692Y015638D01*
X011538Y015638D01*
X011462Y015561D01*
X011462Y015178D02*
X011768Y015178D01*
X010205Y009999D02*
X010205Y009692D01*
X009898Y009999D01*
X009821Y009999D01*
X009745Y009922D01*
X009745Y009769D01*
X009821Y009692D01*
X009745Y009385D02*
X010205Y009385D01*
X010205Y009232D02*
X010205Y009539D01*
X009898Y009232D02*
X009745Y009385D01*
X009745Y009078D02*
X010205Y009078D01*
X010205Y008771D02*
X009745Y008771D01*
X009898Y008925D01*
X009745Y009078D01*
X009745Y008618D02*
X009745Y008311D01*
X010205Y008311D01*
X010205Y008157D02*
X010052Y008004D01*
X010052Y008081D02*
X010052Y007851D01*
X010205Y007851D02*
X009745Y007851D01*
X009745Y008081D01*
X009821Y008157D01*
X009975Y008157D01*
X010052Y008081D01*
X009975Y008311D02*
X009975Y008464D01*
D12*
X012767Y005168D02*
X013633Y005168D01*
X014411Y004391D02*
X014411Y003524D01*
X013633Y002747D02*
X012767Y002747D01*
X011989Y003524D02*
X011989Y004391D01*
X012531Y003958D02*
X012533Y004009D01*
X012539Y004060D01*
X012549Y004110D01*
X012562Y004160D01*
X012580Y004208D01*
X012600Y004255D01*
X012625Y004300D01*
X012653Y004343D01*
X012684Y004384D01*
X012718Y004422D01*
X012755Y004457D01*
X012794Y004490D01*
X012836Y004520D01*
X012880Y004546D01*
X012926Y004568D01*
X012974Y004588D01*
X013023Y004603D01*
X013073Y004615D01*
X013123Y004623D01*
X013174Y004627D01*
X013226Y004627D01*
X013277Y004623D01*
X013327Y004615D01*
X013377Y004603D01*
X013426Y004588D01*
X013474Y004568D01*
X013520Y004546D01*
X013564Y004520D01*
X013606Y004490D01*
X013645Y004457D01*
X013682Y004422D01*
X013716Y004384D01*
X013747Y004343D01*
X013775Y004300D01*
X013800Y004255D01*
X013820Y004208D01*
X013838Y004160D01*
X013851Y004110D01*
X013861Y004060D01*
X013867Y004009D01*
X013869Y003958D01*
X013867Y003907D01*
X013861Y003856D01*
X013851Y003806D01*
X013838Y003756D01*
X013820Y003708D01*
X013800Y003661D01*
X013775Y003616D01*
X013747Y003573D01*
X013716Y003532D01*
X013682Y003494D01*
X013645Y003459D01*
X013606Y003426D01*
X013564Y003396D01*
X013520Y003370D01*
X013474Y003348D01*
X013426Y003328D01*
X013377Y003313D01*
X013327Y003301D01*
X013277Y003293D01*
X013226Y003289D01*
X013174Y003289D01*
X013123Y003293D01*
X013073Y003301D01*
X013023Y003313D01*
X012974Y003328D01*
X012926Y003348D01*
X012880Y003370D01*
X012836Y003396D01*
X012794Y003426D01*
X012755Y003459D01*
X012718Y003494D01*
X012684Y003532D01*
X012653Y003573D01*
X012625Y003616D01*
X012600Y003661D01*
X012580Y003708D01*
X012562Y003756D01*
X012549Y003806D01*
X012539Y003856D01*
X012533Y003907D01*
X012531Y003958D01*
D13*
X003750Y004008D02*
X003750Y003008D01*
X002750Y003008D01*
X002750Y004008D01*
X002750Y005008D01*
X002750Y006008D01*
X002750Y007008D01*
X002750Y008008D01*
X002750Y009008D01*
X002750Y010008D01*
X002750Y011008D01*
X002750Y012008D01*
X002750Y013008D01*
X002750Y014008D01*
X002750Y015008D01*
X003750Y015008D01*
X003750Y014008D01*
X002750Y014008D01*
X002750Y013008D02*
X003750Y013008D01*
X003750Y014008D01*
X003750Y013008D02*
X003750Y012008D01*
X002750Y012008D01*
X002750Y011008D02*
X003750Y011008D01*
X003750Y012008D01*
X003750Y011008D02*
X003750Y010008D01*
X002750Y010008D01*
X002750Y009008D02*
X003750Y009008D01*
X003750Y010008D01*
X003750Y009008D02*
X003750Y008008D01*
X002750Y008008D01*
X002750Y007008D02*
X003750Y007008D01*
X003750Y008008D01*
X003750Y007008D02*
X003750Y006008D01*
X002750Y006008D01*
X003750Y006008D02*
X003750Y005008D01*
X002750Y005008D01*
X002750Y004008D02*
X003750Y004008D01*
X003750Y005008D01*
D14*
X002500Y005508D02*
X000250Y005508D01*
X000250Y006508D02*
X002500Y006508D01*
X002500Y007508D02*
X000250Y007508D01*
X000250Y008508D02*
X002500Y008508D01*
X002500Y009508D02*
X000250Y009508D01*
X000250Y010508D02*
X002500Y010508D01*
X002500Y011508D02*
X000250Y011508D01*
X000250Y012508D02*
X002500Y012508D01*
X002500Y013508D02*
X000250Y013508D01*
X000250Y014508D02*
X002500Y014508D01*
X002500Y004508D02*
X000250Y004508D01*
X000250Y003508D02*
X002500Y003508D01*
D15*
X002650Y003508D03*
X002650Y004508D03*
X002650Y005508D03*
X002650Y006508D03*
X002650Y007508D03*
X002650Y008508D03*
X002650Y009508D03*
X002650Y010508D03*
X002650Y011508D03*
X002650Y012508D03*
X002650Y013508D03*
X002650Y014508D03*
D16*
X003950Y014508D03*
X003950Y013508D03*
X003950Y012508D03*
X003950Y011508D03*
X003950Y010508D03*
X003950Y009508D03*
X003950Y008508D03*
X003950Y007508D03*
X003950Y006508D03*
X003950Y005508D03*
X003950Y004508D03*
X003950Y003508D03*
D17*
X008125Y005933D02*
X014325Y005933D01*
X014325Y012133D01*
X008125Y012133D01*
X008125Y005933D01*
X009225Y007233D02*
X009225Y010733D01*
X009223Y010779D01*
X009225Y010824D01*
X009230Y010870D01*
X009239Y010914D01*
X009251Y010958D01*
X009268Y011001D01*
X009287Y011042D01*
X009310Y011081D01*
X009337Y011119D01*
X009366Y011154D01*
X009398Y011186D01*
X009432Y011216D01*
X009469Y011243D01*
X009508Y011266D01*
X009549Y011287D01*
X009592Y011304D01*
X009635Y011317D01*
X009680Y011327D01*
X009725Y011333D01*
X010225Y011333D01*
X010270Y011327D01*
X010315Y011317D01*
X010358Y011304D01*
X010401Y011287D01*
X010442Y011266D01*
X010481Y011243D01*
X010518Y011216D01*
X010552Y011186D01*
X010584Y011154D01*
X010613Y011119D01*
X010640Y011081D01*
X010663Y011042D01*
X010682Y011001D01*
X010699Y010958D01*
X010711Y010914D01*
X010720Y010870D01*
X010725Y010824D01*
X010727Y010779D01*
X010725Y010733D01*
X010725Y007233D01*
X010723Y007189D01*
X010717Y007146D01*
X010708Y007104D01*
X010695Y007062D01*
X010678Y007022D01*
X010658Y006983D01*
X010635Y006946D01*
X010608Y006912D01*
X010579Y006879D01*
X010546Y006850D01*
X010512Y006823D01*
X010475Y006800D01*
X010436Y006780D01*
X010396Y006763D01*
X010354Y006750D01*
X010312Y006741D01*
X010269Y006735D01*
X010225Y006733D01*
X009725Y006733D01*
X009681Y006735D01*
X009638Y006741D01*
X009596Y006750D01*
X009554Y006763D01*
X009514Y006780D01*
X009475Y006800D01*
X009438Y006823D01*
X009404Y006850D01*
X009371Y006879D01*
X009342Y006912D01*
X009315Y006946D01*
X009292Y006983D01*
X009272Y007022D01*
X009255Y007062D01*
X009242Y007104D01*
X009233Y007146D01*
X009227Y007189D01*
X009225Y007233D01*
X011625Y007733D02*
X012425Y007733D01*
X012425Y008133D01*
X011625Y008133D01*
X011625Y007733D01*
X012125Y007433D02*
X012125Y007033D01*
X012925Y007033D01*
X012925Y007433D01*
X012125Y007433D01*
X012125Y006733D02*
X012125Y006333D01*
X012925Y006333D01*
X012925Y006733D01*
X012125Y006733D01*
X011007Y010233D02*
X011009Y010299D01*
X011015Y010365D01*
X011025Y010431D01*
X011038Y010496D01*
X011056Y010560D01*
X011077Y010622D01*
X011102Y010684D01*
X011130Y010744D01*
X011162Y010802D01*
X011198Y010858D01*
X011236Y010911D01*
X011278Y010963D01*
X011323Y011012D01*
X011370Y011058D01*
X011421Y011101D01*
X011473Y011141D01*
X011528Y011178D01*
X011585Y011212D01*
X011644Y011242D01*
X011705Y011269D01*
X011767Y011292D01*
X011830Y011311D01*
X011895Y011327D01*
X011960Y011339D01*
X012026Y011347D01*
X012092Y011351D01*
X012158Y011351D01*
X012224Y011347D01*
X012290Y011339D01*
X012355Y011327D01*
X012420Y011311D01*
X012483Y011292D01*
X012545Y011269D01*
X012606Y011242D01*
X012665Y011212D01*
X012722Y011178D01*
X012777Y011141D01*
X012829Y011101D01*
X012880Y011058D01*
X012927Y011012D01*
X012972Y010963D01*
X013014Y010911D01*
X013052Y010858D01*
X013088Y010802D01*
X013120Y010744D01*
X013148Y010684D01*
X013173Y010622D01*
X013194Y010560D01*
X013212Y010496D01*
X013225Y010431D01*
X013235Y010365D01*
X013241Y010299D01*
X013243Y010233D01*
X013241Y010167D01*
X013235Y010101D01*
X013225Y010035D01*
X013212Y009970D01*
X013194Y009906D01*
X013173Y009844D01*
X013148Y009782D01*
X013120Y009722D01*
X013088Y009664D01*
X013052Y009608D01*
X013014Y009555D01*
X012972Y009503D01*
X012927Y009454D01*
X012880Y009408D01*
X012829Y009365D01*
X012777Y009325D01*
X012722Y009288D01*
X012665Y009254D01*
X012606Y009224D01*
X012545Y009197D01*
X012483Y009174D01*
X012420Y009155D01*
X012355Y009139D01*
X012290Y009127D01*
X012224Y009119D01*
X012158Y009115D01*
X012092Y009115D01*
X012026Y009119D01*
X011960Y009127D01*
X011895Y009139D01*
X011830Y009155D01*
X011767Y009174D01*
X011705Y009197D01*
X011644Y009224D01*
X011585Y009254D01*
X011528Y009288D01*
X011473Y009325D01*
X011421Y009365D01*
X011370Y009408D01*
X011323Y009454D01*
X011278Y009503D01*
X011236Y009555D01*
X011198Y009608D01*
X011162Y009664D01*
X011130Y009722D01*
X011102Y009782D01*
X011077Y009844D01*
X011056Y009906D01*
X011038Y009970D01*
X011025Y010035D01*
X011015Y010101D01*
X011009Y010167D01*
X011007Y010233D01*
D18*
X013180Y006988D02*
X013180Y006795D01*
X013180Y006892D02*
X013470Y006892D01*
X013470Y006694D02*
X013180Y006694D01*
X013180Y006500D02*
X013470Y006694D01*
X013470Y006500D02*
X013180Y006500D01*
X013277Y006399D02*
X013470Y006399D01*
X013325Y006399D02*
X013325Y006206D01*
X013277Y006206D02*
X013180Y006302D01*
X013277Y006399D01*
X013277Y006206D02*
X013470Y006206D01*
M02*
