G75*
G70*
%OFA0B0*%
%FSLAX24Y24*%
%IPPOS*%
%LPD*%
%AMOC8*
5,1,8,0,0,1.08239X$1,22.5*
%
%ADD10C,0.0000*%
%ADD11R,0.0512X0.0591*%
%ADD12C,0.0886*%
%ADD13C,0.0600*%
%ADD14R,0.1250X0.0600*%
%ADD15R,0.0512X0.0630*%
%ADD16C,0.0240*%
%ADD17C,0.0320*%
%ADD18C,0.0160*%
%ADD19C,0.0120*%
D10*
X003000Y002008D02*
X003000Y016004D01*
X015870Y016004D01*
X015870Y002008D01*
X003000Y002008D01*
D11*
X007926Y005108D03*
X008674Y005108D03*
D12*
X012200Y004958D03*
X013200Y003958D03*
X014200Y004958D03*
X014200Y002958D03*
X012200Y002958D03*
D13*
X004800Y003508D02*
X004200Y003508D01*
X004200Y004508D02*
X004800Y004508D01*
X004800Y005508D02*
X004200Y005508D01*
X004200Y006508D02*
X004800Y006508D01*
X004800Y007508D02*
X004200Y007508D01*
X004200Y008508D02*
X004800Y008508D01*
X004800Y009508D02*
X004200Y009508D01*
X004200Y010508D02*
X004800Y010508D01*
X004800Y011508D02*
X004200Y011508D01*
X004200Y012508D02*
X004800Y012508D01*
X004800Y013508D02*
X004200Y013508D01*
X004200Y014508D02*
X004800Y014508D01*
D14*
X008125Y011433D03*
X008125Y010633D03*
X008125Y009833D03*
X008125Y009033D03*
X008125Y008233D03*
X008125Y007433D03*
X008125Y006633D03*
X014325Y006633D03*
X014325Y007433D03*
X014325Y008233D03*
X014325Y009033D03*
X014325Y009833D03*
X014325Y010633D03*
X014325Y011433D03*
D15*
X014549Y012933D03*
X013801Y012933D03*
D16*
X014599Y012883D02*
X015125Y012883D01*
X015375Y012633D01*
X015375Y007758D01*
X015050Y007433D01*
X014325Y007433D01*
X014275Y007383D02*
X013625Y007383D01*
X012125Y005883D01*
X008125Y005883D01*
X007926Y005684D01*
X007926Y005108D01*
X006326Y003508D01*
X004500Y003508D01*
X013200Y003958D02*
X013200Y005833D01*
X013875Y006508D01*
D17*
X014200Y006508D01*
X014325Y006633D01*
X014275Y007383D02*
X014325Y007433D01*
X014599Y012883D02*
X014549Y012933D01*
D18*
X014945Y013143D02*
X014945Y013305D01*
X014863Y013387D01*
X014235Y013387D01*
X014175Y013327D01*
X014115Y013387D01*
X013487Y013387D01*
X013405Y013305D01*
X013405Y013285D01*
X011883Y014808D01*
X005122Y014808D01*
X005049Y014881D01*
X004888Y014948D01*
X004112Y014948D01*
X003951Y014881D01*
X003827Y014757D01*
X003760Y014595D01*
X003760Y014420D01*
X003827Y014258D01*
X003951Y014135D01*
X004112Y014068D01*
X004888Y014068D01*
X005049Y014135D01*
X005173Y014258D01*
X005235Y014408D01*
X011717Y014408D01*
X013405Y012720D01*
X013405Y012560D01*
X013487Y012478D01*
X013600Y012478D01*
X013600Y011831D01*
X013560Y011791D01*
X013560Y011075D01*
X013602Y011033D01*
X013560Y010991D01*
X013560Y010833D01*
X013208Y010833D01*
X010450Y013590D01*
X010333Y013708D01*
X005193Y013708D01*
X005173Y013757D01*
X005049Y013881D01*
X004888Y013948D01*
X004112Y013948D01*
X003951Y013881D01*
X003827Y013757D01*
X003760Y013595D01*
X003760Y013420D01*
X003827Y013258D01*
X003951Y013135D01*
X004112Y013068D01*
X004888Y013068D01*
X005049Y013135D01*
X005173Y013258D01*
X005193Y013308D01*
X010167Y013308D01*
X013042Y010433D01*
X013560Y010433D01*
X013560Y010275D01*
X013602Y010233D01*
X013560Y010191D01*
X013560Y010033D01*
X013258Y010033D01*
X010700Y012590D01*
X010583Y012708D01*
X005193Y012708D01*
X005173Y012757D01*
X005049Y012881D01*
X004888Y012948D01*
X004112Y012948D01*
X003951Y012881D01*
X003827Y012757D01*
X003760Y012595D01*
X003760Y012420D01*
X003827Y012258D01*
X003951Y012135D01*
X004112Y012068D01*
X004888Y012068D01*
X005049Y012135D01*
X005173Y012258D01*
X005193Y012308D01*
X010417Y012308D01*
X013092Y009633D01*
X013560Y009633D01*
X013560Y009475D01*
X013602Y009433D01*
X013560Y009391D01*
X013560Y009208D01*
X013483Y009208D01*
X010483Y012208D01*
X005917Y012208D01*
X005800Y012090D01*
X005517Y011808D01*
X005122Y011808D01*
X005049Y011881D01*
X004888Y011948D01*
X004112Y011948D01*
X003951Y011881D01*
X003827Y011757D01*
X003760Y011595D01*
X003760Y011420D01*
X003827Y011258D01*
X003951Y011135D01*
X004112Y011068D01*
X004888Y011068D01*
X005049Y011135D01*
X005173Y011258D01*
X005235Y011408D01*
X005683Y011408D01*
X006083Y011808D01*
X007377Y011808D01*
X007360Y011791D01*
X007360Y011608D01*
X006917Y011608D01*
X006800Y011490D01*
X006117Y010808D01*
X005122Y010808D01*
X005049Y010881D01*
X004888Y010948D01*
X004112Y010948D01*
X003951Y010881D01*
X003827Y010757D01*
X003760Y010595D01*
X003760Y010420D01*
X003827Y010258D01*
X003951Y010135D01*
X004112Y010068D01*
X004888Y010068D01*
X005049Y010135D01*
X005173Y010258D01*
X005235Y010408D01*
X006117Y010408D01*
X005517Y009808D01*
X005122Y009808D01*
X005049Y009881D01*
X004888Y009948D01*
X004112Y009948D01*
X003951Y009881D01*
X003827Y009757D01*
X003760Y009595D01*
X003760Y009420D01*
X003827Y009258D01*
X003951Y009135D01*
X004112Y009068D01*
X004888Y009068D01*
X005049Y009135D01*
X005173Y009258D01*
X005235Y009408D01*
X005683Y009408D01*
X006683Y010408D01*
X007360Y010408D01*
X007360Y010275D01*
X007402Y010233D01*
X007360Y010191D01*
X007360Y010008D01*
X007117Y010008D01*
X007000Y009890D01*
X005917Y008808D01*
X005122Y008808D01*
X005049Y008881D01*
X004888Y008948D01*
X004112Y008948D01*
X003951Y008881D01*
X003827Y008757D01*
X003760Y008595D01*
X003760Y008420D01*
X003827Y008258D01*
X003951Y008135D01*
X004112Y008068D01*
X004888Y008068D01*
X005049Y008135D01*
X005173Y008258D01*
X005235Y008408D01*
X006083Y008408D01*
X007283Y009608D01*
X007360Y009608D01*
X007360Y009475D01*
X007402Y009433D01*
X007360Y009391D01*
X007360Y009208D01*
X007117Y009208D01*
X007000Y009090D01*
X005717Y007808D01*
X005122Y007808D01*
X005049Y007881D01*
X004888Y007948D01*
X004112Y007948D01*
X003951Y007881D01*
X003827Y007757D01*
X003760Y007595D01*
X003760Y007420D01*
X003827Y007258D01*
X003951Y007135D01*
X004112Y007068D01*
X004888Y007068D01*
X005049Y007135D01*
X005173Y007258D01*
X005235Y007408D01*
X005883Y007408D01*
X007283Y008808D01*
X007360Y008808D01*
X007360Y008675D01*
X007402Y008633D01*
X007360Y008591D01*
X007360Y008408D01*
X007117Y008408D01*
X007000Y008290D01*
X005517Y006808D01*
X005122Y006808D01*
X005049Y006881D01*
X004888Y006948D01*
X004112Y006948D01*
X003951Y006881D01*
X003827Y006757D01*
X003760Y006595D01*
X003760Y006420D01*
X003827Y006258D01*
X003951Y006135D01*
X004112Y006068D01*
X004888Y006068D01*
X005049Y006135D01*
X005173Y006258D01*
X005235Y006408D01*
X005683Y006408D01*
X007283Y008008D01*
X007360Y008008D01*
X007360Y007875D01*
X007402Y007833D01*
X007360Y007791D01*
X007360Y007608D01*
X007117Y007608D01*
X007000Y007490D01*
X005317Y005808D01*
X005122Y005808D01*
X005049Y005881D01*
X004888Y005948D01*
X004112Y005948D01*
X003951Y005881D01*
X003827Y005757D01*
X003760Y005595D01*
X003760Y005420D01*
X003827Y005258D01*
X003951Y005135D01*
X004112Y005068D01*
X004888Y005068D01*
X005049Y005135D01*
X005173Y005258D01*
X005235Y005408D01*
X005483Y005408D01*
X007283Y007208D01*
X007360Y007208D01*
X007360Y007075D01*
X007374Y007061D01*
X007356Y007043D01*
X007332Y007002D01*
X007320Y006956D01*
X007320Y006703D01*
X008055Y006703D01*
X008055Y006563D01*
X007320Y006563D01*
X007320Y006309D01*
X007332Y006263D01*
X007356Y006222D01*
X007389Y006188D01*
X007431Y006165D01*
X007476Y006153D01*
X008055Y006153D01*
X008055Y006563D01*
X008195Y006563D01*
X008195Y006703D01*
X008930Y006703D01*
X008930Y006956D01*
X008918Y007002D01*
X008894Y007043D01*
X008876Y007061D01*
X008890Y007075D01*
X008890Y007791D01*
X008848Y007833D01*
X008890Y007875D01*
X008890Y008591D01*
X008848Y008633D01*
X008890Y008675D01*
X008890Y009391D01*
X008848Y009433D01*
X008890Y009475D01*
X008890Y010191D01*
X008848Y010233D01*
X008890Y010275D01*
X008890Y010991D01*
X008848Y011033D01*
X008890Y011075D01*
X008890Y011791D01*
X008873Y011808D01*
X010317Y011808D01*
X013200Y008925D01*
X013317Y008808D01*
X013560Y008808D01*
X013560Y008675D01*
X013574Y008661D01*
X013556Y008643D01*
X013532Y008602D01*
X013520Y008556D01*
X013520Y008303D01*
X014255Y008303D01*
X014255Y008163D01*
X013520Y008163D01*
X013520Y007909D01*
X013532Y007863D01*
X013556Y007822D01*
X013574Y007804D01*
X013560Y007791D01*
X013560Y007637D01*
X013478Y007603D01*
X013405Y007530D01*
X012017Y006143D01*
X008073Y006143D01*
X007978Y006103D01*
X007905Y006030D01*
X007905Y006030D01*
X007706Y005831D01*
X007666Y005735D01*
X007666Y005543D01*
X007612Y005543D01*
X007530Y005461D01*
X007530Y005079D01*
X006218Y003768D01*
X005162Y003768D01*
X005049Y003881D01*
X004888Y003948D01*
X004112Y003948D01*
X003951Y003881D01*
X003827Y003757D01*
X003760Y003595D01*
X003760Y003420D01*
X003827Y003258D01*
X003951Y003135D01*
X004112Y003068D01*
X004888Y003068D01*
X005049Y003135D01*
X005162Y003248D01*
X006378Y003248D01*
X006473Y003287D01*
X007858Y004672D01*
X008240Y004672D01*
X008272Y004705D01*
X008274Y004702D01*
X008270Y004702D01*
X008274Y004702D02*
X008308Y004668D01*
X008349Y004645D01*
X008394Y004632D01*
X008626Y004632D01*
X008626Y005060D01*
X008722Y005060D01*
X008722Y005155D01*
X009110Y005155D01*
X009110Y005426D01*
X009098Y005472D01*
X009074Y005513D01*
X009040Y005547D01*
X008999Y005571D01*
X008954Y005583D01*
X008722Y005583D01*
X008722Y005155D01*
X008626Y005155D01*
X008626Y005583D01*
X008394Y005583D01*
X008349Y005571D01*
X008308Y005547D01*
X008274Y005513D01*
X008272Y005510D01*
X008240Y005543D01*
X008186Y005543D01*
X008186Y005576D01*
X008233Y005623D01*
X012177Y005623D01*
X012272Y005662D01*
X013560Y006950D01*
X013560Y006560D01*
X012980Y005980D01*
X012940Y005884D01*
X012940Y004481D01*
X012870Y004452D01*
X012706Y004288D01*
X012617Y004073D01*
X012617Y003842D01*
X012706Y003627D01*
X012870Y003463D01*
X013084Y003375D01*
X013316Y003375D01*
X013530Y003463D01*
X013694Y003627D01*
X013783Y003842D01*
X013783Y004073D01*
X013694Y004288D01*
X013530Y004452D01*
X013460Y004481D01*
X013460Y005725D01*
X013928Y006193D01*
X015008Y006193D01*
X015090Y006275D01*
X015090Y006991D01*
X015048Y007033D01*
X015090Y007075D01*
X015090Y007173D01*
X015102Y007173D01*
X015197Y007212D01*
X015522Y007537D01*
X015595Y007610D01*
X015635Y007706D01*
X015635Y012684D01*
X015595Y012780D01*
X015345Y013030D01*
X015272Y013103D01*
X015177Y013143D01*
X014945Y013143D01*
X014945Y013261D02*
X015690Y013261D01*
X015690Y013103D02*
X015273Y013103D01*
X015431Y012944D02*
X015690Y012944D01*
X015690Y012786D02*
X015590Y012786D01*
X015635Y012627D02*
X015690Y012627D01*
X015690Y012469D02*
X015635Y012469D01*
X015635Y012310D02*
X015690Y012310D01*
X015690Y012152D02*
X015635Y012152D01*
X015635Y011993D02*
X015690Y011993D01*
X015690Y011835D02*
X015635Y011835D01*
X015635Y011676D02*
X015690Y011676D01*
X015690Y011518D02*
X015635Y011518D01*
X015635Y011359D02*
X015690Y011359D01*
X015690Y011201D02*
X015635Y011201D01*
X015635Y011042D02*
X015690Y011042D01*
X015690Y010884D02*
X015635Y010884D01*
X015635Y010725D02*
X015690Y010725D01*
X015690Y010567D02*
X015635Y010567D01*
X015635Y010408D02*
X015690Y010408D01*
X015690Y010250D02*
X015635Y010250D01*
X015635Y010091D02*
X015690Y010091D01*
X015690Y009933D02*
X015635Y009933D01*
X015635Y009774D02*
X015690Y009774D01*
X015690Y009616D02*
X015635Y009616D01*
X015635Y009457D02*
X015690Y009457D01*
X015690Y009299D02*
X015635Y009299D01*
X015635Y009140D02*
X015690Y009140D01*
X015690Y008982D02*
X015635Y008982D01*
X015635Y008823D02*
X015690Y008823D01*
X015690Y008665D02*
X015635Y008665D01*
X015635Y008506D02*
X015690Y008506D01*
X015690Y008348D02*
X015635Y008348D01*
X015635Y008189D02*
X015690Y008189D01*
X015690Y008031D02*
X015635Y008031D01*
X015635Y007872D02*
X015690Y007872D01*
X015690Y007714D02*
X015635Y007714D01*
X015690Y007555D02*
X015540Y007555D01*
X015690Y007397D02*
X015382Y007397D01*
X015223Y007238D02*
X015690Y007238D01*
X015690Y007080D02*
X015090Y007080D01*
X015090Y006921D02*
X015690Y006921D01*
X015690Y006763D02*
X015090Y006763D01*
X015090Y006604D02*
X015690Y006604D01*
X015690Y006446D02*
X015090Y006446D01*
X015090Y006287D02*
X015690Y006287D01*
X015690Y006129D02*
X013864Y006129D01*
X013705Y005970D02*
X015690Y005970D01*
X015690Y005812D02*
X013547Y005812D01*
X013460Y005653D02*
X015690Y005653D01*
X015690Y005495D02*
X014518Y005495D01*
X014526Y005490D02*
X014439Y005535D01*
X014346Y005565D01*
X014268Y005577D01*
X014268Y005025D01*
X014820Y005025D01*
X014808Y005103D01*
X014777Y005197D01*
X014733Y005284D01*
X014675Y005363D01*
X014606Y005433D01*
X014526Y005490D01*
X014695Y005336D02*
X015690Y005336D01*
X015690Y005178D02*
X014783Y005178D01*
X014820Y004890D02*
X014268Y004890D01*
X014268Y005025D01*
X014132Y005025D01*
X014132Y004890D01*
X013580Y004890D01*
X013592Y004812D01*
X013623Y004718D01*
X013667Y004631D01*
X013725Y004552D01*
X013794Y004482D01*
X013874Y004425D01*
X013961Y004380D01*
X014054Y004350D01*
X014132Y004338D01*
X014132Y004890D01*
X014268Y004890D01*
X014268Y004338D01*
X014346Y004350D01*
X014439Y004380D01*
X014526Y004425D01*
X014606Y004482D01*
X014675Y004552D01*
X014733Y004631D01*
X014777Y004718D01*
X014808Y004812D01*
X014820Y004890D01*
X014815Y004861D02*
X015690Y004861D01*
X015690Y005019D02*
X014268Y005019D01*
X014132Y005019D02*
X013460Y005019D01*
X013580Y005025D02*
X014132Y005025D01*
X014132Y005577D01*
X014054Y005565D01*
X013961Y005535D01*
X013874Y005490D01*
X013794Y005433D01*
X013725Y005363D01*
X013667Y005284D01*
X013623Y005197D01*
X013592Y005103D01*
X013580Y005025D01*
X013617Y005178D02*
X013460Y005178D01*
X013460Y005336D02*
X013705Y005336D01*
X013882Y005495D02*
X013460Y005495D01*
X013460Y004861D02*
X013585Y004861D01*
X013631Y004702D02*
X013460Y004702D01*
X013460Y004544D02*
X013733Y004544D01*
X013597Y004385D02*
X013952Y004385D01*
X014132Y004385D02*
X014268Y004385D01*
X014268Y004544D02*
X014132Y004544D01*
X014132Y004702D02*
X014268Y004702D01*
X014268Y004861D02*
X014132Y004861D01*
X014132Y005178D02*
X014268Y005178D01*
X014268Y005336D02*
X014132Y005336D01*
X014132Y005495D02*
X014268Y005495D01*
X014769Y004702D02*
X015690Y004702D01*
X015690Y004544D02*
X014667Y004544D01*
X014448Y004385D02*
X015690Y004385D01*
X015690Y004227D02*
X013720Y004227D01*
X013783Y004068D02*
X015690Y004068D01*
X015690Y003910D02*
X013783Y003910D01*
X013745Y003751D02*
X015690Y003751D01*
X015690Y003593D02*
X013659Y003593D01*
X013794Y003433D02*
X013725Y003363D01*
X013667Y003284D01*
X013623Y003197D01*
X013592Y003103D01*
X013580Y003025D01*
X014132Y003025D01*
X014132Y002890D01*
X013580Y002890D01*
X013592Y002812D01*
X013623Y002718D01*
X013667Y002631D01*
X013725Y002552D01*
X013794Y002482D01*
X013874Y002425D01*
X013961Y002380D01*
X014054Y002350D01*
X014132Y002338D01*
X014132Y002890D01*
X014268Y002890D01*
X014268Y003025D01*
X014820Y003025D01*
X014808Y003103D01*
X014777Y003197D01*
X014733Y003284D01*
X014675Y003363D01*
X014606Y003433D01*
X014526Y003490D01*
X014439Y003535D01*
X014346Y003565D01*
X014268Y003577D01*
X014268Y003025D01*
X014132Y003025D01*
X014132Y003577D01*
X014054Y003565D01*
X013961Y003535D01*
X013874Y003490D01*
X013794Y003433D01*
X013796Y003434D02*
X013459Y003434D01*
X013663Y003276D02*
X012737Y003276D01*
X012733Y003284D02*
X012675Y003363D01*
X012606Y003433D01*
X012526Y003490D01*
X012439Y003535D01*
X012346Y003565D01*
X012268Y003577D01*
X012268Y003025D01*
X012820Y003025D01*
X012808Y003103D01*
X012777Y003197D01*
X012733Y003284D01*
X012803Y003117D02*
X013597Y003117D01*
X013596Y002800D02*
X012804Y002800D01*
X012808Y002812D02*
X012820Y002890D01*
X012268Y002890D01*
X012268Y003025D01*
X012132Y003025D01*
X012132Y002890D01*
X011580Y002890D01*
X011592Y002812D01*
X011623Y002718D01*
X011667Y002631D01*
X011725Y002552D01*
X011794Y002482D01*
X011874Y002425D01*
X011961Y002380D01*
X012054Y002350D01*
X012132Y002338D01*
X012132Y002890D01*
X012268Y002890D01*
X012268Y002338D01*
X012346Y002350D01*
X012439Y002380D01*
X012526Y002425D01*
X012606Y002482D01*
X012675Y002552D01*
X012733Y002631D01*
X012777Y002718D01*
X012808Y002812D01*
X012738Y002642D02*
X013662Y002642D01*
X013794Y002483D02*
X012606Y002483D01*
X012268Y002483D02*
X012132Y002483D01*
X012132Y002642D02*
X012268Y002642D01*
X012268Y002800D02*
X012132Y002800D01*
X012132Y002959D02*
X003180Y002959D01*
X003180Y003117D02*
X003993Y003117D01*
X003820Y003276D02*
X003180Y003276D01*
X003180Y003434D02*
X003760Y003434D01*
X003760Y003593D02*
X003180Y003593D01*
X003180Y003751D02*
X003825Y003751D01*
X004021Y003910D02*
X003180Y003910D01*
X003180Y004068D02*
X004005Y004068D01*
X004016Y004063D02*
X004088Y004039D01*
X004162Y004028D01*
X004480Y004028D01*
X004480Y004488D01*
X003720Y004488D01*
X003720Y004470D01*
X003732Y004395D01*
X003755Y004323D01*
X003789Y004256D01*
X003834Y004195D01*
X003887Y004141D01*
X003948Y004097D01*
X004016Y004063D01*
X003811Y004227D02*
X003180Y004227D01*
X003180Y004385D02*
X003735Y004385D01*
X003720Y004528D02*
X003720Y004545D01*
X003732Y004620D01*
X003755Y004692D01*
X003789Y004759D01*
X003834Y004820D01*
X003887Y004874D01*
X003948Y004918D01*
X004016Y004952D01*
X004088Y004976D01*
X004162Y004988D01*
X004480Y004988D01*
X004480Y004528D01*
X004520Y004528D01*
X004520Y004988D01*
X004838Y004988D01*
X004912Y004976D01*
X004984Y004952D01*
X005052Y004918D01*
X005113Y004874D01*
X005166Y004820D01*
X005211Y004759D01*
X005245Y004692D01*
X005268Y004620D01*
X005280Y004545D01*
X005280Y004528D01*
X004520Y004528D01*
X004520Y004488D01*
X005280Y004488D01*
X005280Y004470D01*
X005268Y004395D01*
X005245Y004323D01*
X005211Y004256D01*
X005166Y004195D01*
X005113Y004141D01*
X005052Y004097D01*
X004984Y004063D01*
X004912Y004039D01*
X004838Y004028D01*
X004520Y004028D01*
X004520Y004488D01*
X004480Y004488D01*
X004480Y004528D01*
X003720Y004528D01*
X003720Y004544D02*
X003180Y004544D01*
X003180Y004702D02*
X003760Y004702D01*
X003874Y004861D02*
X003180Y004861D01*
X003180Y005019D02*
X007470Y005019D01*
X007530Y005178D02*
X005092Y005178D01*
X005205Y005336D02*
X007530Y005336D01*
X007564Y005495D02*
X005570Y005495D01*
X005728Y005653D02*
X007666Y005653D01*
X007698Y005812D02*
X005887Y005812D01*
X006045Y005970D02*
X007845Y005970D01*
X008040Y006129D02*
X006204Y006129D01*
X006362Y006287D02*
X007326Y006287D01*
X007320Y006446D02*
X006521Y006446D01*
X006679Y006604D02*
X008055Y006604D01*
X008195Y006604D02*
X012479Y006604D01*
X012637Y006763D02*
X008930Y006763D01*
X008930Y006921D02*
X012796Y006921D01*
X012954Y007080D02*
X008890Y007080D01*
X008890Y007238D02*
X013113Y007238D01*
X013271Y007397D02*
X008890Y007397D01*
X008890Y007555D02*
X013430Y007555D01*
X013560Y007714D02*
X008890Y007714D01*
X008887Y007872D02*
X013530Y007872D01*
X013520Y008031D02*
X008890Y008031D01*
X008890Y008189D02*
X014255Y008189D01*
X013520Y008348D02*
X008890Y008348D01*
X008890Y008506D02*
X013520Y008506D01*
X013570Y008665D02*
X008880Y008665D01*
X008890Y008823D02*
X013302Y008823D01*
X013143Y008982D02*
X008890Y008982D01*
X008890Y009140D02*
X012985Y009140D01*
X012826Y009299D02*
X008890Y009299D01*
X008873Y009457D02*
X012668Y009457D01*
X012509Y009616D02*
X008890Y009616D01*
X008890Y009774D02*
X012351Y009774D01*
X012192Y009933D02*
X008890Y009933D01*
X008890Y010091D02*
X012034Y010091D01*
X011875Y010250D02*
X008865Y010250D01*
X008890Y010408D02*
X011717Y010408D01*
X011558Y010567D02*
X008890Y010567D01*
X008890Y010725D02*
X011400Y010725D01*
X011241Y010884D02*
X008890Y010884D01*
X008858Y011042D02*
X011083Y011042D01*
X010924Y011201D02*
X008890Y011201D01*
X008890Y011359D02*
X010766Y011359D01*
X010607Y011518D02*
X008890Y011518D01*
X008890Y011676D02*
X010449Y011676D01*
X010697Y011993D02*
X010732Y011993D01*
X010856Y011835D02*
X010890Y011835D01*
X011014Y011676D02*
X011049Y011676D01*
X011173Y011518D02*
X011207Y011518D01*
X011331Y011359D02*
X011366Y011359D01*
X011490Y011201D02*
X011524Y011201D01*
X011648Y011042D02*
X011683Y011042D01*
X011807Y010884D02*
X011841Y010884D01*
X011965Y010725D02*
X012000Y010725D01*
X012124Y010567D02*
X012158Y010567D01*
X012282Y010408D02*
X012317Y010408D01*
X012441Y010250D02*
X012475Y010250D01*
X012599Y010091D02*
X012634Y010091D01*
X012758Y009933D02*
X012792Y009933D01*
X012916Y009774D02*
X012951Y009774D01*
X013075Y009616D02*
X013560Y009616D01*
X013577Y009457D02*
X013233Y009457D01*
X013392Y009299D02*
X013560Y009299D01*
X013560Y010091D02*
X013199Y010091D01*
X013041Y010250D02*
X013585Y010250D01*
X013560Y010408D02*
X012882Y010408D01*
X012908Y010567D02*
X012724Y010567D01*
X012750Y010725D02*
X012565Y010725D01*
X012591Y010884D02*
X012407Y010884D01*
X012433Y011042D02*
X012248Y011042D01*
X012274Y011201D02*
X012090Y011201D01*
X012116Y011359D02*
X011931Y011359D01*
X011957Y011518D02*
X011773Y011518D01*
X011799Y011676D02*
X011614Y011676D01*
X011640Y011835D02*
X011456Y011835D01*
X011482Y011993D02*
X011297Y011993D01*
X011323Y012152D02*
X011139Y012152D01*
X011165Y012310D02*
X010980Y012310D01*
X011006Y012469D02*
X010822Y012469D01*
X010848Y012627D02*
X010663Y012627D01*
X010689Y012786D02*
X005144Y012786D01*
X004896Y012944D02*
X010531Y012944D01*
X010372Y013103D02*
X004972Y013103D01*
X005174Y013261D02*
X010214Y013261D01*
X010462Y013578D02*
X012547Y013578D01*
X012705Y013420D02*
X010621Y013420D01*
X010779Y013261D02*
X012864Y013261D01*
X013022Y013103D02*
X010938Y013103D01*
X011096Y012944D02*
X013181Y012944D01*
X013339Y012786D02*
X011255Y012786D01*
X011413Y012627D02*
X013405Y012627D01*
X013600Y012469D02*
X011572Y012469D01*
X011730Y012310D02*
X013600Y012310D01*
X013600Y012152D02*
X011889Y012152D01*
X012047Y011993D02*
X013600Y011993D01*
X013600Y011835D02*
X012206Y011835D01*
X012364Y011676D02*
X013560Y011676D01*
X013560Y011518D02*
X012523Y011518D01*
X012681Y011359D02*
X013560Y011359D01*
X013560Y011201D02*
X012840Y011201D01*
X012998Y011042D02*
X013592Y011042D01*
X013560Y010884D02*
X013157Y010884D01*
X013271Y013420D02*
X015690Y013420D01*
X015690Y013578D02*
X013112Y013578D01*
X012954Y013737D02*
X015690Y013737D01*
X015690Y013895D02*
X012795Y013895D01*
X012637Y014054D02*
X015690Y014054D01*
X015690Y014212D02*
X012478Y014212D01*
X012320Y014371D02*
X015690Y014371D01*
X015690Y014529D02*
X012161Y014529D01*
X012003Y014688D02*
X015690Y014688D01*
X015690Y014846D02*
X005084Y014846D01*
X005220Y014371D02*
X011754Y014371D01*
X011913Y014212D02*
X005127Y014212D01*
X005014Y013895D02*
X012230Y013895D01*
X012388Y013737D02*
X005181Y013737D01*
X004104Y012944D02*
X003180Y012944D01*
X003180Y012786D02*
X003856Y012786D01*
X003773Y012627D02*
X003180Y012627D01*
X003180Y012469D02*
X003760Y012469D01*
X003806Y012310D02*
X003180Y012310D01*
X003180Y012152D02*
X003934Y012152D01*
X003905Y011835D02*
X003180Y011835D01*
X003180Y011993D02*
X005703Y011993D01*
X005861Y012152D02*
X005066Y012152D01*
X005095Y011835D02*
X005544Y011835D01*
X005793Y011518D02*
X006827Y011518D01*
X006669Y011359D02*
X005215Y011359D01*
X005115Y011201D02*
X006510Y011201D01*
X006352Y011042D02*
X003180Y011042D01*
X003180Y010884D02*
X003958Y010884D01*
X003814Y010725D02*
X003180Y010725D01*
X003180Y010567D02*
X003760Y010567D01*
X003765Y010408D02*
X003180Y010408D01*
X003180Y010250D02*
X003836Y010250D01*
X004056Y010091D02*
X003180Y010091D01*
X003180Y009933D02*
X004076Y009933D01*
X003844Y009774D02*
X003180Y009774D01*
X003180Y009616D02*
X003768Y009616D01*
X003760Y009457D02*
X003180Y009457D01*
X003180Y009299D02*
X003810Y009299D01*
X003945Y009140D02*
X003180Y009140D01*
X003180Y008982D02*
X006091Y008982D01*
X006250Y009140D02*
X005055Y009140D01*
X005190Y009299D02*
X006408Y009299D01*
X006567Y009457D02*
X005732Y009457D01*
X005891Y009616D02*
X006725Y009616D01*
X006884Y009774D02*
X006049Y009774D01*
X006208Y009933D02*
X007042Y009933D01*
X007360Y010091D02*
X006366Y010091D01*
X006525Y010250D02*
X007385Y010250D01*
X007377Y009457D02*
X007132Y009457D01*
X006974Y009299D02*
X007360Y009299D01*
X007050Y009140D02*
X006815Y009140D01*
X006891Y008982D02*
X006657Y008982D01*
X006733Y008823D02*
X006498Y008823D01*
X006574Y008665D02*
X006340Y008665D01*
X006416Y008506D02*
X006181Y008506D01*
X006257Y008348D02*
X005210Y008348D01*
X005104Y008189D02*
X006099Y008189D01*
X005940Y008031D02*
X003180Y008031D01*
X003180Y008189D02*
X003896Y008189D01*
X003790Y008348D02*
X003180Y008348D01*
X003180Y008506D02*
X003760Y008506D01*
X003789Y008665D02*
X003180Y008665D01*
X003180Y008823D02*
X003893Y008823D01*
X003942Y007872D02*
X003180Y007872D01*
X003180Y007714D02*
X003809Y007714D01*
X003760Y007555D02*
X003180Y007555D01*
X003180Y007397D02*
X003770Y007397D01*
X003847Y007238D02*
X003180Y007238D01*
X003180Y007080D02*
X004083Y007080D01*
X004049Y006921D02*
X003180Y006921D01*
X003180Y006763D02*
X003833Y006763D01*
X003764Y006604D02*
X003180Y006604D01*
X003180Y006446D02*
X003760Y006446D01*
X003815Y006287D02*
X003180Y006287D01*
X003180Y006129D02*
X003965Y006129D01*
X003882Y005812D02*
X003180Y005812D01*
X003180Y005970D02*
X005480Y005970D01*
X005638Y006129D02*
X005035Y006129D01*
X005185Y006287D02*
X005797Y006287D01*
X005721Y006446D02*
X005955Y006446D01*
X005879Y006604D02*
X006114Y006604D01*
X006038Y006763D02*
X006272Y006763D01*
X006196Y006921D02*
X006431Y006921D01*
X006355Y007080D02*
X006589Y007080D01*
X006513Y007238D02*
X006748Y007238D01*
X006672Y007397D02*
X006906Y007397D01*
X006830Y007555D02*
X007065Y007555D01*
X006989Y007714D02*
X007360Y007714D01*
X007363Y007872D02*
X007147Y007872D01*
X006899Y008189D02*
X006664Y008189D01*
X006740Y008031D02*
X006506Y008031D01*
X006582Y007872D02*
X006347Y007872D01*
X006423Y007714D02*
X006189Y007714D01*
X006265Y007555D02*
X006030Y007555D01*
X006106Y007397D02*
X005230Y007397D01*
X005153Y007238D02*
X005948Y007238D01*
X005789Y007080D02*
X004917Y007080D01*
X004951Y006921D02*
X005631Y006921D01*
X005782Y007872D02*
X005058Y007872D01*
X005107Y008823D02*
X005933Y008823D01*
X006823Y008348D02*
X007057Y008348D01*
X006981Y008506D02*
X007360Y008506D01*
X007370Y008665D02*
X007140Y008665D01*
X007000Y009090D02*
X007000Y009090D01*
X005959Y010250D02*
X005164Y010250D01*
X004944Y010091D02*
X005801Y010091D01*
X005642Y009933D02*
X004924Y009933D01*
X005042Y010884D02*
X006193Y010884D01*
X005951Y011676D02*
X007360Y011676D01*
X010539Y012152D02*
X010573Y012152D01*
X012071Y014054D02*
X003180Y014054D01*
X003180Y014212D02*
X003873Y014212D01*
X003780Y014371D02*
X003180Y014371D01*
X003180Y014529D02*
X003760Y014529D01*
X003798Y014688D02*
X003180Y014688D01*
X003180Y014846D02*
X003916Y014846D01*
X003180Y015005D02*
X015690Y015005D01*
X015690Y015163D02*
X003180Y015163D01*
X003180Y015322D02*
X015690Y015322D01*
X015690Y015480D02*
X003180Y015480D01*
X003180Y015639D02*
X015690Y015639D01*
X015690Y015797D02*
X003180Y015797D01*
X003180Y015824D02*
X015690Y015824D01*
X015690Y002188D01*
X003180Y002188D01*
X003180Y015824D01*
X003180Y013895D02*
X003986Y013895D01*
X003819Y013737D02*
X003180Y013737D01*
X003180Y013578D02*
X003760Y013578D01*
X003760Y013420D02*
X003180Y013420D01*
X003180Y013261D02*
X003826Y013261D01*
X004028Y013103D02*
X003180Y013103D01*
X003180Y011676D02*
X003794Y011676D01*
X003760Y011518D02*
X003180Y011518D01*
X003180Y011359D02*
X003785Y011359D01*
X003885Y011201D02*
X003180Y011201D01*
X007155Y007080D02*
X007360Y007080D01*
X007320Y006921D02*
X006996Y006921D01*
X006838Y006763D02*
X007320Y006763D01*
X008055Y006446D02*
X008195Y006446D01*
X008195Y006563D02*
X008195Y006153D01*
X008774Y006153D01*
X008819Y006165D01*
X008861Y006188D01*
X008894Y006222D01*
X008918Y006263D01*
X008930Y006309D01*
X008930Y006563D01*
X008195Y006563D01*
X008195Y006287D02*
X008055Y006287D01*
X008626Y005495D02*
X008722Y005495D01*
X008722Y005336D02*
X008626Y005336D01*
X008626Y005178D02*
X008722Y005178D01*
X008722Y005060D02*
X009110Y005060D01*
X009110Y004789D01*
X009098Y004743D01*
X009074Y004702D01*
X011631Y004702D01*
X011623Y004718D02*
X011667Y004631D01*
X011725Y004552D01*
X011794Y004482D01*
X011874Y004425D01*
X011961Y004380D01*
X012054Y004350D01*
X012132Y004338D01*
X012132Y004890D01*
X011580Y004890D01*
X011592Y004812D01*
X011623Y004718D01*
X011585Y004861D02*
X009110Y004861D01*
X009110Y005019D02*
X012132Y005019D01*
X012132Y005025D02*
X012132Y004890D01*
X012268Y004890D01*
X012268Y005025D01*
X012820Y005025D01*
X012808Y005103D01*
X012777Y005197D01*
X012733Y005284D01*
X012675Y005363D01*
X012606Y005433D01*
X012526Y005490D01*
X012439Y005535D01*
X012346Y005565D01*
X012268Y005577D01*
X012268Y005025D01*
X012132Y005025D01*
X011580Y005025D01*
X011592Y005103D01*
X011623Y005197D01*
X011667Y005284D01*
X011725Y005363D01*
X011794Y005433D01*
X011874Y005490D01*
X011961Y005535D01*
X012054Y005565D01*
X012132Y005577D01*
X012132Y005025D01*
X012268Y005019D02*
X012940Y005019D01*
X012940Y004861D02*
X012815Y004861D01*
X012820Y004890D02*
X012268Y004890D01*
X012268Y004338D01*
X012346Y004350D01*
X012439Y004380D01*
X012526Y004425D01*
X012606Y004482D01*
X012675Y004552D01*
X012733Y004631D01*
X012777Y004718D01*
X012808Y004812D01*
X012820Y004890D01*
X012769Y004702D02*
X012940Y004702D01*
X012940Y004544D02*
X012667Y004544D01*
X012803Y004385D02*
X012448Y004385D01*
X012268Y004385D02*
X012132Y004385D01*
X012132Y004544D02*
X012268Y004544D01*
X012268Y004702D02*
X012132Y004702D01*
X012132Y004861D02*
X012268Y004861D01*
X012268Y005178D02*
X012132Y005178D01*
X012132Y005336D02*
X012268Y005336D01*
X012268Y005495D02*
X012132Y005495D01*
X012250Y005653D02*
X012940Y005653D01*
X012940Y005495D02*
X012518Y005495D01*
X012695Y005336D02*
X012940Y005336D01*
X012940Y005178D02*
X012783Y005178D01*
X012940Y005812D02*
X012422Y005812D01*
X012580Y005970D02*
X012976Y005970D01*
X013128Y006129D02*
X012739Y006129D01*
X012897Y006287D02*
X013287Y006287D01*
X013445Y006446D02*
X013056Y006446D01*
X013214Y006604D02*
X013560Y006604D01*
X013560Y006763D02*
X013373Y006763D01*
X013531Y006921D02*
X013560Y006921D01*
X012320Y006446D02*
X008930Y006446D01*
X008924Y006287D02*
X012162Y006287D01*
X011882Y005495D02*
X009085Y005495D01*
X009110Y005336D02*
X011705Y005336D01*
X011617Y005178D02*
X009110Y005178D01*
X009074Y004702D02*
X009040Y004668D01*
X008999Y004645D01*
X008954Y004632D01*
X008722Y004632D01*
X008722Y005060D01*
X008722Y005019D02*
X008626Y005019D01*
X008626Y004861D02*
X008722Y004861D01*
X008722Y004702D02*
X008626Y004702D01*
X007730Y004544D02*
X011733Y004544D01*
X011952Y004385D02*
X007571Y004385D01*
X007413Y004227D02*
X012680Y004227D01*
X012617Y004068D02*
X007254Y004068D01*
X007096Y003910D02*
X012617Y003910D01*
X012655Y003751D02*
X006937Y003751D01*
X006779Y003593D02*
X012741Y003593D01*
X012604Y003434D02*
X012941Y003434D01*
X012268Y003434D02*
X012132Y003434D01*
X012132Y003577D02*
X012054Y003565D01*
X011961Y003535D01*
X011874Y003490D01*
X011794Y003433D01*
X011725Y003363D01*
X011667Y003284D01*
X011623Y003197D01*
X011592Y003103D01*
X011580Y003025D01*
X012132Y003025D01*
X012132Y003577D01*
X012132Y003276D02*
X012268Y003276D01*
X012268Y003117D02*
X012132Y003117D01*
X012268Y002959D02*
X014132Y002959D01*
X014268Y002959D02*
X015690Y002959D01*
X015690Y003117D02*
X014803Y003117D01*
X014737Y003276D02*
X015690Y003276D01*
X015690Y003434D02*
X014604Y003434D01*
X014268Y003434D02*
X014132Y003434D01*
X014132Y003276D02*
X014268Y003276D01*
X014268Y003117D02*
X014132Y003117D01*
X014268Y002890D02*
X014820Y002890D01*
X014808Y002812D01*
X014777Y002718D01*
X014733Y002631D01*
X014675Y002552D01*
X014606Y002482D01*
X014526Y002425D01*
X014439Y002380D01*
X014346Y002350D01*
X014268Y002338D01*
X014268Y002890D01*
X014268Y002800D02*
X014132Y002800D01*
X014132Y002642D02*
X014268Y002642D01*
X014268Y002483D02*
X014132Y002483D01*
X014606Y002483D02*
X015690Y002483D01*
X015690Y002325D02*
X003180Y002325D01*
X003180Y002483D02*
X011794Y002483D01*
X011662Y002642D02*
X003180Y002642D01*
X003180Y002800D02*
X011596Y002800D01*
X011597Y003117D02*
X005007Y003117D01*
X004979Y003910D02*
X006360Y003910D01*
X006519Y004068D02*
X004995Y004068D01*
X005189Y004227D02*
X006677Y004227D01*
X006836Y004385D02*
X005265Y004385D01*
X005280Y004544D02*
X006994Y004544D01*
X007153Y004702D02*
X005240Y004702D01*
X005126Y004861D02*
X007311Y004861D01*
X006620Y003434D02*
X011796Y003434D01*
X011663Y003276D02*
X006445Y003276D01*
X004520Y004068D02*
X004480Y004068D01*
X004480Y004227D02*
X004520Y004227D01*
X004520Y004385D02*
X004480Y004385D01*
X004480Y004544D02*
X004520Y004544D01*
X004520Y004702D02*
X004480Y004702D01*
X004480Y004861D02*
X004520Y004861D01*
X003908Y005178D02*
X003180Y005178D01*
X003180Y005336D02*
X003795Y005336D01*
X003760Y005495D02*
X003180Y005495D01*
X003180Y005653D02*
X003784Y005653D01*
X005118Y005812D02*
X005321Y005812D01*
X014738Y002642D02*
X015690Y002642D01*
X015690Y002800D02*
X014804Y002800D01*
D19*
X014200Y009008D02*
X013400Y009008D01*
X010400Y012008D01*
X006000Y012008D01*
X005600Y011608D01*
X004600Y011608D01*
X004500Y011508D01*
X004600Y010608D02*
X004500Y010508D01*
X004600Y010608D02*
X006200Y010608D01*
X007000Y011408D01*
X008000Y011408D01*
X008125Y011433D01*
X008125Y010633D02*
X008000Y010608D01*
X006600Y010608D01*
X005600Y009608D01*
X004600Y009608D01*
X004500Y009508D01*
X004600Y008608D02*
X004500Y008508D01*
X004600Y008608D02*
X006000Y008608D01*
X007200Y009808D01*
X008000Y009808D01*
X008125Y009833D01*
X008125Y009033D02*
X008000Y009008D01*
X007200Y009008D01*
X005800Y007608D01*
X004600Y007608D01*
X004500Y007508D01*
X004600Y006608D02*
X004500Y006508D01*
X004600Y006608D02*
X005600Y006608D01*
X007200Y008208D01*
X008000Y008208D01*
X008125Y008233D01*
X008125Y007433D02*
X008000Y007408D01*
X007200Y007408D01*
X005400Y005608D01*
X004600Y005608D01*
X004500Y005508D01*
X004500Y012508D02*
X010500Y012508D01*
X013175Y009833D01*
X014325Y009833D01*
X014325Y010633D02*
X013125Y010633D01*
X010250Y013508D01*
X004500Y013508D01*
X004500Y014508D02*
X004600Y014608D01*
X011800Y014608D01*
X013800Y012608D01*
X013800Y012808D01*
X013801Y012933D01*
X013800Y012608D02*
X013800Y011808D01*
X014200Y011408D01*
X014325Y011433D01*
X014325Y009033D02*
X014200Y009008D01*
M02*
