G04 #@! TF.GenerationSoftware,KiCad,Pcbnew,8.0.5-rc1-202409040208~b22948988f~ubuntu24.04.1*
G04 #@! TF.CreationDate,2024-09-06T21:41:45+02:00*
G04 #@! TF.ProjectId,lora-board,6c6f7261-2d62-46f6-9172-642e6b696361,2*
G04 #@! TF.SameCoordinates,Original*
G04 #@! TF.FileFunction,Copper,L1,Top*
G04 #@! TF.FilePolarity,Positive*
%FSLAX46Y46*%
G04 Gerber Fmt 4.6, Leading zero omitted, Abs format (unit mm)*
G04 Created by KiCad (PCBNEW 8.0.5-rc1-202409040208~b22948988f~ubuntu24.04.1) date 2024-09-06 21:41:45*
%MOMM*%
%LPD*%
G01*
G04 APERTURE LIST*
G04 Aperture macros list*
%AMRoundRect*
0 Rectangle with rounded corners*
0 $1 Rounding radius*
0 $2 $3 $4 $5 $6 $7 $8 $9 X,Y pos of 4 corners*
0 Add a 4 corners polygon primitive as box body*
4,1,4,$2,$3,$4,$5,$6,$7,$8,$9,$2,$3,0*
0 Add four circle primitives for the rounded corners*
1,1,$1+$1,$2,$3*
1,1,$1+$1,$4,$5*
1,1,$1+$1,$6,$7*
1,1,$1+$1,$8,$9*
0 Add four rect primitives between the rounded corners*
20,1,$1+$1,$2,$3,$4,$5,0*
20,1,$1+$1,$4,$5,$6,$7,0*
20,1,$1+$1,$6,$7,$8,$9,0*
20,1,$1+$1,$8,$9,$2,$3,0*%
G04 Aperture macros list end*
G04 #@! TA.AperFunction,SMDPad,CuDef*
%ADD10RoundRect,0.237500X-0.237500X0.300000X-0.237500X-0.300000X0.237500X-0.300000X0.237500X0.300000X0*%
G04 #@! TD*
G04 #@! TA.AperFunction,SMDPad,CuDef*
%ADD11RoundRect,0.250000X-0.385000X-1.350000X0.385000X-1.350000X0.385000X1.350000X-0.385000X1.350000X0*%
G04 #@! TD*
G04 #@! TA.AperFunction,SMDPad,CuDef*
%ADD12RoundRect,0.250000X-0.425000X-1.600000X0.425000X-1.600000X0.425000X1.600000X-0.425000X1.600000X0*%
G04 #@! TD*
G04 #@! TA.AperFunction,SMDPad,CuDef*
%ADD13RoundRect,0.317500X-0.317500X1.157500X-0.317500X-1.157500X0.317500X-1.157500X0.317500X1.157500X0*%
G04 #@! TD*
G04 #@! TA.AperFunction,SMDPad,CuDef*
%ADD14RoundRect,0.237500X-0.237500X0.250000X-0.237500X-0.250000X0.237500X-0.250000X0.237500X0.250000X0*%
G04 #@! TD*
G04 #@! TA.AperFunction,ComponentPad*
%ADD15C,1.700000*%
G04 #@! TD*
G04 #@! TA.AperFunction,ComponentPad*
%ADD16O,1.700000X1.700000*%
G04 #@! TD*
G04 #@! TA.AperFunction,ViaPad*
%ADD17C,0.800000*%
G04 #@! TD*
G04 #@! TA.AperFunction,Conductor*
%ADD18C,0.500000*%
G04 #@! TD*
G04 #@! TA.AperFunction,Conductor*
%ADD19C,0.300000*%
G04 #@! TD*
G04 #@! TA.AperFunction,Conductor*
%ADD20C,0.360000*%
G04 #@! TD*
G04 APERTURE END LIST*
D10*
X115000000Y-71137500D03*
X115000000Y-72862500D03*
D11*
X103000000Y-73000000D03*
D12*
X105825000Y-72750000D03*
X100175000Y-72750000D03*
D13*
X117000000Y-52475000D03*
X115000000Y-52475000D03*
X113000000Y-52475000D03*
X111000000Y-52475000D03*
X109000000Y-52475000D03*
X107000000Y-52475000D03*
X105000000Y-52475000D03*
X103000000Y-52475000D03*
X103000000Y-67525000D03*
X105000000Y-67525000D03*
X107000000Y-67525000D03*
X109000000Y-67525000D03*
X111000000Y-67525000D03*
X113000000Y-67525000D03*
X115000000Y-67525000D03*
X117000000Y-67525000D03*
D14*
X111000000Y-71000000D03*
X111000000Y-72825000D03*
D10*
X113000000Y-71137500D03*
X113000000Y-72862500D03*
D14*
X109000000Y-71000000D03*
X109000000Y-72825000D03*
D15*
X120160000Y-67620000D03*
D16*
X120160000Y-65080000D03*
X120160000Y-62540000D03*
X120160000Y-60000000D03*
X120160000Y-57460000D03*
X120160000Y-54920000D03*
X120160000Y-52380000D03*
D15*
X99840000Y-67620000D03*
D16*
X99840000Y-65080000D03*
X99840000Y-62540000D03*
X99840000Y-60000000D03*
X99840000Y-57460000D03*
X99840000Y-54920000D03*
X99840000Y-52380000D03*
D17*
X107200000Y-70000000D03*
X105200000Y-70000000D03*
X101800000Y-70000000D03*
X100800000Y-70000000D03*
X98800000Y-70000000D03*
X115000000Y-74200000D03*
X99800000Y-70000000D03*
X104200000Y-70000000D03*
X113000000Y-74200000D03*
X106200000Y-70000000D03*
X111000000Y-74200000D03*
X109000000Y-74200000D03*
D18*
X102323170Y-65500000D02*
X104450000Y-65500000D01*
X105000000Y-66050000D02*
X105000000Y-67525000D01*
X101700000Y-69100000D02*
X101700000Y-66123170D01*
X101700000Y-66123170D02*
X102323170Y-65500000D01*
X104450000Y-65500000D02*
X105000000Y-66050000D01*
X100800000Y-70000000D02*
X101700000Y-69100000D01*
D19*
X115000000Y-54200000D02*
X115000000Y-52475000D01*
X114400000Y-54800000D02*
X115000000Y-54200000D01*
X112033220Y-54800000D02*
X114400000Y-54800000D01*
X99840000Y-67620000D02*
X99840000Y-66993220D01*
X99840000Y-66993220D02*
X112033220Y-54800000D01*
X113000000Y-53122081D02*
X101042081Y-65080000D01*
X101042081Y-65080000D02*
X99840000Y-65080000D01*
X113000000Y-52475000D02*
X113000000Y-53122081D01*
X111000000Y-52475000D02*
X111000000Y-54200000D01*
X111000000Y-54200000D02*
X102660000Y-62540000D01*
X102660000Y-62540000D02*
X99840000Y-62540000D01*
X105000000Y-52475000D02*
X105000000Y-54200000D01*
X104280000Y-54920000D02*
X99840000Y-54920000D01*
X105000000Y-54200000D02*
X104280000Y-54920000D01*
X107000000Y-52475000D02*
X107000000Y-54200000D01*
X111000000Y-72825000D02*
X111000000Y-74200000D01*
X107000000Y-54200000D02*
X103740000Y-57460000D01*
X103740000Y-57460000D02*
X99840000Y-57460000D01*
X103100000Y-60000000D02*
X99840000Y-60000000D01*
X108700000Y-54400000D02*
X103100000Y-60000000D01*
X109000000Y-52475000D02*
X109000000Y-54200000D01*
X109000000Y-72825000D02*
X109000000Y-74200000D01*
X108800000Y-54400000D02*
X108700000Y-54400000D01*
X109000000Y-54200000D02*
X108800000Y-54400000D01*
X115000000Y-67525000D02*
X115000000Y-65800000D01*
X118260000Y-62540000D02*
X120160000Y-62540000D01*
X115000000Y-65800000D02*
X118260000Y-62540000D01*
X107000000Y-67525000D02*
X107000000Y-65800000D01*
X117880000Y-54920000D02*
X120160000Y-54920000D01*
X107000000Y-65800000D02*
X117880000Y-54920000D01*
X113000000Y-65800000D02*
X118800000Y-60000000D01*
X118800000Y-60000000D02*
X120160000Y-60000000D01*
X113000000Y-67525000D02*
X113000000Y-65800000D01*
D18*
X111137500Y-71137500D02*
X111000000Y-71000000D01*
X111000000Y-71000000D02*
X111000000Y-67525000D01*
X113000000Y-71137500D02*
X111137500Y-71137500D01*
X120160000Y-67620000D02*
X120160000Y-69340000D01*
X118362500Y-71137500D02*
X115000000Y-71137500D01*
X115000000Y-71137500D02*
X113000000Y-71137500D01*
X111000000Y-71000000D02*
X109000000Y-71000000D01*
X120160000Y-69340000D02*
X118362500Y-71137500D01*
D19*
X117000000Y-65800000D02*
X117000000Y-67525000D01*
X117720000Y-65080000D02*
X117000000Y-65800000D01*
X120160000Y-65080000D02*
X117720000Y-65080000D01*
X117340000Y-57460000D02*
X120160000Y-57460000D01*
X109000000Y-67525000D02*
X109000000Y-65800000D01*
X109000000Y-65800000D02*
X117340000Y-57460000D01*
D20*
X103000000Y-67525000D02*
X103000000Y-73000000D01*
G04 #@! TA.AperFunction,Conductor*
G36*
X102011999Y-50619685D02*
G01*
X102057754Y-50672489D01*
X102067698Y-50741647D01*
X102041908Y-50801311D01*
X102039311Y-50804567D01*
X101941296Y-50960556D01*
X101880452Y-51134440D01*
X101880451Y-51134446D01*
X101865000Y-51271581D01*
X101865000Y-52225000D01*
X103126000Y-52225000D01*
X103193039Y-52244685D01*
X103238794Y-52297489D01*
X103250000Y-52349000D01*
X103250000Y-52601000D01*
X103230315Y-52668039D01*
X103177511Y-52713794D01*
X103126000Y-52725000D01*
X101865000Y-52725000D01*
X101865000Y-53678418D01*
X101880451Y-53815553D01*
X101880452Y-53815559D01*
X101941296Y-53989443D01*
X101992874Y-54071528D01*
X102011874Y-54138764D01*
X101991507Y-54205600D01*
X101938239Y-54250814D01*
X101887880Y-54261500D01*
X101099623Y-54261500D01*
X101032584Y-54241815D01*
X100995815Y-54205322D01*
X100915723Y-54082734D01*
X100915715Y-54082723D01*
X100763243Y-53917097D01*
X100763238Y-53917092D01*
X100585577Y-53778812D01*
X100585577Y-53778811D01*
X100542303Y-53755393D01*
X100492713Y-53706173D01*
X100477605Y-53637957D01*
X100501775Y-53572401D01*
X100530198Y-53544763D01*
X100711079Y-53418108D01*
X100878105Y-53251082D01*
X101013600Y-53057578D01*
X101113429Y-52843492D01*
X101113432Y-52843486D01*
X101170636Y-52630000D01*
X100273012Y-52630000D01*
X100305925Y-52572993D01*
X100340000Y-52445826D01*
X100340000Y-52314174D01*
X100305925Y-52187007D01*
X100273012Y-52130000D01*
X101170636Y-52130000D01*
X101170635Y-52129999D01*
X101113432Y-51916513D01*
X101113429Y-51916507D01*
X101013600Y-51702422D01*
X101013599Y-51702420D01*
X100878113Y-51508926D01*
X100878108Y-51508920D01*
X100711082Y-51341894D01*
X100517578Y-51206399D01*
X100303492Y-51106570D01*
X100303486Y-51106567D01*
X100090000Y-51049364D01*
X100090000Y-51946988D01*
X100032993Y-51914075D01*
X99905826Y-51880000D01*
X99774174Y-51880000D01*
X99647007Y-51914075D01*
X99590000Y-51946988D01*
X99590000Y-51049364D01*
X99589999Y-51049364D01*
X99376513Y-51106567D01*
X99376507Y-51106570D01*
X99162422Y-51206399D01*
X99162420Y-51206400D01*
X98968926Y-51341886D01*
X98968920Y-51341891D01*
X98801891Y-51508920D01*
X98801886Y-51508926D01*
X98666400Y-51702420D01*
X98666399Y-51702422D01*
X98566570Y-51916507D01*
X98566567Y-51916513D01*
X98509364Y-52129999D01*
X98509364Y-52130000D01*
X99406988Y-52130000D01*
X99374075Y-52187007D01*
X99340000Y-52314174D01*
X99340000Y-52445826D01*
X99374075Y-52572993D01*
X99406988Y-52630000D01*
X98509364Y-52630000D01*
X98566567Y-52843486D01*
X98566570Y-52843492D01*
X98666399Y-53057578D01*
X98801894Y-53251082D01*
X98968917Y-53418105D01*
X99149802Y-53544763D01*
X99193427Y-53599340D01*
X99200619Y-53668839D01*
X99169097Y-53731193D01*
X99137697Y-53755392D01*
X99094427Y-53778809D01*
X99094422Y-53778812D01*
X98916761Y-53917092D01*
X98916756Y-53917097D01*
X98764284Y-54082723D01*
X98764276Y-54082734D01*
X98641140Y-54271207D01*
X98550703Y-54477385D01*
X98495436Y-54695628D01*
X98495434Y-54695640D01*
X98476844Y-54919994D01*
X98476844Y-54920005D01*
X98495434Y-55144359D01*
X98495436Y-55144371D01*
X98550703Y-55362614D01*
X98641140Y-55568792D01*
X98764276Y-55757265D01*
X98764284Y-55757276D01*
X98916756Y-55922902D01*
X98916760Y-55922906D01*
X99094424Y-56061189D01*
X99094429Y-56061191D01*
X99094431Y-56061193D01*
X99130930Y-56080946D01*
X99180520Y-56130165D01*
X99195628Y-56198382D01*
X99171457Y-56263937D01*
X99130930Y-56299054D01*
X99094431Y-56318806D01*
X99094422Y-56318812D01*
X98916761Y-56457092D01*
X98916756Y-56457097D01*
X98764284Y-56622723D01*
X98764276Y-56622734D01*
X98641140Y-56811207D01*
X98550703Y-57017385D01*
X98495436Y-57235628D01*
X98495434Y-57235640D01*
X98476844Y-57459994D01*
X98476844Y-57460005D01*
X98495434Y-57684359D01*
X98495436Y-57684371D01*
X98550703Y-57902614D01*
X98641140Y-58108792D01*
X98764276Y-58297265D01*
X98764284Y-58297276D01*
X98916756Y-58462902D01*
X98916760Y-58462906D01*
X99094424Y-58601189D01*
X99094429Y-58601191D01*
X99094431Y-58601193D01*
X99130930Y-58620946D01*
X99180520Y-58670165D01*
X99195628Y-58738382D01*
X99171457Y-58803937D01*
X99130930Y-58839054D01*
X99094431Y-58858806D01*
X99094422Y-58858812D01*
X98916761Y-58997092D01*
X98916756Y-58997097D01*
X98764284Y-59162723D01*
X98764276Y-59162734D01*
X98641140Y-59351207D01*
X98550703Y-59557385D01*
X98495436Y-59775628D01*
X98495434Y-59775640D01*
X98476844Y-59999994D01*
X98476844Y-60000005D01*
X98495434Y-60224359D01*
X98495436Y-60224371D01*
X98550703Y-60442614D01*
X98641140Y-60648792D01*
X98764276Y-60837265D01*
X98764284Y-60837276D01*
X98916756Y-61002902D01*
X98916760Y-61002906D01*
X99094424Y-61141189D01*
X99094429Y-61141191D01*
X99094431Y-61141193D01*
X99130930Y-61160946D01*
X99180520Y-61210165D01*
X99195628Y-61278382D01*
X99171457Y-61343937D01*
X99130930Y-61379054D01*
X99094431Y-61398806D01*
X99094422Y-61398812D01*
X98916761Y-61537092D01*
X98916756Y-61537097D01*
X98764284Y-61702723D01*
X98764276Y-61702734D01*
X98641140Y-61891207D01*
X98550703Y-62097385D01*
X98495436Y-62315628D01*
X98495434Y-62315640D01*
X98476844Y-62539994D01*
X98476844Y-62540005D01*
X98495434Y-62764359D01*
X98495436Y-62764371D01*
X98550703Y-62982614D01*
X98641140Y-63188792D01*
X98764276Y-63377265D01*
X98764284Y-63377276D01*
X98916756Y-63542902D01*
X98916760Y-63542906D01*
X99094424Y-63681189D01*
X99094429Y-63681191D01*
X99094431Y-63681193D01*
X99130930Y-63700946D01*
X99180520Y-63750165D01*
X99195628Y-63818382D01*
X99171457Y-63883937D01*
X99130930Y-63919054D01*
X99094431Y-63938806D01*
X99094422Y-63938812D01*
X98916761Y-64077092D01*
X98916756Y-64077097D01*
X98764284Y-64242723D01*
X98764276Y-64242734D01*
X98641140Y-64431207D01*
X98550703Y-64637385D01*
X98495436Y-64855628D01*
X98495434Y-64855640D01*
X98476844Y-65079994D01*
X98476844Y-65080005D01*
X98495434Y-65304359D01*
X98495436Y-65304371D01*
X98550703Y-65522614D01*
X98641140Y-65728792D01*
X98764276Y-65917265D01*
X98764284Y-65917276D01*
X98911011Y-66076661D01*
X98916760Y-66082906D01*
X99094424Y-66221189D01*
X99094429Y-66221191D01*
X99094431Y-66221193D01*
X99130930Y-66240946D01*
X99180520Y-66290165D01*
X99195628Y-66358382D01*
X99171457Y-66423937D01*
X99130930Y-66459054D01*
X99094431Y-66478806D01*
X99094422Y-66478812D01*
X98916761Y-66617092D01*
X98916756Y-66617097D01*
X98764284Y-66782723D01*
X98764276Y-66782734D01*
X98641140Y-66971207D01*
X98550703Y-67177385D01*
X98495436Y-67395628D01*
X98495434Y-67395640D01*
X98476844Y-67619994D01*
X98476844Y-67620005D01*
X98495434Y-67844359D01*
X98495436Y-67844371D01*
X98550703Y-68062614D01*
X98641140Y-68268792D01*
X98764276Y-68457265D01*
X98764284Y-68457276D01*
X98916756Y-68622902D01*
X98916760Y-68622906D01*
X99094424Y-68761189D01*
X99094425Y-68761189D01*
X99094427Y-68761191D01*
X99111823Y-68770605D01*
X99292426Y-68868342D01*
X99505365Y-68941444D01*
X99727431Y-68978500D01*
X99952569Y-68978500D01*
X100174635Y-68941444D01*
X100387574Y-68868342D01*
X100585576Y-68761189D01*
X100763240Y-68622906D01*
X100915722Y-68457268D01*
X101038860Y-68268791D01*
X101129296Y-68062616D01*
X101184564Y-67844368D01*
X101203156Y-67620000D01*
X101184564Y-67395632D01*
X101129296Y-67177384D01*
X101038860Y-66971209D01*
X100996888Y-66906966D01*
X100976700Y-66840077D01*
X100995879Y-66772891D01*
X101013010Y-66751468D01*
X101659318Y-66105160D01*
X101720639Y-66071677D01*
X101790331Y-66076661D01*
X101846264Y-66118533D01*
X101870681Y-66183997D01*
X101867332Y-66222766D01*
X101859236Y-66255322D01*
X101856500Y-66295668D01*
X101856500Y-68754331D01*
X101859235Y-68794672D01*
X101902595Y-68969024D01*
X101982422Y-69129980D01*
X102094983Y-69270012D01*
X102094985Y-69270015D01*
X102235019Y-69382577D01*
X102242591Y-69386332D01*
X102293906Y-69433752D01*
X102311500Y-69497422D01*
X102311500Y-70876812D01*
X102291815Y-70943851D01*
X102252597Y-70982350D01*
X102141351Y-71050967D01*
X102141347Y-71050970D01*
X102015971Y-71176346D01*
X101922886Y-71327259D01*
X101922884Y-71327264D01*
X101867113Y-71495572D01*
X101856500Y-71599447D01*
X101856500Y-74400537D01*
X101856501Y-74400553D01*
X101867113Y-74504427D01*
X101922884Y-74672735D01*
X101922889Y-74672746D01*
X102008106Y-74810903D01*
X102026547Y-74878295D01*
X102005625Y-74944959D01*
X101951983Y-74989729D01*
X101902568Y-75000000D01*
X101302445Y-75000000D01*
X101235406Y-74980315D01*
X101189651Y-74927511D01*
X101179707Y-74858353D01*
X101196906Y-74810903D01*
X101284356Y-74669124D01*
X101284358Y-74669119D01*
X101339505Y-74502697D01*
X101339506Y-74502690D01*
X101349999Y-74399986D01*
X101350000Y-74399973D01*
X101350000Y-73000000D01*
X99000001Y-73000000D01*
X99000001Y-74399986D01*
X99010494Y-74502697D01*
X99065641Y-74669119D01*
X99065643Y-74669124D01*
X99142115Y-74793104D01*
X99160555Y-74860497D01*
X99139632Y-74927160D01*
X99085990Y-74971930D01*
X99016660Y-74980591D01*
X99012385Y-74979818D01*
X98920993Y-74961639D01*
X98897731Y-74954583D01*
X98738745Y-74888728D01*
X98717307Y-74877269D01*
X98574224Y-74781664D01*
X98555434Y-74766243D01*
X98433756Y-74644565D01*
X98418335Y-74625775D01*
X98336097Y-74502697D01*
X98322728Y-74482689D01*
X98311271Y-74461254D01*
X98245413Y-74302261D01*
X98238362Y-74279013D01*
X98204490Y-74108728D01*
X98202145Y-74087583D01*
X98200037Y-74001509D01*
X98200000Y-73998473D01*
X98200000Y-71100013D01*
X99000000Y-71100013D01*
X99000000Y-72500000D01*
X99925000Y-72500000D01*
X100425000Y-72500000D01*
X101349999Y-72500000D01*
X101349999Y-71100028D01*
X101349998Y-71100013D01*
X101339505Y-70997302D01*
X101284358Y-70830880D01*
X101284356Y-70830875D01*
X101192315Y-70681654D01*
X101068345Y-70557684D01*
X100919124Y-70465643D01*
X100919119Y-70465641D01*
X100752697Y-70410494D01*
X100752690Y-70410493D01*
X100649986Y-70400000D01*
X100425000Y-70400000D01*
X100425000Y-72500000D01*
X99925000Y-72500000D01*
X99925000Y-70400000D01*
X99700029Y-70400000D01*
X99700012Y-70400001D01*
X99597302Y-70410494D01*
X99430880Y-70465641D01*
X99430875Y-70465643D01*
X99281654Y-70557684D01*
X99157684Y-70681654D01*
X99065643Y-70830875D01*
X99065641Y-70830880D01*
X99010494Y-70997302D01*
X99010493Y-70997309D01*
X99000000Y-71100013D01*
X98200000Y-71100013D01*
X98200000Y-51601526D01*
X98200037Y-51598490D01*
X98202145Y-51512421D01*
X98202146Y-51512419D01*
X98202145Y-51512415D01*
X98204490Y-51491272D01*
X98238362Y-51320983D01*
X98245412Y-51297741D01*
X98311274Y-51138738D01*
X98322726Y-51117314D01*
X98418338Y-50974219D01*
X98433751Y-50955439D01*
X98555439Y-50833751D01*
X98574219Y-50818338D01*
X98717314Y-50722726D01*
X98738738Y-50711274D01*
X98897741Y-50645412D01*
X98920983Y-50638362D01*
X99091272Y-50604490D01*
X99112415Y-50602145D01*
X99193037Y-50600170D01*
X99198491Y-50600037D01*
X99201527Y-50600000D01*
X101944960Y-50600000D01*
X102011999Y-50619685D01*
G37*
G04 #@! TD.AperFunction*
G04 #@! TA.AperFunction,Conductor*
G36*
X120801509Y-50600037D02*
G01*
X120807232Y-50600177D01*
X120887583Y-50602145D01*
X120908728Y-50604490D01*
X121079013Y-50638362D01*
X121102261Y-50645413D01*
X121261257Y-50711272D01*
X121282689Y-50722728D01*
X121311003Y-50741647D01*
X121425775Y-50818335D01*
X121444565Y-50833756D01*
X121566243Y-50955434D01*
X121581664Y-50974224D01*
X121677269Y-51117307D01*
X121688728Y-51138745D01*
X121754583Y-51297731D01*
X121761639Y-51320993D01*
X121795508Y-51491266D01*
X121797854Y-51512419D01*
X121799963Y-51598488D01*
X121800000Y-51601526D01*
X121800000Y-73998473D01*
X121799963Y-74001511D01*
X121797854Y-74087580D01*
X121795508Y-74108733D01*
X121761639Y-74279006D01*
X121754583Y-74302268D01*
X121688728Y-74461254D01*
X121677269Y-74482692D01*
X121581664Y-74625775D01*
X121566243Y-74644565D01*
X121444565Y-74766243D01*
X121425775Y-74781664D01*
X121282692Y-74877269D01*
X121261254Y-74888728D01*
X121102268Y-74954583D01*
X121079006Y-74961639D01*
X120908733Y-74995508D01*
X120887580Y-74997854D01*
X120804250Y-74999895D01*
X120801509Y-74999963D01*
X120798473Y-75000000D01*
X111780692Y-75000000D01*
X111713653Y-74980315D01*
X111667898Y-74927511D01*
X111657954Y-74858353D01*
X111686979Y-74794797D01*
X111688542Y-74793028D01*
X111698774Y-74781664D01*
X111739040Y-74736944D01*
X111834527Y-74571556D01*
X111893542Y-74389928D01*
X111913504Y-74200000D01*
X111893542Y-74010072D01*
X111834527Y-73828444D01*
X111773951Y-73723524D01*
X111757479Y-73655626D01*
X111780331Y-73589599D01*
X111793650Y-73573852D01*
X111826658Y-73540846D01*
X111872778Y-73466073D01*
X111924724Y-73419352D01*
X111993687Y-73408129D01*
X112057769Y-73435973D01*
X112084610Y-73470861D01*
X112085755Y-73470156D01*
X112180052Y-73623034D01*
X112180055Y-73623038D01*
X112301961Y-73744944D01*
X112301965Y-73744947D01*
X112448688Y-73835448D01*
X112448699Y-73835453D01*
X112612347Y-73889680D01*
X112713352Y-73899999D01*
X112750000Y-73899999D01*
X113250000Y-73899999D01*
X113286640Y-73899999D01*
X113286654Y-73899998D01*
X113387652Y-73889680D01*
X113551300Y-73835453D01*
X113551311Y-73835448D01*
X113698034Y-73744947D01*
X113698038Y-73744944D01*
X113819943Y-73623039D01*
X113894461Y-73502228D01*
X113946409Y-73455504D01*
X114015372Y-73444282D01*
X114079454Y-73472125D01*
X114105539Y-73502228D01*
X114180056Y-73623039D01*
X114301961Y-73744944D01*
X114301965Y-73744947D01*
X114448688Y-73835448D01*
X114448699Y-73835453D01*
X114612347Y-73889680D01*
X114713352Y-73899999D01*
X114750000Y-73899999D01*
X115250000Y-73899999D01*
X115286640Y-73899999D01*
X115286654Y-73899998D01*
X115387652Y-73889680D01*
X115551300Y-73835453D01*
X115551311Y-73835448D01*
X115698034Y-73744947D01*
X115698038Y-73744944D01*
X115819944Y-73623038D01*
X115819947Y-73623034D01*
X115910448Y-73476311D01*
X115910453Y-73476300D01*
X115964680Y-73312652D01*
X115974999Y-73211654D01*
X115975000Y-73211641D01*
X115975000Y-73112500D01*
X115250000Y-73112500D01*
X115250000Y-73899999D01*
X114750000Y-73899999D01*
X114750000Y-73112500D01*
X113250000Y-73112500D01*
X113250000Y-73899999D01*
X112750000Y-73899999D01*
X112750000Y-72736500D01*
X112769685Y-72669461D01*
X112822489Y-72623706D01*
X112874000Y-72612500D01*
X115974999Y-72612500D01*
X115974999Y-72513360D01*
X115974998Y-72513345D01*
X115964680Y-72412347D01*
X115910453Y-72248699D01*
X115910448Y-72248688D01*
X115819947Y-72101965D01*
X115815951Y-72096911D01*
X115789810Y-72032115D01*
X115802851Y-71963473D01*
X115850931Y-71912778D01*
X115913217Y-71896000D01*
X118437206Y-71896000D01*
X118510476Y-71881425D01*
X118510477Y-71881425D01*
X118528919Y-71877756D01*
X118583747Y-71866851D01*
X118721784Y-71809674D01*
X118846015Y-71726666D01*
X120749166Y-69823515D01*
X120832174Y-69699284D01*
X120889351Y-69561247D01*
X120918500Y-69414705D01*
X120918500Y-69265295D01*
X120918500Y-68811748D01*
X120938185Y-68744709D01*
X120966338Y-68713895D01*
X120970481Y-68710670D01*
X121083240Y-68622906D01*
X121235722Y-68457268D01*
X121358860Y-68268791D01*
X121449296Y-68062616D01*
X121504564Y-67844368D01*
X121523156Y-67620000D01*
X121504564Y-67395632D01*
X121449296Y-67177384D01*
X121358860Y-66971209D01*
X121235722Y-66782732D01*
X121235719Y-66782729D01*
X121235715Y-66782723D01*
X121083243Y-66617097D01*
X121083238Y-66617092D01*
X120905577Y-66478812D01*
X120905578Y-66478812D01*
X120905576Y-66478811D01*
X120869070Y-66459055D01*
X120819479Y-66409836D01*
X120804371Y-66341619D01*
X120828541Y-66276064D01*
X120869070Y-66240945D01*
X120869084Y-66240936D01*
X120905576Y-66221189D01*
X121083240Y-66082906D01*
X121235722Y-65917268D01*
X121358860Y-65728791D01*
X121449296Y-65522616D01*
X121504564Y-65304368D01*
X121523156Y-65080000D01*
X121504564Y-64855632D01*
X121449296Y-64637384D01*
X121358860Y-64431209D01*
X121235722Y-64242732D01*
X121235719Y-64242729D01*
X121235715Y-64242723D01*
X121083243Y-64077097D01*
X121083238Y-64077092D01*
X120905577Y-63938812D01*
X120905578Y-63938812D01*
X120905576Y-63938811D01*
X120869070Y-63919055D01*
X120819479Y-63869836D01*
X120804371Y-63801619D01*
X120828541Y-63736064D01*
X120869070Y-63700945D01*
X120869084Y-63700936D01*
X120905576Y-63681189D01*
X121083240Y-63542906D01*
X121235722Y-63377268D01*
X121358860Y-63188791D01*
X121449296Y-62982616D01*
X121504564Y-62764368D01*
X121523156Y-62540000D01*
X121504564Y-62315632D01*
X121449296Y-62097384D01*
X121358860Y-61891209D01*
X121350665Y-61878666D01*
X121235723Y-61702734D01*
X121235715Y-61702723D01*
X121083243Y-61537097D01*
X121083238Y-61537092D01*
X120905577Y-61398812D01*
X120905578Y-61398812D01*
X120905576Y-61398811D01*
X120869070Y-61379055D01*
X120819479Y-61329836D01*
X120804371Y-61261619D01*
X120828541Y-61196064D01*
X120869070Y-61160945D01*
X120869084Y-61160936D01*
X120905576Y-61141189D01*
X121083240Y-61002906D01*
X121235722Y-60837268D01*
X121358860Y-60648791D01*
X121449296Y-60442616D01*
X121504564Y-60224368D01*
X121523156Y-60000000D01*
X121504564Y-59775632D01*
X121449296Y-59557384D01*
X121358860Y-59351209D01*
X121355259Y-59345698D01*
X121235723Y-59162734D01*
X121235715Y-59162723D01*
X121083243Y-58997097D01*
X121083238Y-58997092D01*
X120905577Y-58858812D01*
X120905578Y-58858812D01*
X120905576Y-58858811D01*
X120869070Y-58839055D01*
X120819479Y-58789836D01*
X120804371Y-58721619D01*
X120828541Y-58656064D01*
X120869070Y-58620945D01*
X120869084Y-58620936D01*
X120905576Y-58601189D01*
X121083240Y-58462906D01*
X121235722Y-58297268D01*
X121358860Y-58108791D01*
X121449296Y-57902616D01*
X121504564Y-57684368D01*
X121523156Y-57460000D01*
X121504564Y-57235632D01*
X121449296Y-57017384D01*
X121358860Y-56811209D01*
X121350665Y-56798666D01*
X121281323Y-56692530D01*
X121235722Y-56622732D01*
X121235719Y-56622729D01*
X121235715Y-56622723D01*
X121083243Y-56457097D01*
X121083238Y-56457092D01*
X120905577Y-56318812D01*
X120905578Y-56318812D01*
X120905576Y-56318811D01*
X120869070Y-56299055D01*
X120819479Y-56249836D01*
X120804371Y-56181619D01*
X120828541Y-56116064D01*
X120869070Y-56080945D01*
X120869084Y-56080936D01*
X120905576Y-56061189D01*
X121083240Y-55922906D01*
X121182614Y-55814957D01*
X121235715Y-55757276D01*
X121235716Y-55757274D01*
X121235722Y-55757268D01*
X121358860Y-55568791D01*
X121449296Y-55362616D01*
X121504564Y-55144368D01*
X121504565Y-55144359D01*
X121523156Y-54920005D01*
X121523156Y-54919994D01*
X121504565Y-54695640D01*
X121504563Y-54695628D01*
X121449296Y-54477385D01*
X121433960Y-54442423D01*
X121358860Y-54271209D01*
X121355259Y-54265698D01*
X121274117Y-54141500D01*
X121235722Y-54082732D01*
X121235719Y-54082729D01*
X121235715Y-54082723D01*
X121083243Y-53917097D01*
X121083238Y-53917092D01*
X120905577Y-53778812D01*
X120905577Y-53778811D01*
X120862303Y-53755393D01*
X120812713Y-53706173D01*
X120797605Y-53637957D01*
X120821775Y-53572401D01*
X120850198Y-53544763D01*
X121031079Y-53418108D01*
X121198105Y-53251082D01*
X121333600Y-53057578D01*
X121433429Y-52843492D01*
X121433432Y-52843486D01*
X121490636Y-52630000D01*
X120593012Y-52630000D01*
X120625925Y-52572993D01*
X120660000Y-52445826D01*
X120660000Y-52314174D01*
X120625925Y-52187007D01*
X120593012Y-52130000D01*
X121490636Y-52130000D01*
X121490635Y-52129999D01*
X121433432Y-51916513D01*
X121433429Y-51916507D01*
X121333600Y-51702422D01*
X121333599Y-51702420D01*
X121198113Y-51508926D01*
X121198108Y-51508920D01*
X121031082Y-51341894D01*
X120837578Y-51206399D01*
X120623492Y-51106570D01*
X120623486Y-51106567D01*
X120410000Y-51049364D01*
X120410000Y-51946988D01*
X120352993Y-51914075D01*
X120225826Y-51880000D01*
X120094174Y-51880000D01*
X119967007Y-51914075D01*
X119910000Y-51946988D01*
X119910000Y-51049364D01*
X119909999Y-51049364D01*
X119696513Y-51106567D01*
X119696507Y-51106570D01*
X119482422Y-51206399D01*
X119482420Y-51206400D01*
X119288926Y-51341886D01*
X119288920Y-51341891D01*
X119121891Y-51508920D01*
X119121886Y-51508926D01*
X118986400Y-51702420D01*
X118986399Y-51702422D01*
X118886570Y-51916507D01*
X118886567Y-51916513D01*
X118829364Y-52129999D01*
X118829364Y-52130000D01*
X119726988Y-52130000D01*
X119694075Y-52187007D01*
X119660000Y-52314174D01*
X119660000Y-52445826D01*
X119694075Y-52572993D01*
X119726988Y-52630000D01*
X118829364Y-52630000D01*
X118886567Y-52843486D01*
X118886570Y-52843492D01*
X118986399Y-53057578D01*
X119121894Y-53251082D01*
X119288917Y-53418105D01*
X119469802Y-53544763D01*
X119513427Y-53599340D01*
X119520619Y-53668839D01*
X119489097Y-53731193D01*
X119457697Y-53755392D01*
X119414427Y-53778809D01*
X119414422Y-53778812D01*
X119236761Y-53917092D01*
X119236756Y-53917097D01*
X119084284Y-54082723D01*
X119084276Y-54082734D01*
X119004185Y-54205322D01*
X118951039Y-54250679D01*
X118900377Y-54261500D01*
X118112120Y-54261500D01*
X118045081Y-54241815D01*
X117999326Y-54189011D01*
X117989382Y-54119853D01*
X118007126Y-54071528D01*
X118058703Y-53989443D01*
X118119547Y-53815559D01*
X118119548Y-53815553D01*
X118134999Y-53678418D01*
X118135000Y-53678414D01*
X118135000Y-52725000D01*
X117250000Y-52725000D01*
X117250000Y-54452753D01*
X117280173Y-54508011D01*
X117275189Y-54577703D01*
X117246688Y-54622050D01*
X106488510Y-65380228D01*
X106416443Y-65488085D01*
X106387659Y-65557577D01*
X106343817Y-65611981D01*
X106328193Y-65621212D01*
X106235019Y-65667422D01*
X106094985Y-65779984D01*
X106094982Y-65779987D01*
X106088493Y-65788060D01*
X106031148Y-65827976D01*
X105961326Y-65830552D01*
X105904169Y-65798049D01*
X105830428Y-65724308D01*
X105674443Y-65626296D01*
X105500559Y-65565452D01*
X105500553Y-65565451D01*
X105363418Y-65550000D01*
X105250000Y-65550000D01*
X105250000Y-69500000D01*
X105363415Y-69500000D01*
X105363418Y-69499999D01*
X105500553Y-69484548D01*
X105500559Y-69484547D01*
X105674443Y-69423703D01*
X105830425Y-69325693D01*
X105904168Y-69251950D01*
X105965491Y-69218465D01*
X106035183Y-69223449D01*
X106088495Y-69261941D01*
X106094985Y-69270015D01*
X106235019Y-69382577D01*
X106395977Y-69462405D01*
X106513436Y-69491615D01*
X106570327Y-69505764D01*
X106570328Y-69505764D01*
X106570332Y-69505765D01*
X106610666Y-69508500D01*
X106610668Y-69508500D01*
X107389332Y-69508500D01*
X107389334Y-69508500D01*
X107429668Y-69505765D01*
X107604023Y-69462405D01*
X107764981Y-69382577D01*
X107905015Y-69270015D01*
X107905019Y-69270009D01*
X107909769Y-69265261D01*
X107911159Y-69266651D01*
X107960684Y-69232167D01*
X108030506Y-69229580D01*
X108090642Y-69265152D01*
X108094014Y-69269044D01*
X108094984Y-69270014D01*
X108094985Y-69270015D01*
X108235019Y-69382577D01*
X108395977Y-69462405D01*
X108513436Y-69491615D01*
X108570327Y-69505764D01*
X108570328Y-69505764D01*
X108570332Y-69505765D01*
X108610666Y-69508500D01*
X108610668Y-69508500D01*
X109389332Y-69508500D01*
X109389334Y-69508500D01*
X109429668Y-69505765D01*
X109604023Y-69462405D01*
X109764981Y-69382577D01*
X109905015Y-69270015D01*
X109905019Y-69270009D01*
X109909769Y-69265261D01*
X109911159Y-69266651D01*
X109960684Y-69232167D01*
X110030506Y-69229580D01*
X110090642Y-69265152D01*
X110094014Y-69269044D01*
X110094979Y-69270009D01*
X110094982Y-69270011D01*
X110094985Y-69270015D01*
X110195189Y-69350560D01*
X110235106Y-69407902D01*
X110241500Y-69447206D01*
X110241500Y-70117500D01*
X110221815Y-70184539D01*
X110169011Y-70230294D01*
X110117500Y-70241500D01*
X109835366Y-70241500D01*
X109768327Y-70221815D01*
X109747685Y-70205181D01*
X109703346Y-70160842D01*
X109703342Y-70160839D01*
X109554928Y-70069295D01*
X109554922Y-70069292D01*
X109554920Y-70069291D01*
X109554917Y-70069290D01*
X109389382Y-70014438D01*
X109287214Y-70004000D01*
X108712794Y-70004000D01*
X108712778Y-70004001D01*
X108610617Y-70014438D01*
X108445082Y-70069290D01*
X108445071Y-70069295D01*
X108296657Y-70160839D01*
X108296653Y-70160842D01*
X108173342Y-70284153D01*
X108173339Y-70284157D01*
X108081795Y-70432571D01*
X108081790Y-70432582D01*
X108026938Y-70598117D01*
X108016500Y-70700279D01*
X108016500Y-71299705D01*
X108016501Y-71299721D01*
X108026938Y-71401882D01*
X108081790Y-71567417D01*
X108081795Y-71567428D01*
X108173339Y-71715842D01*
X108173340Y-71715843D01*
X108173342Y-71715846D01*
X108235681Y-71778185D01*
X108282315Y-71824819D01*
X108315799Y-71886142D01*
X108310815Y-71955834D01*
X108282315Y-72000181D01*
X108173339Y-72109157D01*
X108081795Y-72257571D01*
X108081790Y-72257582D01*
X108026938Y-72423117D01*
X108016500Y-72525279D01*
X108016500Y-73124705D01*
X108016501Y-73124721D01*
X108026938Y-73226882D01*
X108081790Y-73392417D01*
X108081795Y-73392428D01*
X108173339Y-73540842D01*
X108173342Y-73540846D01*
X108206341Y-73573845D01*
X108239826Y-73635168D01*
X108234842Y-73704860D01*
X108226047Y-73723525D01*
X108165475Y-73828438D01*
X108165470Y-73828450D01*
X108106459Y-74010068D01*
X108106458Y-74010072D01*
X108086496Y-74200000D01*
X108106458Y-74389928D01*
X108106459Y-74389931D01*
X108165470Y-74571549D01*
X108165473Y-74571556D01*
X108260960Y-74736944D01*
X108287341Y-74766243D01*
X108311458Y-74793028D01*
X108341688Y-74856020D01*
X108333063Y-74925355D01*
X108288321Y-74979020D01*
X108221668Y-74999978D01*
X108219308Y-75000000D01*
X106952445Y-75000000D01*
X106885406Y-74980315D01*
X106839651Y-74927511D01*
X106829707Y-74858353D01*
X106846906Y-74810903D01*
X106934356Y-74669124D01*
X106934358Y-74669119D01*
X106989505Y-74502697D01*
X106989506Y-74502690D01*
X106999999Y-74399986D01*
X107000000Y-74399973D01*
X107000000Y-73000000D01*
X104650001Y-73000000D01*
X104650001Y-74399986D01*
X104660494Y-74502697D01*
X104715641Y-74669119D01*
X104715643Y-74669124D01*
X104803094Y-74810903D01*
X104821534Y-74878295D01*
X104800612Y-74944959D01*
X104746970Y-74989729D01*
X104697555Y-75000000D01*
X104097432Y-75000000D01*
X104030393Y-74980315D01*
X103984638Y-74927511D01*
X103974694Y-74858353D01*
X103991894Y-74810903D01*
X104077110Y-74672746D01*
X104077109Y-74672746D01*
X104077115Y-74672738D01*
X104132887Y-74504426D01*
X104143500Y-74400545D01*
X104143499Y-71599456D01*
X104132887Y-71495574D01*
X104077115Y-71327262D01*
X103984030Y-71176348D01*
X103907695Y-71100013D01*
X104650000Y-71100013D01*
X104650000Y-72500000D01*
X105575000Y-72500000D01*
X106075000Y-72500000D01*
X106999999Y-72500000D01*
X106999999Y-71100028D01*
X106999998Y-71100013D01*
X106989505Y-70997302D01*
X106934358Y-70830880D01*
X106934356Y-70830875D01*
X106842315Y-70681654D01*
X106718345Y-70557684D01*
X106569124Y-70465643D01*
X106569119Y-70465641D01*
X106402697Y-70410494D01*
X106402690Y-70410493D01*
X106299986Y-70400000D01*
X106075000Y-70400000D01*
X106075000Y-72500000D01*
X105575000Y-72500000D01*
X105575000Y-70400000D01*
X105350029Y-70400000D01*
X105350012Y-70400001D01*
X105247302Y-70410494D01*
X105080880Y-70465641D01*
X105080875Y-70465643D01*
X104931654Y-70557684D01*
X104807684Y-70681654D01*
X104715643Y-70830875D01*
X104715641Y-70830880D01*
X104660494Y-70997302D01*
X104660493Y-70997309D01*
X104650000Y-71100013D01*
X103907695Y-71100013D01*
X103858652Y-71050970D01*
X103858648Y-71050967D01*
X103747403Y-70982350D01*
X103700678Y-70930402D01*
X103688500Y-70876812D01*
X103688500Y-69497422D01*
X103708185Y-69430383D01*
X103757408Y-69386332D01*
X103764981Y-69382577D01*
X103905015Y-69270015D01*
X103911498Y-69261949D01*
X103968836Y-69222028D01*
X104038658Y-69219443D01*
X104095830Y-69251950D01*
X104169571Y-69325691D01*
X104325556Y-69423703D01*
X104499440Y-69484547D01*
X104499446Y-69484548D01*
X104636581Y-69499999D01*
X104636585Y-69500000D01*
X104750000Y-69500000D01*
X104750000Y-65550000D01*
X104636581Y-65550000D01*
X104499446Y-65565451D01*
X104499440Y-65565452D01*
X104325556Y-65626296D01*
X104169573Y-65724307D01*
X104095830Y-65798050D01*
X104034506Y-65831534D01*
X103964815Y-65826549D01*
X103911503Y-65788057D01*
X103905015Y-65779985D01*
X103764981Y-65667423D01*
X103764980Y-65667422D01*
X103604024Y-65587595D01*
X103429672Y-65544235D01*
X103402778Y-65542411D01*
X103389334Y-65541500D01*
X102610666Y-65541500D01*
X102570332Y-65544235D01*
X102570330Y-65544235D01*
X102570322Y-65544236D01*
X102537766Y-65552332D01*
X102467958Y-65549407D01*
X102410813Y-65509205D01*
X102384474Y-65444490D01*
X102397304Y-65375809D01*
X102420159Y-65344320D01*
X112269661Y-55494819D01*
X112330984Y-55461334D01*
X112357342Y-55458500D01*
X114464859Y-55458500D01*
X114550444Y-55441475D01*
X114592077Y-55433194D01*
X114711917Y-55383555D01*
X114819769Y-55311491D01*
X115511491Y-54619769D01*
X115583555Y-54511917D01*
X115612339Y-54442421D01*
X115656180Y-54388019D01*
X115671792Y-54378793D01*
X115764981Y-54332577D01*
X115764984Y-54332574D01*
X115764987Y-54332573D01*
X115877894Y-54241815D01*
X115905015Y-54220015D01*
X115911498Y-54211949D01*
X115968836Y-54172028D01*
X116038658Y-54169443D01*
X116095830Y-54201950D01*
X116169571Y-54275691D01*
X116325556Y-54373703D01*
X116499440Y-54434547D01*
X116499446Y-54434548D01*
X116636581Y-54449999D01*
X116636585Y-54450000D01*
X116750000Y-54450000D01*
X116750000Y-52349000D01*
X116769685Y-52281961D01*
X116822489Y-52236206D01*
X116874000Y-52225000D01*
X118135000Y-52225000D01*
X118135000Y-51271585D01*
X118134999Y-51271581D01*
X118119548Y-51134446D01*
X118119547Y-51134440D01*
X118058703Y-50960556D01*
X117960688Y-50804567D01*
X117958092Y-50801311D01*
X117957070Y-50798809D01*
X117956987Y-50798676D01*
X117957010Y-50798661D01*
X117931684Y-50736624D01*
X117944441Y-50667929D01*
X117992313Y-50617036D01*
X118055040Y-50600000D01*
X120798473Y-50600000D01*
X120801509Y-50600037D01*
G37*
G04 #@! TD.AperFunction*
M02*
