M48
; DRILL file {KiCad 8.0.5-rc1-202409040208~b22948988f~ubuntu24.04.1} date 2024-09-06T21:41:53+0200
; FORMAT={-:-/ absolute / metric / decimal}
; #@! TF.CreationDate,2024-09-06T21:41:53+02:00
; #@! TF.GenerationSoftware,Kicad,Pcbnew,8.0.5-rc1-202409040208~b22948988f~ubuntu24.04.1
; #@! TF.FileFunction,Plated,1,2,PTH
FMAT,2
METRIC
; #@! TA.AperFunction,Plated,PTH,ViaDrill
T1C0.400
; #@! TA.AperFunction,Plated,PTH,ComponentDrill
T2C1.000
%
G90
G05
T1
X98.8Y-70.0
X99.8Y-70.0
X100.8Y-70.0
X101.8Y-70.0
X104.2Y-70.0
X105.2Y-70.0
X106.2Y-70.0
X107.2Y-70.0
X109.0Y-74.2
X111.0Y-74.2
X113.0Y-74.2
X115.0Y-74.2
T2
X99.84Y-52.38
X99.84Y-54.92
X99.84Y-57.46
X99.84Y-60.0
X99.84Y-62.54
X99.84Y-65.08
X99.84Y-67.62
X120.16Y-52.38
X120.16Y-54.92
X120.16Y-57.46
X120.16Y-60.0
X120.16Y-62.54
X120.16Y-65.08
X120.16Y-67.62
M30
