G04 #@! TF.GenerationSoftware,KiCad,Pcbnew,8.0.5-rc1-202409040208~b22948988f~ubuntu24.04.1*
G04 #@! TF.CreationDate,2024-09-06T21:41:45+02:00*
G04 #@! TF.ProjectId,lora-board,6c6f7261-2d62-46f6-9172-642e6b696361,2*
G04 #@! TF.SameCoordinates,Original*
G04 #@! TF.FileFunction,Copper,L2,Bot*
G04 #@! TF.FilePolarity,Positive*
%FSLAX46Y46*%
G04 Gerber Fmt 4.6, Leading zero omitted, Abs format (unit mm)*
G04 Created by KiCad (PCBNEW 8.0.5-rc1-202409040208~b22948988f~ubuntu24.04.1) date 2024-09-06 21:41:45*
%MOMM*%
%LPD*%
G01*
G04 APERTURE LIST*
G04 Aperture macros list*
%AMRoundRect*
0 Rectangle with rounded corners*
0 $1 Rounding radius*
0 $2 $3 $4 $5 $6 $7 $8 $9 X,Y pos of 4 corners*
0 Add a 4 corners polygon primitive as box body*
4,1,4,$2,$3,$4,$5,$6,$7,$8,$9,$2,$3,0*
0 Add four circle primitives for the rounded corners*
1,1,$1+$1,$2,$3*
1,1,$1+$1,$4,$5*
1,1,$1+$1,$6,$7*
1,1,$1+$1,$8,$9*
0 Add four rect primitives between the rounded corners*
20,1,$1+$1,$2,$3,$4,$5,0*
20,1,$1+$1,$4,$5,$6,$7,0*
20,1,$1+$1,$6,$7,$8,$9,0*
20,1,$1+$1,$8,$9,$2,$3,0*%
G04 Aperture macros list end*
G04 #@! TA.AperFunction,SMDPad,CuDef*
%ADD10RoundRect,0.250000X-0.425000X-1.600000X0.425000X-1.600000X0.425000X1.600000X-0.425000X1.600000X0*%
G04 #@! TD*
G04 #@! TA.AperFunction,ComponentPad*
%ADD11C,1.700000*%
G04 #@! TD*
G04 #@! TA.AperFunction,ComponentPad*
%ADD12O,1.700000X1.700000*%
G04 #@! TD*
G04 #@! TA.AperFunction,ViaPad*
%ADD13C,0.800000*%
G04 #@! TD*
G04 #@! TA.AperFunction,Conductor*
%ADD14C,0.300000*%
G04 #@! TD*
G04 APERTURE END LIST*
D10*
X105825000Y-72750000D03*
X100175000Y-72750000D03*
D11*
X120160000Y-67620000D03*
D12*
X120160000Y-65080000D03*
X120160000Y-62540000D03*
X120160000Y-60000000D03*
X120160000Y-57460000D03*
X120160000Y-54920000D03*
X120160000Y-52380000D03*
D11*
X99840000Y-67620000D03*
D12*
X99840000Y-65080000D03*
X99840000Y-62540000D03*
X99840000Y-60000000D03*
X99840000Y-57460000D03*
X99840000Y-54920000D03*
X99840000Y-52380000D03*
D13*
X107200000Y-70000000D03*
X105200000Y-70000000D03*
X101800000Y-70000000D03*
X100800000Y-70000000D03*
X98800000Y-70000000D03*
X115000000Y-74200000D03*
X99800000Y-70000000D03*
X104200000Y-70000000D03*
X113000000Y-74200000D03*
X106200000Y-70000000D03*
X111000000Y-74200000D03*
X109000000Y-74200000D03*
D14*
X111000000Y-73400000D02*
X109550000Y-71950000D01*
X101360000Y-57460000D02*
X109550000Y-65650000D01*
X99840000Y-57460000D02*
X101360000Y-57460000D01*
X109550000Y-71950000D02*
X109550000Y-65650000D01*
X111000000Y-73400000D02*
X111000000Y-74200000D01*
X109000000Y-65807106D02*
X103192894Y-60000000D01*
X109000000Y-74200000D02*
X109000000Y-65807106D01*
X103192894Y-60000000D02*
X99840000Y-60000000D01*
G04 #@! TA.AperFunction,Conductor*
G36*
X120801509Y-50600037D02*
G01*
X120807232Y-50600177D01*
X120887583Y-50602145D01*
X120908728Y-50604490D01*
X121079013Y-50638362D01*
X121102261Y-50645413D01*
X121261257Y-50711272D01*
X121282692Y-50722730D01*
X121425775Y-50818335D01*
X121444565Y-50833756D01*
X121566243Y-50955434D01*
X121581664Y-50974224D01*
X121677269Y-51117307D01*
X121688728Y-51138745D01*
X121754583Y-51297731D01*
X121761639Y-51320993D01*
X121795508Y-51491266D01*
X121797854Y-51512419D01*
X121799963Y-51598488D01*
X121800000Y-51601526D01*
X121800000Y-73998473D01*
X121799963Y-74001511D01*
X121797854Y-74087580D01*
X121795508Y-74108733D01*
X121761639Y-74279006D01*
X121754583Y-74302268D01*
X121688728Y-74461254D01*
X121677269Y-74482692D01*
X121581664Y-74625775D01*
X121566243Y-74644565D01*
X121444565Y-74766243D01*
X121425775Y-74781664D01*
X121282692Y-74877269D01*
X121261254Y-74888728D01*
X121102268Y-74954583D01*
X121079006Y-74961639D01*
X120908733Y-74995508D01*
X120887580Y-74997854D01*
X120804250Y-74999895D01*
X120801509Y-74999963D01*
X120798473Y-75000000D01*
X111780692Y-75000000D01*
X111713653Y-74980315D01*
X111667898Y-74927511D01*
X111657954Y-74858353D01*
X111686979Y-74794797D01*
X111688542Y-74793028D01*
X111698774Y-74781664D01*
X111739040Y-74736944D01*
X111834527Y-74571556D01*
X111893542Y-74389928D01*
X111913504Y-74200000D01*
X111893542Y-74010072D01*
X111834527Y-73828444D01*
X111739040Y-73663056D01*
X111690350Y-73608980D01*
X111660120Y-73545988D01*
X111658500Y-73526008D01*
X111658500Y-73335142D01*
X111658499Y-73335141D01*
X111649819Y-73291500D01*
X111649819Y-73291496D01*
X111638685Y-73235528D01*
X111633195Y-73207923D01*
X111583555Y-73088083D01*
X111583553Y-73088080D01*
X111583551Y-73088076D01*
X111511491Y-72980231D01*
X111511488Y-72980227D01*
X110244819Y-71713558D01*
X110211334Y-71652235D01*
X110208500Y-71625877D01*
X110208500Y-65585140D01*
X110183195Y-65457928D01*
X110183194Y-65457927D01*
X110183194Y-65457923D01*
X110133555Y-65338083D01*
X110111027Y-65304368D01*
X110111027Y-65304367D01*
X110061492Y-65230232D01*
X110061486Y-65230225D01*
X101779771Y-56948510D01*
X101671920Y-56876447D01*
X101671919Y-56876446D01*
X101671917Y-56876445D01*
X101671915Y-56876444D01*
X101671913Y-56876443D01*
X101552077Y-56826806D01*
X101552071Y-56826804D01*
X101424859Y-56801500D01*
X101424857Y-56801500D01*
X101099623Y-56801500D01*
X101032584Y-56781815D01*
X100995815Y-56745322D01*
X100915723Y-56622734D01*
X100915715Y-56622723D01*
X100763243Y-56457097D01*
X100763238Y-56457092D01*
X100585577Y-56318812D01*
X100585578Y-56318812D01*
X100585576Y-56318811D01*
X100549070Y-56299055D01*
X100499479Y-56249836D01*
X100484371Y-56181619D01*
X100508541Y-56116064D01*
X100549070Y-56080945D01*
X100549084Y-56080936D01*
X100585576Y-56061189D01*
X100763240Y-55922906D01*
X100915722Y-55757268D01*
X101038860Y-55568791D01*
X101129296Y-55362616D01*
X101184564Y-55144368D01*
X101203156Y-54920000D01*
X101203156Y-54919994D01*
X118796844Y-54919994D01*
X118796844Y-54920005D01*
X118815434Y-55144359D01*
X118815436Y-55144371D01*
X118870703Y-55362614D01*
X118961140Y-55568792D01*
X119084276Y-55757265D01*
X119084284Y-55757276D01*
X119236756Y-55922902D01*
X119236760Y-55922906D01*
X119414424Y-56061189D01*
X119414429Y-56061191D01*
X119414431Y-56061193D01*
X119450930Y-56080946D01*
X119500520Y-56130165D01*
X119515628Y-56198382D01*
X119491457Y-56263937D01*
X119450930Y-56299054D01*
X119414431Y-56318806D01*
X119414422Y-56318812D01*
X119236761Y-56457092D01*
X119236756Y-56457097D01*
X119084284Y-56622723D01*
X119084276Y-56622734D01*
X118961140Y-56811207D01*
X118870703Y-57017385D01*
X118815436Y-57235628D01*
X118815434Y-57235640D01*
X118796844Y-57459994D01*
X118796844Y-57460005D01*
X118815434Y-57684359D01*
X118815436Y-57684371D01*
X118870703Y-57902614D01*
X118961140Y-58108792D01*
X119084276Y-58297265D01*
X119084284Y-58297276D01*
X119236756Y-58462902D01*
X119236760Y-58462906D01*
X119414424Y-58601189D01*
X119414429Y-58601191D01*
X119414431Y-58601193D01*
X119450930Y-58620946D01*
X119500520Y-58670165D01*
X119515628Y-58738382D01*
X119491457Y-58803937D01*
X119450930Y-58839054D01*
X119414431Y-58858806D01*
X119414422Y-58858812D01*
X119236761Y-58997092D01*
X119236756Y-58997097D01*
X119084284Y-59162723D01*
X119084276Y-59162734D01*
X118961140Y-59351207D01*
X118870703Y-59557385D01*
X118815436Y-59775628D01*
X118815434Y-59775640D01*
X118796844Y-59999994D01*
X118796844Y-60000005D01*
X118815434Y-60224359D01*
X118815436Y-60224371D01*
X118870703Y-60442614D01*
X118961140Y-60648792D01*
X119084276Y-60837265D01*
X119084284Y-60837276D01*
X119236756Y-61002902D01*
X119236760Y-61002906D01*
X119414424Y-61141189D01*
X119414429Y-61141191D01*
X119414431Y-61141193D01*
X119450930Y-61160946D01*
X119500520Y-61210165D01*
X119515628Y-61278382D01*
X119491457Y-61343937D01*
X119450930Y-61379054D01*
X119414431Y-61398806D01*
X119414422Y-61398812D01*
X119236761Y-61537092D01*
X119236756Y-61537097D01*
X119084284Y-61702723D01*
X119084276Y-61702734D01*
X118961140Y-61891207D01*
X118870703Y-62097385D01*
X118815436Y-62315628D01*
X118815434Y-62315640D01*
X118796844Y-62539994D01*
X118796844Y-62540005D01*
X118815434Y-62764359D01*
X118815436Y-62764371D01*
X118870703Y-62982614D01*
X118961140Y-63188792D01*
X119084276Y-63377265D01*
X119084284Y-63377276D01*
X119236756Y-63542902D01*
X119236760Y-63542906D01*
X119414424Y-63681189D01*
X119414429Y-63681191D01*
X119414431Y-63681193D01*
X119450930Y-63700946D01*
X119500520Y-63750165D01*
X119515628Y-63818382D01*
X119491457Y-63883937D01*
X119450930Y-63919054D01*
X119414431Y-63938806D01*
X119414422Y-63938812D01*
X119236761Y-64077092D01*
X119236756Y-64077097D01*
X119084284Y-64242723D01*
X119084276Y-64242734D01*
X118961140Y-64431207D01*
X118870703Y-64637385D01*
X118815436Y-64855628D01*
X118815434Y-64855640D01*
X118796844Y-65079994D01*
X118796844Y-65080005D01*
X118815434Y-65304359D01*
X118815436Y-65304367D01*
X118870703Y-65522614D01*
X118961140Y-65728792D01*
X119084276Y-65917265D01*
X119084284Y-65917276D01*
X119200527Y-66043547D01*
X119236760Y-66082906D01*
X119414424Y-66221189D01*
X119414429Y-66221191D01*
X119414431Y-66221193D01*
X119450930Y-66240946D01*
X119500520Y-66290165D01*
X119515628Y-66358382D01*
X119491457Y-66423937D01*
X119450930Y-66459054D01*
X119414431Y-66478806D01*
X119414422Y-66478812D01*
X119236761Y-66617092D01*
X119236756Y-66617097D01*
X119084284Y-66782723D01*
X119084276Y-66782734D01*
X118961140Y-66971207D01*
X118870703Y-67177385D01*
X118815436Y-67395628D01*
X118815434Y-67395640D01*
X118796844Y-67619994D01*
X118796844Y-67620005D01*
X118815434Y-67844359D01*
X118815436Y-67844371D01*
X118870703Y-68062614D01*
X118961140Y-68268792D01*
X119084276Y-68457265D01*
X119084284Y-68457276D01*
X119236756Y-68622902D01*
X119236760Y-68622906D01*
X119414424Y-68761189D01*
X119414425Y-68761189D01*
X119414427Y-68761191D01*
X119541135Y-68829761D01*
X119612426Y-68868342D01*
X119825365Y-68941444D01*
X120047431Y-68978500D01*
X120272569Y-68978500D01*
X120494635Y-68941444D01*
X120707574Y-68868342D01*
X120905576Y-68761189D01*
X121083240Y-68622906D01*
X121235722Y-68457268D01*
X121358860Y-68268791D01*
X121449296Y-68062616D01*
X121504564Y-67844368D01*
X121523156Y-67620000D01*
X121504564Y-67395632D01*
X121449296Y-67177384D01*
X121358860Y-66971209D01*
X121235722Y-66782732D01*
X121235719Y-66782729D01*
X121235715Y-66782723D01*
X121083243Y-66617097D01*
X121083238Y-66617092D01*
X120905577Y-66478812D01*
X120905578Y-66478812D01*
X120905576Y-66478811D01*
X120869070Y-66459055D01*
X120819479Y-66409836D01*
X120804371Y-66341619D01*
X120828541Y-66276064D01*
X120869070Y-66240945D01*
X120869084Y-66240936D01*
X120905576Y-66221189D01*
X121083240Y-66082906D01*
X121235722Y-65917268D01*
X121358860Y-65728791D01*
X121449296Y-65522616D01*
X121504564Y-65304368D01*
X121504565Y-65304359D01*
X121523156Y-65080005D01*
X121523156Y-65079994D01*
X121504565Y-64855640D01*
X121504563Y-64855628D01*
X121449296Y-64637385D01*
X121358859Y-64431207D01*
X121235723Y-64242734D01*
X121235715Y-64242723D01*
X121083243Y-64077097D01*
X121083238Y-64077092D01*
X120905577Y-63938812D01*
X120905578Y-63938812D01*
X120905576Y-63938811D01*
X120869070Y-63919055D01*
X120819479Y-63869836D01*
X120804371Y-63801619D01*
X120828541Y-63736064D01*
X120869070Y-63700945D01*
X120869084Y-63700936D01*
X120905576Y-63681189D01*
X121083240Y-63542906D01*
X121235722Y-63377268D01*
X121358860Y-63188791D01*
X121449296Y-62982616D01*
X121504564Y-62764368D01*
X121523156Y-62540000D01*
X121504564Y-62315632D01*
X121449296Y-62097384D01*
X121358860Y-61891209D01*
X121235722Y-61702732D01*
X121235719Y-61702729D01*
X121235715Y-61702723D01*
X121083243Y-61537097D01*
X121083238Y-61537092D01*
X120905577Y-61398812D01*
X120905578Y-61398812D01*
X120905576Y-61398811D01*
X120869070Y-61379055D01*
X120819479Y-61329836D01*
X120804371Y-61261619D01*
X120828541Y-61196064D01*
X120869070Y-61160945D01*
X120869084Y-61160936D01*
X120905576Y-61141189D01*
X121083240Y-61002906D01*
X121235722Y-60837268D01*
X121358860Y-60648791D01*
X121449296Y-60442616D01*
X121504564Y-60224368D01*
X121523156Y-60000000D01*
X121504564Y-59775632D01*
X121449296Y-59557384D01*
X121358860Y-59351209D01*
X121352310Y-59341184D01*
X121235723Y-59162734D01*
X121235715Y-59162723D01*
X121083243Y-58997097D01*
X121083238Y-58997092D01*
X120905577Y-58858812D01*
X120905578Y-58858812D01*
X120905576Y-58858811D01*
X120869070Y-58839055D01*
X120819479Y-58789836D01*
X120804371Y-58721619D01*
X120828541Y-58656064D01*
X120869070Y-58620945D01*
X120869084Y-58620936D01*
X120905576Y-58601189D01*
X121083240Y-58462906D01*
X121235722Y-58297268D01*
X121358860Y-58108791D01*
X121449296Y-57902616D01*
X121504564Y-57684368D01*
X121523156Y-57460000D01*
X121504564Y-57235632D01*
X121449296Y-57017384D01*
X121358860Y-56811209D01*
X121235722Y-56622732D01*
X121235719Y-56622729D01*
X121235715Y-56622723D01*
X121083243Y-56457097D01*
X121083238Y-56457092D01*
X120905577Y-56318812D01*
X120905578Y-56318812D01*
X120905576Y-56318811D01*
X120869070Y-56299055D01*
X120819479Y-56249836D01*
X120804371Y-56181619D01*
X120828541Y-56116064D01*
X120869070Y-56080945D01*
X120869084Y-56080936D01*
X120905576Y-56061189D01*
X121083240Y-55922906D01*
X121235722Y-55757268D01*
X121358860Y-55568791D01*
X121449296Y-55362616D01*
X121504564Y-55144368D01*
X121523156Y-54920000D01*
X121504564Y-54695632D01*
X121449296Y-54477384D01*
X121358860Y-54271209D01*
X121235722Y-54082732D01*
X121235719Y-54082729D01*
X121235715Y-54082723D01*
X121083243Y-53917097D01*
X121083238Y-53917092D01*
X120905577Y-53778812D01*
X120905577Y-53778811D01*
X120862303Y-53755393D01*
X120812713Y-53706173D01*
X120797605Y-53637957D01*
X120821775Y-53572401D01*
X120850198Y-53544763D01*
X121031079Y-53418108D01*
X121198105Y-53251082D01*
X121333600Y-53057578D01*
X121433429Y-52843492D01*
X121433432Y-52843486D01*
X121490636Y-52630000D01*
X120593012Y-52630000D01*
X120625925Y-52572993D01*
X120660000Y-52445826D01*
X120660000Y-52314174D01*
X120625925Y-52187007D01*
X120593012Y-52130000D01*
X121490636Y-52130000D01*
X121490635Y-52129999D01*
X121433432Y-51916513D01*
X121433429Y-51916507D01*
X121333600Y-51702422D01*
X121333599Y-51702420D01*
X121198113Y-51508926D01*
X121198108Y-51508920D01*
X121031082Y-51341894D01*
X120837578Y-51206399D01*
X120623492Y-51106570D01*
X120623486Y-51106567D01*
X120410000Y-51049364D01*
X120410000Y-51946988D01*
X120352993Y-51914075D01*
X120225826Y-51880000D01*
X120094174Y-51880000D01*
X119967007Y-51914075D01*
X119910000Y-51946988D01*
X119910000Y-51049364D01*
X119909999Y-51049364D01*
X119696513Y-51106567D01*
X119696507Y-51106570D01*
X119482422Y-51206399D01*
X119482420Y-51206400D01*
X119288926Y-51341886D01*
X119288920Y-51341891D01*
X119121891Y-51508920D01*
X119121886Y-51508926D01*
X118986400Y-51702420D01*
X118986399Y-51702422D01*
X118886570Y-51916507D01*
X118886567Y-51916513D01*
X118829364Y-52129999D01*
X118829364Y-52130000D01*
X119726988Y-52130000D01*
X119694075Y-52187007D01*
X119660000Y-52314174D01*
X119660000Y-52445826D01*
X119694075Y-52572993D01*
X119726988Y-52630000D01*
X118829364Y-52630000D01*
X118886567Y-52843486D01*
X118886570Y-52843492D01*
X118986399Y-53057578D01*
X119121894Y-53251082D01*
X119288917Y-53418105D01*
X119469802Y-53544763D01*
X119513427Y-53599340D01*
X119520619Y-53668839D01*
X119489097Y-53731193D01*
X119457697Y-53755392D01*
X119414427Y-53778809D01*
X119414422Y-53778812D01*
X119236761Y-53917092D01*
X119236756Y-53917097D01*
X119084284Y-54082723D01*
X119084276Y-54082734D01*
X118961140Y-54271207D01*
X118870703Y-54477385D01*
X118815436Y-54695628D01*
X118815434Y-54695640D01*
X118796844Y-54919994D01*
X101203156Y-54919994D01*
X101184564Y-54695632D01*
X101129296Y-54477384D01*
X101038860Y-54271209D01*
X100915722Y-54082732D01*
X100915719Y-54082729D01*
X100915715Y-54082723D01*
X100763243Y-53917097D01*
X100763238Y-53917092D01*
X100585577Y-53778812D01*
X100585577Y-53778811D01*
X100542303Y-53755393D01*
X100492713Y-53706173D01*
X100477605Y-53637957D01*
X100501775Y-53572401D01*
X100530198Y-53544763D01*
X100711079Y-53418108D01*
X100878105Y-53251082D01*
X101013600Y-53057578D01*
X101113429Y-52843492D01*
X101113432Y-52843486D01*
X101170636Y-52630000D01*
X100273012Y-52630000D01*
X100305925Y-52572993D01*
X100340000Y-52445826D01*
X100340000Y-52314174D01*
X100305925Y-52187007D01*
X100273012Y-52130000D01*
X101170636Y-52130000D01*
X101170635Y-52129999D01*
X101113432Y-51916513D01*
X101113429Y-51916507D01*
X101013600Y-51702422D01*
X101013599Y-51702420D01*
X100878113Y-51508926D01*
X100878108Y-51508920D01*
X100711082Y-51341894D01*
X100517578Y-51206399D01*
X100303492Y-51106570D01*
X100303486Y-51106567D01*
X100090000Y-51049364D01*
X100090000Y-51946988D01*
X100032993Y-51914075D01*
X99905826Y-51880000D01*
X99774174Y-51880000D01*
X99647007Y-51914075D01*
X99590000Y-51946988D01*
X99590000Y-51049364D01*
X99589999Y-51049364D01*
X99376513Y-51106567D01*
X99376507Y-51106570D01*
X99162422Y-51206399D01*
X99162420Y-51206400D01*
X98968926Y-51341886D01*
X98968920Y-51341891D01*
X98801891Y-51508920D01*
X98801886Y-51508926D01*
X98666400Y-51702420D01*
X98666399Y-51702422D01*
X98566570Y-51916507D01*
X98566567Y-51916513D01*
X98509364Y-52129999D01*
X98509364Y-52130000D01*
X99406988Y-52130000D01*
X99374075Y-52187007D01*
X99340000Y-52314174D01*
X99340000Y-52445826D01*
X99374075Y-52572993D01*
X99406988Y-52630000D01*
X98509364Y-52630000D01*
X98566567Y-52843486D01*
X98566570Y-52843492D01*
X98666399Y-53057578D01*
X98801894Y-53251082D01*
X98968917Y-53418105D01*
X99149802Y-53544763D01*
X99193427Y-53599340D01*
X99200619Y-53668839D01*
X99169097Y-53731193D01*
X99137697Y-53755392D01*
X99094427Y-53778809D01*
X99094422Y-53778812D01*
X98916761Y-53917092D01*
X98916756Y-53917097D01*
X98764284Y-54082723D01*
X98764276Y-54082734D01*
X98641140Y-54271207D01*
X98550703Y-54477385D01*
X98495436Y-54695628D01*
X98495434Y-54695640D01*
X98476844Y-54919994D01*
X98476844Y-54920005D01*
X98495434Y-55144359D01*
X98495436Y-55144371D01*
X98550703Y-55362614D01*
X98641140Y-55568792D01*
X98764276Y-55757265D01*
X98764284Y-55757276D01*
X98916756Y-55922902D01*
X98916760Y-55922906D01*
X99094424Y-56061189D01*
X99094429Y-56061191D01*
X99094431Y-56061193D01*
X99130930Y-56080946D01*
X99180520Y-56130165D01*
X99195628Y-56198382D01*
X99171457Y-56263937D01*
X99130930Y-56299054D01*
X99094431Y-56318806D01*
X99094422Y-56318812D01*
X98916761Y-56457092D01*
X98916756Y-56457097D01*
X98764284Y-56622723D01*
X98764276Y-56622734D01*
X98641140Y-56811207D01*
X98550703Y-57017385D01*
X98495436Y-57235628D01*
X98495434Y-57235640D01*
X98476844Y-57459994D01*
X98476844Y-57460005D01*
X98495434Y-57684359D01*
X98495436Y-57684371D01*
X98550703Y-57902614D01*
X98641140Y-58108792D01*
X98764276Y-58297265D01*
X98764284Y-58297276D01*
X98916756Y-58462902D01*
X98916760Y-58462906D01*
X99094424Y-58601189D01*
X99094429Y-58601191D01*
X99094431Y-58601193D01*
X99130930Y-58620946D01*
X99180520Y-58670165D01*
X99195628Y-58738382D01*
X99171457Y-58803937D01*
X99130930Y-58839054D01*
X99094431Y-58858806D01*
X99094422Y-58858812D01*
X98916761Y-58997092D01*
X98916756Y-58997097D01*
X98764284Y-59162723D01*
X98764276Y-59162734D01*
X98641140Y-59351207D01*
X98550703Y-59557385D01*
X98495436Y-59775628D01*
X98495434Y-59775640D01*
X98476844Y-59999994D01*
X98476844Y-60000005D01*
X98495434Y-60224359D01*
X98495436Y-60224371D01*
X98550703Y-60442614D01*
X98641140Y-60648792D01*
X98764276Y-60837265D01*
X98764284Y-60837276D01*
X98916756Y-61002902D01*
X98916760Y-61002906D01*
X99094424Y-61141189D01*
X99094429Y-61141191D01*
X99094431Y-61141193D01*
X99130930Y-61160946D01*
X99180520Y-61210165D01*
X99195628Y-61278382D01*
X99171457Y-61343937D01*
X99130930Y-61379054D01*
X99094431Y-61398806D01*
X99094422Y-61398812D01*
X98916761Y-61537092D01*
X98916756Y-61537097D01*
X98764284Y-61702723D01*
X98764276Y-61702734D01*
X98641140Y-61891207D01*
X98550703Y-62097385D01*
X98495436Y-62315628D01*
X98495434Y-62315640D01*
X98476844Y-62539994D01*
X98476844Y-62540005D01*
X98495434Y-62764359D01*
X98495436Y-62764371D01*
X98550703Y-62982614D01*
X98641140Y-63188792D01*
X98764276Y-63377265D01*
X98764284Y-63377276D01*
X98916756Y-63542902D01*
X98916760Y-63542906D01*
X99094424Y-63681189D01*
X99094429Y-63681191D01*
X99094431Y-63681193D01*
X99130930Y-63700946D01*
X99180520Y-63750165D01*
X99195628Y-63818382D01*
X99171457Y-63883937D01*
X99130930Y-63919054D01*
X99094431Y-63938806D01*
X99094422Y-63938812D01*
X98916761Y-64077092D01*
X98916756Y-64077097D01*
X98764284Y-64242723D01*
X98764276Y-64242734D01*
X98641140Y-64431207D01*
X98550703Y-64637385D01*
X98495436Y-64855628D01*
X98495434Y-64855640D01*
X98476844Y-65079994D01*
X98476844Y-65080005D01*
X98495434Y-65304359D01*
X98495436Y-65304367D01*
X98550703Y-65522614D01*
X98641140Y-65728792D01*
X98764276Y-65917265D01*
X98764284Y-65917276D01*
X98880527Y-66043547D01*
X98916760Y-66082906D01*
X99094424Y-66221189D01*
X99094429Y-66221191D01*
X99094431Y-66221193D01*
X99130930Y-66240946D01*
X99180520Y-66290165D01*
X99195628Y-66358382D01*
X99171457Y-66423937D01*
X99130930Y-66459054D01*
X99094431Y-66478806D01*
X99094422Y-66478812D01*
X98916761Y-66617092D01*
X98916756Y-66617097D01*
X98764284Y-66782723D01*
X98764276Y-66782734D01*
X98641140Y-66971207D01*
X98550703Y-67177385D01*
X98495436Y-67395628D01*
X98495434Y-67395640D01*
X98476844Y-67619994D01*
X98476844Y-67620005D01*
X98495434Y-67844359D01*
X98495436Y-67844371D01*
X98550703Y-68062614D01*
X98641140Y-68268792D01*
X98764276Y-68457265D01*
X98764284Y-68457276D01*
X98916756Y-68622902D01*
X98916760Y-68622906D01*
X99094424Y-68761189D01*
X99094425Y-68761189D01*
X99094427Y-68761191D01*
X99221135Y-68829761D01*
X99292426Y-68868342D01*
X99505365Y-68941444D01*
X99727431Y-68978500D01*
X99952569Y-68978500D01*
X100174635Y-68941444D01*
X100387574Y-68868342D01*
X100585576Y-68761189D01*
X100763240Y-68622906D01*
X100915722Y-68457268D01*
X101038860Y-68268791D01*
X101129296Y-68062616D01*
X101184564Y-67844368D01*
X101203156Y-67620000D01*
X101184564Y-67395632D01*
X101129296Y-67177384D01*
X101038860Y-66971209D01*
X100915722Y-66782732D01*
X100915719Y-66782729D01*
X100915715Y-66782723D01*
X100763243Y-66617097D01*
X100763238Y-66617092D01*
X100585577Y-66478812D01*
X100585578Y-66478812D01*
X100585576Y-66478811D01*
X100549070Y-66459055D01*
X100499479Y-66409836D01*
X100484371Y-66341619D01*
X100508541Y-66276064D01*
X100549070Y-66240945D01*
X100549084Y-66240936D01*
X100585576Y-66221189D01*
X100763240Y-66082906D01*
X100915722Y-65917268D01*
X101038860Y-65728791D01*
X101129296Y-65522616D01*
X101184564Y-65304368D01*
X101184565Y-65304359D01*
X101203156Y-65080005D01*
X101203156Y-65079994D01*
X101184565Y-64855640D01*
X101184563Y-64855628D01*
X101129296Y-64637385D01*
X101038859Y-64431207D01*
X100915723Y-64242734D01*
X100915715Y-64242723D01*
X100763243Y-64077097D01*
X100763238Y-64077092D01*
X100585577Y-63938812D01*
X100585578Y-63938812D01*
X100585576Y-63938811D01*
X100549070Y-63919055D01*
X100499479Y-63869836D01*
X100484371Y-63801619D01*
X100508541Y-63736064D01*
X100549070Y-63700945D01*
X100549084Y-63700936D01*
X100585576Y-63681189D01*
X100763240Y-63542906D01*
X100915722Y-63377268D01*
X101038860Y-63188791D01*
X101129296Y-62982616D01*
X101184564Y-62764368D01*
X101203156Y-62540000D01*
X101184564Y-62315632D01*
X101129296Y-62097384D01*
X101038860Y-61891209D01*
X100915722Y-61702732D01*
X100915719Y-61702729D01*
X100915715Y-61702723D01*
X100763243Y-61537097D01*
X100763238Y-61537092D01*
X100585577Y-61398812D01*
X100585578Y-61398812D01*
X100585576Y-61398811D01*
X100549070Y-61379055D01*
X100499479Y-61329836D01*
X100484371Y-61261619D01*
X100508541Y-61196064D01*
X100549070Y-61160945D01*
X100549084Y-61160936D01*
X100585576Y-61141189D01*
X100763240Y-61002906D01*
X100915722Y-60837268D01*
X100956390Y-60775020D01*
X100995815Y-60714678D01*
X101048961Y-60669321D01*
X101099623Y-60658500D01*
X102868772Y-60658500D01*
X102935811Y-60678185D01*
X102956453Y-60694819D01*
X108305181Y-66043547D01*
X108338666Y-66104870D01*
X108341500Y-66131228D01*
X108341500Y-73526008D01*
X108321815Y-73593047D01*
X108309650Y-73608980D01*
X108260959Y-73663057D01*
X108165473Y-73828443D01*
X108165470Y-73828450D01*
X108106459Y-74010068D01*
X108106458Y-74010072D01*
X108086496Y-74200000D01*
X108106458Y-74389928D01*
X108106459Y-74389931D01*
X108165470Y-74571549D01*
X108165473Y-74571556D01*
X108260960Y-74736944D01*
X108287341Y-74766243D01*
X108311458Y-74793028D01*
X108341688Y-74856020D01*
X108333063Y-74925355D01*
X108288321Y-74979020D01*
X108221668Y-74999978D01*
X108219308Y-75000000D01*
X106952445Y-75000000D01*
X106885406Y-74980315D01*
X106839651Y-74927511D01*
X106829707Y-74858353D01*
X106846906Y-74810903D01*
X106934356Y-74669124D01*
X106934358Y-74669119D01*
X106989505Y-74502697D01*
X106989506Y-74502690D01*
X106999999Y-74399986D01*
X107000000Y-74399973D01*
X107000000Y-73000000D01*
X104650001Y-73000000D01*
X104650001Y-74399986D01*
X104660494Y-74502697D01*
X104715641Y-74669119D01*
X104715643Y-74669124D01*
X104803094Y-74810903D01*
X104821534Y-74878295D01*
X104800612Y-74944959D01*
X104746970Y-74989729D01*
X104697555Y-75000000D01*
X101302445Y-75000000D01*
X101235406Y-74980315D01*
X101189651Y-74927511D01*
X101179707Y-74858353D01*
X101196906Y-74810903D01*
X101284356Y-74669124D01*
X101284358Y-74669119D01*
X101339505Y-74502697D01*
X101339506Y-74502690D01*
X101349999Y-74399986D01*
X101350000Y-74399973D01*
X101350000Y-73000000D01*
X99000001Y-73000000D01*
X99000001Y-74399986D01*
X99010494Y-74502697D01*
X99065641Y-74669119D01*
X99065643Y-74669124D01*
X99142115Y-74793104D01*
X99160555Y-74860497D01*
X99139632Y-74927160D01*
X99085990Y-74971930D01*
X99016660Y-74980591D01*
X99012385Y-74979818D01*
X98920993Y-74961639D01*
X98897731Y-74954583D01*
X98738745Y-74888728D01*
X98717307Y-74877269D01*
X98574224Y-74781664D01*
X98555434Y-74766243D01*
X98433756Y-74644565D01*
X98418335Y-74625775D01*
X98336097Y-74502697D01*
X98322728Y-74482689D01*
X98311271Y-74461254D01*
X98245413Y-74302261D01*
X98238362Y-74279013D01*
X98204490Y-74108728D01*
X98202145Y-74087583D01*
X98200037Y-74001509D01*
X98200000Y-73998473D01*
X98200000Y-71100013D01*
X99000000Y-71100013D01*
X99000000Y-72500000D01*
X99925000Y-72500000D01*
X100425000Y-72500000D01*
X101349999Y-72500000D01*
X101349999Y-71100028D01*
X101349998Y-71100013D01*
X104650000Y-71100013D01*
X104650000Y-72500000D01*
X105575000Y-72500000D01*
X106075000Y-72500000D01*
X106999999Y-72500000D01*
X106999999Y-71100028D01*
X106999998Y-71100013D01*
X106989505Y-70997302D01*
X106934358Y-70830880D01*
X106934356Y-70830875D01*
X106842315Y-70681654D01*
X106718345Y-70557684D01*
X106569124Y-70465643D01*
X106569119Y-70465641D01*
X106402697Y-70410494D01*
X106402690Y-70410493D01*
X106299986Y-70400000D01*
X106075000Y-70400000D01*
X106075000Y-72500000D01*
X105575000Y-72500000D01*
X105575000Y-70400000D01*
X105350029Y-70400000D01*
X105350012Y-70400001D01*
X105247302Y-70410494D01*
X105080880Y-70465641D01*
X105080875Y-70465643D01*
X104931654Y-70557684D01*
X104807684Y-70681654D01*
X104715643Y-70830875D01*
X104715641Y-70830880D01*
X104660494Y-70997302D01*
X104660493Y-70997309D01*
X104650000Y-71100013D01*
X101349998Y-71100013D01*
X101339505Y-70997302D01*
X101284358Y-70830880D01*
X101284356Y-70830875D01*
X101192315Y-70681654D01*
X101068345Y-70557684D01*
X100919124Y-70465643D01*
X100919119Y-70465641D01*
X100752697Y-70410494D01*
X100752690Y-70410493D01*
X100649986Y-70400000D01*
X100425000Y-70400000D01*
X100425000Y-72500000D01*
X99925000Y-72500000D01*
X99925000Y-70400000D01*
X99700029Y-70400000D01*
X99700012Y-70400001D01*
X99597302Y-70410494D01*
X99430880Y-70465641D01*
X99430875Y-70465643D01*
X99281654Y-70557684D01*
X99157684Y-70681654D01*
X99065643Y-70830875D01*
X99065641Y-70830880D01*
X99010494Y-70997302D01*
X99010493Y-70997309D01*
X99000000Y-71100013D01*
X98200000Y-71100013D01*
X98200000Y-51601526D01*
X98200037Y-51598490D01*
X98202145Y-51512421D01*
X98202146Y-51512419D01*
X98202145Y-51512415D01*
X98204490Y-51491272D01*
X98238362Y-51320983D01*
X98245412Y-51297741D01*
X98311274Y-51138738D01*
X98322726Y-51117314D01*
X98418338Y-50974219D01*
X98433751Y-50955439D01*
X98555439Y-50833751D01*
X98574219Y-50818338D01*
X98717314Y-50722726D01*
X98738738Y-50711274D01*
X98897741Y-50645412D01*
X98920983Y-50638362D01*
X99091272Y-50604490D01*
X99112415Y-50602145D01*
X99193037Y-50600170D01*
X99198491Y-50600037D01*
X99201527Y-50600000D01*
X120798473Y-50600000D01*
X120801509Y-50600037D01*
G37*
G04 #@! TD.AperFunction*
M02*
