G75*
%MOIN*%
%OFA0B0*%
%FSLAX25Y25*%
%IPPOS*%
%LPD*%
%AMOC8*
5,1,8,0,0,1.08239X$1,22.5*
%
%ADD10C,0.00000*%
%ADD11C,0.04724*%
%ADD12R,0.06299X0.05118*%
D10*
X0001800Y0001800D02*
X0001800Y0094300D01*
X0029300Y0121800D01*
X0069300Y0121800D01*
X0096800Y0094300D01*
X0096800Y0001800D01*
X0001800Y0001800D01*
D11*
X0021741Y0008080D02*
X0021741Y0017528D01*
X0029615Y0017528D02*
X0029615Y0008080D01*
X0037489Y0008080D02*
X0037489Y0017528D01*
X0045363Y0017528D02*
X0045363Y0008080D01*
X0053237Y0008080D02*
X0053237Y0017528D01*
X0061111Y0017528D02*
X0061111Y0008080D01*
X0068985Y0008080D02*
X0068985Y0017528D01*
X0076859Y0017528D02*
X0076859Y0008080D01*
X0076859Y0071072D02*
X0076859Y0080520D01*
X0068985Y0080520D02*
X0068985Y0071072D01*
X0061111Y0071072D02*
X0061111Y0080520D01*
X0053237Y0080520D02*
X0053237Y0071072D01*
X0045363Y0071072D02*
X0045363Y0080520D01*
X0037489Y0080520D02*
X0037489Y0071072D01*
X0029615Y0071072D02*
X0029615Y0080520D01*
X0021741Y0080520D02*
X0021741Y0071072D01*
D12*
X0024300Y0090363D03*
X0024300Y0098237D03*
M02*
