G75*
%MOIN*%
%OFA0B0*%
%FSLAX25Y25*%
%IPPOS*%
%LPD*%
%AMOC8*
5,1,8,0,0,1.08239X$1,22.5*
%
%ADD10C,0.00000*%
%ADD11C,0.06400*%
%ADD12C,0.05124*%
%ADD13C,0.07900*%
%ADD14C,0.10900*%
%ADD15R,0.06699X0.05518*%
D10*
X0001800Y0001800D02*
X0001800Y0094300D01*
X0029300Y0121800D01*
X0069300Y0121800D01*
X0096800Y0094300D01*
X0096800Y0001800D01*
X0001800Y0001800D01*
D11*
X0006300Y0009300D02*
X0012300Y0009300D01*
X0012300Y0019300D02*
X0006300Y0019300D01*
X0006300Y0029300D02*
X0012300Y0029300D01*
X0012300Y0039300D02*
X0006300Y0039300D01*
X0006300Y0049300D02*
X0012300Y0049300D01*
X0012300Y0059300D02*
X0006300Y0059300D01*
X0006300Y0069300D02*
X0012300Y0069300D01*
X0012300Y0079300D02*
X0006300Y0079300D01*
X0086300Y0079300D02*
X0092300Y0079300D01*
X0092300Y0069300D02*
X0086300Y0069300D01*
X0086300Y0059300D02*
X0092300Y0059300D01*
X0092300Y0049300D02*
X0086300Y0049300D01*
X0086300Y0039300D02*
X0092300Y0039300D01*
X0092300Y0029300D02*
X0086300Y0029300D01*
X0086300Y0019300D02*
X0092300Y0019300D01*
D12*
X0076859Y0017528D02*
X0076859Y0008080D01*
X0068985Y0008080D02*
X0068985Y0017528D01*
X0061111Y0017528D02*
X0061111Y0008080D01*
X0053237Y0008080D02*
X0053237Y0017528D01*
X0045363Y0017528D02*
X0045363Y0008080D01*
X0037489Y0008080D02*
X0037489Y0017528D01*
X0029615Y0017528D02*
X0029615Y0008080D01*
X0021741Y0008080D02*
X0021741Y0017528D01*
X0021741Y0071072D02*
X0021741Y0080520D01*
X0029615Y0080520D02*
X0029615Y0071072D01*
X0037489Y0071072D02*
X0037489Y0080520D01*
X0045363Y0080520D02*
X0045363Y0071072D01*
X0053237Y0071072D02*
X0053237Y0080520D01*
X0061111Y0080520D02*
X0061111Y0071072D01*
X0068985Y0071072D02*
X0068985Y0080520D01*
X0076859Y0080520D02*
X0076859Y0071072D01*
D13*
X0049300Y0104300D03*
D14*
X0059339Y0094261D03*
X0059339Y0114339D03*
X0039261Y0114339D03*
X0039261Y0094261D03*
D15*
X0024300Y0090363D03*
X0024300Y0098237D03*
M02*
