G75*
%MOIN*%
%OFA0B0*%
%FSLAX25Y25*%
%IPPOS*%
%LPD*%
%AMOC8*
5,1,8,0,0,1.08239X$1,22.5*
%
%ADD10C,0.00000*%
%ADD11C,0.00600*%
D10*
X0001800Y0001800D02*
X0001800Y0094300D01*
X0029300Y0121800D01*
X0069300Y0121800D01*
X0096800Y0094300D01*
X0096800Y0001800D01*
X0001800Y0001800D01*
D11*
X0017915Y0007667D02*
X0018482Y0007100D01*
X0020183Y0007100D01*
X0020183Y0010503D01*
X0018482Y0010503D01*
X0017915Y0009936D01*
X0017915Y0007667D01*
X0021598Y0007100D02*
X0021598Y0010503D01*
X0023866Y0010503D02*
X0021598Y0007100D01*
X0023866Y0007100D02*
X0023866Y0010503D01*
X0025281Y0009936D02*
X0025848Y0010503D01*
X0026982Y0010503D01*
X0027549Y0009936D01*
X0027549Y0007667D01*
X0026982Y0007100D01*
X0025848Y0007100D01*
X0025281Y0007667D01*
X0025281Y0008801D01*
X0026415Y0008801D01*
X0025848Y0014600D02*
X0026982Y0014600D01*
X0027549Y0015167D01*
X0026982Y0016301D02*
X0025848Y0016301D01*
X0025281Y0015734D01*
X0025281Y0015167D01*
X0025848Y0014600D01*
X0023866Y0014600D02*
X0022165Y0014600D01*
X0021598Y0015167D01*
X0021598Y0017436D01*
X0022165Y0018003D01*
X0023866Y0018003D01*
X0023866Y0014600D01*
X0025281Y0017436D02*
X0025848Y0018003D01*
X0026982Y0018003D01*
X0027549Y0017436D01*
X0027549Y0016869D01*
X0026982Y0016301D01*
X0020183Y0014600D02*
X0020183Y0018003D01*
X0017915Y0014600D01*
X0017915Y0018003D01*
X0017915Y0029600D02*
X0019049Y0030734D01*
X0018482Y0029600D02*
X0019616Y0029600D01*
X0020183Y0030167D01*
X0020183Y0032436D01*
X0019616Y0033003D01*
X0018482Y0033003D01*
X0017915Y0032436D01*
X0017915Y0030167D01*
X0018482Y0029600D01*
X0021598Y0029600D02*
X0022732Y0030734D01*
X0022165Y0030734D02*
X0023866Y0030734D01*
X0023866Y0029600D02*
X0023866Y0033003D01*
X0022165Y0033003D01*
X0021598Y0032436D01*
X0021598Y0031301D01*
X0022165Y0030734D01*
X0025187Y0029600D02*
X0026322Y0029600D01*
X0025755Y0029600D02*
X0025755Y0033003D01*
X0026322Y0033003D02*
X0025187Y0033003D01*
X0027736Y0033003D02*
X0027736Y0029600D01*
X0030005Y0033003D01*
X0030005Y0029600D01*
X0028964Y0037100D02*
X0028964Y0040503D01*
X0027549Y0039936D02*
X0027549Y0039369D01*
X0026982Y0038801D01*
X0025848Y0038801D01*
X0025281Y0038234D01*
X0025281Y0037667D01*
X0025848Y0037100D01*
X0026982Y0037100D01*
X0027549Y0037667D01*
X0028964Y0037100D02*
X0031233Y0040503D01*
X0031233Y0037100D01*
X0027549Y0039936D02*
X0026982Y0040503D01*
X0025848Y0040503D01*
X0025281Y0039936D01*
X0023866Y0040503D02*
X0023866Y0037100D01*
X0021598Y0037100D01*
X0020183Y0037100D02*
X0017915Y0037100D01*
X0020183Y0037100D02*
X0020183Y0040503D01*
X0021598Y0040503D02*
X0023866Y0040503D01*
X0023866Y0038801D02*
X0022732Y0038801D01*
X0022165Y0044600D02*
X0021598Y0045167D01*
X0022165Y0044600D02*
X0023299Y0044600D01*
X0023866Y0045167D01*
X0023866Y0047436D01*
X0023299Y0048003D01*
X0022165Y0048003D01*
X0021598Y0047436D01*
X0020183Y0048003D02*
X0020183Y0044600D01*
X0020183Y0045734D02*
X0017915Y0048003D01*
X0019616Y0046301D02*
X0017915Y0044600D01*
X0025281Y0045167D02*
X0025848Y0044600D01*
X0026982Y0044600D01*
X0027549Y0045167D01*
X0026982Y0046301D02*
X0025848Y0046301D01*
X0025281Y0045734D01*
X0025281Y0045167D01*
X0026982Y0046301D02*
X0027549Y0046869D01*
X0027549Y0047436D01*
X0026982Y0048003D01*
X0025848Y0048003D01*
X0025281Y0047436D01*
X0025755Y0057100D02*
X0024620Y0057100D01*
X0024053Y0057667D01*
X0024053Y0058234D01*
X0024620Y0058801D01*
X0025755Y0058801D01*
X0026322Y0059369D01*
X0026322Y0059936D01*
X0025755Y0060503D01*
X0024620Y0060503D01*
X0024053Y0059936D01*
X0022639Y0060503D02*
X0022639Y0057100D01*
X0020937Y0057100D01*
X0020370Y0057667D01*
X0020370Y0059936D01*
X0020937Y0060503D01*
X0022639Y0060503D01*
X0018955Y0060503D02*
X0017821Y0060503D01*
X0018388Y0060503D02*
X0018388Y0057100D01*
X0018955Y0057100D02*
X0017821Y0057100D01*
X0025755Y0057100D02*
X0026322Y0057667D01*
X0025848Y0069600D02*
X0025281Y0070167D01*
X0025281Y0070734D01*
X0025848Y0071301D01*
X0026982Y0071301D01*
X0027549Y0071869D01*
X0027549Y0072436D01*
X0026982Y0073003D01*
X0025848Y0073003D01*
X0025281Y0072436D01*
X0023866Y0073003D02*
X0022165Y0073003D01*
X0021598Y0072436D01*
X0021598Y0070167D01*
X0022165Y0069600D01*
X0023866Y0069600D01*
X0023866Y0073003D01*
X0025848Y0069600D02*
X0026982Y0069600D01*
X0027549Y0070167D01*
X0026982Y0077100D02*
X0025848Y0077100D01*
X0025281Y0077667D01*
X0025281Y0079936D01*
X0025848Y0080503D01*
X0026982Y0080503D01*
X0027549Y0079936D01*
X0027549Y0077667D01*
X0026982Y0077100D01*
X0028871Y0077100D02*
X0030005Y0077100D01*
X0029438Y0077100D02*
X0029438Y0080503D01*
X0030005Y0080503D02*
X0028871Y0080503D01*
X0031419Y0079936D02*
X0031419Y0078801D01*
X0031987Y0078234D01*
X0033688Y0078234D01*
X0033688Y0077100D02*
X0033688Y0080503D01*
X0031987Y0080503D01*
X0031419Y0079936D01*
X0035103Y0079936D02*
X0035670Y0080503D01*
X0036804Y0080503D01*
X0037371Y0079936D01*
X0037371Y0077667D01*
X0036804Y0077100D01*
X0035670Y0077100D01*
X0035103Y0077667D01*
X0035103Y0078801D01*
X0036237Y0078801D01*
X0023866Y0078801D02*
X0021598Y0078801D01*
X0020183Y0077667D02*
X0019616Y0077100D01*
X0018482Y0077100D01*
X0017915Y0077667D01*
X0017915Y0078234D01*
X0018482Y0078801D01*
X0019049Y0078801D01*
X0018482Y0078801D02*
X0017915Y0079369D01*
X0017915Y0079936D01*
X0018482Y0080503D01*
X0019616Y0080503D01*
X0020183Y0079936D01*
X0019616Y0073003D02*
X0018482Y0073003D01*
X0017915Y0072436D01*
X0017915Y0070167D01*
X0018482Y0069600D01*
X0019616Y0069600D01*
X0020183Y0070167D01*
X0020183Y0072436D01*
X0019616Y0073003D01*
X0060816Y0040503D02*
X0063084Y0040503D01*
X0061950Y0040503D02*
X0061950Y0037100D01*
X0064499Y0037100D02*
X0064499Y0040503D01*
X0066767Y0040503D02*
X0064499Y0037100D01*
X0066767Y0037100D02*
X0066767Y0040503D01*
X0068182Y0039369D02*
X0068182Y0037100D01*
X0068182Y0038801D02*
X0070451Y0038801D01*
X0070451Y0039369D02*
X0069316Y0040503D01*
X0068182Y0039369D01*
X0070451Y0039369D02*
X0070451Y0037100D01*
X0071865Y0038801D02*
X0074134Y0038801D01*
X0075548Y0037100D02*
X0077817Y0040503D01*
X0079231Y0040503D02*
X0081500Y0040503D01*
X0080366Y0040503D02*
X0080366Y0037100D01*
X0077817Y0037100D02*
X0075548Y0040503D01*
X0076115Y0047100D02*
X0075548Y0047667D01*
X0076115Y0047100D02*
X0077250Y0047100D01*
X0077817Y0047667D01*
X0077817Y0049936D01*
X0077250Y0050503D01*
X0076115Y0050503D01*
X0075548Y0049936D01*
X0074134Y0049936D02*
X0074134Y0047667D01*
X0073567Y0047100D01*
X0072432Y0047100D01*
X0071865Y0047667D01*
X0071865Y0049936D02*
X0072432Y0050503D01*
X0073567Y0050503D01*
X0074134Y0049936D01*
X0079231Y0050503D02*
X0079231Y0048234D01*
X0080366Y0047100D01*
X0081500Y0048234D01*
X0081500Y0050503D01*
X0080933Y0057100D02*
X0079799Y0057100D01*
X0079231Y0057667D01*
X0079231Y0058801D01*
X0080366Y0058801D01*
X0081500Y0057667D02*
X0080933Y0057100D01*
X0081500Y0057667D02*
X0081500Y0059936D01*
X0080933Y0060503D01*
X0079799Y0060503D01*
X0079231Y0059936D01*
X0077817Y0060503D02*
X0077817Y0057100D01*
X0077817Y0058234D02*
X0076115Y0058234D01*
X0075548Y0058801D01*
X0075548Y0059936D01*
X0076115Y0060503D01*
X0077817Y0060503D01*
X0074134Y0060503D02*
X0072999Y0060503D01*
X0073567Y0060503D02*
X0073567Y0057100D01*
X0074134Y0057100D02*
X0072999Y0057100D01*
X0071678Y0057667D02*
X0071678Y0059936D01*
X0071111Y0060503D01*
X0069977Y0060503D01*
X0069410Y0059936D01*
X0069410Y0057667D01*
X0069977Y0057100D01*
X0071111Y0057100D01*
X0071678Y0057667D01*
X0067995Y0058801D02*
X0065727Y0058801D01*
X0064312Y0057667D02*
X0062043Y0059936D01*
X0062043Y0057667D01*
X0062611Y0057100D01*
X0063745Y0057100D01*
X0064312Y0057667D01*
X0064312Y0059936D01*
X0063745Y0060503D01*
X0062611Y0060503D01*
X0062043Y0059936D01*
X0062043Y0067100D02*
X0064312Y0067100D01*
X0063178Y0067100D02*
X0063178Y0070503D01*
X0064312Y0069369D01*
X0065727Y0068801D02*
X0067995Y0068801D01*
X0069410Y0067667D02*
X0069410Y0069936D01*
X0069977Y0070503D01*
X0071111Y0070503D01*
X0071678Y0069936D01*
X0071678Y0067667D01*
X0071111Y0067100D01*
X0069977Y0067100D01*
X0069410Y0067667D01*
X0072999Y0067100D02*
X0074134Y0067100D01*
X0073567Y0067100D02*
X0073567Y0070503D01*
X0074134Y0070503D02*
X0072999Y0070503D01*
X0075548Y0069936D02*
X0075548Y0068801D01*
X0076115Y0068234D01*
X0077817Y0068234D01*
X0077817Y0067100D02*
X0077817Y0070503D01*
X0076115Y0070503D01*
X0075548Y0069936D01*
X0079231Y0069936D02*
X0079799Y0070503D01*
X0080933Y0070503D01*
X0081500Y0069936D01*
X0081500Y0067667D01*
X0080933Y0067100D01*
X0079799Y0067100D01*
X0079231Y0067667D01*
X0079231Y0068801D01*
X0080366Y0068801D01*
X0080933Y0077100D02*
X0079799Y0077100D01*
X0079231Y0077667D01*
X0079231Y0078801D01*
X0080366Y0078801D01*
X0081500Y0077667D02*
X0080933Y0077100D01*
X0081500Y0077667D02*
X0081500Y0079936D01*
X0080933Y0080503D01*
X0079799Y0080503D01*
X0079231Y0079936D01*
X0077817Y0080503D02*
X0077817Y0077100D01*
X0077817Y0078234D02*
X0076115Y0078234D01*
X0075548Y0078801D01*
X0075548Y0079936D01*
X0076115Y0080503D01*
X0077817Y0080503D01*
X0074134Y0080503D02*
X0072999Y0080503D01*
X0073567Y0080503D02*
X0073567Y0077100D01*
X0074134Y0077100D02*
X0072999Y0077100D01*
X0071678Y0077667D02*
X0071678Y0079936D01*
X0071111Y0080503D01*
X0069977Y0080503D01*
X0069410Y0079936D01*
X0069410Y0077667D01*
X0069977Y0077100D01*
X0071111Y0077100D01*
X0071678Y0077667D01*
X0067995Y0078801D02*
X0065727Y0078801D01*
X0064312Y0079936D02*
X0063745Y0080503D01*
X0062611Y0080503D01*
X0062043Y0079936D01*
X0062043Y0079369D01*
X0064312Y0077100D01*
X0062043Y0077100D01*
X0061950Y0030503D02*
X0061950Y0027100D01*
X0064499Y0027100D02*
X0064499Y0030503D01*
X0063084Y0030503D02*
X0060816Y0030503D01*
X0064499Y0027100D02*
X0066767Y0030503D01*
X0066767Y0027100D01*
X0068182Y0027100D02*
X0068182Y0029369D01*
X0069316Y0030503D01*
X0070451Y0029369D01*
X0070451Y0027100D01*
X0070451Y0028801D02*
X0068182Y0028801D01*
X0071865Y0028801D02*
X0074134Y0028801D01*
X0075548Y0030503D02*
X0077817Y0027100D01*
X0079231Y0027100D02*
X0080366Y0028234D01*
X0079799Y0028234D02*
X0079231Y0028801D01*
X0079231Y0029936D01*
X0079799Y0030503D01*
X0081500Y0030503D01*
X0081500Y0027100D01*
X0081500Y0028234D02*
X0079799Y0028234D01*
X0077817Y0030503D02*
X0075548Y0027100D01*
X0075548Y0020503D02*
X0075548Y0017100D01*
X0077817Y0020503D01*
X0077817Y0017100D01*
X0079231Y0017667D02*
X0079231Y0018801D01*
X0080366Y0018801D01*
X0081500Y0017667D02*
X0080933Y0017100D01*
X0079799Y0017100D01*
X0079231Y0017667D01*
X0079231Y0019936D02*
X0079799Y0020503D01*
X0080933Y0020503D01*
X0081500Y0019936D01*
X0081500Y0017667D01*
X0080933Y0014003D02*
X0079799Y0014003D01*
X0079231Y0013436D01*
X0079231Y0011167D02*
X0079799Y0010600D01*
X0080933Y0010600D01*
X0081500Y0011167D01*
X0081500Y0013436D01*
X0080933Y0014003D01*
X0077817Y0013436D02*
X0077817Y0011167D01*
X0077250Y0010600D01*
X0076115Y0010600D01*
X0075548Y0011167D01*
X0074134Y0012301D02*
X0071865Y0012301D01*
X0070451Y0012301D02*
X0068749Y0012301D01*
X0068182Y0011734D01*
X0068182Y0011167D01*
X0068749Y0010600D01*
X0070451Y0010600D01*
X0070451Y0014003D01*
X0068749Y0014003D01*
X0068182Y0013436D01*
X0068182Y0012869D01*
X0068749Y0012301D01*
X0066767Y0013436D02*
X0066767Y0014003D01*
X0066767Y0013436D02*
X0065633Y0012301D01*
X0065633Y0010600D01*
X0065633Y0012301D02*
X0064499Y0013436D01*
X0064499Y0014003D01*
X0063084Y0012301D02*
X0060816Y0012301D01*
X0059401Y0012869D02*
X0058834Y0012301D01*
X0057700Y0012301D01*
X0057133Y0011734D01*
X0057133Y0011167D01*
X0057700Y0010600D01*
X0058834Y0010600D01*
X0059401Y0011167D01*
X0059401Y0012869D02*
X0059401Y0013436D01*
X0058834Y0014003D01*
X0057700Y0014003D01*
X0057133Y0013436D01*
X0055718Y0012869D02*
X0054584Y0014003D01*
X0053449Y0012869D01*
X0053449Y0010600D01*
X0053449Y0012301D02*
X0055718Y0012301D01*
X0055718Y0012869D02*
X0055718Y0010600D01*
X0057086Y0008003D02*
X0056519Y0007436D01*
X0056519Y0006869D01*
X0057086Y0006301D01*
X0058787Y0006301D01*
X0058787Y0004600D02*
X0058787Y0008003D01*
X0057086Y0008003D01*
X0057086Y0006301D02*
X0056519Y0005734D01*
X0056519Y0005167D01*
X0057086Y0004600D01*
X0058787Y0004600D01*
X0055104Y0004600D02*
X0055104Y0006869D01*
X0053970Y0008003D01*
X0052836Y0006869D01*
X0052836Y0004600D01*
X0051421Y0004600D02*
X0049720Y0004600D01*
X0049152Y0005167D01*
X0049152Y0007436D01*
X0049720Y0008003D01*
X0051421Y0008003D01*
X0051421Y0004600D01*
X0052836Y0006301D02*
X0055104Y0006301D01*
X0048352Y0012301D02*
X0046083Y0012301D01*
X0046650Y0010600D02*
X0046650Y0014003D01*
X0048352Y0012301D01*
X0047738Y0008003D02*
X0045469Y0008003D01*
X0046604Y0006301D02*
X0047738Y0006301D01*
X0047738Y0004600D02*
X0047738Y0008003D01*
X0047738Y0004600D02*
X0045469Y0004600D01*
X0044055Y0004600D02*
X0044055Y0008003D01*
X0042353Y0008003D01*
X0041786Y0007436D01*
X0041786Y0006301D01*
X0042353Y0005734D01*
X0044055Y0005734D01*
X0042920Y0005734D02*
X0041786Y0004600D01*
X0042260Y0010600D02*
X0041126Y0010600D01*
X0040558Y0011167D01*
X0040558Y0013436D01*
X0042827Y0011167D01*
X0042260Y0010600D01*
X0042827Y0011167D02*
X0042827Y0013436D01*
X0042260Y0014003D01*
X0041126Y0014003D01*
X0040558Y0013436D01*
X0044101Y0011167D02*
X0044101Y0010600D01*
X0044669Y0010600D01*
X0044669Y0011167D01*
X0044101Y0011167D01*
X0063745Y0005167D02*
X0063745Y0004600D01*
X0064312Y0004600D01*
X0064312Y0005167D01*
X0063745Y0005167D01*
X0065727Y0005167D02*
X0066294Y0004600D01*
X0067428Y0004600D01*
X0067995Y0005167D01*
X0067995Y0007436D01*
X0067428Y0008003D01*
X0066294Y0008003D01*
X0065727Y0007436D01*
X0072432Y0017100D02*
X0071865Y0017667D01*
X0071865Y0019936D01*
X0072432Y0020503D01*
X0074134Y0020503D01*
X0074134Y0017100D01*
X0072432Y0017100D01*
X0075548Y0013436D02*
X0076115Y0014003D01*
X0077250Y0014003D01*
X0077817Y0013436D01*
X0076683Y0008003D02*
X0075548Y0006869D01*
X0075548Y0004600D01*
X0074134Y0004600D02*
X0072999Y0004600D01*
X0073567Y0004600D02*
X0073567Y0008003D01*
X0074134Y0008003D02*
X0072999Y0008003D01*
X0075548Y0006301D02*
X0077817Y0006301D01*
X0077817Y0006869D02*
X0076683Y0008003D01*
X0077817Y0006869D02*
X0077817Y0004600D01*
X0079231Y0004600D02*
X0080933Y0006301D01*
X0081500Y0005734D02*
X0079231Y0008003D01*
X0081500Y0008003D02*
X0081500Y0004600D01*
M02*
