G75*
%MOIN*%
%OFA0B0*%
%FSLAX25Y25*%
%IPPOS*%
%LPD*%
%AMOC8*
5,1,8,0,0,1.08239X$1,22.5*
%
%ADD10C,0.00000*%
%ADD11C,0.06000*%
%ADD12C,0.07500*%
%ADD13C,0.10500*%
%ADD14C,0.01600*%
%ADD15C,0.03562*%
%ADD16C,0.01200*%
%ADD17C,0.02400*%
D10*
X0001800Y0001800D02*
X0001800Y0094300D01*
X0029300Y0121800D01*
X0069300Y0121800D01*
X0096800Y0094300D01*
X0096800Y0001800D01*
X0001800Y0001800D01*
D11*
X0006300Y0009300D02*
X0012300Y0009300D01*
X0012300Y0019300D02*
X0006300Y0019300D01*
X0006300Y0029300D02*
X0012300Y0029300D01*
X0012300Y0039300D02*
X0006300Y0039300D01*
X0006300Y0049300D02*
X0012300Y0049300D01*
X0012300Y0059300D02*
X0006300Y0059300D01*
X0006300Y0069300D02*
X0012300Y0069300D01*
X0012300Y0079300D02*
X0006300Y0079300D01*
X0086300Y0079300D02*
X0092300Y0079300D01*
X0092300Y0069300D02*
X0086300Y0069300D01*
X0086300Y0059300D02*
X0092300Y0059300D01*
X0092300Y0049300D02*
X0086300Y0049300D01*
X0086300Y0039300D02*
X0092300Y0039300D01*
X0092300Y0029300D02*
X0086300Y0029300D01*
X0086300Y0019300D02*
X0092300Y0019300D01*
D12*
X0049300Y0104300D03*
D13*
X0059339Y0094261D03*
X0059339Y0114339D03*
X0039261Y0114339D03*
X0039261Y0094261D03*
D14*
X0038461Y0094514D02*
X0004559Y0094514D01*
X0003600Y0093554D02*
X0030046Y0120000D01*
X0035058Y0120000D01*
X0034603Y0119651D01*
X0033949Y0118997D01*
X0033387Y0118264D01*
X0032925Y0117464D01*
X0032571Y0116610D01*
X0032332Y0115717D01*
X0032256Y0115139D01*
X0038461Y0115139D01*
X0038461Y0113539D01*
X0032256Y0113539D01*
X0032332Y0112961D01*
X0032571Y0112068D01*
X0032925Y0111214D01*
X0033387Y0110414D01*
X0033949Y0109681D01*
X0034603Y0109027D01*
X0035336Y0108465D01*
X0036136Y0108002D01*
X0036990Y0107649D01*
X0037883Y0107410D01*
X0038461Y0107333D01*
X0038461Y0113539D01*
X0040061Y0113539D01*
X0040061Y0115139D01*
X0046267Y0115139D01*
X0046190Y0115717D01*
X0045951Y0116610D01*
X0045598Y0117464D01*
X0045135Y0118264D01*
X0044573Y0118997D01*
X0043919Y0119651D01*
X0043464Y0120000D01*
X0055136Y0120000D01*
X0054681Y0119651D01*
X0054027Y0118997D01*
X0053465Y0118264D01*
X0053002Y0117464D01*
X0052649Y0116610D01*
X0052410Y0115717D01*
X0052333Y0115139D01*
X0058539Y0115139D01*
X0058539Y0113539D01*
X0060139Y0113539D01*
X0060139Y0115139D01*
X0066344Y0115139D01*
X0066268Y0115717D01*
X0066029Y0116610D01*
X0065675Y0117464D01*
X0065213Y0118264D01*
X0064651Y0118997D01*
X0063997Y0119651D01*
X0063542Y0120000D01*
X0068554Y0120000D01*
X0095000Y0093554D01*
X0095000Y0082681D01*
X0094736Y0082945D01*
X0093155Y0083600D01*
X0085445Y0083600D01*
X0083864Y0082945D01*
X0082655Y0081736D01*
X0082000Y0080155D01*
X0082000Y0079687D01*
X0078513Y0076200D01*
X0028513Y0076200D01*
X0027400Y0075087D01*
X0022194Y0069881D01*
X0021187Y0069881D01*
X0020055Y0069412D01*
X0019188Y0068545D01*
X0018719Y0067413D01*
X0018719Y0066187D01*
X0019188Y0065055D01*
X0020055Y0064188D01*
X0021187Y0063719D01*
X0022413Y0063719D01*
X0023545Y0064188D01*
X0024412Y0065055D01*
X0024881Y0066187D01*
X0024881Y0067194D01*
X0030087Y0072400D01*
X0080087Y0072400D01*
X0081200Y0073513D01*
X0083603Y0075916D01*
X0083864Y0075655D01*
X0085445Y0075000D01*
X0093155Y0075000D01*
X0094736Y0075655D01*
X0095000Y0075919D01*
X0095000Y0072681D01*
X0094736Y0072945D01*
X0093155Y0073600D01*
X0085445Y0073600D01*
X0083864Y0072945D01*
X0082655Y0071736D01*
X0082433Y0071200D01*
X0033513Y0071200D01*
X0032400Y0070087D01*
X0029694Y0067381D01*
X0028687Y0067381D01*
X0027555Y0066912D01*
X0026688Y0066045D01*
X0026219Y0064913D01*
X0026219Y0063687D01*
X0026688Y0062555D01*
X0027555Y0061688D01*
X0028687Y0061219D01*
X0029913Y0061219D01*
X0031045Y0061688D01*
X0031912Y0062555D01*
X0032381Y0063687D01*
X0032381Y0064694D01*
X0035087Y0067400D01*
X0082433Y0067400D01*
X0082655Y0066864D01*
X0083864Y0065655D01*
X0085445Y0065000D01*
X0093155Y0065000D01*
X0094736Y0065655D01*
X0095000Y0065919D01*
X0095000Y0062681D01*
X0094736Y0062945D01*
X0093155Y0063600D01*
X0085445Y0063600D01*
X0083864Y0062945D01*
X0083603Y0062684D01*
X0082587Y0063700D01*
X0039257Y0063700D01*
X0038545Y0064412D01*
X0037413Y0064881D01*
X0036187Y0064881D01*
X0035055Y0064412D01*
X0034188Y0063545D01*
X0033719Y0062413D01*
X0033719Y0061187D01*
X0034188Y0060055D01*
X0035055Y0059188D01*
X0036187Y0058719D01*
X0037413Y0058719D01*
X0038545Y0059188D01*
X0039257Y0059900D01*
X0081013Y0059900D01*
X0082000Y0058913D01*
X0082000Y0058445D01*
X0082655Y0056864D01*
X0083864Y0055655D01*
X0085445Y0055000D01*
X0093155Y0055000D01*
X0094736Y0055655D01*
X0095000Y0055919D01*
X0095000Y0052681D01*
X0094736Y0052945D01*
X0093155Y0053600D01*
X0085445Y0053600D01*
X0084095Y0053041D01*
X0080716Y0056419D01*
X0079797Y0056800D01*
X0046157Y0056800D01*
X0046045Y0056912D01*
X0044913Y0057381D01*
X0043687Y0057381D01*
X0042555Y0056912D01*
X0041688Y0056045D01*
X0041219Y0054913D01*
X0041219Y0053687D01*
X0041688Y0052555D01*
X0042555Y0051688D01*
X0043687Y0051219D01*
X0044913Y0051219D01*
X0046045Y0051688D01*
X0046157Y0051800D01*
X0078264Y0051800D01*
X0082181Y0047884D01*
X0082269Y0047796D01*
X0082655Y0046864D01*
X0083864Y0045655D01*
X0085445Y0045000D01*
X0093155Y0045000D01*
X0094736Y0045655D01*
X0095000Y0045919D01*
X0095000Y0042681D01*
X0094736Y0042945D01*
X0093155Y0043600D01*
X0085445Y0043600D01*
X0083864Y0042945D01*
X0083603Y0042684D01*
X0077587Y0048700D01*
X0059257Y0048700D01*
X0058545Y0049412D01*
X0057413Y0049881D01*
X0056187Y0049881D01*
X0055055Y0049412D01*
X0054188Y0048545D01*
X0053719Y0047413D01*
X0053719Y0046187D01*
X0054188Y0045055D01*
X0055055Y0044188D01*
X0056187Y0043719D01*
X0057413Y0043719D01*
X0058545Y0044188D01*
X0059257Y0044900D01*
X0076013Y0044900D01*
X0082000Y0038913D01*
X0082000Y0038445D01*
X0082655Y0036864D01*
X0083864Y0035655D01*
X0085445Y0035000D01*
X0093155Y0035000D01*
X0094736Y0035655D01*
X0095000Y0035919D01*
X0095000Y0032681D01*
X0094736Y0032945D01*
X0093155Y0033600D01*
X0085445Y0033600D01*
X0083864Y0032945D01*
X0082655Y0031736D01*
X0082478Y0031309D01*
X0079881Y0033906D01*
X0079881Y0034913D01*
X0079412Y0036045D01*
X0078545Y0036912D01*
X0077413Y0037381D01*
X0076187Y0037381D01*
X0075055Y0036912D01*
X0074188Y0036045D01*
X0073719Y0034913D01*
X0073719Y0033687D01*
X0074188Y0032555D01*
X0075055Y0031688D01*
X0076187Y0031219D01*
X0077194Y0031219D01*
X0079900Y0028513D01*
X0081013Y0027400D01*
X0082433Y0027400D01*
X0082655Y0026864D01*
X0083864Y0025655D01*
X0085445Y0025000D01*
X0093155Y0025000D01*
X0094736Y0025655D01*
X0095000Y0025919D01*
X0095000Y0023271D01*
X0094816Y0023405D01*
X0094143Y0023748D01*
X0093424Y0023982D01*
X0092678Y0024100D01*
X0089500Y0024100D01*
X0089500Y0019500D01*
X0089100Y0019500D01*
X0089100Y0024100D01*
X0085922Y0024100D01*
X0085176Y0023982D01*
X0084457Y0023748D01*
X0083784Y0023405D01*
X0083173Y0022961D01*
X0082639Y0022427D01*
X0082195Y0021816D01*
X0081852Y0021143D01*
X0081618Y0020424D01*
X0081500Y0019678D01*
X0081500Y0019500D01*
X0089100Y0019500D01*
X0089100Y0019100D01*
X0089500Y0019100D01*
X0089500Y0014500D01*
X0092678Y0014500D01*
X0093424Y0014618D01*
X0094143Y0014852D01*
X0094816Y0015195D01*
X0095000Y0015329D01*
X0095000Y0003600D01*
X0003600Y0003600D01*
X0003600Y0005329D01*
X0003784Y0005195D01*
X0004457Y0004852D01*
X0005176Y0004618D01*
X0005922Y0004500D01*
X0009100Y0004500D01*
X0009100Y0009100D01*
X0009500Y0009100D01*
X0009500Y0009500D01*
X0009100Y0009500D01*
X0009100Y0014100D01*
X0005922Y0014100D01*
X0005176Y0013982D01*
X0004457Y0013748D01*
X0003784Y0013405D01*
X0003600Y0013271D01*
X0003600Y0015919D01*
X0003864Y0015655D01*
X0005445Y0015000D01*
X0013155Y0015000D01*
X0014736Y0015655D01*
X0015945Y0016864D01*
X0016600Y0018445D01*
X0016600Y0018719D01*
X0017413Y0018719D01*
X0018545Y0019188D01*
X0019257Y0019900D01*
X0064343Y0019900D01*
X0065055Y0019188D01*
X0066187Y0018719D01*
X0067413Y0018719D01*
X0068545Y0019188D01*
X0069412Y0020055D01*
X0069881Y0021187D01*
X0069881Y0022413D01*
X0069412Y0023545D01*
X0068545Y0024412D01*
X0067413Y0024881D01*
X0066187Y0024881D01*
X0065055Y0024412D01*
X0064343Y0023700D01*
X0019257Y0023700D01*
X0018545Y0024412D01*
X0017413Y0024881D01*
X0016187Y0024881D01*
X0015055Y0024412D01*
X0014188Y0023545D01*
X0014056Y0023227D01*
X0013155Y0023600D01*
X0005445Y0023600D01*
X0003864Y0022945D01*
X0003600Y0022681D01*
X0003600Y0025919D01*
X0003864Y0025655D01*
X0005445Y0025000D01*
X0013155Y0025000D01*
X0014736Y0025655D01*
X0015945Y0026864D01*
X0016600Y0028445D01*
X0016600Y0029313D01*
X0018719Y0027194D01*
X0018719Y0026187D01*
X0019188Y0025055D01*
X0020055Y0024188D01*
X0021187Y0023719D01*
X0022413Y0023719D01*
X0023545Y0024188D01*
X0024412Y0025055D01*
X0024881Y0026187D01*
X0024881Y0027413D01*
X0024412Y0028545D01*
X0023545Y0029412D01*
X0022413Y0029881D01*
X0021406Y0029881D01*
X0018700Y0032587D01*
X0018700Y0075087D01*
X0017587Y0076200D01*
X0016232Y0077555D01*
X0016600Y0078445D01*
X0016600Y0080155D01*
X0015945Y0081736D01*
X0014736Y0082945D01*
X0013155Y0083600D01*
X0005445Y0083600D01*
X0003864Y0082945D01*
X0003600Y0082681D01*
X0003600Y0093554D01*
X0003600Y0092915D02*
X0032327Y0092915D01*
X0032332Y0092883D02*
X0032571Y0091990D01*
X0032925Y0091136D01*
X0033387Y0090336D01*
X0033949Y0089603D01*
X0034603Y0088949D01*
X0035336Y0088387D01*
X0036136Y0087925D01*
X0036990Y0087571D01*
X0037883Y0087332D01*
X0038461Y0087255D01*
X0038461Y0093461D01*
X0040061Y0093461D01*
X0040061Y0087255D01*
X0040639Y0087332D01*
X0041532Y0087571D01*
X0042386Y0087925D01*
X0043186Y0088387D01*
X0043919Y0088949D01*
X0044573Y0089603D01*
X0045135Y0090336D01*
X0045598Y0091136D01*
X0045951Y0091990D01*
X0046190Y0092883D01*
X0046267Y0093461D01*
X0040061Y0093461D01*
X0040061Y0095061D01*
X0046267Y0095061D01*
X0046190Y0095639D01*
X0045951Y0096532D01*
X0045598Y0097386D01*
X0045135Y0098186D01*
X0044573Y0098919D01*
X0043919Y0099573D01*
X0043186Y0100135D01*
X0042386Y0100598D01*
X0041532Y0100951D01*
X0040639Y0101190D01*
X0040061Y0101267D01*
X0040061Y0095061D01*
X0038461Y0095061D01*
X0038461Y0093461D01*
X0032256Y0093461D01*
X0032332Y0092883D01*
X0032256Y0095061D02*
X0038461Y0095061D01*
X0038461Y0101267D01*
X0037883Y0101190D01*
X0036990Y0100951D01*
X0036136Y0100598D01*
X0035336Y0100135D01*
X0034603Y0099573D01*
X0033949Y0098919D01*
X0033387Y0098186D01*
X0032925Y0097386D01*
X0032571Y0096532D01*
X0032332Y0095639D01*
X0032256Y0095061D01*
X0032458Y0096112D02*
X0006158Y0096112D01*
X0007756Y0097711D02*
X0033112Y0097711D01*
X0034339Y0099309D02*
X0009355Y0099309D01*
X0010953Y0100908D02*
X0036885Y0100908D01*
X0038461Y0100908D02*
X0040061Y0100908D01*
X0040061Y0099309D02*
X0038461Y0099309D01*
X0038461Y0097711D02*
X0040061Y0097711D01*
X0040061Y0096112D02*
X0038461Y0096112D01*
X0040061Y0094514D02*
X0058539Y0094514D01*
X0058539Y0095061D02*
X0058539Y0093461D01*
X0060139Y0093461D01*
X0060139Y0095061D01*
X0066344Y0095061D01*
X0066268Y0095639D01*
X0066029Y0096532D01*
X0065675Y0097386D01*
X0065213Y0098186D01*
X0064651Y0098919D01*
X0063997Y0099573D01*
X0063264Y0100135D01*
X0062464Y0100598D01*
X0061610Y0100951D01*
X0060717Y0101190D01*
X0060139Y0101267D01*
X0060139Y0095061D01*
X0058539Y0095061D01*
X0058539Y0101267D01*
X0057961Y0101190D01*
X0057068Y0100951D01*
X0056214Y0100598D01*
X0055414Y0100135D01*
X0054681Y0099573D01*
X0054027Y0098919D01*
X0053465Y0098186D01*
X0053002Y0097386D01*
X0052649Y0096532D01*
X0052410Y0095639D01*
X0052333Y0095061D01*
X0058539Y0095061D01*
X0058539Y0096112D02*
X0060139Y0096112D01*
X0060139Y0094514D02*
X0094041Y0094514D01*
X0095000Y0092915D02*
X0066273Y0092915D01*
X0066268Y0092883D02*
X0066344Y0093461D01*
X0060139Y0093461D01*
X0060139Y0087255D01*
X0060717Y0087332D01*
X0061610Y0087571D01*
X0062464Y0087925D01*
X0063264Y0088387D01*
X0063997Y0088949D01*
X0064651Y0089603D01*
X0065213Y0090336D01*
X0065675Y0091136D01*
X0066029Y0091990D01*
X0066268Y0092883D01*
X0065750Y0091317D02*
X0095000Y0091317D01*
X0095000Y0089718D02*
X0064739Y0089718D01*
X0062802Y0088120D02*
X0095000Y0088120D01*
X0095000Y0086521D02*
X0003600Y0086521D01*
X0003600Y0088120D02*
X0035798Y0088120D01*
X0033861Y0089718D02*
X0003600Y0089718D01*
X0003600Y0091317D02*
X0032850Y0091317D01*
X0038461Y0091317D02*
X0040061Y0091317D01*
X0040061Y0089718D02*
X0038461Y0089718D01*
X0038461Y0088120D02*
X0040061Y0088120D01*
X0042724Y0088120D02*
X0055876Y0088120D01*
X0056214Y0087925D02*
X0055414Y0088387D01*
X0054681Y0088949D01*
X0054027Y0089603D01*
X0053465Y0090336D01*
X0053002Y0091136D01*
X0052649Y0091990D01*
X0052410Y0092883D01*
X0052333Y0093461D01*
X0058539Y0093461D01*
X0058539Y0087255D01*
X0057961Y0087332D01*
X0057068Y0087571D01*
X0056214Y0087925D01*
X0058539Y0088120D02*
X0060139Y0088120D01*
X0060139Y0089718D02*
X0058539Y0089718D01*
X0058539Y0091317D02*
X0060139Y0091317D01*
X0060139Y0092915D02*
X0058539Y0092915D01*
X0058539Y0097711D02*
X0060139Y0097711D01*
X0060139Y0099309D02*
X0058539Y0099309D01*
X0058539Y0100908D02*
X0060139Y0100908D01*
X0061715Y0100908D02*
X0087647Y0100908D01*
X0086048Y0102506D02*
X0054023Y0102506D01*
X0054350Y0103295D02*
X0053581Y0101439D01*
X0052161Y0100019D01*
X0050305Y0099250D01*
X0048295Y0099250D01*
X0046439Y0100019D01*
X0045019Y0101439D01*
X0044250Y0103295D01*
X0044250Y0105305D01*
X0045019Y0107161D01*
X0046439Y0108581D01*
X0048295Y0109350D01*
X0050305Y0109350D01*
X0052161Y0108581D01*
X0053581Y0107161D01*
X0054350Y0105305D01*
X0054350Y0103295D01*
X0054350Y0104105D02*
X0084450Y0104105D01*
X0082851Y0105703D02*
X0054185Y0105703D01*
X0053440Y0107302D02*
X0081253Y0107302D01*
X0079654Y0108900D02*
X0063832Y0108900D01*
X0063997Y0109027D02*
X0064651Y0109681D01*
X0065213Y0110414D01*
X0065675Y0111214D01*
X0066029Y0112068D01*
X0066268Y0112961D01*
X0066344Y0113539D01*
X0060139Y0113539D01*
X0060139Y0107333D01*
X0060717Y0107410D01*
X0061610Y0107649D01*
X0062464Y0108002D01*
X0063264Y0108465D01*
X0063997Y0109027D01*
X0065262Y0110499D02*
X0078056Y0110499D01*
X0076457Y0112097D02*
X0066037Y0112097D01*
X0066324Y0115294D02*
X0073260Y0115294D01*
X0074859Y0113696D02*
X0060139Y0113696D01*
X0060139Y0112097D02*
X0058539Y0112097D01*
X0058539Y0113539D02*
X0058539Y0107333D01*
X0057961Y0107410D01*
X0057068Y0107649D01*
X0056214Y0108002D01*
X0055414Y0108465D01*
X0054681Y0109027D01*
X0054027Y0109681D01*
X0053465Y0110414D01*
X0053002Y0111214D01*
X0052649Y0112068D01*
X0052410Y0112961D01*
X0052333Y0113539D01*
X0058539Y0113539D01*
X0058539Y0113696D02*
X0040061Y0113696D01*
X0040061Y0113539D02*
X0046267Y0113539D01*
X0046190Y0112961D01*
X0045951Y0112068D01*
X0045598Y0111214D01*
X0045135Y0110414D01*
X0044573Y0109681D01*
X0043919Y0109027D01*
X0043186Y0108465D01*
X0042386Y0108002D01*
X0041532Y0107649D01*
X0040639Y0107410D01*
X0040061Y0107333D01*
X0040061Y0113539D01*
X0040061Y0112097D02*
X0038461Y0112097D01*
X0038461Y0110499D02*
X0040061Y0110499D01*
X0040061Y0108900D02*
X0038461Y0108900D01*
X0038461Y0113696D02*
X0023741Y0113696D01*
X0022143Y0112097D02*
X0032563Y0112097D01*
X0033338Y0110499D02*
X0020544Y0110499D01*
X0018946Y0108900D02*
X0034768Y0108900D01*
X0032276Y0115294D02*
X0025340Y0115294D01*
X0026938Y0116893D02*
X0032688Y0116893D01*
X0033561Y0118491D02*
X0028537Y0118491D01*
X0017347Y0107302D02*
X0045160Y0107302D01*
X0044415Y0105703D02*
X0015749Y0105703D01*
X0014150Y0104105D02*
X0044250Y0104105D01*
X0044577Y0102506D02*
X0012552Y0102506D01*
X0003600Y0084923D02*
X0095000Y0084923D01*
X0095000Y0083324D02*
X0093821Y0083324D01*
X0093956Y0075332D02*
X0095000Y0075332D01*
X0095000Y0073733D02*
X0081420Y0073733D01*
X0081200Y0073513D02*
X0081200Y0073513D01*
X0083053Y0072134D02*
X0029821Y0072134D01*
X0028223Y0070536D02*
X0032849Y0070536D01*
X0031250Y0068937D02*
X0026624Y0068937D01*
X0025026Y0067339D02*
X0028585Y0067339D01*
X0026562Y0065740D02*
X0024696Y0065740D01*
X0023434Y0064142D02*
X0026219Y0064142D01*
X0026699Y0062543D02*
X0018700Y0062543D01*
X0018700Y0060945D02*
X0033819Y0060945D01*
X0033773Y0062543D02*
X0031901Y0062543D01*
X0032381Y0064142D02*
X0034785Y0064142D01*
X0033427Y0065740D02*
X0083778Y0065740D01*
X0082458Y0067339D02*
X0035026Y0067339D01*
X0038815Y0064142D02*
X0095000Y0064142D01*
X0095000Y0065740D02*
X0094822Y0065740D01*
X0095000Y0054551D02*
X0082585Y0054551D01*
X0083369Y0056149D02*
X0080986Y0056149D01*
X0082289Y0057748D02*
X0032242Y0057748D01*
X0032381Y0057413D02*
X0031912Y0058545D01*
X0031045Y0059412D01*
X0029913Y0059881D01*
X0028687Y0059881D01*
X0027555Y0059412D01*
X0026688Y0058545D01*
X0026219Y0057413D01*
X0026219Y0056187D01*
X0026688Y0055055D01*
X0027400Y0054343D01*
X0027400Y0029257D01*
X0026688Y0028545D01*
X0026219Y0027413D01*
X0026219Y0026187D01*
X0026688Y0025055D01*
X0027555Y0024188D01*
X0028687Y0023719D01*
X0029913Y0023719D01*
X0031045Y0024188D01*
X0031912Y0025055D01*
X0032381Y0026187D01*
X0032381Y0027413D01*
X0031912Y0028545D01*
X0031200Y0029257D01*
X0031200Y0054343D01*
X0031912Y0055055D01*
X0032381Y0056187D01*
X0032381Y0057413D01*
X0032365Y0056149D02*
X0041792Y0056149D01*
X0041219Y0054551D02*
X0038210Y0054551D01*
X0038545Y0054412D02*
X0039412Y0053545D01*
X0039881Y0052413D01*
X0039881Y0051187D01*
X0039412Y0050055D01*
X0038700Y0049343D01*
X0038700Y0029257D01*
X0039412Y0028545D01*
X0039881Y0027413D01*
X0039881Y0026187D01*
X0039412Y0025055D01*
X0038545Y0024188D01*
X0037413Y0023719D01*
X0036187Y0023719D01*
X0035055Y0024188D01*
X0034188Y0025055D01*
X0033719Y0026187D01*
X0033719Y0027413D01*
X0034188Y0028545D01*
X0034900Y0029257D01*
X0034900Y0049343D01*
X0034188Y0050055D01*
X0033719Y0051187D01*
X0033719Y0052413D01*
X0034188Y0053545D01*
X0035055Y0054412D01*
X0036187Y0054881D01*
X0037413Y0054881D01*
X0038545Y0054412D01*
X0039658Y0052952D02*
X0041523Y0052952D01*
X0039881Y0051354D02*
X0043361Y0051354D01*
X0043687Y0049881D02*
X0042555Y0049412D01*
X0041688Y0048545D01*
X0041219Y0047413D01*
X0041219Y0046187D01*
X0041688Y0045055D01*
X0042400Y0044343D01*
X0042400Y0029257D01*
X0041688Y0028545D01*
X0041219Y0027413D01*
X0041219Y0026187D01*
X0041688Y0025055D01*
X0042555Y0024188D01*
X0043687Y0023719D01*
X0044913Y0023719D01*
X0046045Y0024188D01*
X0046912Y0025055D01*
X0047381Y0026187D01*
X0047381Y0027413D01*
X0046912Y0028545D01*
X0046200Y0029257D01*
X0046200Y0044343D01*
X0046912Y0045055D01*
X0047381Y0046187D01*
X0047381Y0047413D01*
X0046912Y0048545D01*
X0046045Y0049412D01*
X0044913Y0049881D01*
X0043687Y0049881D01*
X0043384Y0049755D02*
X0039113Y0049755D01*
X0038700Y0048157D02*
X0041527Y0048157D01*
X0041219Y0046558D02*
X0038700Y0046558D01*
X0038700Y0044960D02*
X0041783Y0044960D01*
X0042400Y0043361D02*
X0038700Y0043361D01*
X0038700Y0041763D02*
X0042400Y0041763D01*
X0042400Y0040164D02*
X0038700Y0040164D01*
X0038700Y0038566D02*
X0042400Y0038566D01*
X0042400Y0036967D02*
X0038700Y0036967D01*
X0038700Y0035369D02*
X0042400Y0035369D01*
X0042400Y0033770D02*
X0038700Y0033770D01*
X0038700Y0032172D02*
X0042400Y0032172D01*
X0042400Y0030573D02*
X0038700Y0030573D01*
X0038983Y0028975D02*
X0042117Y0028975D01*
X0041219Y0027376D02*
X0039881Y0027376D01*
X0039711Y0025778D02*
X0041388Y0025778D01*
X0042576Y0024179D02*
X0038524Y0024179D01*
X0035076Y0024179D02*
X0031024Y0024179D01*
X0032211Y0025778D02*
X0033888Y0025778D01*
X0033719Y0027376D02*
X0032381Y0027376D01*
X0031483Y0028975D02*
X0034617Y0028975D01*
X0034900Y0030573D02*
X0031200Y0030573D01*
X0031200Y0032172D02*
X0034900Y0032172D01*
X0034900Y0033770D02*
X0031200Y0033770D01*
X0031200Y0035369D02*
X0034900Y0035369D01*
X0034900Y0036967D02*
X0031200Y0036967D01*
X0031200Y0038566D02*
X0034900Y0038566D01*
X0034900Y0040164D02*
X0031200Y0040164D01*
X0031200Y0041763D02*
X0034900Y0041763D01*
X0034900Y0043361D02*
X0031200Y0043361D01*
X0031200Y0044960D02*
X0034900Y0044960D01*
X0034900Y0046558D02*
X0031200Y0046558D01*
X0031200Y0048157D02*
X0034900Y0048157D01*
X0034487Y0049755D02*
X0031200Y0049755D01*
X0031200Y0051354D02*
X0033719Y0051354D01*
X0033942Y0052952D02*
X0031200Y0052952D01*
X0031408Y0054551D02*
X0035390Y0054551D01*
X0034896Y0059346D02*
X0031111Y0059346D01*
X0027489Y0059346D02*
X0018700Y0059346D01*
X0018700Y0057748D02*
X0026358Y0057748D01*
X0026235Y0056149D02*
X0018700Y0056149D01*
X0018700Y0054551D02*
X0027192Y0054551D01*
X0027400Y0052952D02*
X0018700Y0052952D01*
X0018700Y0051354D02*
X0027400Y0051354D01*
X0027400Y0049755D02*
X0018700Y0049755D01*
X0018700Y0048157D02*
X0027400Y0048157D01*
X0027400Y0046558D02*
X0018700Y0046558D01*
X0018700Y0044960D02*
X0027400Y0044960D01*
X0027400Y0043361D02*
X0018700Y0043361D01*
X0018700Y0041763D02*
X0027400Y0041763D01*
X0027400Y0040164D02*
X0018700Y0040164D01*
X0018700Y0038566D02*
X0027400Y0038566D01*
X0027400Y0036967D02*
X0018700Y0036967D01*
X0018700Y0035369D02*
X0027400Y0035369D01*
X0027400Y0033770D02*
X0018700Y0033770D01*
X0019115Y0032172D02*
X0027400Y0032172D01*
X0027400Y0030573D02*
X0020714Y0030573D01*
X0023983Y0028975D02*
X0027117Y0028975D01*
X0026219Y0027376D02*
X0024881Y0027376D01*
X0024711Y0025778D02*
X0026388Y0025778D01*
X0027576Y0024179D02*
X0023524Y0024179D01*
X0020076Y0024179D02*
X0018778Y0024179D01*
X0018888Y0025778D02*
X0014859Y0025778D01*
X0014822Y0024179D02*
X0003600Y0024179D01*
X0003600Y0025778D02*
X0003741Y0025778D01*
X0003600Y0014588D02*
X0085366Y0014588D01*
X0085176Y0014618D02*
X0085922Y0014500D01*
X0089100Y0014500D01*
X0089100Y0019100D01*
X0081500Y0019100D01*
X0081500Y0018922D01*
X0081618Y0018176D01*
X0081852Y0017457D01*
X0082195Y0016784D01*
X0082639Y0016173D01*
X0083173Y0015639D01*
X0083784Y0015195D01*
X0084457Y0014852D01*
X0085176Y0014618D01*
X0082629Y0016187D02*
X0015268Y0016187D01*
X0016327Y0017785D02*
X0081745Y0017785D01*
X0081800Y0020982D02*
X0069796Y0020982D01*
X0068741Y0019384D02*
X0089100Y0019384D01*
X0089100Y0020982D02*
X0089500Y0020982D01*
X0089500Y0022581D02*
X0089100Y0022581D01*
X0089100Y0017785D02*
X0089500Y0017785D01*
X0089500Y0016187D02*
X0089100Y0016187D01*
X0089100Y0014588D02*
X0089500Y0014588D01*
X0093234Y0014588D02*
X0095000Y0014588D01*
X0095000Y0012990D02*
X0015388Y0012990D01*
X0015427Y0012961D02*
X0014816Y0013405D01*
X0014143Y0013748D01*
X0013424Y0013982D01*
X0012678Y0014100D01*
X0009500Y0014100D01*
X0009500Y0009500D01*
X0017100Y0009500D01*
X0017100Y0009678D01*
X0016982Y0010424D01*
X0016748Y0011143D01*
X0016405Y0011816D01*
X0015961Y0012427D01*
X0015427Y0012961D01*
X0016622Y0011391D02*
X0095000Y0011391D01*
X0095000Y0009793D02*
X0017082Y0009793D01*
X0017100Y0009100D02*
X0009500Y0009100D01*
X0009500Y0004500D01*
X0012678Y0004500D01*
X0013424Y0004618D01*
X0014143Y0004852D01*
X0014816Y0005195D01*
X0015427Y0005639D01*
X0015961Y0006173D01*
X0016405Y0006784D01*
X0016748Y0007457D01*
X0016982Y0008176D01*
X0017100Y0008922D01*
X0017100Y0009100D01*
X0016985Y0008194D02*
X0095000Y0008194D01*
X0095000Y0006596D02*
X0016268Y0006596D01*
X0014428Y0004997D02*
X0095000Y0004997D01*
X0082792Y0022581D02*
X0069812Y0022581D01*
X0068778Y0024179D02*
X0095000Y0024179D01*
X0095000Y0025778D02*
X0094859Y0025778D01*
X0095000Y0033770D02*
X0080017Y0033770D01*
X0079692Y0035369D02*
X0084554Y0035369D01*
X0082612Y0036967D02*
X0078412Y0036967D01*
X0075188Y0036967D02*
X0053825Y0036967D01*
X0053700Y0036843D02*
X0054412Y0037555D01*
X0054881Y0038687D01*
X0054881Y0039913D01*
X0054412Y0041045D01*
X0053545Y0041912D01*
X0052413Y0042381D01*
X0051187Y0042381D01*
X0050055Y0041912D01*
X0049188Y0041045D01*
X0048719Y0039913D01*
X0048719Y0038687D01*
X0049188Y0037555D01*
X0049900Y0036843D01*
X0049900Y0029257D01*
X0049188Y0028545D01*
X0048719Y0027413D01*
X0048719Y0026187D01*
X0049188Y0025055D01*
X0050055Y0024188D01*
X0051187Y0023719D01*
X0052413Y0023719D01*
X0053545Y0024188D01*
X0054412Y0025055D01*
X0054881Y0026187D01*
X0054881Y0027413D01*
X0054412Y0028545D01*
X0053700Y0029257D01*
X0053700Y0036843D01*
X0053700Y0035369D02*
X0073908Y0035369D01*
X0073719Y0033770D02*
X0053700Y0033770D01*
X0053700Y0032172D02*
X0074571Y0032172D01*
X0077840Y0030573D02*
X0053700Y0030573D01*
X0053983Y0028975D02*
X0079438Y0028975D01*
X0082443Y0027376D02*
X0054881Y0027376D01*
X0054711Y0025778D02*
X0083741Y0025778D01*
X0083091Y0032172D02*
X0081615Y0032172D01*
X0082000Y0038566D02*
X0054831Y0038566D01*
X0054777Y0040164D02*
X0080749Y0040164D01*
X0079150Y0041763D02*
X0053695Y0041763D01*
X0054283Y0044960D02*
X0046817Y0044960D01*
X0047381Y0046558D02*
X0053719Y0046558D01*
X0054027Y0048157D02*
X0047073Y0048157D01*
X0045216Y0049755D02*
X0055884Y0049755D01*
X0057716Y0049755D02*
X0080309Y0049755D01*
X0081908Y0048157D02*
X0078130Y0048157D01*
X0079729Y0046558D02*
X0082961Y0046558D01*
X0081327Y0044960D02*
X0095000Y0044960D01*
X0095000Y0043361D02*
X0093732Y0043361D01*
X0094046Y0035369D02*
X0095000Y0035369D01*
X0084868Y0043361D02*
X0082926Y0043361D01*
X0077552Y0043361D02*
X0046200Y0043361D01*
X0046200Y0041763D02*
X0049905Y0041763D01*
X0048823Y0040164D02*
X0046200Y0040164D01*
X0046200Y0038566D02*
X0048769Y0038566D01*
X0049775Y0036967D02*
X0046200Y0036967D01*
X0046200Y0035369D02*
X0049900Y0035369D01*
X0049900Y0033770D02*
X0046200Y0033770D01*
X0046200Y0032172D02*
X0049900Y0032172D01*
X0049900Y0030573D02*
X0046200Y0030573D01*
X0046483Y0028975D02*
X0049617Y0028975D01*
X0048719Y0027376D02*
X0047381Y0027376D01*
X0047211Y0025778D02*
X0048888Y0025778D01*
X0050076Y0024179D02*
X0046024Y0024179D01*
X0053524Y0024179D02*
X0064822Y0024179D01*
X0064859Y0019384D02*
X0018741Y0019384D01*
X0018537Y0027376D02*
X0016157Y0027376D01*
X0016600Y0028975D02*
X0016938Y0028975D01*
X0009500Y0012990D02*
X0009100Y0012990D01*
X0009100Y0011391D02*
X0009500Y0011391D01*
X0009500Y0009793D02*
X0009100Y0009793D01*
X0009100Y0008194D02*
X0009500Y0008194D01*
X0009500Y0006596D02*
X0009100Y0006596D01*
X0009100Y0004997D02*
X0009500Y0004997D01*
X0004172Y0004997D02*
X0003600Y0004997D01*
X0045239Y0051354D02*
X0078711Y0051354D01*
X0081567Y0059346D02*
X0038704Y0059346D01*
X0027645Y0075332D02*
X0018455Y0075332D01*
X0018700Y0073733D02*
X0026046Y0073733D01*
X0024448Y0072134D02*
X0018700Y0072134D01*
X0018700Y0070536D02*
X0022849Y0070536D01*
X0019580Y0068937D02*
X0018700Y0068937D01*
X0018700Y0067339D02*
X0018719Y0067339D01*
X0018700Y0065740D02*
X0018904Y0065740D01*
X0018700Y0064142D02*
X0020166Y0064142D01*
X0016857Y0076930D02*
X0079243Y0076930D01*
X0080842Y0078529D02*
X0016600Y0078529D01*
X0016600Y0080127D02*
X0082000Y0080127D01*
X0082650Y0081726D02*
X0015950Y0081726D01*
X0013821Y0083324D02*
X0084779Y0083324D01*
X0084644Y0075332D02*
X0083019Y0075332D01*
X0092442Y0096112D02*
X0066142Y0096112D01*
X0065488Y0097711D02*
X0090844Y0097711D01*
X0089245Y0099309D02*
X0064261Y0099309D01*
X0056963Y0100908D02*
X0053049Y0100908D01*
X0054417Y0099309D02*
X0050447Y0099309D01*
X0053190Y0097711D02*
X0045410Y0097711D01*
X0046064Y0096112D02*
X0052536Y0096112D01*
X0052405Y0092915D02*
X0046195Y0092915D01*
X0045672Y0091317D02*
X0052928Y0091317D01*
X0053939Y0089718D02*
X0044661Y0089718D01*
X0040061Y0092915D02*
X0038461Y0092915D01*
X0044183Y0099309D02*
X0048153Y0099309D01*
X0045551Y0100908D02*
X0041637Y0100908D01*
X0043754Y0108900D02*
X0047210Y0108900D01*
X0045185Y0110499D02*
X0053415Y0110499D01*
X0052641Y0112097D02*
X0045959Y0112097D01*
X0046246Y0115294D02*
X0052354Y0115294D01*
X0052766Y0116893D02*
X0045834Y0116893D01*
X0044961Y0118491D02*
X0053639Y0118491D01*
X0058539Y0110499D02*
X0060139Y0110499D01*
X0060139Y0108900D02*
X0058539Y0108900D01*
X0054846Y0108900D02*
X0051390Y0108900D01*
X0065039Y0118491D02*
X0070063Y0118491D01*
X0071662Y0116893D02*
X0065912Y0116893D01*
X0094719Y0052952D02*
X0095000Y0052952D01*
X0004779Y0083324D02*
X0003600Y0083324D01*
D15*
X0009300Y0094300D03*
X0014300Y0099300D03*
X0019300Y0104300D03*
X0024300Y0109300D03*
X0029300Y0114300D03*
X0021800Y0066800D03*
X0029300Y0064300D03*
X0029300Y0056800D03*
X0021800Y0051800D03*
X0036800Y0051800D03*
X0044300Y0054300D03*
X0044300Y0046800D03*
X0051800Y0039300D03*
X0056800Y0046800D03*
X0051800Y0026800D03*
X0044300Y0026800D03*
X0036800Y0026800D03*
X0029300Y0026800D03*
X0021800Y0026800D03*
X0016800Y0021800D03*
X0036800Y0061800D03*
X0066800Y0021800D03*
X0076800Y0034300D03*
X0089300Y0009300D03*
X0089300Y0094300D03*
X0084300Y0099300D03*
X0079300Y0104300D03*
X0074300Y0109300D03*
X0069300Y0114300D03*
D16*
X0084300Y0079300D02*
X0089300Y0079300D01*
X0084300Y0079300D02*
X0079300Y0074300D01*
X0029300Y0074300D01*
X0021800Y0066800D01*
X0016800Y0074300D02*
X0016800Y0031800D01*
X0021800Y0026800D01*
X0016800Y0021800D02*
X0066800Y0021800D01*
X0076800Y0034300D02*
X0081800Y0029300D01*
X0089300Y0029300D01*
X0089300Y0039300D02*
X0084300Y0039300D01*
X0076800Y0046800D01*
X0056800Y0046800D01*
X0051800Y0039300D02*
X0051800Y0026800D01*
X0044300Y0026800D02*
X0044300Y0046800D01*
X0036800Y0051800D02*
X0036800Y0026800D01*
X0029300Y0026800D02*
X0029300Y0056800D01*
X0029300Y0064300D02*
X0034300Y0069300D01*
X0089300Y0069300D01*
X0081800Y0061800D02*
X0084300Y0059300D01*
X0089300Y0059300D01*
X0081800Y0061800D02*
X0036800Y0061800D01*
X0016800Y0074300D02*
X0011800Y0079300D01*
X0009300Y0079300D01*
D17*
X0044300Y0054300D02*
X0079300Y0054300D01*
X0084300Y0049300D01*
X0089300Y0049300D01*
M02*
