G75*
%MOIN*%
%OFA0B0*%
%FSLAX25Y25*%
%IPPOS*%
%LPD*%
%AMOC8*
5,1,8,0,0,1.08239X$1,22.5*
%
%ADD10C,0.00000*%
%ADD11C,0.06000*%
%ADD12C,0.04724*%
%ADD13C,0.07500*%
%ADD14C,0.10500*%
%ADD15R,0.06299X0.05118*%
%ADD16C,0.01600*%
%ADD17C,0.03562*%
%ADD18C,0.01200*%
%ADD19C,0.02400*%
D10*
X0001800Y0001800D02*
X0001800Y0094300D01*
X0029300Y0121800D01*
X0069300Y0121800D01*
X0096800Y0094300D01*
X0096800Y0001800D01*
X0001800Y0001800D01*
D11*
X0006300Y0009300D02*
X0012300Y0009300D01*
X0012300Y0019300D02*
X0006300Y0019300D01*
X0006300Y0029300D02*
X0012300Y0029300D01*
X0012300Y0039300D02*
X0006300Y0039300D01*
X0006300Y0049300D02*
X0012300Y0049300D01*
X0012300Y0059300D02*
X0006300Y0059300D01*
X0006300Y0069300D02*
X0012300Y0069300D01*
X0012300Y0079300D02*
X0006300Y0079300D01*
X0086300Y0079300D02*
X0092300Y0079300D01*
X0092300Y0069300D02*
X0086300Y0069300D01*
X0086300Y0059300D02*
X0092300Y0059300D01*
X0092300Y0049300D02*
X0086300Y0049300D01*
X0086300Y0039300D02*
X0092300Y0039300D01*
X0092300Y0029300D02*
X0086300Y0029300D01*
X0086300Y0019300D02*
X0092300Y0019300D01*
D12*
X0076859Y0017528D02*
X0076859Y0008080D01*
X0068985Y0008080D02*
X0068985Y0017528D01*
X0061111Y0017528D02*
X0061111Y0008080D01*
X0053237Y0008080D02*
X0053237Y0017528D01*
X0045363Y0017528D02*
X0045363Y0008080D01*
X0037489Y0008080D02*
X0037489Y0017528D01*
X0029615Y0017528D02*
X0029615Y0008080D01*
X0021741Y0008080D02*
X0021741Y0017528D01*
X0021741Y0071072D02*
X0021741Y0080520D01*
X0029615Y0080520D02*
X0029615Y0071072D01*
X0037489Y0071072D02*
X0037489Y0080520D01*
X0045363Y0080520D02*
X0045363Y0071072D01*
X0053237Y0071072D02*
X0053237Y0080520D01*
X0061111Y0080520D02*
X0061111Y0071072D01*
X0068985Y0071072D02*
X0068985Y0080520D01*
X0076859Y0080520D02*
X0076859Y0071072D01*
D13*
X0049300Y0104300D03*
D14*
X0059339Y0094261D03*
X0059339Y0114339D03*
X0039261Y0114339D03*
X0039261Y0094261D03*
D15*
X0024300Y0090363D03*
X0024300Y0098237D03*
D16*
X0024780Y0098717D02*
X0023820Y0098717D01*
X0023820Y0102596D01*
X0020913Y0102596D01*
X0020456Y0102473D01*
X0020045Y0102236D01*
X0019710Y0101901D01*
X0019473Y0101491D01*
X0019350Y0101033D01*
X0019350Y0098717D01*
X0023820Y0098717D01*
X0023820Y0097757D01*
X0019350Y0097757D01*
X0019350Y0095441D01*
X0019473Y0094983D01*
X0019710Y0094573D01*
X0020045Y0094238D01*
X0020414Y0094024D01*
X0019850Y0093461D01*
X0019850Y0087265D01*
X0020612Y0086504D01*
X0024624Y0086504D01*
X0026447Y0084681D01*
X0027366Y0084300D01*
X0038264Y0084300D01*
X0038498Y0084066D01*
X0038217Y0084183D01*
X0036761Y0084183D01*
X0035414Y0083625D01*
X0034384Y0082595D01*
X0033827Y0081249D01*
X0033827Y0070343D01*
X0034384Y0068997D01*
X0035414Y0067967D01*
X0035589Y0067895D01*
X0035589Y0064633D01*
X0035055Y0064412D01*
X0034188Y0063545D01*
X0033719Y0062413D01*
X0033719Y0061187D01*
X0034188Y0060055D01*
X0035055Y0059188D01*
X0036187Y0058719D01*
X0037413Y0058719D01*
X0038545Y0059188D01*
X0039412Y0060055D01*
X0039881Y0061187D01*
X0039881Y0062413D01*
X0039412Y0063545D01*
X0039389Y0063568D01*
X0039389Y0067895D01*
X0039563Y0067967D01*
X0040594Y0068997D01*
X0041151Y0070343D01*
X0041151Y0081249D01*
X0041035Y0081530D01*
X0041701Y0080864D01*
X0041701Y0070343D01*
X0041800Y0070104D01*
X0041800Y0056157D01*
X0041688Y0056045D01*
X0041219Y0054913D01*
X0041219Y0053687D01*
X0041688Y0052555D01*
X0042555Y0051688D01*
X0043687Y0051219D01*
X0044913Y0051219D01*
X0046045Y0051688D01*
X0046912Y0052555D01*
X0047381Y0053687D01*
X0047381Y0054913D01*
X0046912Y0056045D01*
X0046800Y0056157D01*
X0046800Y0067703D01*
X0047437Y0067967D01*
X0048468Y0068997D01*
X0049025Y0070343D01*
X0049025Y0081249D01*
X0048468Y0082595D01*
X0047437Y0083625D01*
X0046091Y0084183D01*
X0045453Y0084183D01*
X0041909Y0087727D01*
X0042386Y0087925D01*
X0043186Y0088387D01*
X0043919Y0088949D01*
X0044573Y0089603D01*
X0045135Y0090336D01*
X0045598Y0091136D01*
X0045951Y0091990D01*
X0046190Y0092883D01*
X0046267Y0093461D01*
X0040061Y0093461D01*
X0040061Y0095061D01*
X0038461Y0095061D01*
X0038461Y0093461D01*
X0032256Y0093461D01*
X0032332Y0092883D01*
X0032571Y0091990D01*
X0032925Y0091136D01*
X0033387Y0090336D01*
X0033949Y0089603D01*
X0034252Y0089300D01*
X0028899Y0089300D01*
X0028750Y0089449D01*
X0028750Y0093461D01*
X0028186Y0094024D01*
X0028555Y0094238D01*
X0028890Y0094573D01*
X0029127Y0094983D01*
X0029250Y0095441D01*
X0029250Y0097757D01*
X0024780Y0097757D01*
X0024780Y0098717D01*
X0024780Y0102596D01*
X0027687Y0102596D01*
X0028144Y0102473D01*
X0028555Y0102236D01*
X0028890Y0101901D01*
X0029127Y0101491D01*
X0029250Y0101033D01*
X0029250Y0098717D01*
X0024780Y0098717D01*
X0024780Y0099309D02*
X0023820Y0099309D01*
X0023820Y0100908D02*
X0024780Y0100908D01*
X0024780Y0102506D02*
X0023820Y0102506D01*
X0020578Y0102506D02*
X0012552Y0102506D01*
X0010953Y0100908D02*
X0019350Y0100908D01*
X0019350Y0099309D02*
X0009355Y0099309D01*
X0007756Y0097711D02*
X0019350Y0097711D01*
X0019350Y0096112D02*
X0006158Y0096112D01*
X0004559Y0094514D02*
X0019769Y0094514D01*
X0019850Y0092915D02*
X0003600Y0092915D01*
X0003600Y0093554D02*
X0030046Y0120000D01*
X0035058Y0120000D01*
X0034603Y0119651D01*
X0033949Y0118997D01*
X0033387Y0118264D01*
X0032925Y0117464D01*
X0032571Y0116610D01*
X0032332Y0115717D01*
X0032256Y0115139D01*
X0038461Y0115139D01*
X0038461Y0113539D01*
X0032256Y0113539D01*
X0032332Y0112961D01*
X0032571Y0112068D01*
X0032925Y0111214D01*
X0033387Y0110414D01*
X0033949Y0109681D01*
X0034603Y0109027D01*
X0035336Y0108465D01*
X0036136Y0108002D01*
X0036990Y0107649D01*
X0037883Y0107410D01*
X0038461Y0107333D01*
X0038461Y0113539D01*
X0040061Y0113539D01*
X0040061Y0115139D01*
X0046267Y0115139D01*
X0046190Y0115717D01*
X0045951Y0116610D01*
X0045598Y0117464D01*
X0045135Y0118264D01*
X0044573Y0118997D01*
X0043919Y0119651D01*
X0043464Y0120000D01*
X0055136Y0120000D01*
X0054681Y0119651D01*
X0054027Y0118997D01*
X0053465Y0118264D01*
X0053002Y0117464D01*
X0052649Y0116610D01*
X0052410Y0115717D01*
X0052333Y0115139D01*
X0058539Y0115139D01*
X0058539Y0113539D01*
X0060139Y0113539D01*
X0060139Y0115139D01*
X0066344Y0115139D01*
X0066268Y0115717D01*
X0066029Y0116610D01*
X0065675Y0117464D01*
X0065213Y0118264D01*
X0064651Y0118997D01*
X0063997Y0119651D01*
X0063542Y0120000D01*
X0068554Y0120000D01*
X0095000Y0093554D01*
X0095000Y0082681D01*
X0094736Y0082945D01*
X0093155Y0083600D01*
X0085445Y0083600D01*
X0083864Y0082945D01*
X0082655Y0081736D01*
X0082000Y0080155D01*
X0082000Y0078445D01*
X0082655Y0076864D01*
X0083864Y0075655D01*
X0085445Y0075000D01*
X0093155Y0075000D01*
X0094736Y0075655D01*
X0095000Y0075919D01*
X0095000Y0072681D01*
X0094736Y0072945D01*
X0093155Y0073600D01*
X0085445Y0073600D01*
X0083864Y0072945D01*
X0082655Y0071736D01*
X0082000Y0070155D01*
X0082000Y0068445D01*
X0082655Y0066864D01*
X0083864Y0065655D01*
X0085445Y0065000D01*
X0093155Y0065000D01*
X0094736Y0065655D01*
X0095000Y0065919D01*
X0095000Y0062681D01*
X0094736Y0062945D01*
X0093155Y0063600D01*
X0085445Y0063600D01*
X0083864Y0062945D01*
X0082655Y0061736D01*
X0082000Y0060155D01*
X0082000Y0058445D01*
X0082655Y0056864D01*
X0083864Y0055655D01*
X0085445Y0055000D01*
X0093155Y0055000D01*
X0094736Y0055655D01*
X0095000Y0055919D01*
X0095000Y0052681D01*
X0094736Y0052945D01*
X0093155Y0053600D01*
X0085445Y0053600D01*
X0083864Y0052945D01*
X0082655Y0051736D01*
X0082000Y0050155D01*
X0082000Y0048445D01*
X0082655Y0046864D01*
X0083864Y0045655D01*
X0085445Y0045000D01*
X0093155Y0045000D01*
X0094736Y0045655D01*
X0095000Y0045919D01*
X0095000Y0042681D01*
X0094736Y0042945D01*
X0093155Y0043600D01*
X0085445Y0043600D01*
X0083864Y0042945D01*
X0082655Y0041736D01*
X0082000Y0040155D01*
X0082000Y0038445D01*
X0082655Y0036864D01*
X0083864Y0035655D01*
X0085445Y0035000D01*
X0093155Y0035000D01*
X0094736Y0035655D01*
X0095000Y0035919D01*
X0095000Y0032681D01*
X0094736Y0032945D01*
X0093155Y0033600D01*
X0085445Y0033600D01*
X0083864Y0032945D01*
X0082655Y0031736D01*
X0082000Y0030155D01*
X0082000Y0028445D01*
X0082655Y0026864D01*
X0083864Y0025655D01*
X0085445Y0025000D01*
X0093155Y0025000D01*
X0094736Y0025655D01*
X0095000Y0025919D01*
X0095000Y0023271D01*
X0094816Y0023405D01*
X0094143Y0023748D01*
X0093424Y0023982D01*
X0092678Y0024100D01*
X0089500Y0024100D01*
X0089500Y0019500D01*
X0089100Y0019500D01*
X0089100Y0024100D01*
X0085922Y0024100D01*
X0085176Y0023982D01*
X0084457Y0023748D01*
X0083784Y0023405D01*
X0083173Y0022961D01*
X0082639Y0022427D01*
X0082195Y0021816D01*
X0081852Y0021143D01*
X0081618Y0020424D01*
X0081500Y0019678D01*
X0081500Y0019500D01*
X0089100Y0019500D01*
X0089100Y0019100D01*
X0089500Y0019100D01*
X0089500Y0014500D01*
X0092678Y0014500D01*
X0093424Y0014618D01*
X0094143Y0014852D01*
X0094816Y0015195D01*
X0095000Y0015329D01*
X0095000Y0003600D01*
X0003600Y0003600D01*
X0003600Y0005329D01*
X0003784Y0005195D01*
X0004457Y0004852D01*
X0005176Y0004618D01*
X0005922Y0004500D01*
X0009100Y0004500D01*
X0009100Y0009100D01*
X0009500Y0009100D01*
X0009500Y0009500D01*
X0009100Y0009500D01*
X0009100Y0014100D01*
X0005922Y0014100D01*
X0005176Y0013982D01*
X0004457Y0013748D01*
X0003784Y0013405D01*
X0003600Y0013271D01*
X0003600Y0015919D01*
X0003864Y0015655D01*
X0005445Y0015000D01*
X0013155Y0015000D01*
X0014736Y0015655D01*
X0015945Y0016864D01*
X0016600Y0018445D01*
X0016600Y0018719D01*
X0017413Y0018719D01*
X0018448Y0019148D01*
X0018079Y0018257D01*
X0018079Y0007351D01*
X0018636Y0006005D01*
X0019666Y0004975D01*
X0021012Y0004417D01*
X0022469Y0004417D01*
X0023815Y0004975D01*
X0024846Y0006005D01*
X0025403Y0007351D01*
X0025403Y0018257D01*
X0024846Y0019603D01*
X0023815Y0020633D01*
X0023700Y0020681D01*
X0023700Y0024343D01*
X0024412Y0025055D01*
X0024881Y0026187D01*
X0024881Y0027413D01*
X0024412Y0028545D01*
X0023545Y0029412D01*
X0022413Y0029881D01*
X0021187Y0029881D01*
X0020055Y0029412D01*
X0019188Y0028545D01*
X0018719Y0027413D01*
X0018719Y0026187D01*
X0019188Y0025055D01*
X0019900Y0024343D01*
X0019900Y0020730D01*
X0019666Y0020633D01*
X0019641Y0020608D01*
X0019881Y0021187D01*
X0019881Y0022413D01*
X0019412Y0023545D01*
X0018545Y0024412D01*
X0017413Y0024881D01*
X0016187Y0024881D01*
X0015055Y0024412D01*
X0014188Y0023545D01*
X0014056Y0023227D01*
X0013155Y0023600D01*
X0005445Y0023600D01*
X0003864Y0022945D01*
X0003600Y0022681D01*
X0003600Y0025919D01*
X0003864Y0025655D01*
X0005445Y0025000D01*
X0013155Y0025000D01*
X0014736Y0025655D01*
X0015945Y0026864D01*
X0016600Y0028445D01*
X0016600Y0028913D01*
X0017587Y0029900D01*
X0053513Y0029900D01*
X0059900Y0023513D01*
X0059900Y0020991D01*
X0059037Y0020633D01*
X0058006Y0019603D01*
X0057449Y0018257D01*
X0057449Y0007351D01*
X0058006Y0006005D01*
X0059037Y0004975D01*
X0060383Y0004417D01*
X0061839Y0004417D01*
X0063185Y0004975D01*
X0064216Y0006005D01*
X0064773Y0007351D01*
X0064773Y0018257D01*
X0064216Y0019603D01*
X0063700Y0020119D01*
X0063700Y0025087D01*
X0062587Y0026200D01*
X0055087Y0033700D01*
X0016013Y0033700D01*
X0014997Y0032684D01*
X0014736Y0032945D01*
X0013155Y0033600D01*
X0005445Y0033600D01*
X0003864Y0032945D01*
X0003600Y0032681D01*
X0003600Y0035919D01*
X0003864Y0035655D01*
X0005445Y0035000D01*
X0013155Y0035000D01*
X0014736Y0035655D01*
X0015945Y0036864D01*
X0016167Y0037400D01*
X0049343Y0037400D01*
X0050055Y0036688D01*
X0051187Y0036219D01*
X0052413Y0036219D01*
X0053545Y0036688D01*
X0054412Y0037555D01*
X0054881Y0038687D01*
X0054881Y0039913D01*
X0054412Y0041045D01*
X0053545Y0041912D01*
X0052413Y0042381D01*
X0051187Y0042381D01*
X0050055Y0041912D01*
X0049343Y0041200D01*
X0016167Y0041200D01*
X0015945Y0041736D01*
X0014736Y0042945D01*
X0013155Y0043600D01*
X0005445Y0043600D01*
X0003864Y0042945D01*
X0003600Y0042681D01*
X0003600Y0045919D01*
X0003864Y0045655D01*
X0005445Y0045000D01*
X0013155Y0045000D01*
X0014736Y0045655D01*
X0014997Y0045916D01*
X0016013Y0044900D01*
X0041843Y0044900D01*
X0042555Y0044188D01*
X0043687Y0043719D01*
X0044913Y0043719D01*
X0046045Y0044188D01*
X0046912Y0045055D01*
X0047381Y0046187D01*
X0047381Y0047413D01*
X0046912Y0048545D01*
X0046045Y0049412D01*
X0044913Y0049881D01*
X0043687Y0049881D01*
X0042555Y0049412D01*
X0041843Y0048700D01*
X0017587Y0048700D01*
X0016600Y0049687D01*
X0016600Y0050155D01*
X0015945Y0051736D01*
X0014736Y0052945D01*
X0013155Y0053600D01*
X0005445Y0053600D01*
X0003864Y0052945D01*
X0003600Y0052681D01*
X0003600Y0055919D01*
X0003864Y0055655D01*
X0005445Y0055000D01*
X0013155Y0055000D01*
X0014736Y0055655D01*
X0015945Y0056864D01*
X0016167Y0057400D01*
X0018513Y0057400D01*
X0024900Y0051013D01*
X0026013Y0049900D01*
X0034343Y0049900D01*
X0035055Y0049188D01*
X0036187Y0048719D01*
X0037413Y0048719D01*
X0038545Y0049188D01*
X0039412Y0050055D01*
X0039881Y0051187D01*
X0039881Y0052413D01*
X0039412Y0053545D01*
X0038545Y0054412D01*
X0037413Y0054881D01*
X0036187Y0054881D01*
X0035055Y0054412D01*
X0034343Y0053700D01*
X0027587Y0053700D01*
X0026387Y0054900D01*
X0026843Y0054900D01*
X0027555Y0054188D01*
X0028687Y0053719D01*
X0029913Y0053719D01*
X0031045Y0054188D01*
X0031912Y0055055D01*
X0032381Y0056187D01*
X0032381Y0057413D01*
X0031912Y0058545D01*
X0031045Y0059412D01*
X0029913Y0059881D01*
X0028687Y0059881D01*
X0027555Y0059412D01*
X0027215Y0059072D01*
X0023700Y0062587D01*
X0022587Y0063700D01*
X0020087Y0063700D01*
X0016232Y0067555D01*
X0016600Y0068445D01*
X0016600Y0070155D01*
X0015945Y0071736D01*
X0014736Y0072945D01*
X0013155Y0073600D01*
X0005445Y0073600D01*
X0003864Y0072945D01*
X0003600Y0072681D01*
X0003600Y0075919D01*
X0003864Y0075655D01*
X0005445Y0075000D01*
X0013155Y0075000D01*
X0014736Y0075655D01*
X0015945Y0076864D01*
X0016600Y0078445D01*
X0016600Y0080155D01*
X0015945Y0081736D01*
X0014736Y0082945D01*
X0013155Y0083600D01*
X0005445Y0083600D01*
X0003864Y0082945D01*
X0003600Y0082681D01*
X0003600Y0093554D01*
X0003600Y0091317D02*
X0019850Y0091317D01*
X0019850Y0089718D02*
X0003600Y0089718D01*
X0003600Y0088120D02*
X0019850Y0088120D01*
X0020595Y0086521D02*
X0003600Y0086521D01*
X0003600Y0084923D02*
X0026205Y0084923D01*
X0027540Y0083625D02*
X0026510Y0082595D01*
X0025953Y0081249D01*
X0025953Y0070343D01*
X0026510Y0068997D01*
X0027540Y0067967D01*
X0027715Y0067895D01*
X0027715Y0066978D01*
X0027555Y0066912D01*
X0026688Y0066045D01*
X0026219Y0064913D01*
X0026219Y0063687D01*
X0026688Y0062555D01*
X0027555Y0061688D01*
X0028687Y0061219D01*
X0029913Y0061219D01*
X0031045Y0061688D01*
X0031912Y0062555D01*
X0032381Y0063687D01*
X0032381Y0064913D01*
X0031912Y0066045D01*
X0031515Y0066442D01*
X0031515Y0067895D01*
X0031689Y0067967D01*
X0032720Y0068997D01*
X0033277Y0070343D01*
X0033277Y0081249D01*
X0032720Y0082595D01*
X0031689Y0083625D01*
X0030343Y0084183D01*
X0028886Y0084183D01*
X0027540Y0083625D01*
X0027239Y0083324D02*
X0024116Y0083324D01*
X0023815Y0083625D02*
X0022469Y0084183D01*
X0021012Y0084183D01*
X0019666Y0083625D01*
X0018636Y0082595D01*
X0018079Y0081249D01*
X0018079Y0070343D01*
X0018636Y0068997D01*
X0019159Y0068475D01*
X0018719Y0067413D01*
X0018719Y0066187D01*
X0019188Y0065055D01*
X0020055Y0064188D01*
X0021187Y0063719D01*
X0022413Y0063719D01*
X0023545Y0064188D01*
X0024412Y0065055D01*
X0024881Y0066187D01*
X0024881Y0067413D01*
X0024412Y0068545D01*
X0024403Y0068554D01*
X0024846Y0068997D01*
X0025403Y0070343D01*
X0025403Y0081249D01*
X0024846Y0082595D01*
X0023815Y0083625D01*
X0025206Y0081726D02*
X0026150Y0081726D01*
X0025953Y0080127D02*
X0025403Y0080127D01*
X0025403Y0078529D02*
X0025953Y0078529D01*
X0025953Y0076930D02*
X0025403Y0076930D01*
X0025403Y0075332D02*
X0025953Y0075332D01*
X0025953Y0073733D02*
X0025403Y0073733D01*
X0025403Y0072134D02*
X0025953Y0072134D01*
X0025953Y0070536D02*
X0025403Y0070536D01*
X0024786Y0068937D02*
X0026570Y0068937D01*
X0027715Y0067339D02*
X0024881Y0067339D01*
X0024696Y0065740D02*
X0026562Y0065740D01*
X0026219Y0064142D02*
X0023434Y0064142D01*
X0023744Y0062543D02*
X0026699Y0062543D01*
X0025342Y0060945D02*
X0033819Y0060945D01*
X0033773Y0062543D02*
X0031901Y0062543D01*
X0032381Y0064142D02*
X0034785Y0064142D01*
X0035589Y0065740D02*
X0032038Y0065740D01*
X0031515Y0067339D02*
X0035589Y0067339D01*
X0034444Y0068937D02*
X0032660Y0068937D01*
X0033277Y0070536D02*
X0033827Y0070536D01*
X0033827Y0072134D02*
X0033277Y0072134D01*
X0033277Y0073733D02*
X0033827Y0073733D01*
X0033827Y0075332D02*
X0033277Y0075332D01*
X0033277Y0076930D02*
X0033827Y0076930D01*
X0033827Y0078529D02*
X0033277Y0078529D01*
X0033277Y0080127D02*
X0033827Y0080127D01*
X0034024Y0081726D02*
X0033080Y0081726D01*
X0031990Y0083324D02*
X0035113Y0083324D01*
X0033861Y0089718D02*
X0028750Y0089718D01*
X0028750Y0091317D02*
X0032850Y0091317D01*
X0032327Y0092915D02*
X0028750Y0092915D01*
X0028831Y0094514D02*
X0038461Y0094514D01*
X0038461Y0095061D02*
X0032256Y0095061D01*
X0032332Y0095639D01*
X0032571Y0096532D01*
X0032925Y0097386D01*
X0033387Y0098186D01*
X0033949Y0098919D01*
X0034603Y0099573D01*
X0035336Y0100135D01*
X0036136Y0100598D01*
X0036990Y0100951D01*
X0037883Y0101190D01*
X0038461Y0101267D01*
X0038461Y0095061D01*
X0038461Y0096112D02*
X0040061Y0096112D01*
X0040061Y0095061D02*
X0040061Y0101267D01*
X0040639Y0101190D01*
X0041532Y0100951D01*
X0042386Y0100598D01*
X0043186Y0100135D01*
X0043919Y0099573D01*
X0044573Y0098919D01*
X0045135Y0098186D01*
X0045598Y0097386D01*
X0045951Y0096532D01*
X0046190Y0095639D01*
X0046267Y0095061D01*
X0040061Y0095061D01*
X0040061Y0094514D02*
X0058539Y0094514D01*
X0058539Y0095061D02*
X0058539Y0093461D01*
X0060139Y0093461D01*
X0060139Y0095061D01*
X0066344Y0095061D01*
X0066268Y0095639D01*
X0066029Y0096532D01*
X0066027Y0096538D01*
X0074359Y0088205D01*
X0074359Y0083200D01*
X0073754Y0082595D01*
X0073197Y0081249D01*
X0073197Y0070343D01*
X0073754Y0068997D01*
X0074785Y0067967D01*
X0076131Y0067409D01*
X0077588Y0067409D01*
X0078934Y0067967D01*
X0079964Y0068997D01*
X0080521Y0070343D01*
X0080521Y0081249D01*
X0079964Y0082595D01*
X0079359Y0083200D01*
X0079359Y0089738D01*
X0078978Y0090657D01*
X0063919Y0105716D01*
X0063216Y0106419D01*
X0062297Y0106800D01*
X0053731Y0106800D01*
X0053581Y0107161D01*
X0052161Y0108581D01*
X0050305Y0109350D01*
X0048295Y0109350D01*
X0046439Y0108581D01*
X0045019Y0107161D01*
X0044250Y0105305D01*
X0044250Y0103295D01*
X0045019Y0101439D01*
X0046439Y0100019D01*
X0048295Y0099250D01*
X0050305Y0099250D01*
X0052161Y0100019D01*
X0053581Y0101439D01*
X0053731Y0101800D01*
X0060764Y0101800D01*
X0061616Y0100949D01*
X0061610Y0100951D01*
X0060717Y0101190D01*
X0060139Y0101267D01*
X0060139Y0095061D01*
X0058539Y0095061D01*
X0058539Y0101267D01*
X0057961Y0101190D01*
X0057068Y0100951D01*
X0056214Y0100598D01*
X0055414Y0100135D01*
X0054681Y0099573D01*
X0054027Y0098919D01*
X0053465Y0098186D01*
X0053002Y0097386D01*
X0052649Y0096532D01*
X0052410Y0095639D01*
X0052333Y0095061D01*
X0058539Y0095061D01*
X0058539Y0096112D02*
X0060139Y0096112D01*
X0060139Y0094514D02*
X0068051Y0094514D01*
X0069649Y0092915D02*
X0066273Y0092915D01*
X0066268Y0092883D02*
X0066344Y0093461D01*
X0060139Y0093461D01*
X0060139Y0087255D01*
X0060717Y0087332D01*
X0061610Y0087571D01*
X0062464Y0087925D01*
X0063264Y0088387D01*
X0063997Y0088949D01*
X0064651Y0089603D01*
X0065213Y0090336D01*
X0065675Y0091136D01*
X0066029Y0091990D01*
X0066268Y0092883D01*
X0065750Y0091317D02*
X0071248Y0091317D01*
X0072846Y0089718D02*
X0064739Y0089718D01*
X0062802Y0088120D02*
X0074359Y0088120D01*
X0074359Y0086521D02*
X0043114Y0086521D01*
X0042724Y0088120D02*
X0055876Y0088120D01*
X0056214Y0087925D02*
X0055414Y0088387D01*
X0054681Y0088949D01*
X0054027Y0089603D01*
X0053465Y0090336D01*
X0053002Y0091136D01*
X0052649Y0091990D01*
X0052410Y0092883D01*
X0052333Y0093461D01*
X0058539Y0093461D01*
X0058539Y0087255D01*
X0057961Y0087332D01*
X0057068Y0087571D01*
X0056214Y0087925D01*
X0058539Y0088120D02*
X0060139Y0088120D01*
X0060139Y0089718D02*
X0058539Y0089718D01*
X0058539Y0091317D02*
X0060139Y0091317D01*
X0060139Y0092915D02*
X0058539Y0092915D01*
X0058539Y0097711D02*
X0060139Y0097711D01*
X0060139Y0099309D02*
X0058539Y0099309D01*
X0058539Y0100908D02*
X0060139Y0100908D01*
X0056963Y0100908D02*
X0053049Y0100908D01*
X0054417Y0099309D02*
X0050447Y0099309D01*
X0053190Y0097711D02*
X0045410Y0097711D01*
X0046064Y0096112D02*
X0052536Y0096112D01*
X0052405Y0092915D02*
X0046195Y0092915D01*
X0045672Y0091317D02*
X0052928Y0091317D01*
X0053939Y0089718D02*
X0044661Y0089718D01*
X0044713Y0084923D02*
X0074359Y0084923D01*
X0074359Y0083324D02*
X0072068Y0083324D01*
X0072160Y0083232D02*
X0071697Y0083695D01*
X0071166Y0084080D01*
X0070583Y0084378D01*
X0069960Y0084580D01*
X0069366Y0084674D01*
X0069366Y0076177D01*
X0073147Y0076177D01*
X0073147Y0080848D01*
X0073045Y0081495D01*
X0072842Y0082118D01*
X0072545Y0082702D01*
X0072160Y0083232D01*
X0072970Y0081726D02*
X0073394Y0081726D01*
X0073197Y0080127D02*
X0073147Y0080127D01*
X0073147Y0078529D02*
X0073197Y0078529D01*
X0073147Y0076930D02*
X0073197Y0076930D01*
X0073147Y0075415D02*
X0069366Y0075415D01*
X0069366Y0066918D01*
X0069960Y0067012D01*
X0070583Y0067214D01*
X0071166Y0067512D01*
X0071697Y0067897D01*
X0072160Y0068360D01*
X0072545Y0068890D01*
X0072842Y0069474D01*
X0073045Y0070097D01*
X0073147Y0070744D01*
X0073147Y0075415D01*
X0073147Y0075332D02*
X0073197Y0075332D01*
X0073147Y0073733D02*
X0073197Y0073733D01*
X0073147Y0072134D02*
X0073197Y0072134D01*
X0073197Y0070536D02*
X0073114Y0070536D01*
X0072569Y0068937D02*
X0073814Y0068937D01*
X0070827Y0067339D02*
X0082458Y0067339D01*
X0082000Y0068937D02*
X0079904Y0068937D01*
X0080521Y0070536D02*
X0082158Y0070536D01*
X0083053Y0072134D02*
X0080521Y0072134D01*
X0080521Y0073733D02*
X0095000Y0073733D01*
X0095000Y0075332D02*
X0093956Y0075332D01*
X0093821Y0083324D02*
X0095000Y0083324D01*
X0095000Y0084923D02*
X0079359Y0084923D01*
X0079359Y0083324D02*
X0084779Y0083324D01*
X0082650Y0081726D02*
X0080324Y0081726D01*
X0080521Y0080127D02*
X0082000Y0080127D01*
X0082000Y0078529D02*
X0080521Y0078529D01*
X0080521Y0076930D02*
X0082627Y0076930D01*
X0084644Y0075332D02*
X0080521Y0075332D01*
X0083778Y0065740D02*
X0063011Y0065740D01*
X0063011Y0067339D02*
X0067143Y0067339D01*
X0067387Y0067214D02*
X0068010Y0067012D01*
X0068604Y0066918D01*
X0068604Y0075415D01*
X0069366Y0075415D01*
X0069366Y0076177D01*
X0068604Y0076177D01*
X0068604Y0075415D01*
X0064823Y0075415D01*
X0064823Y0070744D01*
X0064925Y0070097D01*
X0065128Y0069474D01*
X0065425Y0068890D01*
X0065810Y0068360D01*
X0066274Y0067897D01*
X0066804Y0067512D01*
X0067387Y0067214D01*
X0068604Y0067339D02*
X0069366Y0067339D01*
X0069366Y0068937D02*
X0068604Y0068937D01*
X0068604Y0070536D02*
X0069366Y0070536D01*
X0069366Y0072134D02*
X0068604Y0072134D01*
X0068604Y0073733D02*
X0069366Y0073733D01*
X0069366Y0075332D02*
X0068604Y0075332D01*
X0068604Y0076177D02*
X0064823Y0076177D01*
X0064823Y0080848D01*
X0064925Y0081495D01*
X0065128Y0082118D01*
X0065425Y0082702D01*
X0065810Y0083232D01*
X0066274Y0083695D01*
X0066804Y0084080D01*
X0067387Y0084378D01*
X0068010Y0084580D01*
X0068604Y0084674D01*
X0068604Y0076177D01*
X0068604Y0076930D02*
X0069366Y0076930D01*
X0069366Y0078529D02*
X0068604Y0078529D01*
X0068604Y0080127D02*
X0069366Y0080127D01*
X0069366Y0081726D02*
X0068604Y0081726D01*
X0068604Y0083324D02*
X0069366Y0083324D01*
X0065902Y0083324D02*
X0063487Y0083324D01*
X0063185Y0083625D02*
X0061839Y0084183D01*
X0060383Y0084183D01*
X0059037Y0083625D01*
X0058006Y0082595D01*
X0057449Y0081249D01*
X0057449Y0070343D01*
X0058006Y0068997D01*
X0059037Y0067967D01*
X0059211Y0067895D01*
X0059211Y0049202D01*
X0073719Y0034694D01*
X0073719Y0033687D01*
X0074188Y0032555D01*
X0075055Y0031688D01*
X0076187Y0031219D01*
X0077413Y0031219D01*
X0078545Y0031688D01*
X0079412Y0032555D01*
X0079881Y0033687D01*
X0079881Y0034913D01*
X0079412Y0036045D01*
X0078545Y0036912D01*
X0077413Y0037381D01*
X0076406Y0037381D01*
X0063011Y0050776D01*
X0063011Y0067895D01*
X0063185Y0067967D01*
X0064216Y0068997D01*
X0064773Y0070343D01*
X0064773Y0081249D01*
X0064216Y0082595D01*
X0063185Y0083625D01*
X0064576Y0081726D02*
X0065000Y0081726D01*
X0064823Y0080127D02*
X0064773Y0080127D01*
X0064773Y0078529D02*
X0064823Y0078529D01*
X0064773Y0076930D02*
X0064823Y0076930D01*
X0064773Y0075332D02*
X0064823Y0075332D01*
X0064773Y0073733D02*
X0064823Y0073733D01*
X0064773Y0072134D02*
X0064823Y0072134D01*
X0064773Y0070536D02*
X0064856Y0070536D01*
X0065401Y0068937D02*
X0064156Y0068937D01*
X0063011Y0064142D02*
X0095000Y0064142D01*
X0095000Y0065740D02*
X0094822Y0065740D01*
X0095000Y0054551D02*
X0063011Y0054551D01*
X0063011Y0056149D02*
X0083369Y0056149D01*
X0082289Y0057748D02*
X0063011Y0057748D01*
X0063011Y0059346D02*
X0082000Y0059346D01*
X0082327Y0060945D02*
X0063011Y0060945D01*
X0063011Y0062543D02*
X0083462Y0062543D01*
X0083881Y0052952D02*
X0063011Y0052952D01*
X0063011Y0051354D02*
X0082496Y0051354D01*
X0082000Y0049755D02*
X0064032Y0049755D01*
X0065630Y0048157D02*
X0082119Y0048157D01*
X0082961Y0046558D02*
X0067229Y0046558D01*
X0068827Y0044960D02*
X0095000Y0044960D01*
X0095000Y0043361D02*
X0093732Y0043361D01*
X0094046Y0035369D02*
X0095000Y0035369D01*
X0095000Y0033770D02*
X0079881Y0033770D01*
X0079692Y0035369D02*
X0084554Y0035369D01*
X0082612Y0036967D02*
X0078412Y0036967D01*
X0075221Y0038566D02*
X0082000Y0038566D01*
X0082004Y0040164D02*
X0073623Y0040164D01*
X0072024Y0041763D02*
X0082682Y0041763D01*
X0084868Y0043361D02*
X0070426Y0043361D01*
X0068249Y0040164D02*
X0054777Y0040164D01*
X0054831Y0038566D02*
X0069847Y0038566D01*
X0071446Y0036967D02*
X0053825Y0036967D01*
X0056615Y0032172D02*
X0074571Y0032172D01*
X0073719Y0033770D02*
X0003600Y0033770D01*
X0003600Y0035369D02*
X0004554Y0035369D01*
X0004868Y0043361D02*
X0003600Y0043361D01*
X0003600Y0044960D02*
X0015953Y0044960D01*
X0013732Y0043361D02*
X0065052Y0043361D01*
X0063453Y0044960D02*
X0059317Y0044960D01*
X0059412Y0045055D02*
X0059881Y0046187D01*
X0059881Y0047413D01*
X0059412Y0048545D01*
X0058545Y0049412D01*
X0057413Y0049881D01*
X0056406Y0049881D01*
X0055137Y0051150D01*
X0055137Y0067895D01*
X0055311Y0067967D01*
X0056342Y0068997D01*
X0056899Y0070343D01*
X0056899Y0081249D01*
X0056342Y0082595D01*
X0055311Y0083625D01*
X0053965Y0084183D01*
X0052509Y0084183D01*
X0051163Y0083625D01*
X0050132Y0082595D01*
X0049575Y0081249D01*
X0049575Y0070343D01*
X0050132Y0068997D01*
X0051163Y0067967D01*
X0051337Y0067895D01*
X0051337Y0049576D01*
X0053719Y0047194D01*
X0053719Y0046187D01*
X0054188Y0045055D01*
X0055055Y0044188D01*
X0056187Y0043719D01*
X0057413Y0043719D01*
X0058545Y0044188D01*
X0059412Y0045055D01*
X0059881Y0046558D02*
X0061855Y0046558D01*
X0060256Y0048157D02*
X0059573Y0048157D01*
X0059211Y0049755D02*
X0057716Y0049755D01*
X0059211Y0051354D02*
X0055137Y0051354D01*
X0055137Y0052952D02*
X0059211Y0052952D01*
X0059211Y0054551D02*
X0055137Y0054551D01*
X0055137Y0056149D02*
X0059211Y0056149D01*
X0059211Y0057748D02*
X0055137Y0057748D01*
X0055137Y0059346D02*
X0059211Y0059346D01*
X0059211Y0060945D02*
X0055137Y0060945D01*
X0055137Y0062543D02*
X0059211Y0062543D01*
X0059211Y0064142D02*
X0055137Y0064142D01*
X0055137Y0065740D02*
X0059211Y0065740D01*
X0059211Y0067339D02*
X0055137Y0067339D01*
X0056282Y0068937D02*
X0058066Y0068937D01*
X0057449Y0070536D02*
X0056899Y0070536D01*
X0056899Y0072134D02*
X0057449Y0072134D01*
X0057449Y0073733D02*
X0056899Y0073733D01*
X0056899Y0075332D02*
X0057449Y0075332D01*
X0057449Y0076930D02*
X0056899Y0076930D01*
X0056899Y0078529D02*
X0057449Y0078529D01*
X0057449Y0080127D02*
X0056899Y0080127D01*
X0056702Y0081726D02*
X0057646Y0081726D01*
X0058735Y0083324D02*
X0055613Y0083324D01*
X0050861Y0083324D02*
X0047739Y0083324D01*
X0048828Y0081726D02*
X0049772Y0081726D01*
X0049575Y0080127D02*
X0049025Y0080127D01*
X0049025Y0078529D02*
X0049575Y0078529D01*
X0049575Y0076930D02*
X0049025Y0076930D01*
X0049025Y0075332D02*
X0049575Y0075332D01*
X0049575Y0073733D02*
X0049025Y0073733D01*
X0049025Y0072134D02*
X0049575Y0072134D01*
X0049575Y0070536D02*
X0049025Y0070536D01*
X0048408Y0068937D02*
X0050192Y0068937D01*
X0051337Y0067339D02*
X0046800Y0067339D01*
X0046800Y0065740D02*
X0051337Y0065740D01*
X0051337Y0064142D02*
X0046800Y0064142D01*
X0046800Y0062543D02*
X0051337Y0062543D01*
X0051337Y0060945D02*
X0046800Y0060945D01*
X0046800Y0059346D02*
X0051337Y0059346D01*
X0051337Y0057748D02*
X0046800Y0057748D01*
X0046808Y0056149D02*
X0051337Y0056149D01*
X0051337Y0054551D02*
X0047381Y0054551D01*
X0047077Y0052952D02*
X0051337Y0052952D01*
X0051337Y0051354D02*
X0045239Y0051354D01*
X0045216Y0049755D02*
X0051337Y0049755D01*
X0052756Y0048157D02*
X0047073Y0048157D01*
X0047381Y0046558D02*
X0053719Y0046558D01*
X0054283Y0044960D02*
X0046817Y0044960D01*
X0049905Y0041763D02*
X0015918Y0041763D01*
X0015988Y0036967D02*
X0049775Y0036967D01*
X0053695Y0041763D02*
X0066650Y0041763D01*
X0073044Y0035369D02*
X0014046Y0035369D01*
X0016662Y0028975D02*
X0019617Y0028975D01*
X0018719Y0027376D02*
X0016157Y0027376D01*
X0014859Y0025778D02*
X0018888Y0025778D01*
X0018778Y0024179D02*
X0019900Y0024179D01*
X0019900Y0022581D02*
X0019812Y0022581D01*
X0019796Y0020982D02*
X0019900Y0020982D01*
X0018079Y0017785D02*
X0016327Y0017785D01*
X0015268Y0016187D02*
X0018079Y0016187D01*
X0018079Y0014588D02*
X0003600Y0014588D01*
X0009100Y0012990D02*
X0009500Y0012990D01*
X0009500Y0014100D02*
X0009500Y0009500D01*
X0017100Y0009500D01*
X0017100Y0009678D01*
X0016982Y0010424D01*
X0016748Y0011143D01*
X0016405Y0011816D01*
X0015961Y0012427D01*
X0015427Y0012961D01*
X0014816Y0013405D01*
X0014143Y0013748D01*
X0013424Y0013982D01*
X0012678Y0014100D01*
X0009500Y0014100D01*
X0009500Y0011391D02*
X0009100Y0011391D01*
X0009100Y0009793D02*
X0009500Y0009793D01*
X0009500Y0009100D02*
X0017100Y0009100D01*
X0017100Y0008922D01*
X0016982Y0008176D01*
X0016748Y0007457D01*
X0016405Y0006784D01*
X0015961Y0006173D01*
X0015427Y0005639D01*
X0014816Y0005195D01*
X0014143Y0004852D01*
X0013424Y0004618D01*
X0012678Y0004500D01*
X0009500Y0004500D01*
X0009500Y0009100D01*
X0009500Y0008194D02*
X0009100Y0008194D01*
X0009100Y0006596D02*
X0009500Y0006596D01*
X0009500Y0004997D02*
X0009100Y0004997D01*
X0004172Y0004997D02*
X0003600Y0004997D01*
X0014428Y0004997D02*
X0019644Y0004997D01*
X0018392Y0006596D02*
X0016268Y0006596D01*
X0016985Y0008194D02*
X0018079Y0008194D01*
X0018079Y0009793D02*
X0017082Y0009793D01*
X0016622Y0011391D02*
X0018079Y0011391D01*
X0018079Y0012990D02*
X0015388Y0012990D01*
X0014822Y0024179D02*
X0003600Y0024179D01*
X0003600Y0025778D02*
X0003741Y0025778D01*
X0016600Y0049755D02*
X0034487Y0049755D01*
X0035390Y0054551D02*
X0031408Y0054551D01*
X0032365Y0056149D02*
X0041792Y0056149D01*
X0041800Y0057748D02*
X0032242Y0057748D01*
X0031111Y0059346D02*
X0034896Y0059346D01*
X0038704Y0059346D02*
X0041800Y0059346D01*
X0041800Y0060945D02*
X0039781Y0060945D01*
X0039827Y0062543D02*
X0041800Y0062543D01*
X0041800Y0064142D02*
X0039389Y0064142D01*
X0039389Y0065740D02*
X0041800Y0065740D01*
X0041800Y0067339D02*
X0039389Y0067339D01*
X0040534Y0068937D02*
X0041800Y0068937D01*
X0041701Y0070536D02*
X0041151Y0070536D01*
X0041151Y0072134D02*
X0041701Y0072134D01*
X0041701Y0073733D02*
X0041151Y0073733D01*
X0041151Y0075332D02*
X0041701Y0075332D01*
X0041701Y0076930D02*
X0041151Y0076930D01*
X0041151Y0078529D02*
X0041701Y0078529D01*
X0041701Y0080127D02*
X0041151Y0080127D01*
X0032458Y0096112D02*
X0029250Y0096112D01*
X0029250Y0097711D02*
X0033112Y0097711D01*
X0034339Y0099309D02*
X0029250Y0099309D01*
X0029250Y0100908D02*
X0036885Y0100908D01*
X0038461Y0100908D02*
X0040061Y0100908D01*
X0040061Y0099309D02*
X0038461Y0099309D01*
X0038461Y0097711D02*
X0040061Y0097711D01*
X0041637Y0100908D02*
X0045551Y0100908D01*
X0044577Y0102506D02*
X0028022Y0102506D01*
X0034768Y0108900D02*
X0018946Y0108900D01*
X0020544Y0110499D02*
X0033338Y0110499D01*
X0032563Y0112097D02*
X0022143Y0112097D01*
X0023741Y0113696D02*
X0038461Y0113696D01*
X0038461Y0112097D02*
X0040061Y0112097D01*
X0040061Y0113539D02*
X0040061Y0107333D01*
X0040639Y0107410D01*
X0041532Y0107649D01*
X0042386Y0108002D01*
X0043186Y0108465D01*
X0043919Y0109027D01*
X0044573Y0109681D01*
X0045135Y0110414D01*
X0045598Y0111214D01*
X0045951Y0112068D01*
X0046190Y0112961D01*
X0046267Y0113539D01*
X0040061Y0113539D01*
X0040061Y0113696D02*
X0058539Y0113696D01*
X0058539Y0113539D02*
X0052333Y0113539D01*
X0052410Y0112961D01*
X0052649Y0112068D01*
X0053002Y0111214D01*
X0053465Y0110414D01*
X0054027Y0109681D01*
X0054681Y0109027D01*
X0055414Y0108465D01*
X0056214Y0108002D01*
X0057068Y0107649D01*
X0057961Y0107410D01*
X0058539Y0107333D01*
X0058539Y0113539D01*
X0058539Y0112097D02*
X0060139Y0112097D01*
X0060139Y0113539D02*
X0060139Y0107333D01*
X0060717Y0107410D01*
X0061610Y0107649D01*
X0062464Y0108002D01*
X0063264Y0108465D01*
X0063997Y0109027D01*
X0064651Y0109681D01*
X0065213Y0110414D01*
X0065675Y0111214D01*
X0066029Y0112068D01*
X0066268Y0112961D01*
X0066344Y0113539D01*
X0060139Y0113539D01*
X0060139Y0113696D02*
X0074859Y0113696D01*
X0076457Y0112097D02*
X0066037Y0112097D01*
X0065262Y0110499D02*
X0078056Y0110499D01*
X0079654Y0108900D02*
X0063832Y0108900D01*
X0063919Y0105716D02*
X0063919Y0105716D01*
X0063932Y0105703D02*
X0082851Y0105703D01*
X0084450Y0104105D02*
X0065531Y0104105D01*
X0067129Y0102506D02*
X0086048Y0102506D01*
X0087647Y0100908D02*
X0068728Y0100908D01*
X0070326Y0099309D02*
X0089245Y0099309D01*
X0090844Y0097711D02*
X0071925Y0097711D01*
X0073523Y0096112D02*
X0092442Y0096112D01*
X0094041Y0094514D02*
X0075122Y0094514D01*
X0076720Y0092915D02*
X0095000Y0092915D01*
X0095000Y0091317D02*
X0078319Y0091317D01*
X0079359Y0089718D02*
X0095000Y0089718D01*
X0095000Y0088120D02*
X0079359Y0088120D01*
X0079359Y0086521D02*
X0095000Y0086521D01*
X0081253Y0107302D02*
X0053440Y0107302D01*
X0054846Y0108900D02*
X0051390Y0108900D01*
X0053415Y0110499D02*
X0045185Y0110499D01*
X0045959Y0112097D02*
X0052641Y0112097D01*
X0052354Y0115294D02*
X0046246Y0115294D01*
X0045834Y0116893D02*
X0052766Y0116893D01*
X0053639Y0118491D02*
X0044961Y0118491D01*
X0040061Y0110499D02*
X0038461Y0110499D01*
X0038461Y0108900D02*
X0040061Y0108900D01*
X0043754Y0108900D02*
X0047210Y0108900D01*
X0045160Y0107302D02*
X0017347Y0107302D01*
X0015749Y0105703D02*
X0044415Y0105703D01*
X0044250Y0104105D02*
X0014150Y0104105D01*
X0025340Y0115294D02*
X0032276Y0115294D01*
X0032688Y0116893D02*
X0026938Y0116893D01*
X0028537Y0118491D02*
X0033561Y0118491D01*
X0044183Y0099309D02*
X0048153Y0099309D01*
X0058539Y0108900D02*
X0060139Y0108900D01*
X0060139Y0110499D02*
X0058539Y0110499D01*
X0065039Y0118491D02*
X0070063Y0118491D01*
X0071662Y0116893D02*
X0065912Y0116893D01*
X0066324Y0115294D02*
X0073260Y0115294D01*
X0066452Y0096112D02*
X0066142Y0096112D01*
X0041219Y0054551D02*
X0038210Y0054551D01*
X0039658Y0052952D02*
X0041523Y0052952D01*
X0039881Y0051354D02*
X0043361Y0051354D01*
X0043384Y0049755D02*
X0039113Y0049755D01*
X0027192Y0054551D02*
X0026736Y0054551D01*
X0024559Y0051354D02*
X0016104Y0051354D01*
X0014719Y0052952D02*
X0022961Y0052952D01*
X0021362Y0054551D02*
X0003600Y0054551D01*
X0003600Y0052952D02*
X0003881Y0052952D01*
X0015230Y0056149D02*
X0019764Y0056149D01*
X0019645Y0064142D02*
X0020166Y0064142D01*
X0018904Y0065740D02*
X0018047Y0065740D01*
X0018719Y0067339D02*
X0016448Y0067339D01*
X0016600Y0068937D02*
X0018696Y0068937D01*
X0018079Y0070536D02*
X0016442Y0070536D01*
X0015547Y0072134D02*
X0018079Y0072134D01*
X0018079Y0073733D02*
X0003600Y0073733D01*
X0003600Y0075332D02*
X0004644Y0075332D01*
X0004779Y0083324D02*
X0003600Y0083324D01*
X0013821Y0083324D02*
X0019365Y0083324D01*
X0018276Y0081726D02*
X0015950Y0081726D01*
X0016600Y0080127D02*
X0018079Y0080127D01*
X0018079Y0078529D02*
X0016600Y0078529D01*
X0015973Y0076930D02*
X0018079Y0076930D01*
X0018079Y0075332D02*
X0013956Y0075332D01*
X0026941Y0059346D02*
X0027489Y0059346D01*
X0028687Y0029881D02*
X0027555Y0029412D01*
X0026688Y0028545D01*
X0026219Y0027413D01*
X0026219Y0026187D01*
X0026688Y0025055D01*
X0027400Y0024343D01*
X0027400Y0020493D01*
X0026510Y0019603D01*
X0025953Y0018257D01*
X0025953Y0007351D01*
X0026510Y0006005D01*
X0027540Y0004975D01*
X0028886Y0004417D01*
X0030343Y0004417D01*
X0031689Y0004975D01*
X0032720Y0006005D01*
X0033277Y0007351D01*
X0033277Y0018257D01*
X0032720Y0019603D01*
X0031689Y0020633D01*
X0031200Y0020836D01*
X0031200Y0024343D01*
X0031912Y0025055D01*
X0032381Y0026187D01*
X0032381Y0027413D01*
X0031912Y0028545D01*
X0031045Y0029412D01*
X0029913Y0029881D01*
X0028687Y0029881D01*
X0027117Y0028975D02*
X0023983Y0028975D01*
X0024881Y0027376D02*
X0026219Y0027376D01*
X0026388Y0025778D02*
X0024711Y0025778D01*
X0023700Y0024179D02*
X0027400Y0024179D01*
X0027400Y0022581D02*
X0023700Y0022581D01*
X0023700Y0020982D02*
X0027400Y0020982D01*
X0026420Y0019384D02*
X0024936Y0019384D01*
X0025403Y0017785D02*
X0025953Y0017785D01*
X0025953Y0016187D02*
X0025403Y0016187D01*
X0025403Y0014588D02*
X0025953Y0014588D01*
X0025953Y0012990D02*
X0025403Y0012990D01*
X0025403Y0011391D02*
X0025953Y0011391D01*
X0025953Y0009793D02*
X0025403Y0009793D01*
X0025403Y0008194D02*
X0025953Y0008194D01*
X0026266Y0006596D02*
X0025090Y0006596D01*
X0023838Y0004997D02*
X0027518Y0004997D01*
X0031712Y0004997D02*
X0035392Y0004997D01*
X0035414Y0004975D02*
X0036761Y0004417D01*
X0038217Y0004417D01*
X0039563Y0004975D01*
X0040594Y0006005D01*
X0041151Y0007351D01*
X0041151Y0018257D01*
X0040594Y0019603D01*
X0039563Y0020633D01*
X0038700Y0020991D01*
X0038700Y0024343D01*
X0039412Y0025055D01*
X0039881Y0026187D01*
X0039881Y0027413D01*
X0039412Y0028545D01*
X0038545Y0029412D01*
X0037413Y0029881D01*
X0036187Y0029881D01*
X0035055Y0029412D01*
X0034188Y0028545D01*
X0033719Y0027413D01*
X0033719Y0026187D01*
X0034188Y0025055D01*
X0034900Y0024343D01*
X0034900Y0020119D01*
X0034384Y0019603D01*
X0033827Y0018257D01*
X0033827Y0007351D01*
X0034384Y0006005D01*
X0035414Y0004975D01*
X0034140Y0006596D02*
X0032964Y0006596D01*
X0033277Y0008194D02*
X0033827Y0008194D01*
X0033827Y0009793D02*
X0033277Y0009793D01*
X0033277Y0011391D02*
X0033827Y0011391D01*
X0033827Y0012990D02*
X0033277Y0012990D01*
X0033277Y0014588D02*
X0033827Y0014588D01*
X0033827Y0016187D02*
X0033277Y0016187D01*
X0033277Y0017785D02*
X0033827Y0017785D01*
X0034294Y0019384D02*
X0032810Y0019384D01*
X0031200Y0020982D02*
X0034900Y0020982D01*
X0034900Y0022581D02*
X0031200Y0022581D01*
X0031200Y0024179D02*
X0034900Y0024179D01*
X0033888Y0025778D02*
X0032211Y0025778D01*
X0032381Y0027376D02*
X0033719Y0027376D01*
X0034617Y0028975D02*
X0031483Y0028975D01*
X0038983Y0028975D02*
X0042117Y0028975D01*
X0041688Y0028545D02*
X0041219Y0027413D01*
X0041219Y0026187D01*
X0041688Y0025055D01*
X0042400Y0024343D01*
X0042400Y0019745D01*
X0042258Y0019603D01*
X0041701Y0018257D01*
X0041701Y0007351D01*
X0042258Y0006005D01*
X0043289Y0004975D01*
X0044635Y0004417D01*
X0046091Y0004417D01*
X0047437Y0004975D01*
X0048468Y0006005D01*
X0049025Y0007351D01*
X0049025Y0018257D01*
X0048468Y0019603D01*
X0047437Y0020633D01*
X0046200Y0021146D01*
X0046200Y0024343D01*
X0046912Y0025055D01*
X0047381Y0026187D01*
X0047381Y0027413D01*
X0046912Y0028545D01*
X0046045Y0029412D01*
X0044913Y0029881D01*
X0043687Y0029881D01*
X0042555Y0029412D01*
X0041688Y0028545D01*
X0041219Y0027376D02*
X0039881Y0027376D01*
X0039711Y0025778D02*
X0041388Y0025778D01*
X0042400Y0024179D02*
X0038700Y0024179D01*
X0038700Y0022581D02*
X0042400Y0022581D01*
X0042400Y0020982D02*
X0038721Y0020982D01*
X0040684Y0019384D02*
X0042168Y0019384D01*
X0041701Y0017785D02*
X0041151Y0017785D01*
X0041151Y0016187D02*
X0041701Y0016187D01*
X0041701Y0014588D02*
X0041151Y0014588D01*
X0041151Y0012990D02*
X0041701Y0012990D01*
X0041701Y0011391D02*
X0041151Y0011391D01*
X0041151Y0009793D02*
X0041701Y0009793D01*
X0041701Y0008194D02*
X0041151Y0008194D01*
X0040838Y0006596D02*
X0042014Y0006596D01*
X0043266Y0004997D02*
X0039586Y0004997D01*
X0047460Y0004997D02*
X0051140Y0004997D01*
X0051163Y0004975D02*
X0052509Y0004417D01*
X0053965Y0004417D01*
X0055311Y0004975D01*
X0056342Y0006005D01*
X0056899Y0007351D01*
X0056899Y0018257D01*
X0056342Y0019603D01*
X0055311Y0020633D01*
X0053965Y0021191D01*
X0053700Y0021191D01*
X0053700Y0024343D01*
X0054412Y0025055D01*
X0054881Y0026187D01*
X0054881Y0027413D01*
X0054412Y0028545D01*
X0053545Y0029412D01*
X0052413Y0029881D01*
X0051187Y0029881D01*
X0050055Y0029412D01*
X0049188Y0028545D01*
X0048719Y0027413D01*
X0048719Y0026187D01*
X0049188Y0025055D01*
X0049900Y0024343D01*
X0049900Y0019042D01*
X0049575Y0018257D01*
X0049575Y0007351D01*
X0050132Y0006005D01*
X0051163Y0004975D01*
X0049888Y0006596D02*
X0048712Y0006596D01*
X0049025Y0008194D02*
X0049575Y0008194D01*
X0049575Y0009793D02*
X0049025Y0009793D01*
X0049025Y0011391D02*
X0049575Y0011391D01*
X0049575Y0012990D02*
X0049025Y0012990D01*
X0049025Y0014588D02*
X0049575Y0014588D01*
X0049575Y0016187D02*
X0049025Y0016187D01*
X0049025Y0017785D02*
X0049575Y0017785D01*
X0049900Y0019384D02*
X0048558Y0019384D01*
X0049900Y0020982D02*
X0046595Y0020982D01*
X0046200Y0022581D02*
X0049900Y0022581D01*
X0049900Y0024179D02*
X0046200Y0024179D01*
X0047211Y0025778D02*
X0048888Y0025778D01*
X0048719Y0027376D02*
X0047381Y0027376D01*
X0046483Y0028975D02*
X0049617Y0028975D01*
X0053983Y0028975D02*
X0054438Y0028975D01*
X0054881Y0027376D02*
X0056037Y0027376D01*
X0054711Y0025778D02*
X0057635Y0025778D01*
X0059234Y0024179D02*
X0053700Y0024179D01*
X0053700Y0022581D02*
X0059900Y0022581D01*
X0059879Y0020982D02*
X0054469Y0020982D01*
X0056432Y0019384D02*
X0057916Y0019384D01*
X0057449Y0017785D02*
X0056899Y0017785D01*
X0056899Y0016187D02*
X0057449Y0016187D01*
X0057449Y0014588D02*
X0056899Y0014588D01*
X0056899Y0012990D02*
X0057449Y0012990D01*
X0057449Y0011391D02*
X0056899Y0011391D01*
X0056899Y0009793D02*
X0057449Y0009793D01*
X0057449Y0008194D02*
X0056899Y0008194D01*
X0056586Y0006596D02*
X0057762Y0006596D01*
X0059014Y0004997D02*
X0055334Y0004997D01*
X0063208Y0004997D02*
X0066888Y0004997D01*
X0066911Y0004975D02*
X0068257Y0004417D01*
X0069713Y0004417D01*
X0071060Y0004975D01*
X0072090Y0006005D01*
X0072647Y0007351D01*
X0072647Y0018257D01*
X0072090Y0019603D01*
X0071060Y0020633D01*
X0070367Y0020920D01*
X0070087Y0021200D01*
X0069881Y0021406D01*
X0069881Y0022413D01*
X0069412Y0023545D01*
X0068545Y0024412D01*
X0067413Y0024881D01*
X0066187Y0024881D01*
X0065055Y0024412D01*
X0064188Y0023545D01*
X0063719Y0022413D01*
X0063719Y0021187D01*
X0064188Y0020055D01*
X0065055Y0019188D01*
X0065613Y0018957D01*
X0065323Y0018257D01*
X0065323Y0007351D01*
X0065880Y0006005D01*
X0066911Y0004975D01*
X0065636Y0006596D02*
X0064460Y0006596D01*
X0064773Y0008194D02*
X0065323Y0008194D01*
X0065323Y0009793D02*
X0064773Y0009793D01*
X0064773Y0011391D02*
X0065323Y0011391D01*
X0065323Y0012990D02*
X0064773Y0012990D01*
X0064773Y0014588D02*
X0065323Y0014588D01*
X0065323Y0016187D02*
X0064773Y0016187D01*
X0064773Y0017785D02*
X0065323Y0017785D01*
X0064859Y0019384D02*
X0064306Y0019384D01*
X0063804Y0020982D02*
X0063700Y0020982D01*
X0063700Y0022581D02*
X0063788Y0022581D01*
X0063700Y0024179D02*
X0064822Y0024179D01*
X0063009Y0025778D02*
X0083741Y0025778D01*
X0082443Y0027376D02*
X0061411Y0027376D01*
X0059812Y0028975D02*
X0082000Y0028975D01*
X0082173Y0030573D02*
X0058214Y0030573D01*
X0068778Y0024179D02*
X0095000Y0024179D01*
X0095000Y0025778D02*
X0094859Y0025778D01*
X0089500Y0022581D02*
X0089100Y0022581D01*
X0089100Y0020982D02*
X0089500Y0020982D01*
X0089100Y0019384D02*
X0080585Y0019384D01*
X0080716Y0019126D02*
X0080419Y0019710D01*
X0080034Y0020240D01*
X0079571Y0020703D01*
X0079041Y0021088D01*
X0078457Y0021386D01*
X0077834Y0021588D01*
X0077240Y0021682D01*
X0077240Y0013185D01*
X0076478Y0013185D01*
X0076478Y0021682D01*
X0075884Y0021588D01*
X0075261Y0021386D01*
X0074678Y0021088D01*
X0074148Y0020703D01*
X0073684Y0020240D01*
X0073299Y0019710D01*
X0073002Y0019126D01*
X0072799Y0018503D01*
X0072697Y0017856D01*
X0072697Y0013185D01*
X0076478Y0013185D01*
X0076478Y0012423D01*
X0072697Y0012423D01*
X0072697Y0007752D01*
X0072799Y0007105D01*
X0073002Y0006482D01*
X0073299Y0005898D01*
X0073684Y0005368D01*
X0074148Y0004905D01*
X0074678Y0004520D01*
X0075261Y0004222D01*
X0075884Y0004020D01*
X0076478Y0003926D01*
X0076478Y0012423D01*
X0077240Y0012423D01*
X0077240Y0003926D01*
X0077834Y0004020D01*
X0078457Y0004222D01*
X0079041Y0004520D01*
X0079571Y0004905D01*
X0080034Y0005368D01*
X0080419Y0005898D01*
X0080716Y0006482D01*
X0080919Y0007105D01*
X0081021Y0007752D01*
X0081021Y0012423D01*
X0077240Y0012423D01*
X0077240Y0013185D01*
X0081021Y0013185D01*
X0081021Y0017856D01*
X0080919Y0018503D01*
X0080716Y0019126D01*
X0081500Y0019100D02*
X0081500Y0018922D01*
X0081618Y0018176D01*
X0081852Y0017457D01*
X0082195Y0016784D01*
X0082639Y0016173D01*
X0083173Y0015639D01*
X0083784Y0015195D01*
X0084457Y0014852D01*
X0085176Y0014618D01*
X0085922Y0014500D01*
X0089100Y0014500D01*
X0089100Y0019100D01*
X0081500Y0019100D01*
X0081745Y0017785D02*
X0081021Y0017785D01*
X0081021Y0016187D02*
X0082629Y0016187D01*
X0081021Y0014588D02*
X0085366Y0014588D01*
X0089100Y0014588D02*
X0089500Y0014588D01*
X0089500Y0016187D02*
X0089100Y0016187D01*
X0089100Y0017785D02*
X0089500Y0017785D01*
X0093234Y0014588D02*
X0095000Y0014588D01*
X0095000Y0012990D02*
X0077240Y0012990D01*
X0076478Y0012990D02*
X0072647Y0012990D01*
X0072647Y0014588D02*
X0072697Y0014588D01*
X0072647Y0016187D02*
X0072697Y0016187D01*
X0072647Y0017785D02*
X0072697Y0017785D01*
X0073133Y0019384D02*
X0072180Y0019384D01*
X0070305Y0020982D02*
X0074532Y0020982D01*
X0076478Y0020982D02*
X0077240Y0020982D01*
X0077240Y0019384D02*
X0076478Y0019384D01*
X0076478Y0017785D02*
X0077240Y0017785D01*
X0077240Y0016187D02*
X0076478Y0016187D01*
X0076478Y0014588D02*
X0077240Y0014588D01*
X0077240Y0011391D02*
X0076478Y0011391D01*
X0076478Y0009793D02*
X0077240Y0009793D01*
X0077240Y0008194D02*
X0076478Y0008194D01*
X0076478Y0006596D02*
X0077240Y0006596D01*
X0077240Y0004997D02*
X0076478Y0004997D01*
X0074055Y0004997D02*
X0071082Y0004997D01*
X0072334Y0006596D02*
X0072965Y0006596D01*
X0072697Y0008194D02*
X0072647Y0008194D01*
X0072647Y0009793D02*
X0072697Y0009793D01*
X0072647Y0011391D02*
X0072697Y0011391D01*
X0079663Y0004997D02*
X0095000Y0004997D01*
X0095000Y0006596D02*
X0080753Y0006596D01*
X0081021Y0008194D02*
X0095000Y0008194D01*
X0095000Y0009793D02*
X0081021Y0009793D01*
X0081021Y0011391D02*
X0095000Y0011391D01*
X0082792Y0022581D02*
X0069812Y0022581D01*
X0079186Y0020982D02*
X0081800Y0020982D01*
X0083091Y0032172D02*
X0079029Y0032172D01*
X0094719Y0052952D02*
X0095000Y0052952D01*
D17*
X0076800Y0034300D03*
X0066800Y0021800D03*
X0051800Y0026800D03*
X0044300Y0026800D03*
X0036800Y0026800D03*
X0029300Y0026800D03*
X0021800Y0026800D03*
X0016800Y0021800D03*
X0021800Y0051800D03*
X0029300Y0056800D03*
X0029300Y0064300D03*
X0021800Y0066800D03*
X0036800Y0061800D03*
X0044300Y0054300D03*
X0044300Y0046800D03*
X0036800Y0051800D03*
X0051800Y0039300D03*
X0056800Y0046800D03*
X0089300Y0009300D03*
X0089300Y0094300D03*
X0084300Y0099300D03*
X0079300Y0104300D03*
X0074300Y0109300D03*
X0069300Y0114300D03*
X0029300Y0114300D03*
X0024300Y0109300D03*
X0019300Y0104300D03*
X0014300Y0099300D03*
X0009300Y0094300D03*
D18*
X0021741Y0075796D02*
X0021741Y0069359D01*
X0021800Y0066800D01*
X0021800Y0061800D02*
X0019300Y0061800D01*
X0011800Y0069300D01*
X0009300Y0069300D01*
X0009300Y0059300D02*
X0019300Y0059300D01*
X0026800Y0051800D01*
X0036800Y0051800D01*
X0044300Y0046800D02*
X0016800Y0046800D01*
X0014300Y0049300D01*
X0009300Y0049300D01*
X0009300Y0039300D02*
X0051800Y0039300D01*
X0054300Y0031800D02*
X0061800Y0024300D01*
X0061800Y0013493D01*
X0061111Y0012804D01*
X0069300Y0019300D02*
X0066800Y0021800D01*
X0069300Y0019300D02*
X0069300Y0013119D01*
X0068985Y0012804D01*
X0054300Y0031800D02*
X0016800Y0031800D01*
X0014300Y0029300D01*
X0009300Y0029300D01*
X0009300Y0019300D02*
X0014300Y0019300D01*
X0016800Y0021800D01*
X0021800Y0026800D02*
X0021800Y0012863D01*
X0021741Y0012804D01*
X0029300Y0013119D02*
X0029615Y0012804D01*
X0029300Y0013119D02*
X0029300Y0026800D01*
X0036800Y0026800D02*
X0036800Y0013493D01*
X0037489Y0012804D01*
X0044300Y0013867D02*
X0045363Y0012804D01*
X0044300Y0013867D02*
X0044300Y0026800D01*
X0051800Y0026800D02*
X0051800Y0014241D01*
X0053237Y0012804D01*
X0076800Y0034300D02*
X0061111Y0049989D01*
X0061111Y0075796D01*
X0053237Y0075796D02*
X0053237Y0050363D01*
X0056800Y0046800D01*
X0037489Y0062489D02*
X0036800Y0061800D01*
X0037489Y0062489D02*
X0037489Y0075796D01*
X0044300Y0075796D02*
X0045363Y0075796D01*
X0045363Y0080737D01*
X0029615Y0075796D02*
X0029615Y0064615D01*
X0029300Y0064300D01*
X0029300Y0056800D02*
X0026800Y0056800D01*
X0021800Y0061800D01*
D19*
X0027863Y0086800D02*
X0024300Y0090363D01*
X0027863Y0086800D02*
X0039300Y0086800D01*
X0045363Y0080737D01*
X0044300Y0075796D02*
X0044300Y0054300D01*
X0076859Y0075796D02*
X0076859Y0089241D01*
X0061800Y0104300D01*
X0049300Y0104300D01*
M02*
