%
M48
M72
T01C0.0236
T02C0.0400
T03C0.0500
T04C0.0700
%
T01
X930Y9430
X1430Y9930
X1930Y10430
X2430Y10930
X2930Y11430
X2180Y6680
X2930Y6430
X2930Y5680
X2180Y5180
X3680Y5180
X4430Y5430
X4430Y4680
X5180Y3930
X5680Y4680
X5180Y2680
X4430Y2680
X3680Y2680
X2930Y2680
X2180Y2680
X1680Y2180
X3680Y6180
X6680Y2180
X7680Y3430
X8930Y930
X8930Y9430
X8430Y9930
X7930Y10430
X7430Y10930
X6930Y11430
T02
X930Y7930
X930Y6930
X930Y5930
X930Y4930
X930Y3930
X930Y2930
X930Y1930
X930Y930
X8930Y1930
X8930Y2930
X8930Y3930
X8930Y4930
X8930Y5930
X8930Y6930
X8930Y7930
T03
X4930Y10430
T04
X3926Y9426
X3926Y11434
X5934Y11434
X5934Y9426
M30
