G75*
%MOIN*%
%OFA0B0*%
%FSLAX25Y25*%
%IPPOS*%
%LPD*%
%AMOC8*
5,1,8,0,0,1.08239X$1,22.5*
%
%ADD10C,0.00000*%
%ADD11C,0.00600*%
%ADD12C,0.01000*%
%ADD13C,0.00800*%
%ADD14C,0.00591*%
D10*
X0001800Y0001800D02*
X0001800Y0094300D01*
X0029300Y0121800D01*
X0069300Y0121800D01*
X0096800Y0094300D01*
X0096800Y0001800D01*
X0001800Y0001800D01*
D11*
X0004300Y0006800D02*
X0004300Y0011800D01*
X0006800Y0014300D01*
X0004300Y0016800D01*
X0004300Y0021800D01*
X0006800Y0024300D01*
X0004300Y0026800D01*
X0004300Y0031800D01*
X0006800Y0034300D01*
X0004300Y0036800D01*
X0004300Y0041800D01*
X0006800Y0044300D01*
X0004300Y0046800D01*
X0004300Y0051800D01*
X0006800Y0054300D01*
X0004300Y0056800D01*
X0004300Y0061800D01*
X0006800Y0064300D01*
X0004300Y0066800D01*
X0004300Y0071800D01*
X0006800Y0074300D01*
X0004300Y0076800D01*
X0004300Y0081800D01*
X0006800Y0084300D01*
X0011800Y0084300D01*
X0014300Y0081800D01*
X0014300Y0076800D01*
X0011800Y0074300D01*
X0014300Y0071800D01*
X0014300Y0066800D01*
X0011800Y0064300D01*
X0006800Y0064300D01*
X0011800Y0064300D02*
X0014300Y0061800D01*
X0014300Y0056800D01*
X0011800Y0054300D01*
X0014300Y0051800D01*
X0014300Y0046800D01*
X0011800Y0044300D01*
X0014300Y0041800D01*
X0014300Y0036800D01*
X0011800Y0034300D01*
X0006800Y0034300D01*
X0011800Y0034300D02*
X0014300Y0031800D01*
X0014300Y0026800D01*
X0011800Y0024300D01*
X0014300Y0021800D01*
X0014300Y0016800D01*
X0011800Y0014300D01*
X0014300Y0011800D01*
X0014300Y0006800D01*
X0011800Y0004300D01*
X0006800Y0004300D01*
X0004300Y0006800D01*
X0006800Y0014300D02*
X0011800Y0014300D01*
X0011800Y0024300D02*
X0006800Y0024300D01*
X0006800Y0044300D02*
X0011800Y0044300D01*
X0011800Y0054300D02*
X0006800Y0054300D01*
X0006800Y0074300D02*
X0011800Y0074300D01*
X0067100Y0087100D02*
X0067100Y0090503D01*
X0068801Y0090503D01*
X0069369Y0089936D01*
X0069369Y0088801D01*
X0068801Y0088234D01*
X0067100Y0088234D01*
X0068234Y0088234D02*
X0069369Y0087100D01*
X0070783Y0087100D02*
X0070783Y0090503D01*
X0073052Y0090503D01*
X0074466Y0090503D02*
X0075601Y0089369D01*
X0076735Y0090503D01*
X0076735Y0087100D01*
X0078149Y0087100D02*
X0080418Y0089369D01*
X0080418Y0089936D01*
X0079851Y0090503D01*
X0078717Y0090503D01*
X0078149Y0089936D01*
X0078149Y0087100D02*
X0080418Y0087100D01*
X0081833Y0087667D02*
X0081833Y0088801D01*
X0083534Y0088801D01*
X0084101Y0088234D01*
X0084101Y0087667D01*
X0083534Y0087100D01*
X0082400Y0087100D01*
X0081833Y0087667D01*
X0081833Y0088801D02*
X0082967Y0089936D01*
X0084101Y0090503D01*
X0085516Y0090503D02*
X0085516Y0087100D01*
X0086650Y0088234D01*
X0087784Y0087100D01*
X0087784Y0090503D01*
X0086800Y0084300D02*
X0084300Y0081800D01*
X0084300Y0076800D01*
X0086800Y0074300D01*
X0084300Y0071800D01*
X0084300Y0066800D01*
X0086800Y0064300D01*
X0091800Y0064300D01*
X0094300Y0066800D01*
X0094300Y0071800D01*
X0091800Y0074300D01*
X0086800Y0074300D01*
X0091800Y0074300D02*
X0094300Y0076800D01*
X0094300Y0081800D01*
X0091800Y0084300D01*
X0086800Y0084300D01*
X0074466Y0087100D02*
X0074466Y0090503D01*
X0071917Y0088801D02*
X0070783Y0088801D01*
X0086800Y0064300D02*
X0084300Y0061800D01*
X0084300Y0056800D01*
X0086800Y0054300D01*
X0084300Y0051800D01*
X0084300Y0046800D01*
X0086800Y0044300D01*
X0084300Y0041800D01*
X0084300Y0036800D01*
X0086800Y0034300D01*
X0091800Y0034300D01*
X0094300Y0036800D01*
X0094300Y0041800D01*
X0091800Y0044300D01*
X0086800Y0044300D01*
X0091800Y0044300D02*
X0094300Y0046800D01*
X0094300Y0051800D01*
X0091800Y0054300D01*
X0086800Y0054300D01*
X0091800Y0054300D02*
X0094300Y0056800D01*
X0094300Y0061800D01*
X0091800Y0064300D01*
X0091800Y0034300D02*
X0094300Y0031800D01*
X0094300Y0026800D01*
X0091800Y0024300D01*
X0094300Y0021800D01*
X0094300Y0016800D01*
X0091800Y0014300D01*
X0086800Y0014300D01*
X0084300Y0016800D01*
X0084300Y0021800D01*
X0086800Y0024300D01*
X0084300Y0026800D01*
X0084300Y0031800D01*
X0086800Y0034300D01*
X0086800Y0024300D02*
X0091800Y0024300D01*
D12*
X0080796Y0012804D02*
X0080796Y0075796D01*
X0074890Y0063985D02*
X0074892Y0064073D01*
X0074898Y0064161D01*
X0074908Y0064249D01*
X0074922Y0064337D01*
X0074939Y0064423D01*
X0074961Y0064509D01*
X0074986Y0064593D01*
X0075016Y0064677D01*
X0075048Y0064759D01*
X0075085Y0064839D01*
X0075125Y0064918D01*
X0075169Y0064995D01*
X0075216Y0065070D01*
X0075266Y0065142D01*
X0075320Y0065213D01*
X0075376Y0065280D01*
X0075436Y0065346D01*
X0075498Y0065408D01*
X0075564Y0065468D01*
X0075631Y0065524D01*
X0075702Y0065578D01*
X0075774Y0065628D01*
X0075849Y0065675D01*
X0075926Y0065719D01*
X0076005Y0065759D01*
X0076085Y0065796D01*
X0076167Y0065828D01*
X0076251Y0065858D01*
X0076335Y0065883D01*
X0076421Y0065905D01*
X0076507Y0065922D01*
X0076595Y0065936D01*
X0076683Y0065946D01*
X0076771Y0065952D01*
X0076859Y0065954D01*
X0076947Y0065952D01*
X0077035Y0065946D01*
X0077123Y0065936D01*
X0077211Y0065922D01*
X0077297Y0065905D01*
X0077383Y0065883D01*
X0077467Y0065858D01*
X0077551Y0065828D01*
X0077633Y0065796D01*
X0077713Y0065759D01*
X0077792Y0065719D01*
X0077869Y0065675D01*
X0077944Y0065628D01*
X0078016Y0065578D01*
X0078087Y0065524D01*
X0078154Y0065468D01*
X0078220Y0065408D01*
X0078282Y0065346D01*
X0078342Y0065280D01*
X0078398Y0065213D01*
X0078452Y0065142D01*
X0078502Y0065070D01*
X0078549Y0064995D01*
X0078593Y0064918D01*
X0078633Y0064839D01*
X0078670Y0064759D01*
X0078702Y0064677D01*
X0078732Y0064593D01*
X0078757Y0064509D01*
X0078779Y0064423D01*
X0078796Y0064337D01*
X0078810Y0064249D01*
X0078820Y0064161D01*
X0078826Y0064073D01*
X0078828Y0063985D01*
X0078826Y0063897D01*
X0078820Y0063809D01*
X0078810Y0063721D01*
X0078796Y0063633D01*
X0078779Y0063547D01*
X0078757Y0063461D01*
X0078732Y0063377D01*
X0078702Y0063293D01*
X0078670Y0063211D01*
X0078633Y0063131D01*
X0078593Y0063052D01*
X0078549Y0062975D01*
X0078502Y0062900D01*
X0078452Y0062828D01*
X0078398Y0062757D01*
X0078342Y0062690D01*
X0078282Y0062624D01*
X0078220Y0062562D01*
X0078154Y0062502D01*
X0078087Y0062446D01*
X0078016Y0062392D01*
X0077944Y0062342D01*
X0077869Y0062295D01*
X0077792Y0062251D01*
X0077713Y0062211D01*
X0077633Y0062174D01*
X0077551Y0062142D01*
X0077467Y0062112D01*
X0077383Y0062087D01*
X0077297Y0062065D01*
X0077211Y0062048D01*
X0077123Y0062034D01*
X0077035Y0062024D01*
X0076947Y0062018D01*
X0076859Y0062016D01*
X0076771Y0062018D01*
X0076683Y0062024D01*
X0076595Y0062034D01*
X0076507Y0062048D01*
X0076421Y0062065D01*
X0076335Y0062087D01*
X0076251Y0062112D01*
X0076167Y0062142D01*
X0076085Y0062174D01*
X0076005Y0062211D01*
X0075926Y0062251D01*
X0075849Y0062295D01*
X0075774Y0062342D01*
X0075702Y0062392D01*
X0075631Y0062446D01*
X0075564Y0062502D01*
X0075498Y0062562D01*
X0075436Y0062624D01*
X0075376Y0062690D01*
X0075320Y0062757D01*
X0075266Y0062828D01*
X0075216Y0062900D01*
X0075169Y0062975D01*
X0075125Y0063052D01*
X0075085Y0063131D01*
X0075048Y0063211D01*
X0075016Y0063293D01*
X0074986Y0063377D01*
X0074961Y0063461D01*
X0074939Y0063547D01*
X0074922Y0063633D01*
X0074908Y0063721D01*
X0074898Y0063809D01*
X0074892Y0063897D01*
X0074890Y0063985D01*
X0017804Y0075796D02*
X0017804Y0012804D01*
D13*
X0044969Y0091702D02*
X0053631Y0091702D01*
X0061898Y0099969D02*
X0061898Y0108631D01*
X0053631Y0116898D02*
X0044969Y0116898D01*
X0036702Y0108631D02*
X0036702Y0099969D01*
X0042607Y0104300D02*
X0042609Y0104464D01*
X0042615Y0104628D01*
X0042625Y0104792D01*
X0042639Y0104956D01*
X0042657Y0105119D01*
X0042679Y0105282D01*
X0042706Y0105444D01*
X0042736Y0105606D01*
X0042770Y0105766D01*
X0042808Y0105926D01*
X0042849Y0106085D01*
X0042895Y0106243D01*
X0042945Y0106399D01*
X0042998Y0106555D01*
X0043055Y0106709D01*
X0043116Y0106861D01*
X0043181Y0107012D01*
X0043250Y0107162D01*
X0043322Y0107309D01*
X0043397Y0107455D01*
X0043477Y0107599D01*
X0043559Y0107741D01*
X0043645Y0107881D01*
X0043735Y0108018D01*
X0043828Y0108154D01*
X0043924Y0108287D01*
X0044024Y0108418D01*
X0044126Y0108546D01*
X0044232Y0108672D01*
X0044341Y0108795D01*
X0044453Y0108915D01*
X0044567Y0109033D01*
X0044685Y0109147D01*
X0044805Y0109259D01*
X0044928Y0109368D01*
X0045054Y0109474D01*
X0045182Y0109576D01*
X0045313Y0109676D01*
X0045446Y0109772D01*
X0045582Y0109865D01*
X0045719Y0109955D01*
X0045859Y0110041D01*
X0046001Y0110123D01*
X0046145Y0110203D01*
X0046291Y0110278D01*
X0046438Y0110350D01*
X0046588Y0110419D01*
X0046739Y0110484D01*
X0046891Y0110545D01*
X0047045Y0110602D01*
X0047201Y0110655D01*
X0047357Y0110705D01*
X0047515Y0110751D01*
X0047674Y0110792D01*
X0047834Y0110830D01*
X0047994Y0110864D01*
X0048156Y0110894D01*
X0048318Y0110921D01*
X0048481Y0110943D01*
X0048644Y0110961D01*
X0048808Y0110975D01*
X0048972Y0110985D01*
X0049136Y0110991D01*
X0049300Y0110993D01*
X0049464Y0110991D01*
X0049628Y0110985D01*
X0049792Y0110975D01*
X0049956Y0110961D01*
X0050119Y0110943D01*
X0050282Y0110921D01*
X0050444Y0110894D01*
X0050606Y0110864D01*
X0050766Y0110830D01*
X0050926Y0110792D01*
X0051085Y0110751D01*
X0051243Y0110705D01*
X0051399Y0110655D01*
X0051555Y0110602D01*
X0051709Y0110545D01*
X0051861Y0110484D01*
X0052012Y0110419D01*
X0052162Y0110350D01*
X0052309Y0110278D01*
X0052455Y0110203D01*
X0052599Y0110123D01*
X0052741Y0110041D01*
X0052881Y0109955D01*
X0053018Y0109865D01*
X0053154Y0109772D01*
X0053287Y0109676D01*
X0053418Y0109576D01*
X0053546Y0109474D01*
X0053672Y0109368D01*
X0053795Y0109259D01*
X0053915Y0109147D01*
X0054033Y0109033D01*
X0054147Y0108915D01*
X0054259Y0108795D01*
X0054368Y0108672D01*
X0054474Y0108546D01*
X0054576Y0108418D01*
X0054676Y0108287D01*
X0054772Y0108154D01*
X0054865Y0108018D01*
X0054955Y0107881D01*
X0055041Y0107741D01*
X0055123Y0107599D01*
X0055203Y0107455D01*
X0055278Y0107309D01*
X0055350Y0107162D01*
X0055419Y0107012D01*
X0055484Y0106861D01*
X0055545Y0106709D01*
X0055602Y0106555D01*
X0055655Y0106399D01*
X0055705Y0106243D01*
X0055751Y0106085D01*
X0055792Y0105926D01*
X0055830Y0105766D01*
X0055864Y0105606D01*
X0055894Y0105444D01*
X0055921Y0105282D01*
X0055943Y0105119D01*
X0055961Y0104956D01*
X0055975Y0104792D01*
X0055985Y0104628D01*
X0055991Y0104464D01*
X0055993Y0104300D01*
X0055991Y0104136D01*
X0055985Y0103972D01*
X0055975Y0103808D01*
X0055961Y0103644D01*
X0055943Y0103481D01*
X0055921Y0103318D01*
X0055894Y0103156D01*
X0055864Y0102994D01*
X0055830Y0102834D01*
X0055792Y0102674D01*
X0055751Y0102515D01*
X0055705Y0102357D01*
X0055655Y0102201D01*
X0055602Y0102045D01*
X0055545Y0101891D01*
X0055484Y0101739D01*
X0055419Y0101588D01*
X0055350Y0101438D01*
X0055278Y0101291D01*
X0055203Y0101145D01*
X0055123Y0101001D01*
X0055041Y0100859D01*
X0054955Y0100719D01*
X0054865Y0100582D01*
X0054772Y0100446D01*
X0054676Y0100313D01*
X0054576Y0100182D01*
X0054474Y0100054D01*
X0054368Y0099928D01*
X0054259Y0099805D01*
X0054147Y0099685D01*
X0054033Y0099567D01*
X0053915Y0099453D01*
X0053795Y0099341D01*
X0053672Y0099232D01*
X0053546Y0099126D01*
X0053418Y0099024D01*
X0053287Y0098924D01*
X0053154Y0098828D01*
X0053018Y0098735D01*
X0052881Y0098645D01*
X0052741Y0098559D01*
X0052599Y0098477D01*
X0052455Y0098397D01*
X0052309Y0098322D01*
X0052162Y0098250D01*
X0052012Y0098181D01*
X0051861Y0098116D01*
X0051709Y0098055D01*
X0051555Y0097998D01*
X0051399Y0097945D01*
X0051243Y0097895D01*
X0051085Y0097849D01*
X0050926Y0097808D01*
X0050766Y0097770D01*
X0050606Y0097736D01*
X0050444Y0097706D01*
X0050282Y0097679D01*
X0050119Y0097657D01*
X0049956Y0097639D01*
X0049792Y0097625D01*
X0049628Y0097615D01*
X0049464Y0097609D01*
X0049300Y0097607D01*
X0049136Y0097609D01*
X0048972Y0097615D01*
X0048808Y0097625D01*
X0048644Y0097639D01*
X0048481Y0097657D01*
X0048318Y0097679D01*
X0048156Y0097706D01*
X0047994Y0097736D01*
X0047834Y0097770D01*
X0047674Y0097808D01*
X0047515Y0097849D01*
X0047357Y0097895D01*
X0047201Y0097945D01*
X0047045Y0097998D01*
X0046891Y0098055D01*
X0046739Y0098116D01*
X0046588Y0098181D01*
X0046438Y0098250D01*
X0046291Y0098322D01*
X0046145Y0098397D01*
X0046001Y0098477D01*
X0045859Y0098559D01*
X0045719Y0098645D01*
X0045582Y0098735D01*
X0045446Y0098828D01*
X0045313Y0098924D01*
X0045182Y0099024D01*
X0045054Y0099126D01*
X0044928Y0099232D01*
X0044805Y0099341D01*
X0044685Y0099453D01*
X0044567Y0099567D01*
X0044453Y0099685D01*
X0044341Y0099805D01*
X0044232Y0099928D01*
X0044126Y0100054D01*
X0044024Y0100182D01*
X0043924Y0100313D01*
X0043828Y0100446D01*
X0043735Y0100582D01*
X0043645Y0100719D01*
X0043559Y0100859D01*
X0043477Y0101001D01*
X0043397Y0101145D01*
X0043322Y0101291D01*
X0043250Y0101438D01*
X0043181Y0101588D01*
X0043116Y0101739D01*
X0043055Y0101891D01*
X0042998Y0102045D01*
X0042945Y0102201D01*
X0042895Y0102357D01*
X0042849Y0102515D01*
X0042808Y0102674D01*
X0042770Y0102834D01*
X0042736Y0102994D01*
X0042706Y0103156D01*
X0042679Y0103318D01*
X0042657Y0103481D01*
X0042639Y0103644D01*
X0042625Y0103808D01*
X0042615Y0103972D01*
X0042609Y0104136D01*
X0042607Y0104300D01*
D14*
X0066939Y0098020D02*
X0066939Y0096580D01*
X0068844Y0096387D01*
X0069049Y0095746D01*
X0069357Y0095148D01*
X0068146Y0093664D01*
X0069164Y0092646D01*
X0070648Y0093857D01*
X0071246Y0093549D01*
X0072094Y0095595D01*
X0071715Y0095807D01*
X0071397Y0096101D01*
X0071155Y0096462D01*
X0071005Y0096869D01*
X0070954Y0097300D01*
X0071007Y0097739D01*
X0071163Y0098152D01*
X0071412Y0098517D01*
X0071741Y0098811D01*
X0072131Y0099020D01*
X0072559Y0099129D01*
X0073001Y0099134D01*
X0073431Y0099034D01*
X0073825Y0098834D01*
X0074160Y0098546D01*
X0074418Y0098187D01*
X0074582Y0097777D01*
X0074645Y0097340D01*
X0074601Y0096900D01*
X0074455Y0096484D01*
X0074214Y0096114D01*
X0073891Y0095812D01*
X0073506Y0095595D01*
X0074354Y0093549D01*
X0074952Y0093857D01*
X0076436Y0092646D01*
X0077454Y0093664D01*
X0076243Y0095148D01*
X0076551Y0095746D01*
X0076756Y0096387D01*
X0078661Y0096580D01*
X0078661Y0098020D01*
X0076756Y0098213D01*
X0076551Y0098854D01*
X0076243Y0099452D01*
X0077454Y0100936D01*
X0076436Y0101954D01*
X0074952Y0100743D01*
X0074354Y0101051D01*
X0073713Y0101256D01*
X0073520Y0103161D01*
X0072080Y0103161D01*
X0071887Y0101256D01*
X0071246Y0101051D01*
X0070648Y0100743D01*
X0069164Y0101954D01*
X0068146Y0100936D01*
X0069357Y0099452D01*
X0069049Y0098854D01*
X0068844Y0098213D01*
X0066939Y0098020D01*
X0066939Y0097817D02*
X0071037Y0097817D01*
X0070963Y0097228D02*
X0066939Y0097228D01*
X0066939Y0096639D02*
X0071090Y0096639D01*
X0071452Y0096050D02*
X0068951Y0096050D01*
X0069196Y0095461D02*
X0072038Y0095461D01*
X0071794Y0094872D02*
X0069131Y0094872D01*
X0068651Y0094283D02*
X0071550Y0094283D01*
X0071306Y0093694D02*
X0070965Y0093694D01*
X0070449Y0093694D02*
X0068171Y0093694D01*
X0068706Y0093105D02*
X0069726Y0093105D01*
X0073806Y0094872D02*
X0076469Y0094872D01*
X0076404Y0095461D02*
X0073562Y0095461D01*
X0074146Y0096050D02*
X0076649Y0096050D01*
X0076949Y0094283D02*
X0074050Y0094283D01*
X0074294Y0093694D02*
X0074635Y0093694D01*
X0075151Y0093694D02*
X0077429Y0093694D01*
X0076894Y0093105D02*
X0075874Y0093105D01*
X0074509Y0096639D02*
X0078661Y0096639D01*
X0078661Y0097228D02*
X0074634Y0097228D01*
X0074566Y0097817D02*
X0078661Y0097817D01*
X0076695Y0098406D02*
X0074261Y0098406D01*
X0073507Y0098995D02*
X0076478Y0098995D01*
X0076352Y0099584D02*
X0069248Y0099584D01*
X0069122Y0098995D02*
X0072086Y0098995D01*
X0071337Y0098406D02*
X0068905Y0098406D01*
X0068768Y0100173D02*
X0076832Y0100173D01*
X0077312Y0100762D02*
X0074975Y0100762D01*
X0074914Y0100762D02*
X0070686Y0100762D01*
X0070625Y0100762D02*
X0068288Y0100762D01*
X0068562Y0101352D02*
X0069902Y0101352D01*
X0069180Y0101941D02*
X0069151Y0101941D01*
X0071956Y0101941D02*
X0073644Y0101941D01*
X0073584Y0102530D02*
X0072016Y0102530D01*
X0072076Y0103119D02*
X0073524Y0103119D01*
X0073704Y0101352D02*
X0071896Y0101352D01*
X0075698Y0101352D02*
X0077038Y0101352D01*
X0076449Y0101941D02*
X0076420Y0101941D01*
M02*
