G04 #@! TF.GenerationSoftware,KiCad,Pcbnew,6.0.7+dfsg-1build1*
G04 #@! TF.CreationDate,2022-12-04T12:17:57+01:00*
G04 #@! TF.ProjectId,rfm9xw,72666d39-7877-42e6-9b69-6361645f7063,1*
G04 #@! TF.SameCoordinates,Original*
G04 #@! TF.FileFunction,Copper,L1,Top*
G04 #@! TF.FilePolarity,Positive*
%FSLAX46Y46*%
G04 Gerber Fmt 4.6, Leading zero omitted, Abs format (unit mm)*
G04 Created by KiCad (PCBNEW 6.0.7+dfsg-1build1) date 2022-12-04 12:17:57*
%MOMM*%
%LPD*%
G01*
G04 APERTURE LIST*
G04 Aperture macros list*
%AMRoundRect*
0 Rectangle with rounded corners*
0 $1 Rounding radius*
0 $2 $3 $4 $5 $6 $7 $8 $9 X,Y pos of 4 corners*
0 Add a 4 corners polygon primitive as box body*
4,1,4,$2,$3,$4,$5,$6,$7,$8,$9,$2,$3,0*
0 Add four circle primitives for the rounded corners*
1,1,$1+$1,$2,$3*
1,1,$1+$1,$4,$5*
1,1,$1+$1,$6,$7*
1,1,$1+$1,$8,$9*
0 Add four rect primitives between the rounded corners*
20,1,$1+$1,$2,$3,$4,$5,0*
20,1,$1+$1,$4,$5,$6,$7,0*
20,1,$1+$1,$6,$7,$8,$9,0*
20,1,$1+$1,$8,$9,$2,$3,0*%
G04 Aperture macros list end*
G04 #@! TA.AperFunction,SMDPad,CuDef*
%ADD10RoundRect,0.237500X-0.237500X0.300000X-0.237500X-0.300000X0.237500X-0.300000X0.237500X0.300000X0*%
G04 #@! TD*
G04 #@! TA.AperFunction,SMDPad,CuDef*
%ADD11R,1.270000X3.600000*%
G04 #@! TD*
G04 #@! TA.AperFunction,SMDPad,CuDef*
%ADD12R,1.350000X4.200000*%
G04 #@! TD*
G04 #@! TA.AperFunction,SMDPad,CuDef*
%ADD13R,1.000000X2.000000*%
G04 #@! TD*
G04 #@! TA.AperFunction,SMDPad,CuDef*
%ADD14RoundRect,0.237500X-0.237500X0.250000X-0.237500X-0.250000X0.237500X-0.250000X0.237500X0.250000X0*%
G04 #@! TD*
G04 #@! TA.AperFunction,SMDPad,CuDef*
%ADD15R,1.000000X1.000000*%
G04 #@! TD*
G04 #@! TA.AperFunction,SMDPad,CuDef*
%ADD16R,1.050000X2.200000*%
G04 #@! TD*
G04 #@! TA.AperFunction,ComponentPad*
%ADD17R,1.700000X1.700000*%
G04 #@! TD*
G04 #@! TA.AperFunction,ComponentPad*
%ADD18O,1.700000X1.700000*%
G04 #@! TD*
G04 #@! TA.AperFunction,ViaPad*
%ADD19C,0.800000*%
G04 #@! TD*
G04 #@! TA.AperFunction,Conductor*
%ADD20C,0.300000*%
G04 #@! TD*
G04 #@! TA.AperFunction,Conductor*
%ADD21C,0.500000*%
G04 #@! TD*
G04 #@! TA.AperFunction,Conductor*
%ADD22C,0.360000*%
G04 #@! TD*
G04 APERTURE END LIST*
D10*
X112710000Y-66552500D03*
X112710000Y-68277500D03*
D11*
X100365000Y-76250000D03*
D12*
X97540000Y-76050000D03*
X103190000Y-76050000D03*
D13*
X108000000Y-49000000D03*
X106000000Y-49000000D03*
X104000000Y-49000000D03*
X102000000Y-49000000D03*
X100000000Y-49000000D03*
X98000000Y-49000000D03*
X96000000Y-49000000D03*
X94000000Y-49000000D03*
X94000000Y-65000000D03*
X96000000Y-65000000D03*
X98000000Y-65000000D03*
X100000000Y-65000000D03*
X102000000Y-65000000D03*
X104000000Y-65000000D03*
X106000000Y-65000000D03*
X108000000Y-65000000D03*
D14*
X108710000Y-68985000D03*
X108710000Y-70810000D03*
D10*
X110710000Y-66552500D03*
X110710000Y-68277500D03*
D14*
X106710000Y-69002500D03*
X106710000Y-70827500D03*
D15*
X100365000Y-72470000D03*
D16*
X98890000Y-70970000D03*
D15*
X100365000Y-69470000D03*
D16*
X101840000Y-70970000D03*
D17*
X112430000Y-63315000D03*
D18*
X112430000Y-60775000D03*
X112430000Y-58235000D03*
X112430000Y-55695000D03*
X112430000Y-53155000D03*
X112430000Y-50615000D03*
X112430000Y-48075000D03*
D17*
X89570000Y-63315000D03*
D18*
X89570000Y-60775000D03*
X89570000Y-58235000D03*
X89570000Y-55695000D03*
X89570000Y-53155000D03*
X89570000Y-50615000D03*
X89570000Y-48075000D03*
D19*
X95920000Y-68455000D03*
X88300000Y-65915000D03*
X90840000Y-65915000D03*
X95920000Y-73535000D03*
X97190000Y-69725000D03*
X95210000Y-62915000D03*
X104810000Y-73535000D03*
X106710000Y-71915000D03*
X108710000Y-71915000D03*
D20*
X93310000Y-63315000D02*
X89570000Y-63315000D01*
X106000000Y-50625000D02*
X93310000Y-63315000D01*
X106000000Y-49000000D02*
X106000000Y-50625000D01*
X104000000Y-49000000D02*
X104000000Y-50625000D01*
X93850000Y-60775000D02*
X89570000Y-60775000D01*
X104000000Y-50625000D02*
X93850000Y-60775000D01*
X102000000Y-49000000D02*
X102000000Y-50625000D01*
X102000000Y-50625000D02*
X94390000Y-58235000D01*
X94390000Y-58235000D02*
X89570000Y-58235000D01*
X94930000Y-55695000D02*
X89570000Y-55695000D01*
X106710000Y-70827500D02*
X106710000Y-71915000D01*
X100000000Y-49000000D02*
X100000000Y-50625000D01*
X100000000Y-50625000D02*
X94930000Y-55695000D01*
X108710000Y-70810000D02*
X108710000Y-71915000D01*
X95470000Y-53155000D02*
X89570000Y-53155000D01*
X98000000Y-50625000D02*
X95470000Y-53155000D01*
X98000000Y-49000000D02*
X98000000Y-50625000D01*
X95510000Y-50615000D02*
X89570000Y-50615000D01*
X96000000Y-50125000D02*
X95510000Y-50615000D01*
X96000000Y-49000000D02*
X96000000Y-50125000D01*
X112430000Y-60775000D02*
X110350000Y-60775000D01*
X108000000Y-63125000D02*
X108000000Y-65000000D01*
X110350000Y-60775000D02*
X108000000Y-63125000D01*
X110390000Y-58235000D02*
X106000000Y-62625000D01*
X106000000Y-62625000D02*
X106000000Y-65000000D01*
X112430000Y-58235000D02*
X110390000Y-58235000D01*
X112430000Y-55695000D02*
X110430000Y-55695000D01*
X104000000Y-62125000D02*
X104000000Y-65000000D01*
X110430000Y-55695000D02*
X104000000Y-62125000D01*
D21*
X112430000Y-66272500D02*
X112710000Y-66552500D01*
X110710000Y-66552500D02*
X108710000Y-68552500D01*
X112430000Y-63315000D02*
X112430000Y-66272500D01*
X106710000Y-69002500D02*
X105402500Y-69002500D01*
X102000000Y-65600000D02*
X102000000Y-65000000D01*
X105402500Y-69002500D02*
X102000000Y-65600000D01*
X108710000Y-68985000D02*
X106727500Y-68985000D01*
X110710000Y-66552500D02*
X112710000Y-66552500D01*
X106727500Y-68985000D02*
X106710000Y-69002500D01*
X108710000Y-68552500D02*
X108710000Y-68985000D01*
D20*
X110470000Y-53155000D02*
X100000000Y-63625000D01*
X100000000Y-63625000D02*
X100000000Y-65000000D01*
X112430000Y-53155000D02*
X110470000Y-53155000D01*
X112430000Y-50615000D02*
X110510000Y-50615000D01*
X98000000Y-63125000D02*
X98000000Y-65000000D01*
X110510000Y-50615000D02*
X98000000Y-63125000D01*
D22*
X100365000Y-72526568D02*
X100365000Y-76250000D01*
X94000000Y-67343324D02*
X94000000Y-65000000D01*
X95906254Y-71406254D02*
X95525000Y-71025000D01*
X98667500Y-72550000D02*
X100228431Y-72550000D01*
X100325054Y-72510054D02*
G75*
G02*
X100365000Y-72526568I16546J-16546D01*
G01*
X100228431Y-72550013D02*
G75*
G03*
X100325000Y-72510000I-31J136613D01*
G01*
X98667500Y-72549997D02*
G75*
G02*
X95906254Y-71406254I0J3904997D01*
G01*
X95525007Y-71024993D02*
G75*
G02*
X94000000Y-67343324I3681693J3681693D01*
G01*
G04 #@! TA.AperFunction,Conductor*
G36*
X114403621Y-46098502D02*
G01*
X114450114Y-46152158D01*
X114461500Y-46204500D01*
X114461500Y-68167183D01*
X114441498Y-68235304D01*
X114424595Y-68256278D01*
X113902363Y-68778510D01*
X113840051Y-68812536D01*
X113769236Y-68807471D01*
X113712400Y-68764924D01*
X113687589Y-68698404D01*
X113687924Y-68676572D01*
X113692672Y-68630230D01*
X113693000Y-68623815D01*
X113693000Y-68549615D01*
X113688525Y-68534376D01*
X113687135Y-68533171D01*
X113679452Y-68531500D01*
X112982115Y-68531500D01*
X112966876Y-68535975D01*
X112965671Y-68537365D01*
X112964000Y-68545048D01*
X112964000Y-69304885D01*
X112968475Y-69320124D01*
X112969865Y-69321329D01*
X112977548Y-69323000D01*
X112993766Y-69323000D01*
X113000282Y-69322663D01*
X113046483Y-69317869D01*
X113116304Y-69330734D01*
X113168087Y-69379304D01*
X113185389Y-69448160D01*
X113162719Y-69515440D01*
X113148582Y-69532291D01*
X104636278Y-78044595D01*
X104573966Y-78078621D01*
X104547183Y-78081500D01*
X104499000Y-78081500D01*
X104430879Y-78061498D01*
X104384386Y-78007842D01*
X104373000Y-77955500D01*
X104373000Y-76322115D01*
X104368525Y-76306876D01*
X104367135Y-76305671D01*
X104359452Y-76304000D01*
X102025116Y-76304000D01*
X102009877Y-76308475D01*
X102008672Y-76309865D01*
X102007001Y-76317548D01*
X102007001Y-77955500D01*
X101986999Y-78023621D01*
X101933343Y-78070114D01*
X101881001Y-78081500D01*
X101634500Y-78081500D01*
X101566379Y-78061498D01*
X101519886Y-78007842D01*
X101508500Y-77955500D01*
X101508500Y-75777885D01*
X102007000Y-75777885D01*
X102011475Y-75793124D01*
X102012865Y-75794329D01*
X102020548Y-75796000D01*
X102917885Y-75796000D01*
X102933124Y-75791525D01*
X102934329Y-75790135D01*
X102936000Y-75782452D01*
X102936000Y-75777885D01*
X103444000Y-75777885D01*
X103448475Y-75793124D01*
X103449865Y-75794329D01*
X103457548Y-75796000D01*
X104354884Y-75796000D01*
X104370123Y-75791525D01*
X104371328Y-75790135D01*
X104372999Y-75782452D01*
X104372999Y-73905331D01*
X104372629Y-73898510D01*
X104367105Y-73847648D01*
X104363479Y-73832396D01*
X104318324Y-73711946D01*
X104309786Y-73696351D01*
X104233285Y-73594276D01*
X104220724Y-73581715D01*
X104118649Y-73505214D01*
X104103054Y-73496676D01*
X103982606Y-73451522D01*
X103967351Y-73447895D01*
X103916486Y-73442369D01*
X103909672Y-73442000D01*
X103462115Y-73442000D01*
X103446876Y-73446475D01*
X103445671Y-73447865D01*
X103444000Y-73455548D01*
X103444000Y-75777885D01*
X102936000Y-75777885D01*
X102936000Y-73460116D01*
X102931525Y-73444877D01*
X102930135Y-73443672D01*
X102922452Y-73442001D01*
X102470331Y-73442001D01*
X102463510Y-73442371D01*
X102412648Y-73447895D01*
X102397396Y-73451521D01*
X102276946Y-73496676D01*
X102261351Y-73505214D01*
X102159276Y-73581715D01*
X102146715Y-73594276D01*
X102070214Y-73696351D01*
X102061676Y-73711946D01*
X102016522Y-73832394D01*
X102012895Y-73847649D01*
X102007369Y-73898514D01*
X102007000Y-73905328D01*
X102007000Y-75777885D01*
X101508500Y-75777885D01*
X101508500Y-74401866D01*
X101501745Y-74339684D01*
X101450615Y-74203295D01*
X101363261Y-74086739D01*
X101246705Y-73999385D01*
X101238296Y-73996233D01*
X101238295Y-73996232D01*
X101135271Y-73957610D01*
X101078506Y-73914969D01*
X101053806Y-73848407D01*
X101053500Y-73839628D01*
X101053500Y-73525695D01*
X101073502Y-73457574D01*
X101112301Y-73421410D01*
X101111705Y-73420615D01*
X101125554Y-73410236D01*
X101228261Y-73333261D01*
X101315615Y-73216705D01*
X101366745Y-73080316D01*
X101373500Y-73018134D01*
X101373500Y-72704000D01*
X101393502Y-72635879D01*
X101447158Y-72589386D01*
X101499500Y-72578000D01*
X101567885Y-72578000D01*
X101583124Y-72573525D01*
X101584329Y-72572135D01*
X101586000Y-72564452D01*
X101586000Y-72559884D01*
X102094000Y-72559884D01*
X102098475Y-72575123D01*
X102099865Y-72576328D01*
X102107548Y-72577999D01*
X102409669Y-72577999D01*
X102416490Y-72577629D01*
X102467352Y-72572105D01*
X102482604Y-72568479D01*
X102603054Y-72523324D01*
X102618649Y-72514786D01*
X102720724Y-72438285D01*
X102733285Y-72425724D01*
X102809786Y-72323649D01*
X102818324Y-72308054D01*
X102863478Y-72187606D01*
X102867105Y-72172351D01*
X102872631Y-72121486D01*
X102873000Y-72114672D01*
X102873000Y-71242115D01*
X102868525Y-71226876D01*
X102867135Y-71225671D01*
X102859452Y-71224000D01*
X102112115Y-71224000D01*
X102096876Y-71228475D01*
X102095671Y-71229865D01*
X102094000Y-71237548D01*
X102094000Y-72559884D01*
X101586000Y-72559884D01*
X101586000Y-71242115D01*
X101581525Y-71226876D01*
X101580135Y-71225671D01*
X101572452Y-71224000D01*
X100825115Y-71224000D01*
X100809876Y-71228475D01*
X100808671Y-71229865D01*
X100807000Y-71237548D01*
X100807000Y-71335500D01*
X100786998Y-71403621D01*
X100733342Y-71450114D01*
X100681000Y-71461500D01*
X100048999Y-71461500D01*
X99980878Y-71441498D01*
X99934385Y-71387842D01*
X99922999Y-71335500D01*
X99922999Y-71242116D01*
X99918524Y-71226876D01*
X99917134Y-71225671D01*
X99909451Y-71224000D01*
X97875116Y-71224000D01*
X97859877Y-71228475D01*
X97858672Y-71229865D01*
X97857001Y-71237548D01*
X97857001Y-71588171D01*
X97836999Y-71656292D01*
X97783343Y-71702785D01*
X97713069Y-71712889D01*
X97688555Y-71706806D01*
X97547375Y-71656292D01*
X97442430Y-71618742D01*
X97431006Y-71614010D01*
X97267581Y-71536716D01*
X97156846Y-71484342D01*
X97145945Y-71478515D01*
X97128828Y-71468255D01*
X96962595Y-71368619D01*
X96885819Y-71322601D01*
X96875538Y-71315731D01*
X96631951Y-71135075D01*
X96622393Y-71127231D01*
X96426041Y-70949270D01*
X96410693Y-70932612D01*
X96401781Y-70920997D01*
X96395857Y-70916251D01*
X96395854Y-70916248D01*
X96371493Y-70896732D01*
X96361178Y-70887492D01*
X96171571Y-70697885D01*
X97857000Y-70697885D01*
X97861475Y-70713124D01*
X97862865Y-70714329D01*
X97870548Y-70716000D01*
X98617885Y-70716000D01*
X98633124Y-70711525D01*
X98634329Y-70710135D01*
X98636000Y-70702452D01*
X98636000Y-70697885D01*
X99144000Y-70697885D01*
X99148475Y-70713124D01*
X99149865Y-70714329D01*
X99157548Y-70716000D01*
X99904884Y-70716000D01*
X99920123Y-70711525D01*
X99921328Y-70710135D01*
X99922999Y-70702452D01*
X99922999Y-70604000D01*
X99943001Y-70535879D01*
X99996657Y-70489386D01*
X100048999Y-70478000D01*
X100092885Y-70478000D01*
X100108124Y-70473525D01*
X100109329Y-70472135D01*
X100111000Y-70464452D01*
X100111000Y-70459884D01*
X100619000Y-70459884D01*
X100623475Y-70475123D01*
X100624865Y-70476328D01*
X100632548Y-70477999D01*
X100681000Y-70477999D01*
X100749121Y-70498001D01*
X100795614Y-70551657D01*
X100807000Y-70603999D01*
X100807000Y-70697885D01*
X100811475Y-70713124D01*
X100812865Y-70714329D01*
X100820548Y-70716000D01*
X101567885Y-70716000D01*
X101583124Y-70711525D01*
X101584329Y-70710135D01*
X101586000Y-70702452D01*
X101586000Y-70697885D01*
X102094000Y-70697885D01*
X102098475Y-70713124D01*
X102099865Y-70714329D01*
X102107548Y-70716000D01*
X102854884Y-70716000D01*
X102870123Y-70711525D01*
X102871328Y-70710135D01*
X102872999Y-70702452D01*
X102872999Y-69825331D01*
X102872629Y-69818510D01*
X102867105Y-69767648D01*
X102863479Y-69752396D01*
X102818324Y-69631946D01*
X102809786Y-69616351D01*
X102733285Y-69514276D01*
X102720724Y-69501715D01*
X102618649Y-69425214D01*
X102603054Y-69416676D01*
X102482606Y-69371522D01*
X102467351Y-69367895D01*
X102416486Y-69362369D01*
X102409672Y-69362000D01*
X102112115Y-69362000D01*
X102096876Y-69366475D01*
X102095671Y-69367865D01*
X102094000Y-69375548D01*
X102094000Y-70697885D01*
X101586000Y-70697885D01*
X101586000Y-69380116D01*
X101581525Y-69364877D01*
X101580135Y-69363672D01*
X101572452Y-69362001D01*
X101498999Y-69362001D01*
X101430878Y-69341999D01*
X101384385Y-69288343D01*
X101372999Y-69236001D01*
X101372999Y-68925331D01*
X101372629Y-68918510D01*
X101367105Y-68867648D01*
X101363479Y-68852396D01*
X101318324Y-68731946D01*
X101309786Y-68716351D01*
X101233285Y-68614276D01*
X101220724Y-68601715D01*
X101118649Y-68525214D01*
X101103054Y-68516676D01*
X100982606Y-68471522D01*
X100967351Y-68467895D01*
X100916486Y-68462369D01*
X100909672Y-68462000D01*
X100637115Y-68462000D01*
X100621876Y-68466475D01*
X100620671Y-68467865D01*
X100619000Y-68475548D01*
X100619000Y-70459884D01*
X100111000Y-70459884D01*
X100111000Y-68480116D01*
X100106525Y-68464877D01*
X100105135Y-68463672D01*
X100097452Y-68462001D01*
X99820331Y-68462001D01*
X99813510Y-68462371D01*
X99762648Y-68467895D01*
X99747396Y-68471521D01*
X99626946Y-68516676D01*
X99611351Y-68525214D01*
X99509276Y-68601715D01*
X99496715Y-68614276D01*
X99420214Y-68716351D01*
X99411676Y-68731946D01*
X99366522Y-68852394D01*
X99362895Y-68867649D01*
X99357369Y-68918514D01*
X99357000Y-68925328D01*
X99357000Y-69236000D01*
X99336998Y-69304121D01*
X99283342Y-69350614D01*
X99231000Y-69362000D01*
X99162115Y-69362000D01*
X99146876Y-69366475D01*
X99145671Y-69367865D01*
X99144000Y-69375548D01*
X99144000Y-70697885D01*
X98636000Y-70697885D01*
X98636000Y-69380116D01*
X98631525Y-69364877D01*
X98630135Y-69363672D01*
X98622452Y-69362001D01*
X98320331Y-69362001D01*
X98313510Y-69362371D01*
X98262648Y-69367895D01*
X98247396Y-69371521D01*
X98126946Y-69416676D01*
X98111351Y-69425214D01*
X98009276Y-69501715D01*
X97996715Y-69514276D01*
X97920214Y-69616351D01*
X97911676Y-69631946D01*
X97866522Y-69752394D01*
X97862895Y-69767649D01*
X97857369Y-69818514D01*
X97857000Y-69825328D01*
X97857000Y-70697885D01*
X96171571Y-70697885D01*
X96049781Y-70576095D01*
X96038913Y-70563704D01*
X96025150Y-70545767D01*
X96025148Y-70545765D01*
X96020528Y-70539744D01*
X96009101Y-70530589D01*
X96000946Y-70524055D01*
X95986831Y-70510847D01*
X95956732Y-70478000D01*
X95749268Y-70251592D01*
X95742214Y-70243186D01*
X95716866Y-70210151D01*
X95545204Y-69986437D01*
X95508955Y-69939196D01*
X95502651Y-69930192D01*
X95296781Y-69607043D01*
X95291291Y-69597534D01*
X95114358Y-69257650D01*
X95109721Y-69247706D01*
X95104873Y-69236000D01*
X94963085Y-68893696D01*
X94959329Y-68883375D01*
X94957141Y-68876433D01*
X94872010Y-68606435D01*
X94844113Y-68517958D01*
X94841268Y-68507341D01*
X94766272Y-68169066D01*
X94758334Y-68133262D01*
X94756426Y-68122441D01*
X94751833Y-68087550D01*
X94706413Y-67742559D01*
X94705455Y-67731610D01*
X94690469Y-67388418D01*
X94691427Y-67366474D01*
X94692528Y-67358115D01*
X94692528Y-67358111D01*
X94693519Y-67350584D01*
X94689261Y-67312018D01*
X94688500Y-67298191D01*
X94688500Y-66555695D01*
X94708502Y-66487574D01*
X94747301Y-66451410D01*
X94746705Y-66450615D01*
X94856081Y-66368642D01*
X94863261Y-66363261D01*
X94899487Y-66314925D01*
X94956345Y-66272411D01*
X95027164Y-66267385D01*
X95089457Y-66301445D01*
X95101138Y-66314925D01*
X95131717Y-66355726D01*
X95144276Y-66368285D01*
X95246351Y-66444786D01*
X95261946Y-66453324D01*
X95382394Y-66498478D01*
X95397649Y-66502105D01*
X95448514Y-66507631D01*
X95455328Y-66508000D01*
X95727885Y-66508000D01*
X95743124Y-66503525D01*
X95744329Y-66502135D01*
X95746000Y-66494452D01*
X95746000Y-66489884D01*
X96254000Y-66489884D01*
X96258475Y-66505123D01*
X96259865Y-66506328D01*
X96267548Y-66507999D01*
X96544669Y-66507999D01*
X96551490Y-66507629D01*
X96602352Y-66502105D01*
X96617604Y-66498479D01*
X96738054Y-66453324D01*
X96753649Y-66444786D01*
X96855724Y-66368285D01*
X96868283Y-66355726D01*
X96898862Y-66314925D01*
X96955722Y-66272411D01*
X97026540Y-66267386D01*
X97088834Y-66301446D01*
X97100513Y-66314925D01*
X97136739Y-66363261D01*
X97253295Y-66450615D01*
X97389684Y-66501745D01*
X97451866Y-66508500D01*
X98548134Y-66508500D01*
X98610316Y-66501745D01*
X98746705Y-66450615D01*
X98863261Y-66363261D01*
X98899176Y-66315340D01*
X98956033Y-66272827D01*
X99026851Y-66267801D01*
X99089145Y-66301861D01*
X99100817Y-66315330D01*
X99136739Y-66363261D01*
X99253295Y-66450615D01*
X99389684Y-66501745D01*
X99451866Y-66508500D01*
X100548134Y-66508500D01*
X100610316Y-66501745D01*
X100746705Y-66450615D01*
X100863261Y-66363261D01*
X100899176Y-66315340D01*
X100956033Y-66272827D01*
X101026851Y-66267801D01*
X101089145Y-66301861D01*
X101100817Y-66315330D01*
X101136739Y-66363261D01*
X101253295Y-66450615D01*
X101389684Y-66501745D01*
X101451866Y-66508500D01*
X101783629Y-66508500D01*
X101851750Y-66528502D01*
X101872724Y-66545405D01*
X104818730Y-69491411D01*
X104831116Y-69505823D01*
X104839649Y-69517418D01*
X104839654Y-69517423D01*
X104843992Y-69523318D01*
X104849570Y-69528057D01*
X104849573Y-69528060D01*
X104884268Y-69557535D01*
X104891784Y-69564465D01*
X104897480Y-69570161D01*
X104900341Y-69572424D01*
X104900346Y-69572429D01*
X104919756Y-69587785D01*
X104923158Y-69590574D01*
X104971856Y-69631946D01*
X104978785Y-69637833D01*
X104985302Y-69641161D01*
X104990350Y-69644527D01*
X104995472Y-69647690D01*
X105001216Y-69652235D01*
X105067395Y-69683164D01*
X105071279Y-69685063D01*
X105136308Y-69718269D01*
X105143423Y-69720010D01*
X105149078Y-69722113D01*
X105154817Y-69724022D01*
X105161450Y-69727122D01*
X105232935Y-69741991D01*
X105237201Y-69742957D01*
X105308110Y-69760308D01*
X105313712Y-69760656D01*
X105313715Y-69760656D01*
X105319264Y-69761000D01*
X105319262Y-69761035D01*
X105323234Y-69761275D01*
X105327455Y-69761652D01*
X105334615Y-69763141D01*
X105412042Y-69761046D01*
X105415450Y-69761000D01*
X105873800Y-69761000D01*
X105941921Y-69781002D01*
X105962819Y-69797828D01*
X105990787Y-69825748D01*
X106024865Y-69888031D01*
X106019861Y-69958851D01*
X105990941Y-70003937D01*
X105888246Y-70106812D01*
X105888242Y-70106817D01*
X105883071Y-70111997D01*
X105879231Y-70118227D01*
X105879230Y-70118228D01*
X105799518Y-70247545D01*
X105791791Y-70260080D01*
X105737026Y-70425191D01*
X105736326Y-70432027D01*
X105736325Y-70432030D01*
X105731615Y-70478000D01*
X105726500Y-70527928D01*
X105726500Y-71127072D01*
X105726837Y-71130318D01*
X105726837Y-71130322D01*
X105734890Y-71207932D01*
X105737293Y-71231093D01*
X105739474Y-71237629D01*
X105739474Y-71237631D01*
X105759908Y-71298879D01*
X105792346Y-71396107D01*
X105796195Y-71402328D01*
X105796197Y-71402331D01*
X105847502Y-71485240D01*
X105866339Y-71553692D01*
X105860190Y-71590478D01*
X105851684Y-71616657D01*
X105816458Y-71725072D01*
X105815768Y-71731633D01*
X105815768Y-71731635D01*
X105802439Y-71858459D01*
X105796496Y-71915000D01*
X105797186Y-71921565D01*
X105812993Y-72071956D01*
X105816458Y-72104928D01*
X105875473Y-72286556D01*
X105970960Y-72451944D01*
X105975378Y-72456851D01*
X105975379Y-72456852D01*
X106075888Y-72568479D01*
X106098747Y-72593866D01*
X106253248Y-72706118D01*
X106259276Y-72708802D01*
X106259278Y-72708803D01*
X106421681Y-72781109D01*
X106427712Y-72783794D01*
X106521113Y-72803647D01*
X106608056Y-72822128D01*
X106608061Y-72822128D01*
X106614513Y-72823500D01*
X106805487Y-72823500D01*
X106811939Y-72822128D01*
X106811944Y-72822128D01*
X106898887Y-72803647D01*
X106992288Y-72783794D01*
X106998319Y-72781109D01*
X107160722Y-72708803D01*
X107160724Y-72708802D01*
X107166752Y-72706118D01*
X107321253Y-72593866D01*
X107344112Y-72568479D01*
X107444621Y-72456852D01*
X107444622Y-72456851D01*
X107449040Y-72451944D01*
X107544527Y-72286556D01*
X107590167Y-72146090D01*
X107630241Y-72087486D01*
X107695637Y-72059849D01*
X107765594Y-72071956D01*
X107817900Y-72119962D01*
X107829832Y-72146089D01*
X107875473Y-72286556D01*
X107970960Y-72451944D01*
X107975378Y-72456851D01*
X107975379Y-72456852D01*
X108075888Y-72568479D01*
X108098747Y-72593866D01*
X108253248Y-72706118D01*
X108259276Y-72708802D01*
X108259278Y-72708803D01*
X108421681Y-72781109D01*
X108427712Y-72783794D01*
X108521113Y-72803647D01*
X108608056Y-72822128D01*
X108608061Y-72822128D01*
X108614513Y-72823500D01*
X108805487Y-72823500D01*
X108811939Y-72822128D01*
X108811944Y-72822128D01*
X108898887Y-72803647D01*
X108992288Y-72783794D01*
X108998319Y-72781109D01*
X109160722Y-72708803D01*
X109160724Y-72708802D01*
X109166752Y-72706118D01*
X109321253Y-72593866D01*
X109344112Y-72568479D01*
X109444621Y-72456852D01*
X109444622Y-72456851D01*
X109449040Y-72451944D01*
X109544527Y-72286556D01*
X109603542Y-72104928D01*
X109607008Y-72071956D01*
X109622814Y-71921565D01*
X109623504Y-71915000D01*
X109617561Y-71858459D01*
X109604232Y-71731635D01*
X109604232Y-71731633D01*
X109603542Y-71725072D01*
X109556099Y-71579059D01*
X109554071Y-71508092D01*
X109568672Y-71474007D01*
X109624369Y-71383650D01*
X109624370Y-71383648D01*
X109628209Y-71377420D01*
X109682974Y-71212309D01*
X109683769Y-71204555D01*
X109691707Y-71127072D01*
X109693500Y-71109572D01*
X109693500Y-70510428D01*
X109691317Y-70489386D01*
X109683419Y-70413265D01*
X109683418Y-70413261D01*
X109682707Y-70406407D01*
X109627654Y-70241393D01*
X109536116Y-70093469D01*
X109530934Y-70088296D01*
X109429214Y-69986753D01*
X109395135Y-69924470D01*
X109400138Y-69853650D01*
X109429059Y-69808563D01*
X109531754Y-69705688D01*
X109531758Y-69705683D01*
X109536929Y-69700503D01*
X109547624Y-69683153D01*
X109624369Y-69558650D01*
X109624370Y-69558648D01*
X109628209Y-69552420D01*
X109682974Y-69387309D01*
X109684592Y-69371522D01*
X109690021Y-69318525D01*
X109693500Y-69284572D01*
X109693500Y-69157088D01*
X109713502Y-69088967D01*
X109767158Y-69042474D01*
X109837432Y-69032370D01*
X109902012Y-69061864D01*
X109908518Y-69067915D01*
X110002129Y-69161363D01*
X110013540Y-69170375D01*
X110149063Y-69253912D01*
X110162241Y-69260056D01*
X110313766Y-69310315D01*
X110327132Y-69313181D01*
X110419770Y-69322672D01*
X110426185Y-69323000D01*
X110437885Y-69323000D01*
X110453124Y-69318525D01*
X110454329Y-69317135D01*
X110456000Y-69309452D01*
X110456000Y-69304885D01*
X110964000Y-69304885D01*
X110968475Y-69320124D01*
X110969865Y-69321329D01*
X110977548Y-69323000D01*
X110993766Y-69323000D01*
X111000282Y-69322663D01*
X111094132Y-69312925D01*
X111107528Y-69310032D01*
X111258953Y-69259512D01*
X111272115Y-69253347D01*
X111407492Y-69169574D01*
X111418890Y-69160540D01*
X111531363Y-69047871D01*
X111540377Y-69036457D01*
X111602699Y-68935351D01*
X111655470Y-68887857D01*
X111725542Y-68876433D01*
X111790666Y-68904707D01*
X111817103Y-68935163D01*
X111880425Y-69037490D01*
X111889460Y-69048890D01*
X112002129Y-69161363D01*
X112013540Y-69170375D01*
X112149063Y-69253912D01*
X112162241Y-69260056D01*
X112313766Y-69310315D01*
X112327132Y-69313181D01*
X112419770Y-69322672D01*
X112426185Y-69323000D01*
X112437885Y-69323000D01*
X112453124Y-69318525D01*
X112454329Y-69317135D01*
X112456000Y-69309452D01*
X112456000Y-68549615D01*
X112451525Y-68534376D01*
X112450135Y-68533171D01*
X112442452Y-68531500D01*
X111727000Y-68531500D01*
X111727000Y-68531395D01*
X111685746Y-68532869D01*
X111679453Y-68531500D01*
X110982115Y-68531500D01*
X110966876Y-68535975D01*
X110965671Y-68537365D01*
X110964000Y-68545048D01*
X110964000Y-69304885D01*
X110456000Y-69304885D01*
X110456000Y-68149500D01*
X110476002Y-68081379D01*
X110529658Y-68034886D01*
X110582000Y-68023500D01*
X111693000Y-68023500D01*
X111693000Y-68023605D01*
X111734254Y-68022131D01*
X111740547Y-68023500D01*
X113674885Y-68023500D01*
X113690124Y-68019025D01*
X113691329Y-68017635D01*
X113693000Y-68009952D01*
X113693000Y-67931234D01*
X113692663Y-67924718D01*
X113682925Y-67830868D01*
X113680032Y-67817472D01*
X113629512Y-67666047D01*
X113623347Y-67652885D01*
X113539574Y-67517508D01*
X113530536Y-67506106D01*
X113528861Y-67504433D01*
X113528081Y-67503007D01*
X113525993Y-67500373D01*
X113526444Y-67500016D01*
X113494781Y-67442151D01*
X113499784Y-67371331D01*
X113528701Y-67326246D01*
X113531756Y-67323185D01*
X113536929Y-67318003D01*
X113628209Y-67169920D01*
X113682974Y-67004809D01*
X113693500Y-66902072D01*
X113693500Y-66202928D01*
X113693163Y-66199678D01*
X113683419Y-66105765D01*
X113683418Y-66105761D01*
X113682707Y-66098907D01*
X113627654Y-65933893D01*
X113536116Y-65785969D01*
X113492089Y-65742019D01*
X113418184Y-65668242D01*
X113418179Y-65668238D01*
X113413003Y-65663071D01*
X113264920Y-65571791D01*
X113260446Y-65570307D01*
X113207965Y-65524097D01*
X113188500Y-65456820D01*
X113188500Y-64799500D01*
X113208502Y-64731379D01*
X113262158Y-64684886D01*
X113314500Y-64673500D01*
X113328134Y-64673500D01*
X113390316Y-64666745D01*
X113526705Y-64615615D01*
X113643261Y-64528261D01*
X113730615Y-64411705D01*
X113781745Y-64275316D01*
X113788500Y-64213134D01*
X113788500Y-62416866D01*
X113781745Y-62354684D01*
X113730615Y-62218295D01*
X113643261Y-62101739D01*
X113526705Y-62014385D01*
X113480520Y-61997071D01*
X113408203Y-61969960D01*
X113351439Y-61927318D01*
X113326739Y-61860756D01*
X113341947Y-61791408D01*
X113363493Y-61762727D01*
X113384474Y-61741819D01*
X113468096Y-61658489D01*
X113527594Y-61575689D01*
X113595435Y-61481277D01*
X113598453Y-61477077D01*
X113601751Y-61470405D01*
X113695136Y-61281453D01*
X113695137Y-61281451D01*
X113697430Y-61276811D01*
X113762370Y-61063069D01*
X113791529Y-60841590D01*
X113793156Y-60775000D01*
X113774852Y-60552361D01*
X113720431Y-60335702D01*
X113631354Y-60130840D01*
X113510014Y-59943277D01*
X113359670Y-59778051D01*
X113355619Y-59774852D01*
X113355615Y-59774848D01*
X113188414Y-59642800D01*
X113188410Y-59642798D01*
X113184359Y-59639598D01*
X113143053Y-59616796D01*
X113093084Y-59566364D01*
X113078312Y-59496921D01*
X113103428Y-59430516D01*
X113130780Y-59403909D01*
X113174603Y-59372650D01*
X113309860Y-59276173D01*
X113468096Y-59118489D01*
X113527594Y-59035689D01*
X113595435Y-58941277D01*
X113598453Y-58937077D01*
X113601751Y-58930405D01*
X113695136Y-58741453D01*
X113695137Y-58741451D01*
X113697430Y-58736811D01*
X113762370Y-58523069D01*
X113791529Y-58301590D01*
X113793156Y-58235000D01*
X113774852Y-58012361D01*
X113720431Y-57795702D01*
X113631354Y-57590840D01*
X113510014Y-57403277D01*
X113359670Y-57238051D01*
X113355619Y-57234852D01*
X113355615Y-57234848D01*
X113188414Y-57102800D01*
X113188410Y-57102798D01*
X113184359Y-57099598D01*
X113143053Y-57076796D01*
X113093084Y-57026364D01*
X113078312Y-56956921D01*
X113103428Y-56890516D01*
X113130780Y-56863909D01*
X113174603Y-56832650D01*
X113309860Y-56736173D01*
X113468096Y-56578489D01*
X113527594Y-56495689D01*
X113595435Y-56401277D01*
X113598453Y-56397077D01*
X113601751Y-56390405D01*
X113695136Y-56201453D01*
X113695137Y-56201451D01*
X113697430Y-56196811D01*
X113762370Y-55983069D01*
X113791529Y-55761590D01*
X113793156Y-55695000D01*
X113774852Y-55472361D01*
X113720431Y-55255702D01*
X113631354Y-55050840D01*
X113510014Y-54863277D01*
X113359670Y-54698051D01*
X113355619Y-54694852D01*
X113355615Y-54694848D01*
X113188414Y-54562800D01*
X113188410Y-54562798D01*
X113184359Y-54559598D01*
X113143053Y-54536796D01*
X113093084Y-54486364D01*
X113078312Y-54416921D01*
X113103428Y-54350516D01*
X113130780Y-54323909D01*
X113174603Y-54292650D01*
X113309860Y-54196173D01*
X113468096Y-54038489D01*
X113527594Y-53955689D01*
X113595435Y-53861277D01*
X113598453Y-53857077D01*
X113601751Y-53850405D01*
X113695136Y-53661453D01*
X113695137Y-53661451D01*
X113697430Y-53656811D01*
X113762370Y-53443069D01*
X113791529Y-53221590D01*
X113793156Y-53155000D01*
X113774852Y-52932361D01*
X113720431Y-52715702D01*
X113631354Y-52510840D01*
X113510014Y-52323277D01*
X113359670Y-52158051D01*
X113355619Y-52154852D01*
X113355615Y-52154848D01*
X113188414Y-52022800D01*
X113188410Y-52022798D01*
X113184359Y-52019598D01*
X113143053Y-51996796D01*
X113093084Y-51946364D01*
X113078312Y-51876921D01*
X113103428Y-51810516D01*
X113130780Y-51783909D01*
X113174603Y-51752650D01*
X113309860Y-51656173D01*
X113468096Y-51498489D01*
X113527594Y-51415689D01*
X113595435Y-51321277D01*
X113598453Y-51317077D01*
X113601751Y-51310405D01*
X113695136Y-51121453D01*
X113695137Y-51121451D01*
X113697430Y-51116811D01*
X113739052Y-50979818D01*
X113760865Y-50908023D01*
X113760865Y-50908021D01*
X113762370Y-50903069D01*
X113791529Y-50681590D01*
X113791611Y-50678240D01*
X113793074Y-50618365D01*
X113793074Y-50618361D01*
X113793156Y-50615000D01*
X113774852Y-50392361D01*
X113720431Y-50175702D01*
X113631354Y-49970840D01*
X113510014Y-49783277D01*
X113359670Y-49618051D01*
X113355619Y-49614852D01*
X113355615Y-49614848D01*
X113188414Y-49482800D01*
X113188410Y-49482798D01*
X113184359Y-49479598D01*
X113142569Y-49456529D01*
X113092598Y-49406097D01*
X113077826Y-49336654D01*
X113102942Y-49270248D01*
X113130294Y-49243641D01*
X113305328Y-49118792D01*
X113313200Y-49112139D01*
X113464052Y-48961812D01*
X113470730Y-48953965D01*
X113595003Y-48781020D01*
X113600313Y-48772183D01*
X113694670Y-48581267D01*
X113698469Y-48571672D01*
X113760377Y-48367910D01*
X113762555Y-48357837D01*
X113763986Y-48346962D01*
X113761775Y-48332778D01*
X113748617Y-48329000D01*
X111113225Y-48329000D01*
X111099694Y-48332973D01*
X111098257Y-48342966D01*
X111128565Y-48477446D01*
X111131645Y-48487275D01*
X111211770Y-48684603D01*
X111216413Y-48693794D01*
X111327694Y-48875388D01*
X111333777Y-48883699D01*
X111473213Y-49044667D01*
X111480580Y-49051883D01*
X111644434Y-49187916D01*
X111652881Y-49193831D01*
X111721969Y-49234203D01*
X111770693Y-49285842D01*
X111783764Y-49355625D01*
X111757033Y-49421396D01*
X111716584Y-49454752D01*
X111703607Y-49461507D01*
X111699474Y-49464610D01*
X111699471Y-49464612D01*
X111675247Y-49482800D01*
X111524965Y-49595635D01*
X111370629Y-49757138D01*
X111367715Y-49761410D01*
X111367714Y-49761411D01*
X111272149Y-49901504D01*
X111217238Y-49946507D01*
X111168061Y-49956500D01*
X110592059Y-49956500D01*
X110580203Y-49955941D01*
X110572463Y-49954211D01*
X110564537Y-49954460D01*
X110564536Y-49954460D01*
X110501611Y-49956438D01*
X110497653Y-49956500D01*
X110468568Y-49956500D01*
X110464637Y-49956997D01*
X110464630Y-49956997D01*
X110464179Y-49957054D01*
X110452343Y-49957986D01*
X110406169Y-49959438D01*
X110385579Y-49965420D01*
X110366218Y-49969430D01*
X110359230Y-49970312D01*
X110352796Y-49971125D01*
X110352795Y-49971125D01*
X110344936Y-49972118D01*
X110337571Y-49975034D01*
X110337567Y-49975035D01*
X110301979Y-49989126D01*
X110290769Y-49992965D01*
X110246400Y-50005855D01*
X110227935Y-50016775D01*
X110210195Y-50025466D01*
X110190244Y-50033365D01*
X110152874Y-50060516D01*
X110142952Y-50067033D01*
X110110023Y-50086507D01*
X110110019Y-50086510D01*
X110103193Y-50090547D01*
X110088029Y-50105711D01*
X110072996Y-50118551D01*
X110055643Y-50131159D01*
X110048652Y-50139610D01*
X110026198Y-50166752D01*
X110018208Y-50175532D01*
X97592395Y-62601345D01*
X97583615Y-62609335D01*
X97583613Y-62609337D01*
X97576920Y-62613584D01*
X97571494Y-62619362D01*
X97571493Y-62619363D01*
X97528396Y-62665257D01*
X97525641Y-62668099D01*
X97505073Y-62688667D01*
X97502356Y-62692170D01*
X97494648Y-62701195D01*
X97463028Y-62734867D01*
X97459207Y-62741818D01*
X97459206Y-62741819D01*
X97452697Y-62753658D01*
X97441843Y-62770182D01*
X97434018Y-62780271D01*
X97428696Y-62787132D01*
X97425549Y-62794404D01*
X97425548Y-62794406D01*
X97410346Y-62829535D01*
X97405124Y-62840195D01*
X97382876Y-62880663D01*
X97377541Y-62901441D01*
X97371142Y-62920131D01*
X97362620Y-62939824D01*
X97361380Y-62947655D01*
X97355394Y-62985448D01*
X97352987Y-62997071D01*
X97341500Y-63041812D01*
X97341500Y-63063259D01*
X97339949Y-63082969D01*
X97336594Y-63104152D01*
X97337340Y-63112043D01*
X97340941Y-63150138D01*
X97341500Y-63161996D01*
X97341500Y-63428991D01*
X97321498Y-63497112D01*
X97267842Y-63543605D01*
X97262306Y-63545903D01*
X97261704Y-63546232D01*
X97253295Y-63549385D01*
X97136739Y-63636739D01*
X97131358Y-63643919D01*
X97100514Y-63685074D01*
X97043655Y-63727589D01*
X96972836Y-63732615D01*
X96910543Y-63698555D01*
X96898862Y-63685075D01*
X96868283Y-63644274D01*
X96855724Y-63631715D01*
X96753649Y-63555214D01*
X96738054Y-63546676D01*
X96617606Y-63501522D01*
X96602351Y-63497895D01*
X96551486Y-63492369D01*
X96544672Y-63492000D01*
X96272115Y-63492000D01*
X96256876Y-63496475D01*
X96255671Y-63497865D01*
X96254000Y-63505548D01*
X96254000Y-66489884D01*
X95746000Y-66489884D01*
X95746000Y-63510116D01*
X95741525Y-63494877D01*
X95740135Y-63493672D01*
X95732452Y-63492001D01*
X95455331Y-63492001D01*
X95448510Y-63492371D01*
X95397648Y-63497895D01*
X95382396Y-63501521D01*
X95261946Y-63546676D01*
X95246351Y-63555214D01*
X95144276Y-63631715D01*
X95131717Y-63644274D01*
X95101138Y-63685075D01*
X95044278Y-63727589D01*
X94973460Y-63732614D01*
X94911166Y-63698554D01*
X94899486Y-63685074D01*
X94868642Y-63643919D01*
X94863261Y-63636739D01*
X94746705Y-63549385D01*
X94610316Y-63498255D01*
X94548134Y-63491500D01*
X94368950Y-63491500D01*
X94300829Y-63471498D01*
X94254336Y-63417842D01*
X94244232Y-63347568D01*
X94273726Y-63282988D01*
X94279855Y-63276405D01*
X106407605Y-51148655D01*
X106416385Y-51140665D01*
X106416387Y-51140663D01*
X106423080Y-51136416D01*
X106446527Y-51111448D01*
X106471604Y-51084743D01*
X106474359Y-51081901D01*
X106494927Y-51061333D01*
X106497647Y-51057826D01*
X106505353Y-51048804D01*
X106531544Y-51020913D01*
X106536972Y-51015133D01*
X106540794Y-51008181D01*
X106547303Y-50996342D01*
X106558157Y-50979818D01*
X106566445Y-50969132D01*
X106571304Y-50962868D01*
X106574452Y-50955594D01*
X106589654Y-50920465D01*
X106594876Y-50909805D01*
X106613305Y-50876284D01*
X106613306Y-50876282D01*
X106617124Y-50869337D01*
X106622459Y-50848559D01*
X106628858Y-50829869D01*
X106637380Y-50810176D01*
X106644606Y-50764552D01*
X106647013Y-50752929D01*
X106656528Y-50715868D01*
X106658500Y-50708188D01*
X106658500Y-50686741D01*
X106660051Y-50667031D01*
X106662166Y-50653677D01*
X106663406Y-50645848D01*
X106659059Y-50599859D01*
X106658500Y-50588004D01*
X106658500Y-50571009D01*
X106678502Y-50502888D01*
X106732158Y-50456395D01*
X106737694Y-50454097D01*
X106738297Y-50453767D01*
X106746705Y-50450615D01*
X106863261Y-50363261D01*
X106899487Y-50314925D01*
X106956345Y-50272411D01*
X107027164Y-50267385D01*
X107089457Y-50301445D01*
X107101138Y-50314925D01*
X107131717Y-50355726D01*
X107144276Y-50368285D01*
X107246351Y-50444786D01*
X107261946Y-50453324D01*
X107382394Y-50498478D01*
X107397649Y-50502105D01*
X107448514Y-50507631D01*
X107455328Y-50508000D01*
X107727885Y-50508000D01*
X107743124Y-50503525D01*
X107744329Y-50502135D01*
X107746000Y-50494452D01*
X107746000Y-50489884D01*
X108254000Y-50489884D01*
X108258475Y-50505123D01*
X108259865Y-50506328D01*
X108267548Y-50507999D01*
X108544669Y-50507999D01*
X108551490Y-50507629D01*
X108602352Y-50502105D01*
X108617604Y-50498479D01*
X108738054Y-50453324D01*
X108753649Y-50444786D01*
X108855724Y-50368285D01*
X108868285Y-50355724D01*
X108944786Y-50253649D01*
X108953324Y-50238054D01*
X108998478Y-50117606D01*
X109002105Y-50102351D01*
X109007631Y-50051486D01*
X109008000Y-50044672D01*
X109008000Y-49272115D01*
X109003525Y-49256876D01*
X109002135Y-49255671D01*
X108994452Y-49254000D01*
X108272115Y-49254000D01*
X108256876Y-49258475D01*
X108255671Y-49259865D01*
X108254000Y-49267548D01*
X108254000Y-50489884D01*
X107746000Y-50489884D01*
X107746000Y-48727885D01*
X108254000Y-48727885D01*
X108258475Y-48743124D01*
X108259865Y-48744329D01*
X108267548Y-48746000D01*
X108989884Y-48746000D01*
X109005123Y-48741525D01*
X109006328Y-48740135D01*
X109007999Y-48732452D01*
X109007999Y-47955331D01*
X109007629Y-47948510D01*
X109002105Y-47897648D01*
X108998479Y-47882396D01*
X108971032Y-47809183D01*
X111094389Y-47809183D01*
X111095912Y-47817607D01*
X111108292Y-47821000D01*
X112157885Y-47821000D01*
X112173124Y-47816525D01*
X112174329Y-47815135D01*
X112176000Y-47807452D01*
X112176000Y-47802885D01*
X112684000Y-47802885D01*
X112688475Y-47818124D01*
X112689865Y-47819329D01*
X112697548Y-47821000D01*
X113748344Y-47821000D01*
X113761875Y-47817027D01*
X113763180Y-47807947D01*
X113721214Y-47640875D01*
X113717894Y-47631124D01*
X113632972Y-47435814D01*
X113628105Y-47426739D01*
X113512426Y-47247926D01*
X113506136Y-47239757D01*
X113362806Y-47082240D01*
X113355273Y-47075215D01*
X113188139Y-46943222D01*
X113179552Y-46937517D01*
X112993117Y-46834599D01*
X112983705Y-46830369D01*
X112782959Y-46759280D01*
X112772988Y-46756646D01*
X112701837Y-46743972D01*
X112688540Y-46745432D01*
X112684000Y-46759989D01*
X112684000Y-47802885D01*
X112176000Y-47802885D01*
X112176000Y-46758102D01*
X112172082Y-46744758D01*
X112157806Y-46742771D01*
X112119324Y-46748660D01*
X112109288Y-46751051D01*
X111906868Y-46817212D01*
X111897359Y-46821209D01*
X111708463Y-46919542D01*
X111699738Y-46925036D01*
X111529433Y-47052905D01*
X111521726Y-47059748D01*
X111374590Y-47213717D01*
X111368104Y-47221727D01*
X111248098Y-47397649D01*
X111243000Y-47406623D01*
X111153338Y-47599783D01*
X111149775Y-47609470D01*
X111094389Y-47809183D01*
X108971032Y-47809183D01*
X108953324Y-47761946D01*
X108944786Y-47746351D01*
X108868285Y-47644276D01*
X108855724Y-47631715D01*
X108753649Y-47555214D01*
X108738054Y-47546676D01*
X108617606Y-47501522D01*
X108602351Y-47497895D01*
X108551486Y-47492369D01*
X108544672Y-47492000D01*
X108272115Y-47492000D01*
X108256876Y-47496475D01*
X108255671Y-47497865D01*
X108254000Y-47505548D01*
X108254000Y-48727885D01*
X107746000Y-48727885D01*
X107746000Y-47510116D01*
X107741525Y-47494877D01*
X107740135Y-47493672D01*
X107732452Y-47492001D01*
X107455331Y-47492001D01*
X107448510Y-47492371D01*
X107397648Y-47497895D01*
X107382396Y-47501521D01*
X107261946Y-47546676D01*
X107246351Y-47555214D01*
X107144276Y-47631715D01*
X107131717Y-47644274D01*
X107101138Y-47685075D01*
X107044278Y-47727589D01*
X106973460Y-47732614D01*
X106911166Y-47698554D01*
X106899486Y-47685074D01*
X106868642Y-47643919D01*
X106863261Y-47636739D01*
X106746705Y-47549385D01*
X106610316Y-47498255D01*
X106548134Y-47491500D01*
X105451866Y-47491500D01*
X105389684Y-47498255D01*
X105253295Y-47549385D01*
X105136739Y-47636739D01*
X105100824Y-47684660D01*
X105043967Y-47727173D01*
X104973149Y-47732199D01*
X104910855Y-47698139D01*
X104899183Y-47684670D01*
X104863261Y-47636739D01*
X104746705Y-47549385D01*
X104610316Y-47498255D01*
X104548134Y-47491500D01*
X103451866Y-47491500D01*
X103389684Y-47498255D01*
X103253295Y-47549385D01*
X103136739Y-47636739D01*
X103100824Y-47684660D01*
X103043967Y-47727173D01*
X102973149Y-47732199D01*
X102910855Y-47698139D01*
X102899183Y-47684670D01*
X102863261Y-47636739D01*
X102746705Y-47549385D01*
X102610316Y-47498255D01*
X102548134Y-47491500D01*
X101451866Y-47491500D01*
X101389684Y-47498255D01*
X101253295Y-47549385D01*
X101136739Y-47636739D01*
X101100824Y-47684660D01*
X101043967Y-47727173D01*
X100973149Y-47732199D01*
X100910855Y-47698139D01*
X100899183Y-47684670D01*
X100863261Y-47636739D01*
X100746705Y-47549385D01*
X100610316Y-47498255D01*
X100548134Y-47491500D01*
X99451866Y-47491500D01*
X99389684Y-47498255D01*
X99253295Y-47549385D01*
X99136739Y-47636739D01*
X99100824Y-47684660D01*
X99043967Y-47727173D01*
X98973149Y-47732199D01*
X98910855Y-47698139D01*
X98899183Y-47684670D01*
X98863261Y-47636739D01*
X98746705Y-47549385D01*
X98610316Y-47498255D01*
X98548134Y-47491500D01*
X97451866Y-47491500D01*
X97389684Y-47498255D01*
X97253295Y-47549385D01*
X97136739Y-47636739D01*
X97100824Y-47684660D01*
X97043967Y-47727173D01*
X96973149Y-47732199D01*
X96910855Y-47698139D01*
X96899183Y-47684670D01*
X96863261Y-47636739D01*
X96746705Y-47549385D01*
X96610316Y-47498255D01*
X96548134Y-47491500D01*
X95451866Y-47491500D01*
X95389684Y-47498255D01*
X95253295Y-47549385D01*
X95136739Y-47636739D01*
X95131358Y-47643919D01*
X95100514Y-47685074D01*
X95043655Y-47727589D01*
X94972836Y-47732615D01*
X94910543Y-47698555D01*
X94898862Y-47685075D01*
X94868283Y-47644274D01*
X94855724Y-47631715D01*
X94753649Y-47555214D01*
X94738054Y-47546676D01*
X94617606Y-47501522D01*
X94602351Y-47497895D01*
X94551486Y-47492369D01*
X94544672Y-47492000D01*
X94272115Y-47492000D01*
X94256876Y-47496475D01*
X94255671Y-47497865D01*
X94254000Y-47505548D01*
X94254000Y-49128000D01*
X94233998Y-49196121D01*
X94180342Y-49242614D01*
X94128000Y-49254000D01*
X93010116Y-49254000D01*
X92994877Y-49258475D01*
X92993672Y-49259865D01*
X92992001Y-49267548D01*
X92992001Y-49830500D01*
X92971999Y-49898621D01*
X92918343Y-49945114D01*
X92866001Y-49956500D01*
X90830632Y-49956500D01*
X90762511Y-49936498D01*
X90724840Y-49898940D01*
X90652822Y-49787617D01*
X90652820Y-49787614D01*
X90650014Y-49783277D01*
X90499670Y-49618051D01*
X90495619Y-49614852D01*
X90495615Y-49614848D01*
X90328414Y-49482800D01*
X90328410Y-49482798D01*
X90324359Y-49479598D01*
X90282569Y-49456529D01*
X90232598Y-49406097D01*
X90217826Y-49336654D01*
X90242942Y-49270248D01*
X90270294Y-49243641D01*
X90445328Y-49118792D01*
X90453200Y-49112139D01*
X90604052Y-48961812D01*
X90610730Y-48953965D01*
X90735003Y-48781020D01*
X90740313Y-48772183D01*
X90762207Y-48727885D01*
X92992000Y-48727885D01*
X92996475Y-48743124D01*
X92997865Y-48744329D01*
X93005548Y-48746000D01*
X93727885Y-48746000D01*
X93743124Y-48741525D01*
X93744329Y-48740135D01*
X93746000Y-48732452D01*
X93746000Y-47510116D01*
X93741525Y-47494877D01*
X93740135Y-47493672D01*
X93732452Y-47492001D01*
X93455331Y-47492001D01*
X93448510Y-47492371D01*
X93397648Y-47497895D01*
X93382396Y-47501521D01*
X93261946Y-47546676D01*
X93246351Y-47555214D01*
X93144276Y-47631715D01*
X93131715Y-47644276D01*
X93055214Y-47746351D01*
X93046676Y-47761946D01*
X93001522Y-47882394D01*
X92997895Y-47897649D01*
X92992369Y-47948514D01*
X92992000Y-47955328D01*
X92992000Y-48727885D01*
X90762207Y-48727885D01*
X90834670Y-48581267D01*
X90838469Y-48571672D01*
X90900377Y-48367910D01*
X90902555Y-48357837D01*
X90903986Y-48346962D01*
X90901775Y-48332778D01*
X90888617Y-48329000D01*
X88253225Y-48329000D01*
X88239694Y-48332973D01*
X88238257Y-48342966D01*
X88268565Y-48477446D01*
X88271645Y-48487275D01*
X88351770Y-48684603D01*
X88356413Y-48693794D01*
X88467694Y-48875388D01*
X88473777Y-48883699D01*
X88613213Y-49044667D01*
X88620580Y-49051883D01*
X88784434Y-49187916D01*
X88792881Y-49193831D01*
X88861969Y-49234203D01*
X88910693Y-49285842D01*
X88923764Y-49355625D01*
X88897033Y-49421396D01*
X88856584Y-49454752D01*
X88843607Y-49461507D01*
X88839474Y-49464610D01*
X88839471Y-49464612D01*
X88815247Y-49482800D01*
X88664965Y-49595635D01*
X88510629Y-49757138D01*
X88384743Y-49941680D01*
X88354954Y-50005855D01*
X88308603Y-50105711D01*
X88290688Y-50144305D01*
X88230989Y-50359570D01*
X88207251Y-50581695D01*
X88207548Y-50586848D01*
X88207548Y-50586851D01*
X88215143Y-50718566D01*
X88220110Y-50804715D01*
X88221247Y-50809761D01*
X88221248Y-50809767D01*
X88232943Y-50861660D01*
X88269222Y-51022639D01*
X88326203Y-51162967D01*
X88346612Y-51213228D01*
X88353266Y-51229616D01*
X88371196Y-51258875D01*
X88467291Y-51415688D01*
X88469987Y-51420088D01*
X88616250Y-51588938D01*
X88788126Y-51731632D01*
X88858595Y-51772811D01*
X88861445Y-51774476D01*
X88910169Y-51826114D01*
X88923240Y-51895897D01*
X88896509Y-51961669D01*
X88856055Y-51995027D01*
X88843607Y-52001507D01*
X88839474Y-52004610D01*
X88839471Y-52004612D01*
X88815247Y-52022800D01*
X88664965Y-52135635D01*
X88510629Y-52297138D01*
X88384743Y-52481680D01*
X88354954Y-52545855D01*
X88308603Y-52645711D01*
X88290688Y-52684305D01*
X88230989Y-52899570D01*
X88207251Y-53121695D01*
X88207548Y-53126848D01*
X88207548Y-53126851D01*
X88213011Y-53221590D01*
X88220110Y-53344715D01*
X88221247Y-53349761D01*
X88221248Y-53349767D01*
X88241119Y-53437939D01*
X88269222Y-53562639D01*
X88353266Y-53769616D01*
X88372996Y-53801813D01*
X88467291Y-53955688D01*
X88469987Y-53960088D01*
X88616250Y-54128938D01*
X88788126Y-54271632D01*
X88858595Y-54312811D01*
X88861445Y-54314476D01*
X88910169Y-54366114D01*
X88923240Y-54435897D01*
X88896509Y-54501669D01*
X88856055Y-54535027D01*
X88843607Y-54541507D01*
X88839474Y-54544610D01*
X88839471Y-54544612D01*
X88815247Y-54562800D01*
X88664965Y-54675635D01*
X88510629Y-54837138D01*
X88384743Y-55021680D01*
X88354954Y-55085855D01*
X88302643Y-55198551D01*
X88290688Y-55224305D01*
X88230989Y-55439570D01*
X88207251Y-55661695D01*
X88207548Y-55666848D01*
X88207548Y-55666851D01*
X88213011Y-55761590D01*
X88220110Y-55884715D01*
X88221247Y-55889761D01*
X88221248Y-55889767D01*
X88241119Y-55977939D01*
X88269222Y-56102639D01*
X88353266Y-56309616D01*
X88372996Y-56341813D01*
X88467291Y-56495688D01*
X88469987Y-56500088D01*
X88616250Y-56668938D01*
X88788126Y-56811632D01*
X88858595Y-56852811D01*
X88861445Y-56854476D01*
X88910169Y-56906114D01*
X88923240Y-56975897D01*
X88896509Y-57041669D01*
X88856055Y-57075027D01*
X88843607Y-57081507D01*
X88839474Y-57084610D01*
X88839471Y-57084612D01*
X88815247Y-57102800D01*
X88664965Y-57215635D01*
X88510629Y-57377138D01*
X88384743Y-57561680D01*
X88371075Y-57591125D01*
X88308603Y-57725711D01*
X88290688Y-57764305D01*
X88230989Y-57979570D01*
X88207251Y-58201695D01*
X88207548Y-58206848D01*
X88207548Y-58206851D01*
X88213011Y-58301590D01*
X88220110Y-58424715D01*
X88221247Y-58429761D01*
X88221248Y-58429767D01*
X88241119Y-58517939D01*
X88269222Y-58642639D01*
X88353266Y-58849616D01*
X88372996Y-58881813D01*
X88467291Y-59035688D01*
X88469987Y-59040088D01*
X88616250Y-59208938D01*
X88788126Y-59351632D01*
X88858595Y-59392811D01*
X88861445Y-59394476D01*
X88910169Y-59446114D01*
X88923240Y-59515897D01*
X88896509Y-59581669D01*
X88856055Y-59615027D01*
X88843607Y-59621507D01*
X88839474Y-59624610D01*
X88839471Y-59624612D01*
X88815247Y-59642800D01*
X88664965Y-59755635D01*
X88510629Y-59917138D01*
X88384743Y-60101680D01*
X88354954Y-60165855D01*
X88308603Y-60265711D01*
X88290688Y-60304305D01*
X88230989Y-60519570D01*
X88207251Y-60741695D01*
X88207548Y-60746848D01*
X88207548Y-60746851D01*
X88213011Y-60841590D01*
X88220110Y-60964715D01*
X88221247Y-60969761D01*
X88221248Y-60969767D01*
X88241119Y-61057939D01*
X88269222Y-61182639D01*
X88353266Y-61389616D01*
X88372996Y-61421813D01*
X88467291Y-61575688D01*
X88469987Y-61580088D01*
X88616250Y-61748938D01*
X88620230Y-61752242D01*
X88624981Y-61756187D01*
X88664616Y-61815090D01*
X88666113Y-61886071D01*
X88628997Y-61946593D01*
X88588724Y-61971112D01*
X88473295Y-62014385D01*
X88356739Y-62101739D01*
X88269385Y-62218295D01*
X88218255Y-62354684D01*
X88211500Y-62416866D01*
X88211500Y-64213134D01*
X88218255Y-64275316D01*
X88269385Y-64411705D01*
X88356739Y-64528261D01*
X88473295Y-64615615D01*
X88609684Y-64666745D01*
X88671866Y-64673500D01*
X90468134Y-64673500D01*
X90530316Y-64666745D01*
X90666705Y-64615615D01*
X90783261Y-64528261D01*
X90870615Y-64411705D01*
X90921745Y-64275316D01*
X90928500Y-64213134D01*
X90928500Y-64099500D01*
X90948502Y-64031379D01*
X91002158Y-63984886D01*
X91054500Y-63973500D01*
X92865500Y-63973500D01*
X92933621Y-63993502D01*
X92980114Y-64047158D01*
X92991500Y-64099500D01*
X92991500Y-66048134D01*
X92998255Y-66110316D01*
X93049385Y-66246705D01*
X93136739Y-66363261D01*
X93143919Y-66368642D01*
X93253295Y-66450615D01*
X93252498Y-66451678D01*
X93296155Y-66495433D01*
X93311500Y-66555695D01*
X93311500Y-67285416D01*
X93310243Y-67303168D01*
X93306595Y-67328802D01*
X93306443Y-67343327D01*
X93307642Y-67353232D01*
X93308475Y-67363872D01*
X93322773Y-67764152D01*
X93323013Y-67766385D01*
X93323014Y-67766398D01*
X93366307Y-68169066D01*
X93367787Y-68182831D01*
X93368187Y-68185048D01*
X93368188Y-68185055D01*
X93439482Y-68580200D01*
X93442555Y-68597233D01*
X93443109Y-68599403D01*
X93518226Y-68893704D01*
X93546695Y-69005245D01*
X93547398Y-69007359D01*
X93547403Y-69007374D01*
X93671195Y-69379304D01*
X93679677Y-69404789D01*
X93680530Y-69406849D01*
X93680534Y-69406859D01*
X93839967Y-69791761D01*
X93840823Y-69793827D01*
X93841825Y-69795828D01*
X93841826Y-69795831D01*
X93856959Y-69826063D01*
X94029312Y-70170379D01*
X94030453Y-70172302D01*
X94030459Y-70172313D01*
X94075097Y-70247545D01*
X94244184Y-70532524D01*
X94484343Y-70878418D01*
X94485746Y-70880159D01*
X94691171Y-71135075D01*
X94748566Y-71206298D01*
X94907886Y-71377420D01*
X95010348Y-71487472D01*
X95018890Y-71497678D01*
X95024418Y-71505041D01*
X95034581Y-71515419D01*
X95037822Y-71517961D01*
X95037824Y-71517962D01*
X95061732Y-71536708D01*
X95073081Y-71546767D01*
X95378463Y-71852149D01*
X95390127Y-71865590D01*
X95405673Y-71886295D01*
X95415836Y-71896674D01*
X95419085Y-71899222D01*
X95419167Y-71899295D01*
X95426388Y-71905420D01*
X95662184Y-72121486D01*
X95712049Y-72167179D01*
X95714211Y-72168838D01*
X95714217Y-72168843D01*
X95915965Y-72323649D01*
X96030273Y-72411360D01*
X96368567Y-72626877D01*
X96724358Y-72812090D01*
X97094938Y-72965588D01*
X97097558Y-72966414D01*
X97097566Y-72966417D01*
X97474855Y-73085376D01*
X97474860Y-73085377D01*
X97477485Y-73086205D01*
X97869089Y-73173021D01*
X97871809Y-73173379D01*
X97871814Y-73173380D01*
X98006245Y-73191078D01*
X98071173Y-73219800D01*
X98110264Y-73279066D01*
X98111109Y-73350057D01*
X98073439Y-73410236D01*
X98009213Y-73440495D01*
X97989799Y-73442000D01*
X97812115Y-73442000D01*
X97796876Y-73446475D01*
X97795671Y-73447865D01*
X97794000Y-73455548D01*
X97794000Y-75777885D01*
X97798475Y-75793124D01*
X97799865Y-75794329D01*
X97807548Y-75796000D01*
X98704884Y-75796000D01*
X98720123Y-75791525D01*
X98721328Y-75790135D01*
X98722999Y-75782452D01*
X98722999Y-73905331D01*
X98722629Y-73898510D01*
X98717105Y-73847648D01*
X98713479Y-73832396D01*
X98668324Y-73711946D01*
X98659786Y-73696351D01*
X98583285Y-73594276D01*
X98570724Y-73581715D01*
X98468649Y-73505214D01*
X98453054Y-73496676D01*
X98401329Y-73477285D01*
X98344565Y-73434643D01*
X98319865Y-73368082D01*
X98335073Y-73298733D01*
X98385359Y-73248615D01*
X98451055Y-73233423D01*
X98635009Y-73241455D01*
X98647258Y-73242591D01*
X98648351Y-73242747D01*
X98648891Y-73242824D01*
X98648893Y-73242824D01*
X98652975Y-73243405D01*
X98661001Y-73243489D01*
X98663380Y-73243514D01*
X98663382Y-73243514D01*
X98667500Y-73243557D01*
X98671588Y-73243062D01*
X98671593Y-73243062D01*
X98701744Y-73239413D01*
X98716881Y-73238500D01*
X99367692Y-73238500D01*
X99435813Y-73258502D01*
X99468516Y-73288932D01*
X99501739Y-73333261D01*
X99604446Y-73410236D01*
X99618295Y-73420615D01*
X99617498Y-73421678D01*
X99661155Y-73465433D01*
X99676500Y-73525695D01*
X99676500Y-73839628D01*
X99656498Y-73907749D01*
X99602842Y-73954242D01*
X99594729Y-73957610D01*
X99491705Y-73996232D01*
X99491704Y-73996233D01*
X99483295Y-73999385D01*
X99366739Y-74086739D01*
X99279385Y-74203295D01*
X99228255Y-74339684D01*
X99221500Y-74401866D01*
X99221500Y-77955500D01*
X99201498Y-78023621D01*
X99147842Y-78070114D01*
X99095500Y-78081500D01*
X98849000Y-78081500D01*
X98780879Y-78061498D01*
X98734386Y-78007842D01*
X98723000Y-77955500D01*
X98723000Y-76322115D01*
X98718525Y-76306876D01*
X98717135Y-76305671D01*
X98709452Y-76304000D01*
X96375116Y-76304000D01*
X96359877Y-76308475D01*
X96358672Y-76309865D01*
X96357001Y-76317548D01*
X96357001Y-77955500D01*
X96336999Y-78023621D01*
X96283343Y-78070114D01*
X96231001Y-78081500D01*
X96207916Y-78081500D01*
X96139795Y-78061498D01*
X96113091Y-78038472D01*
X96100097Y-78023621D01*
X94135078Y-75777885D01*
X96357000Y-75777885D01*
X96361475Y-75793124D01*
X96362865Y-75794329D01*
X96370548Y-75796000D01*
X97267885Y-75796000D01*
X97283124Y-75791525D01*
X97284329Y-75790135D01*
X97286000Y-75782452D01*
X97286000Y-73460116D01*
X97281525Y-73444877D01*
X97280135Y-73443672D01*
X97272452Y-73442001D01*
X96820331Y-73442001D01*
X96813510Y-73442371D01*
X96762648Y-73447895D01*
X96747396Y-73451521D01*
X96626946Y-73496676D01*
X96611351Y-73505214D01*
X96509276Y-73581715D01*
X96496715Y-73594276D01*
X96420214Y-73696351D01*
X96411676Y-73711946D01*
X96366522Y-73832394D01*
X96362895Y-73847649D01*
X96357369Y-73898514D01*
X96357000Y-73905328D01*
X96357000Y-75777885D01*
X94135078Y-75777885D01*
X87569675Y-68274567D01*
X87539871Y-68210130D01*
X87538500Y-68191596D01*
X87538500Y-47809183D01*
X88234389Y-47809183D01*
X88235912Y-47817607D01*
X88248292Y-47821000D01*
X89297885Y-47821000D01*
X89313124Y-47816525D01*
X89314329Y-47815135D01*
X89316000Y-47807452D01*
X89316000Y-47802885D01*
X89824000Y-47802885D01*
X89828475Y-47818124D01*
X89829865Y-47819329D01*
X89837548Y-47821000D01*
X90888344Y-47821000D01*
X90901875Y-47817027D01*
X90903180Y-47807947D01*
X90861214Y-47640875D01*
X90857894Y-47631124D01*
X90772972Y-47435814D01*
X90768105Y-47426739D01*
X90652426Y-47247926D01*
X90646136Y-47239757D01*
X90502806Y-47082240D01*
X90495273Y-47075215D01*
X90328139Y-46943222D01*
X90319552Y-46937517D01*
X90133117Y-46834599D01*
X90123705Y-46830369D01*
X89922959Y-46759280D01*
X89912988Y-46756646D01*
X89841837Y-46743972D01*
X89828540Y-46745432D01*
X89824000Y-46759989D01*
X89824000Y-47802885D01*
X89316000Y-47802885D01*
X89316000Y-46758102D01*
X89312082Y-46744758D01*
X89297806Y-46742771D01*
X89259324Y-46748660D01*
X89249288Y-46751051D01*
X89046868Y-46817212D01*
X89037359Y-46821209D01*
X88848463Y-46919542D01*
X88839738Y-46925036D01*
X88669433Y-47052905D01*
X88661726Y-47059748D01*
X88514590Y-47213717D01*
X88508104Y-47221727D01*
X88388098Y-47397649D01*
X88383000Y-47406623D01*
X88293338Y-47599783D01*
X88289775Y-47609470D01*
X88234389Y-47809183D01*
X87538500Y-47809183D01*
X87538500Y-46204500D01*
X87558502Y-46136379D01*
X87612158Y-46089886D01*
X87664500Y-46078500D01*
X114335500Y-46078500D01*
X114403621Y-46098502D01*
G37*
G04 #@! TD.AperFunction*
M02*
