M48
; DRILL file {KiCad 6.0.7+dfsg-1build1} date So 04 Dez 2022 12:16:43 CET
; FORMAT={-:-/ absolute / metric / decimal}
; #@! TF.CreationDate,2022-12-04T12:16:43+01:00
; #@! TF.GenerationSoftware,Kicad,Pcbnew,6.0.7+dfsg-1build1
; #@! TF.FileFunction,Plated,1,2,PTH
FMAT,2
METRIC
; #@! TA.AperFunction,Plated,PTH,ViaDrill
T1C0.400
; #@! TA.AperFunction,Plated,PTH,ComponentDrill
T2C1.000
%
G90
G05
T1
X88.3Y-64.815
X90.84Y-64.815
X95.285Y-74.975
X97.19Y-68.625
X103.54Y-68.625
X103.54Y-71.8
X105.445Y-74.975
X107.71Y-69.815
X109.71Y-66.315
X109.89Y-49.575
T2
X89.57Y-46.975
X89.57Y-49.515
X89.57Y-52.055
X89.57Y-54.595
X89.57Y-57.135
X89.57Y-59.675
X89.57Y-62.215
X112.43Y-46.975
X112.43Y-49.515
X112.43Y-52.055
X112.43Y-54.595
X112.43Y-57.135
X112.43Y-59.675
X112.43Y-62.215
T0
M30
