G04 #@! TF.GenerationSoftware,KiCad,Pcbnew,6.0.7+dfsg-1build1*
G04 #@! TF.CreationDate,2022-12-04T12:15:17+01:00*
G04 #@! TF.ProjectId,rfm69w,72666d36-3977-42e6-9b69-6361645f7063,1*
G04 #@! TF.SameCoordinates,Original*
G04 #@! TF.FileFunction,Copper,L2,Bot*
G04 #@! TF.FilePolarity,Positive*
%FSLAX46Y46*%
G04 Gerber Fmt 4.6, Leading zero omitted, Abs format (unit mm)*
G04 Created by KiCad (PCBNEW 6.0.7+dfsg-1build1) date 2022-12-04 12:15:17*
%MOMM*%
%LPD*%
G01*
G04 APERTURE LIST*
G04 #@! TA.AperFunction,SMDPad,CuDef*
%ADD10R,1.350000X4.200000*%
G04 #@! TD*
G04 #@! TA.AperFunction,ComponentPad*
%ADD11R,1.700000X1.700000*%
G04 #@! TD*
G04 #@! TA.AperFunction,ComponentPad*
%ADD12O,1.700000X1.700000*%
G04 #@! TD*
G04 #@! TA.AperFunction,ViaPad*
%ADD13C,0.800000*%
G04 #@! TD*
G04 #@! TA.AperFunction,Conductor*
%ADD14C,0.300000*%
G04 #@! TD*
G04 #@! TA.AperFunction,Conductor*
%ADD15C,0.500000*%
G04 #@! TD*
G04 APERTURE END LIST*
D10*
X103190000Y-74950000D03*
X97540000Y-74950000D03*
D11*
X112430000Y-62215000D03*
D12*
X112430000Y-59675000D03*
X112430000Y-57135000D03*
X112430000Y-54595000D03*
X112430000Y-52055000D03*
X112430000Y-49515000D03*
X112430000Y-46975000D03*
D11*
X89570000Y-62215000D03*
D12*
X89570000Y-59675000D03*
X89570000Y-57135000D03*
X89570000Y-54595000D03*
X89570000Y-52055000D03*
X89570000Y-49515000D03*
X89570000Y-46975000D03*
D13*
X88300000Y-64815000D03*
X105445000Y-74975000D03*
X103540000Y-71800000D03*
X109890000Y-49575000D03*
X97190000Y-68625000D03*
X90840000Y-64815000D03*
X103540000Y-68625000D03*
X95285000Y-74975000D03*
X109710000Y-66315000D03*
X107710000Y-69815000D03*
D14*
X109710000Y-66315000D02*
X109710000Y-52235000D01*
X109710000Y-52235000D02*
X112430000Y-49515000D01*
D15*
X107710000Y-49815000D02*
X107710000Y-69815000D01*
X104870000Y-46975000D02*
X105710000Y-47815000D01*
X105710000Y-47815000D02*
X107710000Y-49815000D01*
X89570000Y-46975000D02*
X104870000Y-46975000D01*
G04 #@! TA.AperFunction,Conductor*
G36*
X114403621Y-44998502D02*
G01*
X114450114Y-45052158D01*
X114461500Y-45104500D01*
X114461500Y-67067183D01*
X114441498Y-67135304D01*
X114424595Y-67156278D01*
X104636278Y-76944595D01*
X104573966Y-76978621D01*
X104547183Y-76981500D01*
X104499000Y-76981500D01*
X104430879Y-76961498D01*
X104384386Y-76907842D01*
X104373000Y-76855500D01*
X104373000Y-75222115D01*
X104368525Y-75206876D01*
X104367135Y-75205671D01*
X104359452Y-75204000D01*
X102025116Y-75204000D01*
X102009877Y-75208475D01*
X102008672Y-75209865D01*
X102007001Y-75217548D01*
X102007001Y-76855500D01*
X101986999Y-76923621D01*
X101933343Y-76970114D01*
X101881001Y-76981500D01*
X98849000Y-76981500D01*
X98780879Y-76961498D01*
X98734386Y-76907842D01*
X98723000Y-76855500D01*
X98723000Y-75222115D01*
X98718525Y-75206876D01*
X98717135Y-75205671D01*
X98709452Y-75204000D01*
X96375116Y-75204000D01*
X96359877Y-75208475D01*
X96358672Y-75209865D01*
X96357001Y-75217548D01*
X96357001Y-76855500D01*
X96336999Y-76923621D01*
X96283343Y-76970114D01*
X96231001Y-76981500D01*
X96207916Y-76981500D01*
X96139795Y-76961498D01*
X96113091Y-76938472D01*
X96100097Y-76923621D01*
X94135078Y-74677885D01*
X96357000Y-74677885D01*
X96361475Y-74693124D01*
X96362865Y-74694329D01*
X96370548Y-74696000D01*
X97267885Y-74696000D01*
X97283124Y-74691525D01*
X97284329Y-74690135D01*
X97286000Y-74682452D01*
X97286000Y-74677885D01*
X97794000Y-74677885D01*
X97798475Y-74693124D01*
X97799865Y-74694329D01*
X97807548Y-74696000D01*
X98704884Y-74696000D01*
X98720123Y-74691525D01*
X98721328Y-74690135D01*
X98722999Y-74682452D01*
X98722999Y-74677885D01*
X102007000Y-74677885D01*
X102011475Y-74693124D01*
X102012865Y-74694329D01*
X102020548Y-74696000D01*
X102917885Y-74696000D01*
X102933124Y-74691525D01*
X102934329Y-74690135D01*
X102936000Y-74682452D01*
X102936000Y-74677885D01*
X103444000Y-74677885D01*
X103448475Y-74693124D01*
X103449865Y-74694329D01*
X103457548Y-74696000D01*
X104354884Y-74696000D01*
X104370123Y-74691525D01*
X104371328Y-74690135D01*
X104372999Y-74682452D01*
X104372999Y-72805331D01*
X104372629Y-72798510D01*
X104367105Y-72747648D01*
X104363479Y-72732396D01*
X104318324Y-72611946D01*
X104309786Y-72596351D01*
X104233285Y-72494276D01*
X104220724Y-72481715D01*
X104118649Y-72405214D01*
X104103054Y-72396676D01*
X103982606Y-72351522D01*
X103967351Y-72347895D01*
X103916486Y-72342369D01*
X103909672Y-72342000D01*
X103462115Y-72342000D01*
X103446876Y-72346475D01*
X103445671Y-72347865D01*
X103444000Y-72355548D01*
X103444000Y-74677885D01*
X102936000Y-74677885D01*
X102936000Y-72360116D01*
X102931525Y-72344877D01*
X102930135Y-72343672D01*
X102922452Y-72342001D01*
X102470331Y-72342001D01*
X102463510Y-72342371D01*
X102412648Y-72347895D01*
X102397396Y-72351521D01*
X102276946Y-72396676D01*
X102261351Y-72405214D01*
X102159276Y-72481715D01*
X102146715Y-72494276D01*
X102070214Y-72596351D01*
X102061676Y-72611946D01*
X102016522Y-72732394D01*
X102012895Y-72747649D01*
X102007369Y-72798514D01*
X102007000Y-72805328D01*
X102007000Y-74677885D01*
X98722999Y-74677885D01*
X98722999Y-72805331D01*
X98722629Y-72798510D01*
X98717105Y-72747648D01*
X98713479Y-72732396D01*
X98668324Y-72611946D01*
X98659786Y-72596351D01*
X98583285Y-72494276D01*
X98570724Y-72481715D01*
X98468649Y-72405214D01*
X98453054Y-72396676D01*
X98332606Y-72351522D01*
X98317351Y-72347895D01*
X98266486Y-72342369D01*
X98259672Y-72342000D01*
X97812115Y-72342000D01*
X97796876Y-72346475D01*
X97795671Y-72347865D01*
X97794000Y-72355548D01*
X97794000Y-74677885D01*
X97286000Y-74677885D01*
X97286000Y-72360116D01*
X97281525Y-72344877D01*
X97280135Y-72343672D01*
X97272452Y-72342001D01*
X96820331Y-72342001D01*
X96813510Y-72342371D01*
X96762648Y-72347895D01*
X96747396Y-72351521D01*
X96626946Y-72396676D01*
X96611351Y-72405214D01*
X96509276Y-72481715D01*
X96496715Y-72494276D01*
X96420214Y-72596351D01*
X96411676Y-72611946D01*
X96366522Y-72732394D01*
X96362895Y-72747649D01*
X96357369Y-72798514D01*
X96357000Y-72805328D01*
X96357000Y-74677885D01*
X94135078Y-74677885D01*
X87569675Y-67174567D01*
X87539871Y-67110130D01*
X87538500Y-67091596D01*
X87538500Y-59641695D01*
X88207251Y-59641695D01*
X88207548Y-59646848D01*
X88207548Y-59646851D01*
X88213011Y-59741590D01*
X88220110Y-59864715D01*
X88221247Y-59869761D01*
X88221248Y-59869767D01*
X88241119Y-59957939D01*
X88269222Y-60082639D01*
X88353266Y-60289616D01*
X88469987Y-60480088D01*
X88616250Y-60648938D01*
X88620230Y-60652242D01*
X88624981Y-60656187D01*
X88664616Y-60715090D01*
X88666113Y-60786071D01*
X88628997Y-60846593D01*
X88588725Y-60871112D01*
X88500095Y-60904338D01*
X88473295Y-60914385D01*
X88356739Y-61001739D01*
X88269385Y-61118295D01*
X88218255Y-61254684D01*
X88211500Y-61316866D01*
X88211500Y-63113134D01*
X88218255Y-63175316D01*
X88269385Y-63311705D01*
X88356739Y-63428261D01*
X88473295Y-63515615D01*
X88609684Y-63566745D01*
X88671866Y-63573500D01*
X90468134Y-63573500D01*
X90530316Y-63566745D01*
X90666705Y-63515615D01*
X90783261Y-63428261D01*
X90870615Y-63311705D01*
X90921745Y-63175316D01*
X90928500Y-63113134D01*
X90928500Y-61316866D01*
X90921745Y-61254684D01*
X90870615Y-61118295D01*
X90783261Y-61001739D01*
X90666705Y-60914385D01*
X90639905Y-60904338D01*
X90548203Y-60869960D01*
X90491439Y-60827318D01*
X90466739Y-60760756D01*
X90481947Y-60691408D01*
X90503493Y-60662727D01*
X90604435Y-60562137D01*
X90608096Y-60558489D01*
X90667594Y-60475689D01*
X90735435Y-60381277D01*
X90738453Y-60377077D01*
X90837430Y-60176811D01*
X90902370Y-59963069D01*
X90931529Y-59741590D01*
X90933156Y-59675000D01*
X90914852Y-59452361D01*
X90860431Y-59235702D01*
X90771354Y-59030840D01*
X90650014Y-58843277D01*
X90499670Y-58678051D01*
X90495619Y-58674852D01*
X90495615Y-58674848D01*
X90328414Y-58542800D01*
X90328410Y-58542798D01*
X90324359Y-58539598D01*
X90283053Y-58516796D01*
X90233084Y-58466364D01*
X90218312Y-58396921D01*
X90243428Y-58330516D01*
X90270780Y-58303909D01*
X90314603Y-58272650D01*
X90449860Y-58176173D01*
X90608096Y-58018489D01*
X90667594Y-57935689D01*
X90735435Y-57841277D01*
X90738453Y-57837077D01*
X90837430Y-57636811D01*
X90902370Y-57423069D01*
X90931529Y-57201590D01*
X90933156Y-57135000D01*
X90914852Y-56912361D01*
X90860431Y-56695702D01*
X90771354Y-56490840D01*
X90650014Y-56303277D01*
X90499670Y-56138051D01*
X90495619Y-56134852D01*
X90495615Y-56134848D01*
X90328414Y-56002800D01*
X90328410Y-56002798D01*
X90324359Y-55999598D01*
X90283053Y-55976796D01*
X90233084Y-55926364D01*
X90218312Y-55856921D01*
X90243428Y-55790516D01*
X90270780Y-55763909D01*
X90314603Y-55732650D01*
X90449860Y-55636173D01*
X90608096Y-55478489D01*
X90667594Y-55395689D01*
X90735435Y-55301277D01*
X90738453Y-55297077D01*
X90837430Y-55096811D01*
X90902370Y-54883069D01*
X90931529Y-54661590D01*
X90933156Y-54595000D01*
X90914852Y-54372361D01*
X90860431Y-54155702D01*
X90771354Y-53950840D01*
X90650014Y-53763277D01*
X90499670Y-53598051D01*
X90495619Y-53594852D01*
X90495615Y-53594848D01*
X90328414Y-53462800D01*
X90328410Y-53462798D01*
X90324359Y-53459598D01*
X90283053Y-53436796D01*
X90233084Y-53386364D01*
X90218312Y-53316921D01*
X90243428Y-53250516D01*
X90270780Y-53223909D01*
X90314603Y-53192650D01*
X90449860Y-53096173D01*
X90608096Y-52938489D01*
X90667594Y-52855689D01*
X90735435Y-52761277D01*
X90738453Y-52757077D01*
X90837430Y-52556811D01*
X90902370Y-52343069D01*
X90931529Y-52121590D01*
X90933156Y-52055000D01*
X90914852Y-51832361D01*
X90860431Y-51615702D01*
X90771354Y-51410840D01*
X90650014Y-51223277D01*
X90499670Y-51058051D01*
X90495619Y-51054852D01*
X90495615Y-51054848D01*
X90328414Y-50922800D01*
X90328410Y-50922798D01*
X90324359Y-50919598D01*
X90283053Y-50896796D01*
X90233084Y-50846364D01*
X90218312Y-50776921D01*
X90243428Y-50710516D01*
X90270780Y-50683909D01*
X90314603Y-50652650D01*
X90449860Y-50556173D01*
X90608096Y-50398489D01*
X90667594Y-50315689D01*
X90735435Y-50221277D01*
X90738453Y-50217077D01*
X90837430Y-50016811D01*
X90902370Y-49803069D01*
X90931529Y-49581590D01*
X90931795Y-49570706D01*
X90933074Y-49518365D01*
X90933074Y-49518361D01*
X90933156Y-49515000D01*
X90914852Y-49292361D01*
X90860431Y-49075702D01*
X90771354Y-48870840D01*
X90650014Y-48683277D01*
X90499670Y-48518051D01*
X90495619Y-48514852D01*
X90495615Y-48514848D01*
X90328414Y-48382800D01*
X90328410Y-48382798D01*
X90324359Y-48379598D01*
X90283053Y-48356796D01*
X90233084Y-48306364D01*
X90218312Y-48236921D01*
X90243428Y-48170516D01*
X90270780Y-48143909D01*
X90314603Y-48112650D01*
X90449860Y-48016173D01*
X90608096Y-47858489D01*
X90660203Y-47785974D01*
X90716198Y-47742326D01*
X90762526Y-47733500D01*
X104503629Y-47733500D01*
X104571750Y-47753502D01*
X104592724Y-47770405D01*
X106914595Y-50092276D01*
X106948621Y-50154588D01*
X106951500Y-50181371D01*
X106951500Y-69278001D01*
X106934619Y-69341000D01*
X106875473Y-69443444D01*
X106816458Y-69625072D01*
X106796496Y-69815000D01*
X106816458Y-70004928D01*
X106875473Y-70186556D01*
X106970960Y-70351944D01*
X107098747Y-70493866D01*
X107253248Y-70606118D01*
X107259276Y-70608802D01*
X107259278Y-70608803D01*
X107421681Y-70681109D01*
X107427712Y-70683794D01*
X107521112Y-70703647D01*
X107608056Y-70722128D01*
X107608061Y-70722128D01*
X107614513Y-70723500D01*
X107805487Y-70723500D01*
X107811939Y-70722128D01*
X107811944Y-70722128D01*
X107898888Y-70703647D01*
X107992288Y-70683794D01*
X107998319Y-70681109D01*
X108160722Y-70608803D01*
X108160724Y-70608802D01*
X108166752Y-70606118D01*
X108321253Y-70493866D01*
X108449040Y-70351944D01*
X108544527Y-70186556D01*
X108603542Y-70004928D01*
X108623504Y-69815000D01*
X108603542Y-69625072D01*
X108544527Y-69443444D01*
X108485381Y-69341000D01*
X108468500Y-69278001D01*
X108468500Y-66315000D01*
X108796496Y-66315000D01*
X108816458Y-66504928D01*
X108875473Y-66686556D01*
X108970960Y-66851944D01*
X109098747Y-66993866D01*
X109253248Y-67106118D01*
X109259276Y-67108802D01*
X109259278Y-67108803D01*
X109406990Y-67174568D01*
X109427712Y-67183794D01*
X109521112Y-67203647D01*
X109608056Y-67222128D01*
X109608061Y-67222128D01*
X109614513Y-67223500D01*
X109805487Y-67223500D01*
X109811939Y-67222128D01*
X109811944Y-67222128D01*
X109898888Y-67203647D01*
X109992288Y-67183794D01*
X110013010Y-67174568D01*
X110160722Y-67108803D01*
X110160724Y-67108802D01*
X110166752Y-67106118D01*
X110321253Y-66993866D01*
X110449040Y-66851944D01*
X110544527Y-66686556D01*
X110603542Y-66504928D01*
X110623504Y-66315000D01*
X110603542Y-66125072D01*
X110544527Y-65943444D01*
X110449040Y-65778056D01*
X110400864Y-65724551D01*
X110370146Y-65660544D01*
X110368500Y-65640241D01*
X110368500Y-63109669D01*
X111072001Y-63109669D01*
X111072371Y-63116490D01*
X111077895Y-63167352D01*
X111081521Y-63182604D01*
X111126676Y-63303054D01*
X111135214Y-63318649D01*
X111211715Y-63420724D01*
X111224276Y-63433285D01*
X111326351Y-63509786D01*
X111341946Y-63518324D01*
X111462394Y-63563478D01*
X111477649Y-63567105D01*
X111528514Y-63572631D01*
X111535328Y-63573000D01*
X112157885Y-63573000D01*
X112173124Y-63568525D01*
X112174329Y-63567135D01*
X112176000Y-63559452D01*
X112176000Y-63554884D01*
X112684000Y-63554884D01*
X112688475Y-63570123D01*
X112689865Y-63571328D01*
X112697548Y-63572999D01*
X113324669Y-63572999D01*
X113331490Y-63572629D01*
X113382352Y-63567105D01*
X113397604Y-63563479D01*
X113518054Y-63518324D01*
X113533649Y-63509786D01*
X113635724Y-63433285D01*
X113648285Y-63420724D01*
X113724786Y-63318649D01*
X113733324Y-63303054D01*
X113778478Y-63182606D01*
X113782105Y-63167351D01*
X113787631Y-63116486D01*
X113788000Y-63109672D01*
X113788000Y-62487115D01*
X113783525Y-62471876D01*
X113782135Y-62470671D01*
X113774452Y-62469000D01*
X112702115Y-62469000D01*
X112686876Y-62473475D01*
X112685671Y-62474865D01*
X112684000Y-62482548D01*
X112684000Y-63554884D01*
X112176000Y-63554884D01*
X112176000Y-62487115D01*
X112171525Y-62471876D01*
X112170135Y-62470671D01*
X112162452Y-62469000D01*
X111090116Y-62469000D01*
X111074877Y-62473475D01*
X111073672Y-62474865D01*
X111072001Y-62482548D01*
X111072001Y-63109669D01*
X110368500Y-63109669D01*
X110368500Y-52559950D01*
X110388502Y-52491829D01*
X110405405Y-52470855D01*
X110856947Y-52019313D01*
X110919259Y-51985287D01*
X110990074Y-51990352D01*
X111046910Y-52032899D01*
X111071832Y-52101154D01*
X111080110Y-52244715D01*
X111081247Y-52249761D01*
X111081248Y-52249767D01*
X111086258Y-52271996D01*
X111129222Y-52462639D01*
X111213266Y-52669616D01*
X111329987Y-52860088D01*
X111476250Y-53028938D01*
X111648126Y-53171632D01*
X111718595Y-53212811D01*
X111721445Y-53214476D01*
X111770169Y-53266114D01*
X111783240Y-53335897D01*
X111756509Y-53401669D01*
X111716055Y-53435027D01*
X111703607Y-53441507D01*
X111699474Y-53444610D01*
X111699471Y-53444612D01*
X111675247Y-53462800D01*
X111524965Y-53575635D01*
X111370629Y-53737138D01*
X111244743Y-53921680D01*
X111150688Y-54124305D01*
X111090989Y-54339570D01*
X111067251Y-54561695D01*
X111067548Y-54566848D01*
X111067548Y-54566851D01*
X111073011Y-54661590D01*
X111080110Y-54784715D01*
X111081247Y-54789761D01*
X111081248Y-54789767D01*
X111101119Y-54877939D01*
X111129222Y-55002639D01*
X111213266Y-55209616D01*
X111329987Y-55400088D01*
X111476250Y-55568938D01*
X111648126Y-55711632D01*
X111718595Y-55752811D01*
X111721445Y-55754476D01*
X111770169Y-55806114D01*
X111783240Y-55875897D01*
X111756509Y-55941669D01*
X111716055Y-55975027D01*
X111703607Y-55981507D01*
X111699474Y-55984610D01*
X111699471Y-55984612D01*
X111675247Y-56002800D01*
X111524965Y-56115635D01*
X111370629Y-56277138D01*
X111244743Y-56461680D01*
X111150688Y-56664305D01*
X111090989Y-56879570D01*
X111067251Y-57101695D01*
X111067548Y-57106848D01*
X111067548Y-57106851D01*
X111073011Y-57201590D01*
X111080110Y-57324715D01*
X111081247Y-57329761D01*
X111081248Y-57329767D01*
X111101119Y-57417939D01*
X111129222Y-57542639D01*
X111213266Y-57749616D01*
X111329987Y-57940088D01*
X111476250Y-58108938D01*
X111648126Y-58251632D01*
X111718595Y-58292811D01*
X111721445Y-58294476D01*
X111770169Y-58346114D01*
X111783240Y-58415897D01*
X111756509Y-58481669D01*
X111716055Y-58515027D01*
X111703607Y-58521507D01*
X111699474Y-58524610D01*
X111699471Y-58524612D01*
X111675247Y-58542800D01*
X111524965Y-58655635D01*
X111370629Y-58817138D01*
X111244743Y-59001680D01*
X111150688Y-59204305D01*
X111090989Y-59419570D01*
X111067251Y-59641695D01*
X111067548Y-59646848D01*
X111067548Y-59646851D01*
X111073011Y-59741590D01*
X111080110Y-59864715D01*
X111081247Y-59869761D01*
X111081248Y-59869767D01*
X111101119Y-59957939D01*
X111129222Y-60082639D01*
X111213266Y-60289616D01*
X111329987Y-60480088D01*
X111476250Y-60648938D01*
X111480225Y-60652238D01*
X111480231Y-60652244D01*
X111485425Y-60656556D01*
X111525059Y-60715460D01*
X111526555Y-60786441D01*
X111489439Y-60846962D01*
X111449168Y-60871480D01*
X111341946Y-60911676D01*
X111326351Y-60920214D01*
X111224276Y-60996715D01*
X111211715Y-61009276D01*
X111135214Y-61111351D01*
X111126676Y-61126946D01*
X111081522Y-61247394D01*
X111077895Y-61262649D01*
X111072369Y-61313514D01*
X111072000Y-61320328D01*
X111072000Y-61942885D01*
X111076475Y-61958124D01*
X111077865Y-61959329D01*
X111085548Y-61961000D01*
X113769884Y-61961000D01*
X113785123Y-61956525D01*
X113786328Y-61955135D01*
X113787999Y-61947452D01*
X113787999Y-61320331D01*
X113787629Y-61313510D01*
X113782105Y-61262648D01*
X113778479Y-61247396D01*
X113733324Y-61126946D01*
X113724786Y-61111351D01*
X113648285Y-61009276D01*
X113635724Y-60996715D01*
X113533649Y-60920214D01*
X113518054Y-60911676D01*
X113407813Y-60870348D01*
X113351049Y-60827706D01*
X113326349Y-60761145D01*
X113341557Y-60691796D01*
X113363104Y-60663115D01*
X113464430Y-60562144D01*
X113464440Y-60562132D01*
X113468096Y-60558489D01*
X113527594Y-60475689D01*
X113595435Y-60381277D01*
X113598453Y-60377077D01*
X113697430Y-60176811D01*
X113762370Y-59963069D01*
X113791529Y-59741590D01*
X113793156Y-59675000D01*
X113774852Y-59452361D01*
X113720431Y-59235702D01*
X113631354Y-59030840D01*
X113510014Y-58843277D01*
X113359670Y-58678051D01*
X113355619Y-58674852D01*
X113355615Y-58674848D01*
X113188414Y-58542800D01*
X113188410Y-58542798D01*
X113184359Y-58539598D01*
X113143053Y-58516796D01*
X113093084Y-58466364D01*
X113078312Y-58396921D01*
X113103428Y-58330516D01*
X113130780Y-58303909D01*
X113174603Y-58272650D01*
X113309860Y-58176173D01*
X113468096Y-58018489D01*
X113527594Y-57935689D01*
X113595435Y-57841277D01*
X113598453Y-57837077D01*
X113697430Y-57636811D01*
X113762370Y-57423069D01*
X113791529Y-57201590D01*
X113793156Y-57135000D01*
X113774852Y-56912361D01*
X113720431Y-56695702D01*
X113631354Y-56490840D01*
X113510014Y-56303277D01*
X113359670Y-56138051D01*
X113355619Y-56134852D01*
X113355615Y-56134848D01*
X113188414Y-56002800D01*
X113188410Y-56002798D01*
X113184359Y-55999598D01*
X113143053Y-55976796D01*
X113093084Y-55926364D01*
X113078312Y-55856921D01*
X113103428Y-55790516D01*
X113130780Y-55763909D01*
X113174603Y-55732650D01*
X113309860Y-55636173D01*
X113468096Y-55478489D01*
X113527594Y-55395689D01*
X113595435Y-55301277D01*
X113598453Y-55297077D01*
X113697430Y-55096811D01*
X113762370Y-54883069D01*
X113791529Y-54661590D01*
X113793156Y-54595000D01*
X113774852Y-54372361D01*
X113720431Y-54155702D01*
X113631354Y-53950840D01*
X113510014Y-53763277D01*
X113359670Y-53598051D01*
X113355619Y-53594852D01*
X113355615Y-53594848D01*
X113188414Y-53462800D01*
X113188410Y-53462798D01*
X113184359Y-53459598D01*
X113143053Y-53436796D01*
X113093084Y-53386364D01*
X113078312Y-53316921D01*
X113103428Y-53250516D01*
X113130780Y-53223909D01*
X113174603Y-53192650D01*
X113309860Y-53096173D01*
X113468096Y-52938489D01*
X113527594Y-52855689D01*
X113595435Y-52761277D01*
X113598453Y-52757077D01*
X113697430Y-52556811D01*
X113762370Y-52343069D01*
X113791529Y-52121590D01*
X113793156Y-52055000D01*
X113774852Y-51832361D01*
X113720431Y-51615702D01*
X113631354Y-51410840D01*
X113510014Y-51223277D01*
X113359670Y-51058051D01*
X113355619Y-51054852D01*
X113355615Y-51054848D01*
X113188414Y-50922800D01*
X113188410Y-50922798D01*
X113184359Y-50919598D01*
X113143053Y-50896796D01*
X113093084Y-50846364D01*
X113078312Y-50776921D01*
X113103428Y-50710516D01*
X113130780Y-50683909D01*
X113174603Y-50652650D01*
X113309860Y-50556173D01*
X113468096Y-50398489D01*
X113527594Y-50315689D01*
X113595435Y-50221277D01*
X113598453Y-50217077D01*
X113697430Y-50016811D01*
X113762370Y-49803069D01*
X113791529Y-49581590D01*
X113791795Y-49570706D01*
X113793074Y-49518365D01*
X113793074Y-49518361D01*
X113793156Y-49515000D01*
X113774852Y-49292361D01*
X113720431Y-49075702D01*
X113631354Y-48870840D01*
X113510014Y-48683277D01*
X113359670Y-48518051D01*
X113355619Y-48514852D01*
X113355615Y-48514848D01*
X113188414Y-48382800D01*
X113188410Y-48382798D01*
X113184359Y-48379598D01*
X113142569Y-48356529D01*
X113092598Y-48306097D01*
X113077826Y-48236654D01*
X113102942Y-48170248D01*
X113130294Y-48143641D01*
X113305328Y-48018792D01*
X113313200Y-48012139D01*
X113464052Y-47861812D01*
X113470730Y-47853965D01*
X113595003Y-47681020D01*
X113600313Y-47672183D01*
X113694670Y-47481267D01*
X113698469Y-47471672D01*
X113760377Y-47267910D01*
X113762555Y-47257837D01*
X113763986Y-47246962D01*
X113761775Y-47232778D01*
X113748617Y-47229000D01*
X111113225Y-47229000D01*
X111099694Y-47232973D01*
X111098257Y-47242966D01*
X111128565Y-47377446D01*
X111131645Y-47387275D01*
X111211770Y-47584603D01*
X111216413Y-47593794D01*
X111327694Y-47775388D01*
X111333777Y-47783699D01*
X111473213Y-47944667D01*
X111480580Y-47951883D01*
X111644434Y-48087916D01*
X111652881Y-48093831D01*
X111721969Y-48134203D01*
X111770693Y-48185842D01*
X111783764Y-48255625D01*
X111757033Y-48321396D01*
X111716584Y-48354752D01*
X111703607Y-48361507D01*
X111699474Y-48364610D01*
X111699471Y-48364612D01*
X111675247Y-48382800D01*
X111524965Y-48495635D01*
X111370629Y-48657138D01*
X111244743Y-48841680D01*
X111150688Y-49044305D01*
X111090989Y-49259570D01*
X111067251Y-49481695D01*
X111067548Y-49486848D01*
X111067548Y-49486851D01*
X111077841Y-49665363D01*
X111080110Y-49704715D01*
X111081247Y-49709762D01*
X111081248Y-49709766D01*
X111087638Y-49738118D01*
X111102276Y-49803069D01*
X111106951Y-49823815D01*
X111102415Y-49894666D01*
X111073129Y-49940611D01*
X109302395Y-51711345D01*
X109293615Y-51719335D01*
X109293613Y-51719337D01*
X109286920Y-51723584D01*
X109281494Y-51729362D01*
X109281493Y-51729363D01*
X109238396Y-51775257D01*
X109235641Y-51778099D01*
X109215073Y-51798667D01*
X109212356Y-51802170D01*
X109204648Y-51811195D01*
X109173028Y-51844867D01*
X109169207Y-51851818D01*
X109169206Y-51851819D01*
X109162697Y-51863658D01*
X109151843Y-51880182D01*
X109144018Y-51890271D01*
X109138696Y-51897132D01*
X109135549Y-51904404D01*
X109135548Y-51904406D01*
X109120346Y-51939535D01*
X109115124Y-51950195D01*
X109092876Y-51990663D01*
X109087541Y-52011441D01*
X109081142Y-52030131D01*
X109072620Y-52049824D01*
X109065687Y-52093596D01*
X109065394Y-52095448D01*
X109062987Y-52107071D01*
X109058408Y-52124908D01*
X109051500Y-52151812D01*
X109051500Y-52173259D01*
X109049949Y-52192969D01*
X109046594Y-52214152D01*
X109048995Y-52239547D01*
X109050941Y-52260138D01*
X109051500Y-52271996D01*
X109051500Y-65640241D01*
X109031498Y-65708362D01*
X109019136Y-65724551D01*
X108970960Y-65778056D01*
X108875473Y-65943444D01*
X108816458Y-66125072D01*
X108796496Y-66315000D01*
X108468500Y-66315000D01*
X108468500Y-49882069D01*
X108469933Y-49863118D01*
X108472099Y-49848883D01*
X108472099Y-49848881D01*
X108473199Y-49841651D01*
X108471749Y-49823815D01*
X108468915Y-49788982D01*
X108468500Y-49778767D01*
X108468500Y-49770707D01*
X108465211Y-49742493D01*
X108464778Y-49738118D01*
X108459454Y-49672661D01*
X108459453Y-49672658D01*
X108458860Y-49665363D01*
X108456604Y-49658399D01*
X108455413Y-49652440D01*
X108454029Y-49646585D01*
X108453182Y-49639319D01*
X108428265Y-49570673D01*
X108426848Y-49566545D01*
X108406607Y-49504064D01*
X108406606Y-49504062D01*
X108404351Y-49497101D01*
X108400555Y-49490846D01*
X108398049Y-49485372D01*
X108395330Y-49479942D01*
X108392833Y-49473063D01*
X108352814Y-49412024D01*
X108350467Y-49408305D01*
X108312595Y-49345893D01*
X108305197Y-49337516D01*
X108305224Y-49337492D01*
X108302571Y-49334500D01*
X108299868Y-49331267D01*
X108295856Y-49325148D01*
X108239617Y-49271872D01*
X108237175Y-49269494D01*
X105676864Y-46709183D01*
X111094389Y-46709183D01*
X111095912Y-46717607D01*
X111108292Y-46721000D01*
X112157885Y-46721000D01*
X112173124Y-46716525D01*
X112174329Y-46715135D01*
X112176000Y-46707452D01*
X112176000Y-46702885D01*
X112684000Y-46702885D01*
X112688475Y-46718124D01*
X112689865Y-46719329D01*
X112697548Y-46721000D01*
X113748344Y-46721000D01*
X113761875Y-46717027D01*
X113763180Y-46707947D01*
X113721214Y-46540875D01*
X113717894Y-46531124D01*
X113632972Y-46335814D01*
X113628105Y-46326739D01*
X113512426Y-46147926D01*
X113506136Y-46139757D01*
X113362806Y-45982240D01*
X113355273Y-45975215D01*
X113188139Y-45843222D01*
X113179552Y-45837517D01*
X112993117Y-45734599D01*
X112983705Y-45730369D01*
X112782959Y-45659280D01*
X112772988Y-45656646D01*
X112701837Y-45643972D01*
X112688540Y-45645432D01*
X112684000Y-45659989D01*
X112684000Y-46702885D01*
X112176000Y-46702885D01*
X112176000Y-45658102D01*
X112172082Y-45644758D01*
X112157806Y-45642771D01*
X112119324Y-45648660D01*
X112109288Y-45651051D01*
X111906868Y-45717212D01*
X111897359Y-45721209D01*
X111708463Y-45819542D01*
X111699738Y-45825036D01*
X111529433Y-45952905D01*
X111521726Y-45959748D01*
X111374590Y-46113717D01*
X111368104Y-46121727D01*
X111248098Y-46297649D01*
X111243000Y-46306623D01*
X111153338Y-46499783D01*
X111149775Y-46509470D01*
X111094389Y-46709183D01*
X105676864Y-46709183D01*
X105453770Y-46486089D01*
X105441384Y-46471677D01*
X105432851Y-46460082D01*
X105432846Y-46460077D01*
X105428508Y-46454182D01*
X105422930Y-46449443D01*
X105422927Y-46449440D01*
X105388232Y-46419965D01*
X105380716Y-46413035D01*
X105375021Y-46407340D01*
X105368880Y-46402482D01*
X105352749Y-46389719D01*
X105349345Y-46386928D01*
X105299297Y-46344409D01*
X105299295Y-46344408D01*
X105293715Y-46339667D01*
X105287199Y-46336339D01*
X105282150Y-46332972D01*
X105277021Y-46329805D01*
X105271284Y-46325266D01*
X105205125Y-46294345D01*
X105201225Y-46292439D01*
X105136192Y-46259231D01*
X105129084Y-46257492D01*
X105123441Y-46255393D01*
X105117678Y-46253476D01*
X105111050Y-46250378D01*
X105039583Y-46235513D01*
X105035299Y-46234543D01*
X104964390Y-46217192D01*
X104958788Y-46216844D01*
X104958785Y-46216844D01*
X104953236Y-46216500D01*
X104953238Y-46216464D01*
X104949245Y-46216225D01*
X104945053Y-46215851D01*
X104937885Y-46214360D01*
X104871675Y-46216151D01*
X104860479Y-46216454D01*
X104857072Y-46216500D01*
X90765939Y-46216500D01*
X90697818Y-46196498D01*
X90660147Y-46158941D01*
X90653022Y-46147926D01*
X90650014Y-46143277D01*
X90499670Y-45978051D01*
X90495619Y-45974852D01*
X90495615Y-45974848D01*
X90328414Y-45842800D01*
X90328410Y-45842798D01*
X90324359Y-45839598D01*
X90288028Y-45819542D01*
X90272136Y-45810769D01*
X90128789Y-45731638D01*
X90123920Y-45729914D01*
X90123916Y-45729912D01*
X89923087Y-45658795D01*
X89923083Y-45658794D01*
X89918212Y-45657069D01*
X89913119Y-45656162D01*
X89913116Y-45656161D01*
X89703373Y-45618800D01*
X89703367Y-45618799D01*
X89698284Y-45617894D01*
X89624452Y-45616992D01*
X89480081Y-45615228D01*
X89480079Y-45615228D01*
X89474911Y-45615165D01*
X89254091Y-45648955D01*
X89041756Y-45718357D01*
X88843607Y-45821507D01*
X88839474Y-45824610D01*
X88839471Y-45824612D01*
X88815247Y-45842800D01*
X88664965Y-45955635D01*
X88510629Y-46117138D01*
X88507715Y-46121410D01*
X88507714Y-46121411D01*
X88495404Y-46139457D01*
X88384743Y-46301680D01*
X88373795Y-46325266D01*
X88299144Y-46486089D01*
X88290688Y-46504305D01*
X88230989Y-46719570D01*
X88207251Y-46941695D01*
X88220110Y-47164715D01*
X88221247Y-47169761D01*
X88221248Y-47169767D01*
X88234597Y-47229000D01*
X88269222Y-47382639D01*
X88353266Y-47589616D01*
X88469987Y-47780088D01*
X88616250Y-47948938D01*
X88788126Y-48091632D01*
X88858595Y-48132811D01*
X88861445Y-48134476D01*
X88910169Y-48186114D01*
X88923240Y-48255897D01*
X88896509Y-48321669D01*
X88856055Y-48355027D01*
X88843607Y-48361507D01*
X88839474Y-48364610D01*
X88839471Y-48364612D01*
X88815247Y-48382800D01*
X88664965Y-48495635D01*
X88510629Y-48657138D01*
X88384743Y-48841680D01*
X88290688Y-49044305D01*
X88230989Y-49259570D01*
X88207251Y-49481695D01*
X88207548Y-49486848D01*
X88207548Y-49486851D01*
X88217841Y-49665363D01*
X88220110Y-49704715D01*
X88221247Y-49709761D01*
X88221248Y-49709767D01*
X88237951Y-49783880D01*
X88269222Y-49922639D01*
X88353266Y-50129616D01*
X88469987Y-50320088D01*
X88616250Y-50488938D01*
X88788126Y-50631632D01*
X88858595Y-50672811D01*
X88861445Y-50674476D01*
X88910169Y-50726114D01*
X88923240Y-50795897D01*
X88896509Y-50861669D01*
X88856055Y-50895027D01*
X88843607Y-50901507D01*
X88839474Y-50904610D01*
X88839471Y-50904612D01*
X88815247Y-50922800D01*
X88664965Y-51035635D01*
X88510629Y-51197138D01*
X88384743Y-51381680D01*
X88290688Y-51584305D01*
X88230989Y-51799570D01*
X88207251Y-52021695D01*
X88207548Y-52026848D01*
X88207548Y-52026851D01*
X88215990Y-52173259D01*
X88220110Y-52244715D01*
X88221247Y-52249761D01*
X88221248Y-52249767D01*
X88226258Y-52271996D01*
X88269222Y-52462639D01*
X88353266Y-52669616D01*
X88469987Y-52860088D01*
X88616250Y-53028938D01*
X88788126Y-53171632D01*
X88858595Y-53212811D01*
X88861445Y-53214476D01*
X88910169Y-53266114D01*
X88923240Y-53335897D01*
X88896509Y-53401669D01*
X88856055Y-53435027D01*
X88843607Y-53441507D01*
X88839474Y-53444610D01*
X88839471Y-53444612D01*
X88815247Y-53462800D01*
X88664965Y-53575635D01*
X88510629Y-53737138D01*
X88384743Y-53921680D01*
X88290688Y-54124305D01*
X88230989Y-54339570D01*
X88207251Y-54561695D01*
X88207548Y-54566848D01*
X88207548Y-54566851D01*
X88213011Y-54661590D01*
X88220110Y-54784715D01*
X88221247Y-54789761D01*
X88221248Y-54789767D01*
X88241119Y-54877939D01*
X88269222Y-55002639D01*
X88353266Y-55209616D01*
X88469987Y-55400088D01*
X88616250Y-55568938D01*
X88788126Y-55711632D01*
X88858595Y-55752811D01*
X88861445Y-55754476D01*
X88910169Y-55806114D01*
X88923240Y-55875897D01*
X88896509Y-55941669D01*
X88856055Y-55975027D01*
X88843607Y-55981507D01*
X88839474Y-55984610D01*
X88839471Y-55984612D01*
X88815247Y-56002800D01*
X88664965Y-56115635D01*
X88510629Y-56277138D01*
X88384743Y-56461680D01*
X88290688Y-56664305D01*
X88230989Y-56879570D01*
X88207251Y-57101695D01*
X88207548Y-57106848D01*
X88207548Y-57106851D01*
X88213011Y-57201590D01*
X88220110Y-57324715D01*
X88221247Y-57329761D01*
X88221248Y-57329767D01*
X88241119Y-57417939D01*
X88269222Y-57542639D01*
X88353266Y-57749616D01*
X88469987Y-57940088D01*
X88616250Y-58108938D01*
X88788126Y-58251632D01*
X88858595Y-58292811D01*
X88861445Y-58294476D01*
X88910169Y-58346114D01*
X88923240Y-58415897D01*
X88896509Y-58481669D01*
X88856055Y-58515027D01*
X88843607Y-58521507D01*
X88839474Y-58524610D01*
X88839471Y-58524612D01*
X88815247Y-58542800D01*
X88664965Y-58655635D01*
X88510629Y-58817138D01*
X88384743Y-59001680D01*
X88290688Y-59204305D01*
X88230989Y-59419570D01*
X88207251Y-59641695D01*
X87538500Y-59641695D01*
X87538500Y-45104500D01*
X87558502Y-45036379D01*
X87612158Y-44989886D01*
X87664500Y-44978500D01*
X114335500Y-44978500D01*
X114403621Y-44998502D01*
G37*
G04 #@! TD.AperFunction*
M02*
